<svg width="20" height="20" viewBox="0 0 23 23" fill="none" xmlns="http://www.w3.org/2000/svg">
<path d="M17.4949 3.81403L15.6621 3.85532L15.6414 2.93889C15.6359 2.69583 15.5341 2.46491 15.3584 2.29692C15.1827 2.12892 14.9474 2.03762 14.7043 2.0431C14.4613 2.04857 14.2304 2.15038 14.0624 2.32612C13.8944 2.50185 13.8031 2.73713 13.8086 2.98018L13.8292 3.89661L8.3306 4.02049L8.30995 3.10406C8.30448 2.86101 8.20267 2.63008 8.02694 2.46209C7.8512 2.2941 7.61593 2.2028 7.37287 2.20827C7.12982 2.21375 6.8989 2.31555 6.7309 2.49129C6.56291 2.66703 6.47161 2.9023 6.47708 3.14535L6.49773 4.06179L4.66486 4.10308C3.9357 4.11951 3.24293 4.42492 2.73896 4.95213C2.23498 5.47934 1.96107 6.18516 1.9775 6.91432L2.22526 17.9115C2.24169 18.6407 2.5471 19.3335 3.07431 19.8374C3.60152 20.3414 4.30734 20.6153 5.0365 20.5989L17.8666 20.3098C18.5957 20.2934 19.2885 19.988 19.7925 19.4608C20.2965 18.9336 20.5704 18.2278 20.5539 17.4986L20.3062 6.50139C20.2898 5.77223 19.9843 5.07946 19.4571 4.57548C18.9299 4.0715 18.2241 3.7976 17.4949 3.81403V3.81403ZM18.7211 17.5399C18.7266 17.7829 18.6353 18.0182 18.4673 18.194C18.2993 18.3697 18.0683 18.4715 17.8253 18.477L4.99521 18.766C4.75216 18.7715 4.51688 18.6802 4.34115 18.5122C4.16541 18.3442 4.06361 18.1133 4.05813 17.8702L3.9136 11.4552L18.5765 11.1249L18.7211 17.5399ZM18.5353 9.29198L3.87231 9.62233L3.81037 6.87303C3.80489 6.62998 3.89619 6.3947 4.06419 6.21897C4.23218 6.04323 4.4631 5.94143 4.70616 5.93595L6.53903 5.89466L6.55967 6.81109C6.56515 7.05414 6.66695 7.28507 6.84269 7.45306C7.01843 7.62105 7.2537 7.71235 7.49675 7.70688C7.73981 7.7014 7.97073 7.5996 8.13872 7.42386C8.30671 7.24812 8.39802 7.01285 8.39254 6.7698L8.37189 5.85336L13.8705 5.72948L13.8911 6.64592C13.8966 6.88897 13.9984 7.11989 14.1742 7.28789C14.3499 7.45588 14.5852 7.54718 14.8282 7.5417C15.0713 7.53623 15.3022 7.43442 15.4702 7.25869C15.6382 7.08295 15.7295 6.84768 15.724 6.60462L15.7034 5.68819L17.5362 5.6469C17.7793 5.64142 18.0146 5.73272 18.1903 5.90071C18.366 6.06871 18.4678 6.29963 18.4733 6.54268L18.5353 9.29198Z" fill="black"/>
</svg>

