<svg width="47" height="47" viewBox="0 0 47 47" fill="none" xmlns="http://www.w3.org/2000/svg">
<path d="M23.5 41.125C18.6042 41.125 14.4427 39.4115 11.0156 35.9844C7.58854 32.5573 5.875 28.3958 5.875 23.5C5.875 18.6042 7.58854 14.4427 11.0156 11.0156C14.4427 7.58854 18.6042 5.875 23.5 5.875C23.9569 5.875 24.4061 5.89132 24.8473 5.92396C25.2886 5.9566 25.7208 6.00556 26.1438 6.07083C24.8056 7.01736 23.7363 8.24981 22.936 9.76817C22.1357 11.2865 21.7362 12.9263 21.7375 14.6875C21.7375 17.625 22.7656 20.1219 24.8219 22.1781C26.8781 24.2344 29.375 25.2625 32.3125 25.2625C34.1076 25.2625 35.7559 24.8623 37.2573 24.062C38.7587 23.2617 39.9826 22.1931 40.9292 20.8562C40.9944 21.2806 41.0434 21.7127 41.076 22.1527C41.1087 22.5926 41.125 23.0418 41.125 23.5C41.125 28.3958 39.4115 32.5573 35.9844 35.9844C32.5573 39.4115 28.3958 41.125 23.5 41.125Z" fill="black"/>
</svg>
