<svg width="249" height="235" viewBox="0 0 249 235" fill="none" xmlns="http://www.w3.org/2000/svg">
<g clip-path="url(#clip0_334_2)">
<path d="M248.59 0H0V235H248.59V0Z" fill="white"/>
<path fill-rule="evenodd" clip-rule="evenodd" d="M77.5096 149.01C47.4236 155.64 30.2099 146.383 25.8688 121.239C19.3573 83.5231 41.4157 43.8999 71.6816 40.1013C101.948 36.3031 114.671 47.1379 135.943 60.7441C157.216 74.3502 218.871 106.364 225.876 111.797C232.881 117.231 247.868 138.463 217.89 151.911C197.905 160.877 173.043 159.188 143.303 146.845C132.849 142.524 123.329 140.238 114.743 139.985C106.156 139.733 93.7454 142.741 77.5096 149.01Z" fill="#8B3DFF"/>
<path d="M111.804 101.127C114.508 102.795 115.596 104.954 115.066 107.602C112.534 111.191 111.267 114.299 111.267 116.925C111.267 119.552 111.077 122.968 110.695 127.175L89.6462 127.595L89.6018 127.57C89.039 127.58 88.4861 127.589 87.9425 127.595C83.2578 127.653 79.1014 128.24 78.9051 128.268C77.3712 128.493 74.6069 125.803 73.8399 124.892C72.6069 123.427 72.0212 121.694 71.7607 119.807C71.5147 118.028 71.8614 116.374 72.5419 114.788C73.3371 112.935 74.5817 111.331 76.1597 109.919C77.8899 108.419 79.7533 107.195 81.8421 106.292C81.9233 106.257 83.4225 105.56 83.4944 105.569C83.5425 105.575 85.9392 106.301 89.2727 107.773C93.0559 105.231 97.1476 102.541 101.549 99.703C105.682 98.9839 109.1 99.4583 111.804 101.127Z" fill="white"/>
<path fill-rule="evenodd" clip-rule="evenodd" d="M84.5667 144.433C87.8762 145.078 89.8716 143.85 90.5524 140.75C91.5739 136.1 85.4036 136.931 83.515 134.538C81.6267 132.145 85.8152 131.665 90.5524 133.102C95.2941 132.905 96.6627 133.162 96.9348 131.926C97.2073 130.69 94.7369 129.911 88.1387 130.115C81.5405 130.319 82.511 130.327 83.0131 135.539C83.3476 139.013 83.8656 141.978 84.5667 144.433Z" fill="white"/>
<path d="M166.824 154.364C164.28 152.375 162.489 151.123 161.528 150.323C159.235 148.412 156.886 146.562 154.572 144.673C154.097 144.284 153.635 143.866 153.243 143.404C152.752 142.823 152.864 142.423 153.64 142.14C154.252 141.917 154.92 141.814 155.574 141.715C157.521 141.421 159.473 141.146 161.425 140.882C162.283 140.765 163.148 140.697 164.009 140.596C164.162 140.578 164.309 140.505 164.459 140.458C164.385 140.344 164.328 140.214 164.233 140.117C163.479 139.348 162.719 138.585 161.96 137.821C161.893 137.753 161.823 137.69 161.754 137.624C161.862 137.6 161.968 137.567 162.077 137.551C164.077 137.273 166.076 136.992 168.076 136.72C169.389 136.541 170.702 136.356 172.02 136.21C173.368 136.06 174.721 135.939 176.074 135.833C177.284 135.739 178.498 135.699 179.708 135.604C180.484 135.543 181.251 135.398 182.026 135.339C182.996 135.265 183.97 135.253 184.94 135.19C186.152 135.112 187.362 134.997 188.574 134.92C189.593 134.856 190.615 134.838 191.634 134.773C192.456 134.721 193.274 134.606 194.096 134.559C194.899 134.513 195.706 134.518 196.511 134.501C198.595 134.454 200.68 134.398 202.764 134.365C204.04 134.346 205.327 134.271 206.588 134.399C207.245 134.466 207.997 134.788 208.466 135.225C209.651 136.33 210.701 137.566 211.802 138.752C212.477 139.478 213.153 140.204 213.817 140.94C215.218 142.491 216.608 144.05 218.009 145.6C218.444 146.081 218.91 146.538 219.347 147.018C219.472 147.155 219.546 147.335 219.643 147.496C219.505 147.389 219.094 147.057 219.231 147.174C232.75 158.801 175.818 161.273 166.824 154.364Z" fill="white"/>
<path d="M12.827 111.402C12.8731 110.205 12.9123 109.008 12.9614 107.81C12.9773 107.424 13.0236 107.038 13.0488 106.652C13.2586 103.443 13.6619 100.253 14.5308 97.1418C15.2241 94.6589 16.1396 92.2438 17.2523 89.8847C18.5216 87.1941 20.0647 84.6636 21.8427 82.2578C22.7485 81.0321 23.738 79.8508 24.7907 78.7335C26.0574 77.3893 27.3588 76.0582 28.7782 74.861C30.3988 73.4942 32.1404 72.2484 33.8892 71.0258C34.2786 70.7535 34.9671 70.6206 35.4318 70.7344C36.2475 70.934 36.3658 71.6045 35.7413 72.1165C34.3244 73.2793 33.6499 74.7638 33.5461 76.4875C33.4888 77.4397 33.5829 78.4001 33.5269 79.3523C33.3426 82.4919 34.3124 85.3815 35.7486 88.1382C37.1215 90.7736 39.1208 92.9441 41.9895 94.2118C43.6355 94.9394 45.3959 95.4501 47.1291 95.9884C48.6348 96.4559 50.1778 96.8169 51.6995 97.2396C53.1923 97.6547 54.6626 98.031 56.2447 97.5322C57.0561 97.2765 57.6649 97.9627 57.354 98.706C56.179 101.518 55.1777 104.435 53.1138 106.806C51.8755 108.228 50.4432 109.544 48.9106 110.685C46.661 112.361 44.0744 113.556 41.4904 114.734C38.9703 115.882 36.507 117.141 33.9757 118.266C31.1239 119.534 28.2341 120.727 25.3423 121.912C23.0093 122.869 20.6542 123.778 18.2966 124.68C17.7329 124.896 17.129 125.047 16.5282 125.141C15.9263 125.236 14.6038 124.343 14.3676 123.754C13.7681 122.257 13.3605 120.718 13.1922 119.123C13.0898 118.152 12.9519 117.184 12.7934 116.216C12.7568 116.147 12.7568 116.078 12.7934 115.975C12.8544 114.647 12.88 113.354 12.8969 112.061C12.8974 112.025 12.8056 111.988 12.7568 111.952C12.7568 111.792 12.7568 111.632 12.7568 111.437C12.7812 111.402 12.8269 111.403 12.827 111.402Z" fill="white"/>
<path fill-rule="evenodd" clip-rule="evenodd" d="M110.443 127.133L154.742 126.066H156.559C159.208 127.931 162.114 128.735 165.278 128.477C170.023 128.091 174.214 123.139 175.192 116.237C175.336 115.698 175.686 115.569 176.241 115.848C176.853 116.975 177.938 117.467 179.496 117.323C180.173 117.254 180.549 117.404 180.931 118.098C181.313 118.792 183.332 119.665 184.598 118.965C185.864 118.264 191.7 109.328 191.7 107.825C191.7 106.321 192.027 103.037 192.284 102.825C192.542 102.614 193.026 102.786 193.967 102.504C194.907 102.222 195.713 102.502 198.728 95.0196C201.743 87.5366 206.357 76.3502 206.848 68.5175C207.34 60.6845 201.487 63.4531 198.728 66.7215C195.968 69.9902 188.277 78.4063 181.158 82.9766C180.287 83.5917 179.576 83.8809 179.025 83.8442C178.694 81.8991 177.341 81.1743 174.966 81.6697C174.042 81.8267 173.286 81.1367 172.698 79.5998C171.175 71.6208 167.703 65.8473 162.282 62.2794C154.15 56.927 140.293 53.8683 136.959 65.059C134.736 72.5194 136.073 81.5832 140.968 92.2507L138.93 93.9182C130.91 96.5408 124.359 99.7782 119.275 103.631C111.651 109.409 111.505 115.046 111.1 119.695C110.83 122.795 110.611 125.274 110.443 127.133Z" fill="white"/>
<path d="M94.0509 94.9131C94.1186 94.3068 94.1494 93.6967 94.2236 93.0913C94.2276 93.0588 94.5531 92.9892 94.6469 93.0503C95.5186 93.6165 96.3811 94.1968 97.2259 94.7984C97.455 94.9616 97.4729 95.1236 97.5769 94.6969C97.7394 94.0301 98.743 93.8437 99.3442 94.3177C100.723 95.4047 101.418 96.8661 101.923 98.4553C102.361 99.834 102.187 101.235 102.23 102.628C102.257 103.522 103.143 104.196 104.072 104.232C104.76 104.259 105.483 104.544 106.101 104.866C107.597 105.646 108.559 106.877 109.032 108.427C109.541 110.097 109.067 111.583 108.043 112.971C107.112 114.233 106.264 115.554 104.913 116.479C104.166 116.991 103.304 117.416 102.719 118.062C102.091 118.756 101.37 119.209 100.514 119.521C98.4059 120.29 96.1026 119.293 95.0705 117.631C93.9803 115.439 90.0888 117.225 88.581 113.992C87.82 112.924 87.5236 112.029 87.6877 111.94C87.8882 111.831 87.6111 111.555 87.2565 111.202C85.7079 109.665 84.3324 107.999 83.3914 106.05C83.2429 105.742 83.0898 105.424 83.0248 105.096C82.9851 104.895 83.0444 104.607 83.1826 104.468C83.2698 104.38 83.6158 104.443 83.7908 104.533C84.0533 104.669 84.2612 104.896 84.5034 105.07C84.9164 105.366 85.1458 105.24 85.0338 104.777C84.7159 103.462 85.0083 102.214 85.4975 101.007C85.7613 100.356 86.1909 99.7625 86.5893 99.1694C86.6274 99.113 87.0106 99.1985 87.1773 99.3004C87.4869 99.4893 87.7547 99.7393 88.04 99.964C88.0593 99.6046 88.0652 99.244 88.1024 98.8861C88.1246 98.6734 88.1799 98.4606 88.2479 98.2563C88.5896 97.2321 88.7729 97.18 89.6774 97.8224C89.7987 97.9085 89.9439 97.9646 90.0781 98.0348C90.0964 97.9045 90.1206 97.7744 90.1322 97.6435C90.2319 96.5176 89.9936 95.4962 89.1232 94.6602C89.1126 94.6505 89.3019 94.3566 89.4103 94.3484C90.6645 94.2554 91.9187 94.2062 93.0659 94.8397C93.3002 94.9692 93.5342 95.0995 93.8047 95.2637C93.9137 95.17 94.0357 95.0469 94.0509 94.9131Z" fill="white"/>
<path fill-rule="evenodd" clip-rule="evenodd" d="M112.648 53.5029C108.945 56.4044 107.266 60.6049 107.61 66.1049C108.127 74.3543 118.279 80.2315 123.19 77.744C128.1 75.2564 133.523 71.6324 134.17 63.9184C134.445 71.2586 135.259 74.8312 124.79 80.1544C114.321 85.478 103.376 77.2179 101.793 73.8135C100.21 70.4088 96.3997 62.8932 104.134 54.1738C105.193 53.0207 108.031 52.797 112.648 53.5029Z" fill="white"/>
<path fill-rule="evenodd" clip-rule="evenodd" d="M200.883 150.025C201.779 149.932 202.605 149.858 203.424 149.743C205.284 149.482 207.141 149.195 209.001 148.93C210.108 148.773 211.232 148.696 212.323 148.474C213.088 148.318 213.782 148.419 214.487 148.638C214.601 148.674 214.688 148.785 214.787 148.862C214.668 148.925 214.554 149.029 214.429 149.044C212.793 149.239 211.153 149.402 209.52 149.613C207.878 149.825 206.244 150.094 204.604 150.315C203.46 150.47 202.31 150.58 201.165 150.724C200.568 150.8 199.978 150.921 199.381 150.996C198.536 151.103 197.686 151.174 196.841 151.281C195.85 151.407 194.863 151.564 193.873 151.693C193.076 151.798 192.276 151.874 191.479 151.976C190.464 152.107 189.452 152.257 188.438 152.391C187.689 152.49 186.939 152.58 186.19 152.67C185.401 152.765 184.608 152.84 183.822 152.955C183.346 153.025 182.908 153.022 182.767 152.504C182.638 152.032 182.893 151.662 183.379 151.561C184.045 151.421 184.729 151.345 185.409 151.284C186.216 151.212 187.028 151.181 187.838 151.14C188.835 151.089 189.835 151.063 190.831 150.995C191.89 150.923 192.947 150.808 194.006 150.723C195.251 150.623 196.499 150.55 197.743 150.437C198.39 150.378 199.03 150.254 199.674 150.165C200.052 150.113 200.431 150.071 200.883 150.025Z" fill="#E7EAEE"/>
<path fill-rule="evenodd" clip-rule="evenodd" d="M181.453 143.504C182.349 143.458 183.173 143.426 183.995 143.363C184.867 143.296 185.736 143.185 186.609 143.121C187.589 143.049 188.572 143.02 189.552 142.951C190.664 142.872 191.773 142.762 192.885 142.682C193.707 142.622 194.532 142.6 195.353 142.538C196.384 142.46 197.412 142.348 198.443 142.27C199.264 142.208 200.09 142.188 200.911 142.126C201.997 142.044 203.08 141.891 204.166 141.857C205.407 141.818 206.652 141.452 207.891 141.857C208.039 141.905 208.173 141.99 208.313 142.058C208.18 142.081 208.047 142.114 207.913 142.128C206.973 142.222 206.031 142.302 205.092 142.407C203.951 142.533 202.815 142.699 201.673 142.809C200.838 142.89 199.993 142.884 199.157 142.96C198.011 143.063 196.87 143.218 195.724 143.327C194.892 143.407 194.055 143.44 193.222 143.505C192.135 143.59 191.049 143.684 189.963 143.78C188.973 143.867 187.984 143.954 186.996 144.056C185.734 144.185 184.476 144.344 183.213 144.462C182.015 144.574 180.812 144.636 179.613 144.746C178.779 144.822 177.952 144.966 177.118 145.028C176.792 145.052 176.429 144.986 176.131 144.86C175.917 144.771 175.782 144.514 175.613 144.333C175.829 144.194 176.034 143.953 176.261 143.933C177.644 143.808 179.033 143.737 180.419 143.638C180.741 143.615 181.06 143.55 181.453 143.504Z" fill="#FFAB00"/>
<path fill-rule="evenodd" clip-rule="evenodd" d="M105.236 160.842C105.161 160.899 105.121 160.942 105.084 160.941C104.741 160.932 104.4 160.915 104.057 160.899C104.384 160.686 104.683 160.359 105.043 160.281C106.459 159.974 107.736 159.433 108.918 158.636C110.462 157.594 111.416 156.227 111.763 154.481C111.816 154.211 111.737 154.091 111.393 154.093C110.903 154.095 110.412 154.019 109.922 153.967C108.964 153.865 108.201 153.224 108.117 152.46C108.063 151.971 108.841 150.946 109.415 150.681C110.751 150.065 112.236 151.28 112.616 152.333C112.769 152.757 112.842 152.603 113.043 152.429C113.997 151.605 114.309 150.547 114.233 149.384C114.153 148.142 113.574 147.144 112.434 146.445C112.039 146.203 111.887 145.858 112.194 145.418C112.527 144.938 113.454 144.905 113.816 145.33C114.305 145.904 114.735 146.565 115.005 147.253C115.66 148.92 115.492 150.541 114.39 152.033C114.311 152.14 114.246 152.263 114.145 152.346C113.28 153.056 112.814 153.939 112.462 154.98C111.419 158.067 109.026 159.89 105.781 160.802C105.625 160.846 105.443 160.808 105.236 160.842ZM109.649 151.506C109.023 151.856 108.852 152.863 109.445 153.038C110.129 153.24 110.921 153.129 111.666 153.135C111.697 153.135 111.751 152.958 111.761 152.861C111.859 151.914 110.92 151.261 109.649 151.506Z" fill="black"/>
<path fill-rule="evenodd" clip-rule="evenodd" d="M192.644 146.522C194.711 146.336 196.704 146.136 198.7 145.97C200.114 145.852 201.534 145.792 202.949 145.682C203.822 145.614 204.692 145.506 205.563 145.408C206.764 145.273 207.966 145.021 209.166 145.034C209.85 145.041 210.645 145.251 211.111 145.906C211.147 145.957 211.188 146.005 211.226 146.054C211.136 146.071 211.039 146.117 210.956 146.1C209.393 145.787 207.854 146.09 206.302 146.225C205.22 146.319 204.12 146.207 203.032 146.254C201.939 146.3 200.85 146.433 199.759 146.521C198.554 146.618 197.347 146.693 196.143 146.806C195.497 146.866 194.859 147.002 194.213 147.074C193.254 147.182 192.29 147.251 191.33 147.36C190.234 147.484 189.136 147.609 188.046 147.781C186.751 147.984 185.467 148.255 184.173 148.465C182.891 148.672 181.606 148.894 180.313 149.002C179.724 149.051 179.1 148.878 178.511 148.734C178.058 148.624 178.161 148.323 178.449 148.125C178.682 147.965 178.968 147.827 179.247 147.785C180.089 147.661 180.939 147.586 181.786 147.496C182.681 147.401 183.576 147.295 184.473 147.221C185.75 147.114 187.031 147.045 188.308 146.934C189.083 146.867 189.854 146.742 190.629 146.664C191.274 146.6 191.923 146.568 192.644 146.522Z" fill="#E7EAEE"/>
<path fill-rule="evenodd" clip-rule="evenodd" d="M178.933 140.771C180.638 140.587 182.269 140.393 183.903 140.222C184.965 140.111 186.032 140.048 187.094 139.938C187.714 139.873 188.328 139.752 188.946 139.669C189.371 139.612 189.8 139.579 190.225 139.528C191.527 139.37 192.827 139.19 194.132 139.053C195.459 138.914 196.792 138.829 198.119 138.697C199.336 138.576 200.546 138.388 201.764 138.306C202.202 138.277 202.664 138.447 203.098 138.576C203.243 138.618 203.337 138.814 203.454 138.94C203.288 138.991 203.125 139.078 202.955 139.089C202.007 139.154 201.056 139.186 200.108 139.257C199.108 139.331 198.109 139.429 197.111 139.531C196.346 139.61 195.585 139.72 194.82 139.803C193.904 139.903 192.983 139.971 192.068 140.085C190.726 140.253 189.388 140.455 188.047 140.631C186.594 140.822 185.137 140.981 183.688 141.191C182.436 141.372 181.194 141.616 179.945 141.813C178.303 142.074 176.656 142.308 175.014 142.569C174.414 142.664 174.05 142.341 173.996 141.891C173.947 141.483 174.327 141.334 174.813 141.303C176.088 141.223 177.357 141.049 178.627 140.904C178.709 140.895 178.782 140.817 178.933 140.771Z" fill="#E7EAEE"/>
<path fill-rule="evenodd" clip-rule="evenodd" d="M197.985 155.232C196.394 155.42 194.875 155.603 193.358 155.797C192.712 155.88 192.07 156.038 191.424 156.046C191.214 156.049 190.797 155.641 190.83 155.493C190.896 155.192 191.169 154.742 191.419 154.701C192.482 154.527 193.567 154.483 194.644 154.384C195.616 154.295 196.586 154.193 197.557 154.104C198.634 154.006 199.712 153.911 200.789 153.822C201.996 153.723 203.203 153.626 204.411 153.541C205.239 153.483 206.069 153.46 206.896 153.394C207.869 153.317 208.837 153.199 209.81 153.119C210.587 153.055 211.37 153.04 212.147 152.97C212.949 152.898 213.747 152.785 214.547 152.694C214.644 152.683 214.75 152.67 214.839 152.696C215.149 152.786 215.452 152.893 215.758 152.993C215.489 153.081 215.225 153.215 214.948 153.249C213.311 153.453 211.669 153.627 210.03 153.823C208.939 153.953 207.853 154.117 206.761 154.24C205.76 154.353 204.753 154.419 203.751 154.532C203.224 154.591 202.707 154.738 202.179 154.794C201.057 154.911 199.93 154.989 198.805 155.094C198.554 155.117 198.307 155.184 197.985 155.232Z" fill="#FFAB00"/>
<path fill-rule="evenodd" clip-rule="evenodd" d="M76.1597 109.919C77.8899 108.419 79.7533 107.195 81.8421 106.292C81.9233 106.257 82.0062 106.172 82.0781 106.181C82.392 106.222 82.7019 106.289 83.0135 106.347C82.7881 106.492 82.5783 106.669 82.335 106.778C79.9181 107.861 77.6672 109.175 75.8359 111.057C74.056 112.886 72.7802 114.939 72.4988 117.502C72.24 119.858 72.5562 122.062 73.9658 124.049C74.7225 125.115 75.7441 125.911 76.9854 126.44C77.0841 126.482 77.1769 126.536 77.2724 126.584C77.1617 126.605 77.0513 126.631 76.9396 126.647C75.4057 126.872 74.6069 125.803 73.8399 124.892C72.6069 123.427 72.0212 121.694 71.7607 119.807C71.5147 118.028 71.8614 116.374 72.5419 114.788C73.3371 112.935 74.5817 111.331 76.1597 109.919Z" fill="#00160A"/>
<path fill-rule="evenodd" clip-rule="evenodd" d="M172.133 140.358C171.873 139.816 172.25 139.215 172.85 139.221C173.874 139.23 174.898 139.295 175.922 139.343C176.705 139.381 177.488 139.43 178.271 139.473C178.365 139.478 178.484 139.451 178.55 139.492C178.767 139.631 178.966 139.795 179.172 139.949C178.974 140.041 178.781 140.199 178.575 140.214C177.94 140.258 177.295 140.302 176.665 140.248C175.548 140.152 174.492 140.389 173.461 140.688C172.9 140.85 172.545 140.681 172.133 140.358Z" fill="#E7EAEE"/>
<path fill-rule="evenodd" clip-rule="evenodd" d="M24.2022 95.6967C24.0562 96.5349 23.8945 97.3019 23.7697 98.0743C23.6907 98.564 23.673 99.0619 23.6166 99.5551C23.5245 100.36 23.3626 101.162 23.3379 101.968C23.2781 103.92 23.2969 105.873 23.2528 107.826C23.2103 109.709 23.5942 111.531 24.0585 113.345C24.1487 113.697 24.176 114.113 24.3971 114.375C24.7364 114.779 24.4214 114.974 24.1832 115.036C23.9556 115.095 23.5116 114.99 23.4204 114.828C23.1703 114.383 23.001 113.881 22.8984 113.384C22.6388 112.124 22.324 110.862 22.2326 109.588C22.1091 107.863 22.1947 106.127 22.1519 104.396C22.1001 102.299 22.427 100.239 22.7318 98.1717C23.2349 94.7586 23.9543 91.3937 25.0952 88.1181C25.2329 87.7227 25.5422 87.3407 25.8714 87.0543C26.2736 86.7047 26.8932 87.0243 26.9818 87.5522C27.0867 88.1767 26.7856 88.6548 26.4226 89.127C25.3296 90.5486 24.7832 92.1695 24.4945 93.8825C24.3964 94.464 24.2996 95.0459 24.2022 95.6967Z" fill="#E7EAEE"/>
<path fill-rule="evenodd" clip-rule="evenodd" d="M31.5709 110.58C31.5194 111.008 32.3353 111.523 31.4257 111.685C31.1797 111.728 30.6415 111.264 30.5283 110.949C30.1855 109.994 29.8537 109.009 29.7615 108.018C29.6343 106.648 29.7296 105.262 29.7296 103.884C29.7296 103.724 29.7296 103.564 29.7296 103.404C29.7296 101.233 29.7401 99.0622 29.7226 96.8918C29.7179 96.3162 29.5756 95.7399 29.5933 95.1665C29.6064 94.7448 29.699 94.2923 29.9043 93.9185C30.0511 93.6516 30.4302 93.3558 30.7308 93.3326C30.9374 93.3166 31.3518 93.728 31.3854 93.979C31.4736 94.637 31.4381 95.3138 31.3861 95.9787C31.3457 96.4954 31.1538 97.003 31.1209 97.519C31.0385 98.8087 31.0026 100.101 30.9586 101.392C30.9016 103.064 30.7404 104.742 30.8393 106.407C30.9209 107.783 31.3152 109.144 31.5709 110.58Z" fill="#FFAB00"/>
<path fill-rule="evenodd" clip-rule="evenodd" d="M38.5332 107.795C37.1511 105.774 36.1206 103.641 35.4759 101.351C35.346 100.889 35.459 100.303 35.6423 99.8433C35.7301 99.6224 36.3417 99.3743 36.5396 99.4727C36.808 99.6065 37.0218 100.049 37.0589 100.379C37.2018 101.657 37.2939 102.922 37.7397 104.165C38.2813 105.675 39.2104 106.936 40.11 108.231C40.2972 108.501 40.8574 108.767 40.4623 109.109C40.0685 109.45 39.6685 109.055 39.3718 108.742C39.0927 108.448 38.8355 108.134 38.5332 107.795Z" fill="#E7EAEE"/>
<path fill-rule="evenodd" clip-rule="evenodd" d="M44.8775 103.466C44.0462 102.702 43.2139 102.005 42.4695 101.227C42.0823 100.823 42.1549 100.31 42.6203 99.9239C43.0843 99.5394 43.3747 99.8985 43.6418 100.191C44.6531 101.298 45.6504 102.418 46.6484 103.537C46.7048 103.6 46.7648 103.76 46.7505 103.769C46.5874 103.876 46.3763 104.073 46.2424 104.034C45.7853 103.902 45.3541 103.685 44.8775 103.466Z" fill="#FFAB00"/>
<path fill-rule="evenodd" clip-rule="evenodd" d="M88.6685 196.421C90.5482 196.865 92.3626 197.286 94.1534 197.777C94.4819 197.867 94.7152 198.242 94.9927 198.486C94.6035 198.509 94.1899 198.622 93.8296 198.541C91.9691 198.119 90.1064 197.697 88.2764 197.181C86.481 196.675 84.7239 196.056 82.951 195.484C82.8665 195.457 82.7962 195.395 82.7153 195.357C82.2811 195.152 81.8187 194.943 82.1608 194.393C82.476 193.885 82.9666 193.897 83.4525 194.157C84.1644 194.537 84.8204 195.018 85.5622 195.337C86.5416 195.758 87.581 196.065 88.6685 196.421Z" fill="#FFAB00"/>
<path fill-rule="evenodd" clip-rule="evenodd" d="M91.1257 191.188C91.8897 191.605 92.6225 191.976 93.3385 192.375C93.4906 192.46 93.5808 192.647 93.6997 192.787C93.4462 192.882 93.1373 193.119 92.9477 193.051C91.4283 192.503 89.9268 191.908 88.4293 191.306C87.6063 190.975 86.7929 190.62 85.9912 190.245C85.5424 190.035 85.0309 189.815 85.4194 189.166C85.662 188.76 86.2371 188.66 86.7724 188.936C88.2092 189.678 89.6497 190.414 91.1257 191.188Z" fill="#E7EAEE"/>
<path fill-rule="evenodd" clip-rule="evenodd" d="M86.9009 183.488C86.871 182.491 87.5472 182.07 88.4252 182.562C89.9181 183.399 91.3728 184.298 92.8312 185.19C93.2661 185.455 93.6771 185.763 94.0642 186.089C94.2091 186.211 94.2551 186.438 94.3463 186.618C94.0937 186.613 93.806 186.682 93.5939 186.592C92.3453 186.059 91.1096 185.497 89.8783 184.928C88.8919 184.472 87.9174 183.992 86.9009 183.488Z" fill="#FFAB00"/>
<path fill-rule="evenodd" clip-rule="evenodd" d="M91.9611 176.543C93.2438 176.559 93.9239 177.366 94.6564 178.079C94.8669 178.285 95.0373 178.541 95.1636 178.8C95.2889 179.057 95.4582 179.407 95.1102 179.581C94.9534 179.659 94.6067 179.504 94.3973 179.381C93.7957 179.026 93.2289 178.622 92.6299 178.263C92.4148 178.134 92.1142 178.122 91.9114 177.983C91.6157 177.78 91.3731 177.51 91.1079 177.268C91.3684 177.027 91.6293 176.785 91.9611 176.543Z" fill="#E7EAEE"/>
<path fill-rule="evenodd" clip-rule="evenodd" d="M96.0631 156.847C97.1214 158.922 97.9696 161.064 98.2526 163.373C98.4044 164.611 98.5781 165.848 98.6819 167.09C98.776 168.218 98.8486 169.353 98.8218 170.483C98.7899 171.834 98.6358 173.183 98.548 174.534C98.4866 175.473 98.477 176.415 98.3929 177.353C98.2742 178.67 98.0846 179.983 97.9696 181.301C97.8824 182.3 97.8244 183.303 97.8267 184.304C97.8294 185.443 97.9159 186.582 97.9613 187.721C98.013 189.021 97.8967 190.35 98.1459 191.615C98.5188 193.507 99.0299 195.393 99.6935 197.213C100.669 199.889 102.357 202.215 104.219 204.404C105.369 205.757 106.696 206.957 108.566 207.423C108.59 207.429 108.611 207.642 108.563 207.682C107.873 208.252 107.016 208.02 106.288 207.928C104.662 207.723 103.054 207.36 101.457 206.991C97.3982 206.053 93.3452 205.092 89.2988 204.107C87.3276 203.627 85.3777 203.068 83.4145 202.558C83.1258 202.483 82.7533 202.358 82.5265 202.463C81.3817 202.994 80.4974 202.411 79.6562 201.872C77.8123 200.69 76.7662 198.974 76.224 196.958C75.4755 194.176 76.0771 191.522 77.163 188.948C77.8789 187.252 78.7327 185.605 79.5902 183.966C80.4603 182.302 81.5527 180.765 82.8769 179.39C83.3243 178.926 83.8683 178.545 84.3542 178.113C85.021 177.52 85.0559 176.706 85.1109 175.93C85.1745 175.032 85.0307 174.112 85.1669 173.228C85.6306 170.223 87.033 167.525 88.5079 164.884C89.2434 163.567 90.1775 162.315 91.2149 161.194C91.9842 160.362 92.9961 159.689 94.188 159.37C94.5533 159.272 94.6567 159.193 94.3843 158.762C93.9898 158.138 93.435 157.413 94.1324 156.579C94.967 155.789 95.5692 155.878 96.0631 156.847ZM97.1721 163.113C97.1436 163.14 97.0959 163.163 97.0896 163.194C97.0359 163.458 97.0293 163.737 96.9338 163.985C96.5122 165.085 96.186 166.237 95.6023 167.256C94.4317 169.299 92.9375 171.139 91.1725 172.767C89.6336 174.187 88.0724 175.586 86.5464 177.018C85.6763 177.835 84.7811 178.644 84.0317 179.555C82.8298 181.017 81.5667 182.473 80.6465 184.093C79.5776 185.975 78.7765 188.005 78.0025 190.02C77.5166 191.285 77.1872 192.627 76.9833 193.961C76.7649 195.395 77.0572 196.826 77.743 198.133C78.2488 199.096 78.9608 199.895 80.1272 200.242C81.5222 200.657 82.8918 201.148 84.2832 201.574C87.3714 202.519 90.4489 203.5 93.5643 204.357C95.897 204.999 98.2758 205.494 100.646 206.006C101.988 206.296 103.354 206.492 104.712 206.713C104.819 206.73 104.952 206.608 105.073 206.551C105.012 206.47 104.959 206.382 104.889 206.308C104.393 205.789 103.84 205.309 103.405 204.747C102.207 203.201 100.894 201.707 99.9245 200.037C98.2039 197.074 97.0508 193.897 96.7923 190.48C96.7124 189.428 96.6004 188.378 96.5029 187.189C96.5029 185.87 96.4466 184.548 96.5201 183.232C96.5831 182.104 96.7979 180.984 96.9398 179.86C97.0422 179.048 97.0767 178.223 97.245 177.424C97.5672 175.895 97.4154 175.279 96.0409 174.407C95.4015 174.002 94.5984 173.611 94.5676 172.763C94.5543 172.404 94.8586 171.977 95.1456 171.7C95.2325 171.616 95.8456 171.85 96.0455 172.075C96.4979 172.585 96.84 173.182 97.2361 173.738C97.2997 173.828 97.4094 173.888 97.4979 173.962C97.5553 173.87 97.6544 173.781 97.6633 173.684C97.725 173.037 97.8095 172.388 97.8055 171.741C97.8002 170.908 97.7127 170.077 97.6716 169.244C97.6169 168.129 97.5781 167.013 97.5225 165.897C97.483 165.103 97.4356 164.309 97.3703 163.516C97.3587 163.378 97.2411 163.247 97.1721 163.113ZM94.1688 160.271C92.6054 160.781 91.5298 161.866 90.6836 163.122C88.9948 165.627 87.6505 168.307 86.7725 171.163C86.3634 172.493 86.1894 173.892 86.737 175.259C86.7691 175.339 86.9942 175.439 87.0104 175.423C89.1042 173.331 91.2073 171.247 93.264 169.124C95.3627 166.956 96.1555 164.37 95.7634 161.473C95.5854 160.158 95.487 160.125 94.1688 160.271ZM206.588 134.399C207.246 134.466 207.998 134.788 208.467 135.225C209.651 136.331 210.701 137.566 211.802 138.752C212.478 139.478 213.154 140.205 213.818 140.94C215.219 142.491 216.608 144.05 218.01 145.6C218.445 146.081 218.911 146.538 219.348 147.018C219.473 147.155 219.546 147.335 219.644 147.496C219.506 147.389 219.357 147.293 219.232 147.174C215.92 144.04 212.622 140.893 209.296 137.773C208.207 136.752 206.97 135.887 205.476 135.484C203.902 135.06 202.297 134.915 200.647 135.171C199.817 135.3 198.944 135.167 198.092 135.199C196.197 135.271 194.303 135.389 192.406 135.455C191.296 135.493 190.181 135.432 189.071 135.481C187.883 135.533 186.699 135.66 185.513 135.756C184.423 135.844 183.332 135.927 182.243 136.028C181.38 136.108 180.521 136.22 179.658 136.3C178.561 136.403 177.46 136.464 176.366 136.587C175.439 136.691 174.521 136.863 173.597 136.994C172.569 137.14 171.539 137.267 170.511 137.413C168.929 137.639 167.349 137.871 165.77 138.116C165.712 138.125 165.615 138.341 165.648 138.386C165.94 138.785 166.241 139.18 166.571 139.55C168.22 141.4 169.89 143.233 171.529 145.091C173.387 147.197 175.186 149.351 177.076 151.431C178.403 152.89 179.71 154.396 181.583 155.296C181.643 155.325 181.696 155.366 181.752 155.401C181.684 155.412 181.608 155.447 181.548 155.43C180.405 155.113 179.212 154.983 178.377 153.96C176.835 152.073 175.175 150.273 173.589 148.418C171.627 146.122 169.762 143.747 167.43 141.76C167.241 141.598 167.042 141.43 166.817 141.323C166.318 141.088 165.859 141.009 165.469 141.567C164.694 142.679 163.848 143.746 163.074 144.858C162.557 145.6 162.725 145.964 163.659 146.564C166.119 148.146 168.79 149.272 171.649 150.04C172.839 150.36 174.019 150.765 174.865 151.712C174.925 151.779 174.989 151.843 175.052 151.908C174.951 151.899 174.843 151.909 174.751 151.878C170.902 150.591 167.048 149.316 163.212 147.995C162.581 147.778 162.001 147.394 161.45 147.018C161.099 146.777 161.116 146.417 161.345 146.031C162.134 144.703 162.887 143.358 163.647 142.015C163.699 141.924 163.721 141.713 163.703 141.707C163.509 141.645 163.296 141.553 163.105 141.581C162.309 141.695 161.506 141.803 160.729 141.995C158.972 142.429 157.229 142.908 155.484 143.381C155.382 143.409 155.316 143.553 155.232 143.643C155.674 143.969 156.115 144.295 156.593 144.655C158.442 146.176 160.256 147.661 162.066 149.149C163.035 149.947 163.998 150.751 164.965 151.552C165.004 151.585 165.046 151.616 165.086 151.648C164.995 151.662 164.896 151.706 164.813 151.686C163.64 151.406 162.49 151.123 161.529 150.323C159.236 148.413 156.887 146.562 154.573 144.673C154.097 144.284 153.635 143.866 153.244 143.404C152.753 142.823 152.865 142.423 153.64 142.14C154.252 141.917 154.921 141.814 155.574 141.715C157.522 141.421 159.473 141.146 161.426 140.882C162.284 140.765 163.149 140.697 164.009 140.596C164.163 140.578 164.31 140.506 164.46 140.458C164.385 140.344 164.328 140.214 164.234 140.117C163.48 139.348 162.72 138.585 161.961 137.821C161.894 137.753 161.823 137.69 161.754 137.624C161.862 137.6 161.969 137.567 162.078 137.551C164.077 137.273 166.076 136.992 168.076 136.72C169.39 136.541 170.703 136.356 172.02 136.21C173.369 136.06 174.721 135.939 176.074 135.833C177.284 135.739 178.499 135.699 179.709 135.604C180.484 135.543 181.252 135.398 182.027 135.339C182.996 135.265 183.971 135.253 184.941 135.19C186.153 135.112 187.362 134.997 188.575 134.92C189.594 134.856 190.616 134.838 191.635 134.773C192.457 134.721 193.275 134.606 194.097 134.559C194.9 134.513 195.707 134.518 196.512 134.501C198.596 134.454 200.68 134.398 202.765 134.365C204.041 134.346 205.327 134.271 206.588 134.399ZM85.3416 129.748C85.8977 129.803 86.4662 129.731 87.0263 129.763C88.3923 129.839 89.7555 129.958 91.1214 130.03C92.3929 130.098 93.6703 130.084 94.9381 130.186C96.2361 130.29 97.0134 130.802 96.9302 132.273C96.8549 133.599 96.8294 134.928 96.7797 136.256C96.7333 137.491 96.6822 138.727 96.6368 139.962C96.6302 140.145 96.6371 140.329 96.6494 140.511C96.6603 140.669 96.6879 140.827 96.7081 140.984C96.66 140.985 96.5755 140.998 96.5692 140.983C96.5006 140.812 96.4118 140.641 96.3899 140.463C96.314 139.839 96.2646 139.213 96.2013 138.588C96.1068 137.656 96.011 136.724 95.9116 135.792C95.8615 135.321 95.8042 134.851 95.7455 134.38C95.7091 134.088 95.6739 133.795 95.6189 133.506C95.5957 133.382 95.5238 133.268 95.4741 133.149C95.3717 133.204 95.249 133.239 95.1705 133.316C94.2122 134.258 93.5573 135.355 93.306 136.662C93.2785 136.805 93.1871 136.936 93.1254 137.074C93.0744 136.952 93.0323 136.827 92.9709 136.71C91.8516 134.593 90.0886 133.187 87.681 132.706C86.5805 132.486 85.3929 132.673 84.2448 132.666C83.6667 132.663 83.5709 132.977 83.6213 133.443C83.7307 134.459 83.8132 135.476 83.9157 136.492C84.0555 137.874 84.2057 139.256 84.3475 140.638C84.4473 141.608 84.5285 142.58 84.6452 143.548C84.678 143.82 84.8093 144.081 84.8915 144.348C84.9299 144.473 84.9591 144.601 84.9925 144.727C84.846 144.631 84.6071 144.56 84.568 144.433C84.3698 143.792 84.2242 143.137 84.0588 142.486C83.8669 141.732 83.6737 140.977 83.4808 140.153C83.2882 138.867 83.0231 137.657 82.92 136.433C82.7748 134.704 82.4951 132.956 82.9024 131.235C83.1328 130.26 84.3094 129.646 85.3416 129.748ZM81.4215 133.145C81.7221 133.245 81.9492 133.549 82.2083 133.763C82.0294 133.96 81.8805 134.196 81.6654 134.344C81.1948 134.669 80.6333 134.89 80.2107 135.26C79.2067 136.139 79.6817 137.886 80.7238 138.348C81.2044 138.56 81.6843 138.777 82.1484 139.02C82.3164 139.108 82.4374 139.279 82.5796 139.411C82.4066 139.415 82.2332 139.42 82.0599 139.424C80.9478 139.451 80.1136 138.966 79.4904 138.12C78.5518 136.846 79.0499 135.601 80.1553 134.604C80.2594 134.511 80.3539 134.407 80.4603 134.315C80.5975 134.198 80.7423 134.088 80.8839 133.975C80.6088 133.942 80.3055 133.82 80.0635 133.891C79.1613 134.156 78.6489 134.869 78.3751 135.649C77.4341 138.327 79.6581 140.497 82.1818 140.218C82.4483 140.188 82.7364 140.336 83.0141 140.402C82.9475 140.441 82.8855 140.496 82.8129 140.519C80.6999 141.17 78.8998 140.432 77.8792 138.502C77.809 138.369 77.7125 138.248 77.628 138.053C77.1398 135.687 78.1829 133.923 80.4712 133.217C80.7712 133.125 81.1451 133.053 81.4215 133.145ZM83.9942 130.459C83.5464 130.557 83.389 131.014 83.6263 131.42C83.9505 131.975 84.4506 131.996 85.0539 131.94C86.0055 131.851 86.9746 131.781 87.9229 131.858C89.1254 131.955 90.3087 132.266 91.5109 132.373C92.5122 132.462 93.5291 132.391 94.6116 132.322C95.0346 132.299 95.4572 132.269 95.8804 132.254C96.3889 132.237 96.6796 131.852 96.4058 131.44C96.2374 131.187 95.8907 130.924 95.5954 130.889C94.3594 130.743 93.1138 130.657 91.8695 130.597C90.9895 130.555 90.1039 130.623 89.2239 130.581C87.8914 130.519 86.5626 130.387 85.2305 130.322C84.8209 130.302 84.3976 130.372 83.9942 130.459ZM149.935 125.456C151.407 125.484 152.875 125.709 154.344 125.853C154.453 125.864 154.572 125.896 154.663 125.953C154.855 126.071 155.031 126.212 155.214 126.344C154.981 126.366 154.748 126.393 154.514 126.408C153.049 126.503 151.584 126.604 150.118 126.68C149.874 126.693 149.622 126.545 149.378 126.557C147.863 126.634 146.35 126.747 144.836 126.819C144.495 126.835 144.145 126.681 143.804 126.698C142.338 126.769 140.874 126.884 139.407 126.96C139.14 126.973 138.863 126.824 138.595 126.837C137.08 126.913 135.567 127.026 134.053 127.099C133.736 127.114 133.41 126.962 133.094 126.977C131.628 127.05 130.164 127.165 128.697 127.239C128.405 127.253 128.104 127.102 127.812 127.117C126.297 127.191 124.784 127.303 123.269 127.379C123.001 127.392 122.724 127.243 122.456 127.256C120.942 127.332 119.429 127.442 117.914 127.519C117.67 127.531 117.418 127.383 117.174 127.396C115.66 127.472 114.147 127.586 112.632 127.658C112.291 127.674 111.941 127.52 111.601 127.536C110.134 127.608 108.67 127.723 107.204 127.798C106.936 127.812 106.659 127.662 106.391 127.675C104.876 127.751 103.364 127.863 101.849 127.938C101.557 127.952 101.255 127.801 100.963 127.816C99.4724 127.889 97.9842 128.003 96.4936 128.077C96.2013 128.092 95.9003 127.941 95.608 127.955C94.0932 128.03 92.5805 128.143 91.0658 128.217C90.7734 128.231 90.4721 128.08 90.1801 128.095C88.7138 128.169 87.2494 128.282 85.7834 128.357C85.5156 128.371 85.2385 128.221 84.9703 128.234C83.4556 128.31 81.9429 128.419 80.4281 128.497C80.2087 128.509 79.98 128.361 79.7612 128.374C78.512 128.446 77.2651 128.557 76.0158 128.631C75.1656 128.681 74.3098 128.659 73.4616 128.729C72.2502 128.828 71.0361 128.938 69.8369 129.126C68.8992 129.273 67.99 129.593 67.0517 129.733C66.7872 129.773 66.3974 129.502 66.1988 129.269C66.115 129.17 66.3039 128.716 66.4925 128.57C67.2645 127.969 68.1939 127.868 69.2283 127.946C69.872 127.9 70.4431 127.856 71.0139 127.806C72.0507 127.715 73.0851 127.592 74.1239 127.534C75.4944 127.459 76.868 127.391 78.2402 127.397C80.5435 127.408 82.8467 127.511 85.15 127.517C86.8619 127.522 88.5746 127.437 90.2865 127.387C91.7317 127.344 93.1768 127.293 94.6219 127.248C96.1396 127.2 97.6577 127.155 99.1757 127.108C100.621 127.062 102.067 127.029 103.511 126.964C105.228 126.887 106.943 126.771 108.661 126.698C109.026 126.682 109.399 126.833 109.765 126.82C111.943 126.744 114.121 126.64 116.299 126.551C116.695 126.535 117.093 126.57 117.489 126.545C118.784 126.462 120.079 126.35 121.375 126.279C121.667 126.262 121.969 126.416 122.261 126.4C123.582 126.328 124.9 126.213 126.22 126.138C126.464 126.124 126.717 126.275 126.96 126.261C128.257 126.186 129.551 126.071 130.847 125.999C131.139 125.983 131.441 126.136 131.733 126.12C133.054 126.048 134.371 125.931 135.692 125.859C135.984 125.843 136.286 125.997 136.578 125.981C137.85 125.909 139.119 125.79 140.392 125.72C140.708 125.703 141.034 125.858 141.35 125.841C142.623 125.77 143.892 125.655 145.164 125.579C145.383 125.566 145.612 125.715 145.831 125.702C147.2 125.625 148.57 125.431 149.935 125.456ZM149.911 56.9699C153.119 57.2504 156.142 58.2223 158.924 59.7235C160.559 60.6062 162.08 61.6972 163.569 62.7942C165.88 64.4959 167.694 66.6281 169.261 68.9531C170.43 70.6871 171.452 72.4978 172.058 74.4696C172.61 76.2619 173.103 78.0842 173.411 79.9247C173.634 81.2539 173.502 82.6348 173.543 83.9921C173.586 85.3793 173.432 86.7476 173.275 88.1275C172.894 91.4961 172.225 94.7959 171.224 98.0511C170.79 99.4633 171.103 100.925 171.388 102.355C171.638 103.608 172.097 104.778 172.803 105.867C172.888 105.998 172.881 106.182 172.917 106.342C172.736 106.331 172.546 106.351 172.376 106.304C171.153 105.966 170.756 105.023 170.464 103.99C170.255 103.249 170.066 102.493 169.746 101.793C169.381 100.992 169.239 101.068 168.437 101.445C166.785 102.223 165.106 102.961 163.392 103.606C161.07 104.479 158.628 104.931 156.158 105.297C154.817 105.496 153.463 105.882 152.453 106.807C151.983 107.237 151.62 107.848 151.42 108.44C151.169 109.182 151.112 109.963 151.578 110.73C151.855 111.185 152.145 111.262 152.605 111.143C154.836 110.563 157.052 109.919 159.304 109.424C161.034 109.044 162.818 108.885 164.565 108.568C166.378 108.239 168.204 108.159 170.041 108.166C170.18 108.167 170.317 108.201 170.456 108.22C170.331 108.247 170.206 108.277 170.08 108.301C168.373 108.631 166.664 108.955 164.958 109.292C163.412 109.597 161.87 109.922 160.324 110.228C158.596 110.57 156.862 110.886 155.138 111.245C154.297 111.42 153.456 111.622 152.645 111.892C151.513 112.27 151.158 112.933 151.095 114.146C151.026 115.511 151.275 116.789 151.622 118.056C152.246 120.331 153.315 122.404 155.044 124.158C156.497 125.633 158.135 126.827 160.218 127.335C161.341 127.61 162.515 127.782 163.674 127.824C165.118 127.876 166.523 127.62 167.892 127.076C169.609 126.394 170.935 125.322 171.918 123.888C172.999 122.312 173.71 120.57 173.966 118.703C174.179 117.154 174.401 115.59 174.388 114.034C174.37 111.79 173.878 109.6 172.96 107.511C172.903 107.381 172.68 107.198 173.118 107.186C174.276 107.155 175.424 108.152 175.44 109.289C175.454 110.33 175.49 111.372 175.432 112.41C175.327 114.29 177.451 116.748 179.202 117.172C179.585 117.265 179.619 117.137 179.526 116.95C178.459 114.815 179.114 112.728 179.748 110.665C180.972 106.683 182.65 102.856 184.33 99.0287C185.973 95.2865 187.551 91.5184 189.146 87.7575C190.5 84.5674 191.831 81.3692 193.183 78.1789C194.485 75.1069 195.802 72.04 197.113 68.9716C197.155 68.8732 197.224 68.7851 197.265 68.6864C197.343 68.4997 197.41 68.3089 197.481 68.1199C197.277 68.25 197.025 68.3436 196.877 68.5163C195.124 70.5595 193.493 72.7049 191.618 74.6419C189.614 76.7118 187.438 78.6438 185.233 80.5295C183.659 81.8765 181.916 83.0487 180.244 84.2948C180.088 84.4114 179.907 84.4991 179.738 84.6003C179.754 84.4139 179.79 84.2268 179.783 84.0413C179.732 82.6169 181.131 82.4891 181.973 81.8671C183.24 80.9306 184.557 80.0504 185.782 79.0678C188.064 77.237 189.881 75.0023 191.732 72.8011C192.232 72.2061 192.768 71.6374 193.324 71.022C194.946 69.357 196.473 67.6706 198.136 66.1127C199.594 64.7469 201.215 63.5525 203.262 62.9903C204.175 62.7397 205.834 63.3149 206.448 64.2246C207.089 65.174 207.344 66.2145 207.341 67.3463C207.334 69.6954 206.828 71.9711 206.303 74.2459C205.73 76.7281 205.174 79.2147 204.535 81.6822C204.161 83.1298 203.721 84.5718 203.169 85.9671C201.857 89.2859 200.525 92.6003 199.075 95.8668C198.25 97.7255 197.229 99.5144 196.191 101.28C195.616 102.259 194.766 103.005 193.398 102.946C192.838 102.922 192.478 103.538 192.401 104.29C192.289 105.383 192.194 106.487 191.955 107.559C191.472 109.73 190.442 111.703 189.207 113.573C188.274 114.986 187.237 116.338 186.274 117.734C185.607 118.701 184.724 119.481 183.515 119.541C182.757 119.579 181.968 119.125 181.199 118.876C181.074 118.835 180.964 118.725 180.873 118.626C180.495 118.218 180.206 117.616 179.735 117.444C179.296 117.282 178.656 117.689 178.127 117.638C177.222 117.553 176.466 117.109 175.912 116.395C175.805 116.255 175.682 115.931 175.564 116.464C175.246 117.91 174.842 119.341 174.412 120.761C173.627 123.35 172.174 125.576 169.954 127.27C168.578 128.32 166.992 129.016 165.134 129.112C163.25 129.21 161.561 128.728 159.875 128.02C157.489 127.017 155.392 125.651 153.433 124.03C150.623 121.704 148.492 118.918 147.029 115.72C146.211 113.931 145.731 111.999 145.177 110.111C144.619 108.208 143.916 106.383 142.761 104.715C141.715 103.203 140.951 101.55 140.662 99.7606C140.566 99.164 140.78 98.5004 140.952 97.8925C141.295 96.6828 141.484 95.4614 141.195 94.2362C141.05 93.6259 140.655 93.0719 140.426 92.4747C139.508 90.0783 138.542 87.6951 137.729 85.2671C137.168 83.5929 136.779 81.8621 136.406 80.1388C136.167 79.0355 136.093 77.9003 135.951 76.7786C135.848 75.9601 135.721 75.143 135.665 74.3214C135.585 73.1411 135.602 71.9542 135.501 70.776C135.37 69.2567 135.608 67.7518 136.004 66.3236C136.391 64.9267 137.146 63.6023 137.87 62.3107C138.709 60.8145 139.858 59.5299 141.412 58.6203C142.8 57.8078 144.281 57.2043 145.927 57.0903C147.253 56.9985 148.598 56.855 149.911 56.9699ZM139.35 93.6381C139.258 93.7816 139.202 93.9884 139.067 94.0586C138.278 94.4709 137.489 94.8899 136.666 95.2339C135.269 95.818 133.848 96.3478 132.364 96.9005C130.044 97.8769 127.752 98.7696 125.564 99.8531C123.386 100.932 121.36 102.257 119.469 103.772C116.701 105.991 114.468 108.594 113.024 111.737C112.435 113.021 112.031 114.428 111.834 115.816C111.574 117.653 111.606 119.526 111.5 121.383C111.412 122.942 111.315 124.5 111.207 126.057C111.166 126.645 110.683 126.209 110.429 126.315C110.409 126.324 110.199 126.087 110.211 125.979C110.333 124.943 110.553 123.913 110.61 122.875C110.681 121.567 110.616 120.252 110.629 118.94C110.655 116.426 111.162 114.012 112.268 111.711C113.299 109.569 114.688 107.671 116.338 105.915C118.827 103.264 121.807 101.235 125.057 99.5263C128.13 97.9098 131.316 96.5289 134.614 95.3721C136.045 94.8704 137.438 94.2723 138.852 93.7268C139.005 93.6675 139.183 93.6663 139.35 93.6381ZM178.367 124.065C179.63 124.234 180.888 124.442 182.15 124.621C182.92 124.73 183.692 124.866 184.466 124.899C185.601 124.946 186.741 124.893 187.877 124.917C188.711 124.934 189.543 125.002 190.375 125.056C190.964 125.095 191.552 125.183 192.142 125.192C193.506 125.212 194.87 125.212 196.234 125.196C199.43 125.157 202.625 125.072 205.821 125.076C206.638 125.077 207.454 125.343 208.27 125.485C208.318 125.493 208.387 125.466 208.414 125.489C208.6 125.657 208.779 125.835 208.96 126.009C208.723 126.026 208.487 126.058 208.251 126.059C206.634 126.063 205.018 126.074 203.402 126.054C202.764 126.047 202.128 125.938 201.489 125.922C199.147 125.862 196.803 125.817 194.46 125.776C193.624 125.761 192.787 125.774 191.877 125.774C190.83 125.774 189.855 125.791 188.881 125.769C187.391 125.737 185.901 125.654 184.41 125.636C182.526 125.612 180.641 125.664 178.758 125.615C177.877 125.592 176.996 125.43 176.121 125.291C175.633 125.213 175.519 124.785 175.681 124.437C175.793 124.197 176.167 123.944 176.436 123.931C177.076 123.9 177.727 123.98 178.367 124.065ZM140.969 95.2226C140.917 95.2499 140.849 95.2655 140.815 95.306C139.751 96.5765 138.568 97.7769 137.66 99.1402C136.439 100.972 135.432 102.933 134.829 105.042C134.503 106.182 134.268 107.345 133.984 108.496C133.798 109.251 133.377 109.874 132.687 110.293C131.771 110.848 130.8 111.325 129.897 111.899C127.65 113.326 126.226 115.347 125.396 117.744C124.932 119.085 124.639 120.458 124.907 121.895C125.071 122.769 125.139 123.658 125.241 124.541C125.257 124.682 125.226 124.827 125.217 124.97C125.02 124.953 124.728 125.007 124.644 124.906C124.412 124.629 124.161 124.303 124.109 123.969C123.951 122.973 123.889 121.964 123.778 120.961C123.756 120.752 123.689 120.547 123.643 120.341C123.446 120.547 123.221 120.735 123.058 120.963C121.966 122.483 120.892 124.014 119.799 125.532C119.719 125.644 119.531 125.686 119.394 125.76C119.359 125.528 119.214 125.242 119.307 125.073C119.653 124.447 120.032 123.827 120.482 123.264C121.535 121.947 122.729 120.722 123.687 119.348C124.318 118.442 124.659 117.351 125.087 116.326C125.525 115.278 126.217 114.42 127.111 113.69C128.239 112.769 129.362 111.842 130.524 110.883C131.313 110.092 132.157 109.398 132.796 108.564C133.639 107.464 133.938 106.123 134.279 104.817C135 102.055 136.284 99.5504 138.18 97.3323C138.652 96.7799 139.099 96.1999 139.638 95.7105C139.93 95.4445 140.388 95.3389 140.777 95.1719C140.823 95.1521 140.904 95.2041 140.969 95.2226ZM35.4318 70.7344C36.2475 70.934 36.3658 71.6045 35.7413 72.1168C34.3244 73.2793 33.6499 74.7638 33.5461 76.4875C33.4888 77.4397 33.5829 78.4001 33.5269 79.3523C33.3426 82.4919 34.3124 85.3814 35.7486 88.1382C37.1215 90.7736 39.1208 92.9441 41.9895 94.2121C43.6355 94.9394 45.3959 95.4501 47.129 95.9884C48.6348 96.4559 50.1778 96.8169 51.6995 97.2399C53.1923 97.6547 54.6626 98.031 56.2447 97.5322C57.0561 97.2765 57.6649 97.9627 57.354 98.706C56.179 101.517 55.1777 104.435 53.1138 106.806C51.8755 108.228 50.4432 109.544 48.9106 110.685C46.661 112.361 44.0744 113.556 41.4904 114.734C38.9703 115.882 36.507 117.141 33.9757 118.266C31.1239 119.534 28.2341 120.727 25.3423 121.912C23.0093 122.869 20.6542 123.778 18.2966 124.68C17.7329 124.896 17.129 125.047 16.5282 125.141C15.9263 125.236 14.6038 124.343 14.3676 123.754C13.7681 122.257 13.3605 120.718 13.1922 119.123C13.0898 118.152 12.9519 117.184 12.7934 116.216C12.7568 116.147 12.7568 116.078 12.7934 115.975C12.8544 114.647 12.88 113.354 12.8969 112.061C12.8974 112.025 12.8056 111.988 12.7568 111.952V111.437C12.7812 111.402 12.8269 111.403 12.827 111.402C12.8731 110.205 12.9123 109.008 12.9614 107.811C12.9773 107.424 13.0236 107.038 13.0488 106.652C13.2586 103.443 13.6619 100.253 14.5308 97.1418C15.2241 94.6589 16.1396 92.2438 17.2523 89.885C18.5216 87.1941 20.0647 84.6636 21.8427 82.2578C22.7485 81.0321 23.738 79.8508 24.7907 78.7335C26.0574 77.3893 27.3588 76.0582 28.7782 74.861C30.3988 73.4942 32.1404 72.2484 33.8892 71.0258C34.2786 70.7535 34.9671 70.6209 35.4318 70.7344ZM33.3051 72.6209C33.2229 72.6557 33.13 72.6773 33.0601 72.7275C30.8612 74.3029 28.6756 75.8947 26.8548 77.8715C25.7237 79.0997 24.5674 80.3108 23.4995 81.5864C20.904 84.6868 18.8955 88.1037 17.3662 91.874C17.3143 92.0144 17.2541 92.1529 17.2117 92.2958C16.5546 94.5151 15.8593 96.7257 15.263 98.9594C14.9985 99.9502 14.9225 100.987 14.7837 102.006C14.631 103.127 14.4609 104.249 14.38 105.375C14.3134 106.303 14.4032 107.241 14.3564 108.171C14.2984 109.326 14.1293 110.477 14.0884 111.633C14.0607 112.414 14.194 113.198 14.2143 113.982C14.2389 114.928 14.2014 115.877 14.226 116.824C14.2461 117.6 14.2658 118.382 14.3797 119.15C14.5192 120.089 14.7677 121.014 14.9492 121.949C15.2112 123.299 15.7977 123.821 17.1957 123.917C18.1754 123.984 18.9201 123.436 19.0572 122.569C19.0739 122.464 19.2495 122.28 19.2724 122.29C20.5075 122.838 21.5796 122.286 22.6621 121.852C24.9622 120.929 27.2726 120.027 29.5497 119.057C32.9377 117.612 36.3118 116.138 39.669 114.631C41.2398 113.927 42.7824 113.159 44.2948 112.348C47.2457 110.766 49.9434 108.89 52.128 106.395C53.8214 104.461 54.8681 102.263 55.4747 99.8574C55.5897 99.4006 55.42 99.0039 54.8423 98.8867C53.2762 98.5687 51.7137 98.2344 50.1453 97.9273C46.9574 97.3035 43.8755 96.4343 41.0104 94.913C37.3316 92.9594 34.975 90.0091 33.5597 86.3647C32.8883 84.6357 32.3491 82.8441 32.363 80.9613C32.3735 79.5478 32.2418 78.1218 32.4011 76.724C32.5484 75.4325 33 74.1716 33.3121 72.8961C33.3333 72.8093 33.3085 72.7128 33.3051 72.6209ZM94.6484 93.0503C95.5205 93.6165 96.3829 94.1968 97.2278 94.7984C97.4568 94.9616 97.4747 95.1236 97.5785 94.6972C97.7409 94.0301 98.7445 93.8436 99.3458 94.3177C100.724 95.4047 101.42 96.8664 101.925 98.4556C102.362 99.8339 102.189 101.235 102.231 102.628C102.259 103.522 103.145 104.196 104.074 104.232C104.761 104.259 105.484 104.544 106.102 104.866C107.599 105.646 108.56 106.877 109.033 108.427C109.542 110.097 109.069 111.584 108.045 112.971C107.114 114.233 106.266 115.554 104.915 116.479C104.167 116.991 103.306 117.416 102.721 118.062C102.093 118.756 101.371 119.209 100.515 119.521C98.4078 120.29 96.1045 119.293 95.072 117.631C94.1423 116.134 91.903 116.463 91.0353 117.676C90.6567 118.206 90.5527 118.905 90.2696 119.503C90.0963 119.871 90.2646 119.815 90.5245 119.779C91.8129 119.597 93.1025 119.424 94.3919 119.252C94.4582 119.243 94.5291 119.268 94.5981 119.277C94.547 119.314 94.4996 119.357 94.4443 119.387C93.1655 120.07 91.781 120.455 90.3339 120.619C89.2371 120.742 88.1158 120.94 87.035 120.836C86.1828 120.753 85.316 120.353 84.5633 119.925C83.676 119.42 83.4095 118.562 83.4268 117.56C83.4599 115.613 84.2498 113.971 85.5537 112.547C85.9292 112.138 86.5925 111.965 87.1201 111.678C87.3207 111.568 87.6127 111.554 87.258 111.203C85.7095 109.665 84.3343 108 83.3933 106.05C83.2445 105.742 83.0913 105.425 83.0264 105.096C82.9866 104.895 83.0459 104.607 83.1841 104.468C83.2713 104.38 83.6174 104.443 83.7924 104.534C84.0549 104.669 84.263 104.896 84.505 105.07C84.9183 105.367 85.1473 105.241 85.0356 104.778C84.7174 103.462 85.0098 102.214 85.4993 101.007C85.7632 100.356 86.1924 99.7625 86.5911 99.1697C86.6289 99.1133 87.0124 99.1985 87.1791 99.3003C87.4884 99.4896 87.7565 99.7396 88.0416 99.964C88.0608 99.6046 88.0668 99.2439 88.1039 98.8861C88.1261 98.6737 88.1815 98.4606 88.2497 98.2563C88.5915 97.232 88.7744 97.1803 89.679 97.8223C89.8003 97.9085 89.9454 97.9649 90.0797 98.0348L90.1188 97.7741C90.1248 97.7305 90.1301 97.6873 90.134 97.6434C90.2338 96.5176 89.9955 95.4962 89.1248 94.6605C89.1145 94.6505 89.3034 94.3566 89.4121 94.3487C90.666 94.2554 91.9202 94.2065 93.0674 94.8397C93.3017 94.9691 93.5357 95.0995 93.8065 95.264C93.9156 95.1703 94.0376 95.0472 94.0525 94.913C94.1201 94.3071 94.1509 93.697 94.2252 93.0916C94.2291 93.0591 94.5546 92.9895 94.6484 93.0503ZM86.2935 112.654C86.2653 112.704 86.2471 112.763 86.2073 112.803C84.7804 114.227 84.1152 115.918 84.1679 117.88C84.1967 118.945 84.7973 119.729 85.9243 119.924C86.6402 120.047 87.3833 120.042 88.1152 120.061C88.2037 120.063 88.3478 119.868 88.3817 119.743C88.5974 118.951 88.5822 118.068 89.4804 117.461C89.731 117.369 89.9819 117.278 90.2322 117.185C90.3458 117.142 90.5477 117.104 90.5527 117.051C90.563 116.938 90.5059 116.763 90.4138 116.709C90.1682 116.565 89.899 116.407 89.6223 116.37C88.3459 116.203 87.4403 115.567 86.9209 114.472C86.6737 113.952 86.5394 113.383 86.3542 112.837C86.3336 112.776 86.3137 112.715 86.2935 112.654ZM89.6985 117.942C89.6017 118.289 89.4907 118.634 89.4214 118.986C89.4101 119.044 89.6057 119.214 89.6627 119.197C89.8944 119.131 89.9686 118.078 89.6985 117.942ZM94.9898 93.7995C95.0681 94.052 95.1784 94.3005 95.2175 94.5587C95.3067 95.144 95.2533 95.7039 94.6451 96.0486C94.1589 96.3243 93.7946 95.9931 93.4638 95.7512C92.7131 95.2019 91.8258 95.1305 90.9444 95.0258C90.4632 94.9688 90.441 95.1559 90.5984 95.5479C90.8298 96.1238 91.1178 96.7357 91.0996 97.3248C91.0883 97.6942 90.5888 98.0752 90.2557 98.4033C89.9451 98.7094 89.6475 98.5646 89.4015 98.2626C89.3637 98.2162 89.2424 98.2309 89.1596 98.2175C89.1655 98.3415 89.1483 98.4716 89.1808 98.5891C89.3734 99.2887 89.0973 99.9649 88.3213 100.367C87.7837 100.646 87.4052 100.221 87.0787 99.8919C86.8331 99.6444 86.8106 99.7948 86.7065 99.9831C85.7996 101.623 85.6959 103.339 86.1772 105.102C86.2968 105.54 86.0837 105.758 85.7009 105.742C85.2551 105.722 84.8179 105.557 84.3731 105.472C84.1672 105.433 83.9521 105.436 83.7413 105.42C83.7987 105.612 83.8252 105.819 83.918 105.993C84.6873 107.44 85.6767 108.75 86.9607 109.813C87.7181 110.441 88.1828 110.991 88.1602 112.074C88.1304 113.488 88.9266 114.644 90.3071 115.413C91.4068 116.025 92.5762 115.897 93.7363 115.935C94.3302 115.954 94.7618 116.148 95.1151 116.593L95.2557 116.771C95.9799 117.69 96.6965 118.605 97.9934 118.926C99.4555 119.288 100.792 119.143 101.92 118.169C102.154 117.966 102.156 117.481 102.167 117.124C102.169 117.059 101.693 116.944 101.43 116.916C100.38 116.805 99.3242 117.057 98.2639 116.786C96.7661 116.403 95.3899 115.839 94.255 114.817C94.0409 114.625 93.8609 114.398 93.665 114.187C94.0101 114.264 94.3561 114.338 94.6998 114.42C94.786 114.44 94.8841 114.464 94.9457 114.518C96.5506 115.916 98.4339 116.525 100.611 116.363C102.82 116.198 103.958 115.102 104.072 113.269C104.19 111.376 103.803 109.543 102.882 107.827C102.748 107.579 102.75 107.234 102.782 106.943C102.907 105.815 103.207 104.675 101.925 103.872C101.709 103.737 101.65 103.286 101.635 102.976C101.591 102.056 101.285 101.713 100.335 101.63C99.7558 101.579 99.4313 101.251 99.299 100.737C99.2606 100.588 99.2626 100.43 99.246 100.275C99.0916 100.407 98.896 100.514 98.7903 100.674C98.253 101.487 97.4515 101.99 96.609 102.476C96.1821 102.723 96.0445 102.694 95.9384 102.238C95.8887 102.023 95.7041 101.836 95.5808 101.637C95.4618 101.797 95.3385 101.954 95.2252 102.117C95.0753 102.332 94.9699 102.588 94.7813 102.765C94.1088 103.397 93.4293 104.026 92.7045 104.602C92.5467 104.728 92.073 104.73 91.9531 104.607C91.795 104.445 91.8162 104.104 91.8085 103.838C91.8009 103.574 91.8699 103.309 91.8715 103.043C91.8722 102.94 91.7853 102.752 91.7293 102.749C91.6093 102.742 91.4237 102.797 91.369 102.886L91.084 103.34C90.7989 103.794 90.5189 104.252 90.2895 104.732C89.6753 106.016 89.4237 107.38 89.3899 108.789C89.385 108.987 89.1612 109.201 88.9929 109.365C88.9352 109.421 88.6375 109.379 88.6196 109.328C88.5408 109.106 88.4794 108.861 88.496 108.63C88.5222 108.263 88.6226 107.901 88.6796 107.535C89.0243 105.329 90.0349 103.452 91.779 101.942C91.843 101.887 92.0664 101.883 92.0701 101.895C92.2285 102.406 92.3763 102.921 92.5099 103.439C92.5401 103.556 92.5122 103.687 92.5112 103.811C92.6279 103.761 92.7588 103.728 92.8599 103.657C93.963 102.886 94.846 101.935 95.479 100.776C95.6319 100.497 95.8453 100.248 96.0309 99.985L96.3561 100.545C96.4641 100.732 96.5709 100.92 96.6726 101.11C96.7117 101.183 96.6501 101.303 96.6875 101.378C96.7157 101.434 96.8788 101.496 96.897 101.479C97.4608 100.928 98.0021 100.358 98.5745 99.8158C98.7939 99.608 99.2072 99.2662 99.3116 99.3267C99.652 99.5234 99.9019 99.8694 100.159 100.178C100.218 100.249 100.123 100.428 100.178 100.51C100.277 100.661 100.49 100.91 100.56 100.884C100.914 100.755 101.27 100.585 101.555 100.353C101.669 100.261 101.605 99.9718 101.55 99.7033C101.256 97.9483 100.523 96.3967 99.185 95.1252C99.1008 95.0453 99.014 94.9676 98.9281 94.8889C98.9053 94.9948 98.8824 95.1004 98.8595 95.206C98.7319 95.7885 98.0687 96.1394 97.5901 95.7866C96.9862 95.3417 96.5072 94.7479 95.9302 94.266C95.6723 94.0508 95.3067 93.9514 94.9898 93.7995ZM146.104 108.175C146.052 108.223 145.965 108.267 145.955 108.322C145.921 108.519 145.87 108.727 145.903 108.919C146.083 109.969 146.31 111.013 146.476 112.066C146.767 113.901 147.253 115.683 148.256 117.29C148.612 117.86 149.189 118.307 149.674 118.804C149.729 118.86 149.836 118.871 149.919 118.903C149.916 118.854 149.918 118.804 149.908 118.757C149.791 118.183 149.744 117.586 149.538 117.042C149.047 115.744 148.48 114.472 147.871 113.121C147.505 112.185 147.119 111.256 146.781 110.311C146.549 109.66 146.385 108.988 146.187 108.327C146.171 108.273 146.132 108.225 146.104 108.175ZM185.233 105.092C185.23 105.155 185.092 105.207 185.027 105.273C184.852 105.455 184.647 105.622 184.517 105.83C183.076 108.115 182.319 110.63 181.733 113.202C181.578 113.885 181.44 114.571 181.293 115.393C181.244 115.786 181.146 116.181 181.16 116.573C181.176 117.028 181.171 117.539 181.383 117.923C181.978 119.002 183.572 118.971 184.551 118.403C185.456 117.878 185.891 117.03 186.381 116.23C187.217 114.866 187.915 113.426 188.783 112.082C189.964 110.255 191.129 108.435 191.662 106.324C191.822 105.69 191.479 105.256 190.763 105.276C189.076 105.322 187.436 105.008 185.794 104.717C185.242 104.619 185.255 104.592 185.233 105.092ZM103.638 104.806C103.346 105.993 103.533 107.126 103.894 108.246C104.421 109.878 104.995 111.497 104.819 113.241C104.695 114.461 104.116 115.424 103.007 116.098C102.836 116.201 102.76 116.443 102.64 116.621C102.865 116.666 103.091 116.748 103.313 116.74C103.45 116.735 103.598 116.609 103.713 116.508C104.533 115.788 105.453 115.138 106.132 114.312C106.814 113.481 107.255 112.472 107.875 111.472C108.017 110.834 108.185 110.198 108.296 109.554C108.545 108.109 107.78 106.719 106.385 106.228C105.472 105.907 104.472 105.787 104.084 104.739C104.021 104.568 103.785 104.208 103.638 104.806ZM59.4694 73.4657C61.2516 73.6659 63.0464 73.9783 64.7564 74.4843C66.589 75.0267 68.1945 76.0588 69.4942 77.4187C71.2658 79.2727 72.4215 81.4269 72.935 83.9016C73.1524 84.9494 73.221 85.9893 73.1998 87.0424C73.1865 87.7111 73.1136 88.3785 73.0603 89.0459C72.9459 90.4734 73.3248 91.8314 73.6996 93.1913C74.0834 94.5847 73.9436 95.9809 73.8083 97.3956C73.6085 99.4858 72.7769 101.377 71.8743 103.237C71.2936 104.434 70.5067 105.545 69.7739 106.672C69.1537 107.626 68.4779 108.547 67.7905 109.518C66.8631 110.897 65.9582 112.234 65.0878 113.592C64.7043 114.19 64.3921 114.829 64.0457 115.449C64.0033 115.525 63.9612 115.605 63.8989 115.665C63.6841 115.873 63.4604 116.073 63.2396 116.276C63.2191 115.98 63.0951 115.648 63.1936 115.393C63.9824 113.349 65.1975 111.526 66.5157 109.756C68.1113 107.613 69.8067 105.528 70.9383 103.109C71.6817 101.52 72.2681 99.8844 72.4752 98.1488C72.5952 97.1434 72.7298 96.1344 72.7543 95.1249C72.7789 94.1225 72.6748 93.1173 72.6207 92.1134C72.6178 92.0636 72.5263 91.9724 72.5213 91.9752C72.4026 92.0395 72.2661 92.0946 72.1806 92.1896C71.7265 92.6953 71.2933 93.2173 70.8385 93.7224C69.6834 95.0061 68.2771 95.8697 66.5021 96.2435C64.7487 96.6126 63.2748 96.13 62.0288 95.0497C60.4505 93.6807 60.474 92.0066 61.5602 90.4217C62.5539 88.9719 63.9937 88.203 65.8455 87.957C67.6559 87.7164 69.2996 88.1917 70.9433 88.6987C71.5505 88.8861 71.9247 89.0876 71.9535 88.2751C71.9863 87.3554 71.926 86.4236 72.0652 85.519C72.2439 84.3556 71.815 83.3401 71.468 82.2842C70.7815 80.1945 69.455 78.5589 67.6804 77.1756C66.3188 76.114 64.7915 75.3842 63.126 74.9565C61.4064 74.515 59.6613 74.3126 57.832 74.4881C54.8688 74.7723 52.2937 75.8445 49.954 77.4845C48.2964 78.6463 47.0067 80.1507 45.8636 81.769C45.6932 82.0103 45.4121 82.1814 45.1831 82.386C44.897 82.6413 44.5155 82.715 44.311 82.4161C44.1559 82.1892 44.0996 81.7054 44.2514 81.5209L44.604 81.091C45.3107 80.2302 46.0316 79.3701 46.8712 78.6376C47.8997 77.7402 49.0787 76.9847 50.2464 76.2443C52.1983 75.0067 54.3368 74.1741 56.6749 73.8357C57.6086 73.7007 58.5665 73.3645 59.4694 73.4657ZM87.5514 113.643C87.5401 113.73 87.5096 113.82 87.5205 113.904C87.6193 114.694 88.1662 115.217 88.7854 115.654C88.9925 115.8 89.3551 115.749 89.6468 115.789C89.493 115.565 89.3492 115.334 89.1818 115.119C89.0823 114.991 88.9458 114.89 88.8261 114.639C88.4695 114.347 88.1142 114.054 87.7555 113.765C87.6949 113.716 87.6196 113.683 87.5514 113.643ZM202.515 64.7162C201.734 65.3303 200.958 65.952 200.217 66.6078C199.002 67.6834 198.231 69.0596 197.595 70.4696C196.256 73.4344 195.019 76.4399 193.752 79.4331C191.885 83.8445 190.029 88.26 188.168 92.8115C188.07 92.9572 187.945 93.0929 187.879 93.2505C186.696 96.0931 185.524 98.9397 184.341 101.782C183.429 103.973 182.461 106.144 181.599 108.353C180.801 110.395 180.285 112.514 179.984 114.673C179.955 114.882 180.03 115.103 180.057 115.318C180.079 115.135 180.071 114.942 180.134 114.773C180.176 114.659 180.369 114.594 180.408 114.48C181.15 112.313 181.83 110.127 182.626 107.978C183.174 106.499 183.862 105.065 184.518 103.624C184.824 102.95 185.098 102.885 185.786 103.207C186.25 103.425 186.724 103.628 187.178 103.864C187.896 104.236 188.657 104.377 189.469 104.309C190.048 104.261 190.771 103.629 190.785 103.042C190.799 102.468 190.529 102.007 189.824 101.946C189.384 101.908 188.933 101.929 188.502 101.849C188.184 101.791 187.891 101.614 187.587 101.49C187.785 101.346 187.969 101.178 188.187 101.069C188.322 101.001 188.507 101.022 188.669 101.004C189.758 100.885 190.683 101.378 191.64 101.73C193.364 102.365 194.336 102.244 195.212 101.157C195.683 100.573 195.998 99.8643 196.309 99.1819C197.722 96.0849 199.221 93.0171 200.472 89.8627C201.767 86.5991 202.973 83.2884 203.921 79.9241C204.941 76.3048 206.058 72.6805 206.256 68.8979C206.31 67.8561 206.215 66.8478 205.9 65.8194C205.393 64.1635 203.739 63.753 202.515 64.7162ZM142.573 97.8678C142.51 97.9809 142.431 98.089 142.388 98.2084C141.841 99.7425 141.927 101.278 142.684 102.699C143.478 104.186 144.45 105.589 145.353 107.024C145.391 107.084 145.519 107.096 145.605 107.13C145.633 107.019 145.71 106.895 145.681 106.8C145.422 105.962 145.128 105.134 144.886 104.293C144.836 104.119 144.89 103.829 145.018 103.721C145.208 103.562 145.526 103.407 145.756 103.443C146.418 103.548 146.968 104.292 147.033 105.034C147.141 106.261 147.179 107.497 147.375 108.711C147.69 110.663 148.505 112.471 149.41 114.241C149.459 114.337 149.554 114.411 149.628 114.495C149.701 114.386 149.807 114.285 149.839 114.166C149.953 113.749 149.974 113.3 150.15 112.911C150.772 111.542 150.762 110.225 150.001 108.899C149.584 108.174 149.26 107.401 148.822 106.58C148.512 105.738 148.365 104.793 147.855 104.078C147.069 102.974 146.009 102.047 145.111 101.009C144.318 100.094 143.588 99.1299 142.831 98.1874L142.573 97.8678ZM101.055 110.938C101.222 111.207 101.351 111.457 101.562 111.603C102.356 112.152 102.268 113.629 101.486 114.085C101.311 114.187 101.009 114.101 100.765 114.102C100.765 113.915 100.704 113.705 100.775 113.545C101.27 112.419 100.756 111.497 99.4595 111.202C99.2563 111.156 99.072 111.039 98.8788 110.955C99.0561 110.852 99.2301 110.742 99.4121 110.647C99.6066 110.545 99.8085 110.455 100.008 110.361C100.758 110.007 100.878 110.066 101.055 110.938ZM102.368 105.052C102.486 105.692 102.45 106.384 102.328 107.029C102.233 107.531 100.839 107.808 100.081 107.715C99.2795 107.616 98.7866 107.164 98.2888 106.682C97.8552 106.263 97.361 105.933 96.7488 106.166C96.1277 106.403 96.1042 106.986 96.1333 107.607C95.9593 108.699 95.6236 109.583 94.615 110.229C93.2795 111.085 91.7413 110.458 91.1413 109.421C91.0734 109.304 90.9531 109.213 90.8573 109.11C90.7847 109.211 90.6892 109.303 90.6432 109.413C90.2825 110.275 89.8911 111.127 89.5925 112.007C89.4065 112.556 89.6717 112.805 90.2646 112.8C90.6611 112.796 91.0578 112.793 91.4539 112.803C91.5576 112.806 91.6601 112.86 91.7628 112.89C91.7058 112.982 91.6707 113.124 91.5875 113.156C91.2132 113.302 90.7701 113.594 90.4536 113.507C89.6223 113.279 88.8941 112.849 88.8467 111.876C88.7695 110.29 89.67 109.093 90.6279 107.926C91.7187 106.598 93.3289 106.129 94.9524 105.694C96.9915 105.148 99.0299 104.6 101.07 104.056C101.494 103.943 102.252 104.419 102.368 105.052ZM94.5699 106.285C93.8427 106.558 93.1237 106.859 92.4284 107.197C91.2285 107.781 91.1025 108.814 92.1015 109.632C93.1406 110.484 94.4748 110.196 94.8672 108.979C95.0869 108.296 95.1343 107.565 95.2593 106.719C95.2931 106.207 94.9517 106.142 94.5699 106.285ZM97.5838 106.793C97.6477 106.817 97.7097 106.848 97.7757 106.864C98.7627 107.102 99.5304 108.621 99.0614 109.444C98.9686 109.606 98.7787 109.717 98.6338 109.852C98.5977 109.718 98.5573 109.585 98.5261 109.45C98.4333 109.049 98.3441 108.649 98.2195 108.215C97.9944 107.778 97.8019 107.375 97.6146 106.969C97.5901 106.917 97.5934 106.852 97.5838 106.793ZM100.651 104.478C99.833 104.748 99.0458 105.102 98.0998 105.421C98.0756 105.525 97.9978 105.651 98.0352 105.729C98.5069 106.707 100.278 107.396 101.34 107.028C101.966 106.811 102.313 106.061 102.106 105.369C101.963 104.89 101.123 104.323 100.651 104.478ZM175.867 80.7961C177.276 80.9258 178.402 81.508 179.26 82.6551C179.731 83.2856 179.373 83.8079 179.262 84.3371C178.862 86.2453 178.38 88.1375 177.921 90.0344C177.544 91.5961 177.16 93.1565 176.773 94.7163C176.259 96.7949 175.742 98.873 175.221 100.95C174.847 102.445 174.467 103.938 174.08 105.43C174.04 105.586 173.938 105.727 173.864 105.875C173.795 105.719 173.656 105.558 173.67 105.409C173.777 104.232 173.885 103.053 174.047 101.882C174.218 100.649 174.426 99.4203 174.659 98.1971C174.937 96.7373 175.23 95.2787 175.567 93.8308C176.333 90.5524 177.321 87.3367 178.451 84.1563C178.9 82.893 177.625 82.0589 176.592 82.0808C175.933 82.0946 175.364 82.2371 174.758 82.3769C174.658 82.4001 174.5 82.1905 174.369 82.0197C174.369 81.9056 174.354 81.8533 174.372 81.8151C174.512 81.5133 174.003 80.96 174.754 80.8939C175.125 80.8613 175.502 80.7626 175.867 80.7961ZM103.547 99.1449C104.432 99.1575 105.316 99.2687 106.2 99.2609C107.464 99.2493 108.67 99.5037 109.799 99.974C110.792 100.388 111.709 100.96 112.696 101.496C113.847 102.465 114.724 103.549 115.061 104.938C115.105 105.121 114.893 105.357 114.799 105.569C114.648 105.442 114.402 105.337 114.361 105.183C113.558 102.243 111.299 100.812 108.348 100.095C106.736 99.7023 105.105 99.7992 103.469 99.937C103.257 99.9549 102.782 100.22 102.764 99.6917C102.748 99.2067 103.182 99.1396 103.547 99.1449ZM145.604 57.9425C142.731 58.3282 140.605 59.8874 138.994 62.1259C137.238 64.5655 136.651 67.3382 136.574 70.1876C136.519 72.2218 136.776 74.2697 136.991 76.3023C137.151 77.821 137.378 79.3435 137.731 80.8318C138.176 82.7075 138.789 84.5474 139.312 86.407C140.187 89.5162 141.289 92.5527 142.686 95.4868C144.175 98.6141 146.133 101.447 148.883 103.739C149.771 104.478 150.8 105.013 151.998 105.125C153.489 105.265 154.937 105 156.363 104.587C159.413 103.705 162.495 102.912 165.515 101.946C168.272 101.064 169.99 99.1728 170.602 96.4869C171.061 94.4728 171.449 92.4412 171.77 90.4036C172.043 88.6696 172.265 86.9199 172.342 85.1706C172.401 83.8326 172.216 82.4834 172.108 81.1414C172.026 80.1187 171.895 79.0994 171.786 77.941C171.43 75.9053 170.785 73.957 169.936 72.0519C168.646 69.1577 166.868 66.6109 164.465 64.4132C161.845 62.0177 158.714 60.4937 155.309 59.4456C153.387 58.854 151.399 58.4188 149.408 58.076C148.169 57.8623 146.844 57.7762 145.604 57.9425ZM60.0269 76.5711C59.9414 76.6974 59.8651 76.8306 59.769 76.9487C57.9808 79.1471 56.0876 81.2768 54.427 83.5579C52.4674 86.2494 50.8304 89.1324 49.5593 92.2359C49.0644 93.2088 48.6113 94.1498 48.1443 95.0848C47.897 95.5798 47.3833 95.5175 47.0329 95.3583C46.6537 95.1853 46.7005 94.82 46.9275 94.4355C48.7992 91.2693 50.5954 88.0623 52.5102 84.9199C53.6849 82.9923 54.9537 81.1063 56.3242 79.3C57.0574 78.3333 58.0915 77.57 59.0023 76.7272C59.1233 76.6153 59.3123 76.536 59.481 76.5122C59.6556 76.4872 59.8442 76.548 60.0269 76.5711ZM64.8246 89.2101C62.8194 89.7127 61.823 91.1004 61.9967 92.9249C62.1061 94.0749 62.5873 94.8112 63.7408 95.1211C65.0626 95.4767 66.3825 95.3138 67.6271 94.8407C69.4126 94.162 70.8733 93.1355 71.3161 91.076C71.3625 90.5211 71.1938 90.1153 70.6708 89.754C68.8173 88.4731 66.8611 88.6993 64.8246 89.2101ZM106.621 53.0846C106.573 53.1423 106.524 53.1651 106.475 53.2225C106.318 53.2892 106.124 53.2767 106.011 53.3607C103.176 55.4544 101.398 58.1894 100.463 61.4393C100.02 62.9825 99.8188 64.5567 99.8923 66.1443C100.022 68.938 100.949 71.4917 102.63 73.8154C104.467 76.354 106.907 78.2224 109.82 79.5331C111.49 80.2845 113.261 80.825 115.138 80.9196C115.983 80.9622 116.847 80.8309 117.675 80.9472C119.267 81.1712 120.748 80.7664 122.218 80.3618C125.179 79.5478 127.784 78.1413 130.016 76.1087C131.663 74.609 133.087 72.9788 134.027 71.001C134.046 70.9622 134.068 70.9252 134.089 70.8876C134.117 70.9387 134.175 70.9938 134.169 71.0408C134.029 72.0447 134.097 73.0612 133.342 73.9573C131.004 76.7306 128.293 79.0672 124.78 80.4239C123.277 81.0045 121.672 81.3774 120.085 81.7305C119.131 81.9429 118.118 82.0335 117.136 82.009C114.652 81.9473 112.256 81.4516 109.963 80.5188C107.515 79.5231 105.371 78.1243 103.545 76.3079C101.42 74.1954 99.9374 71.7364 99.311 68.8776C99.0614 67.7389 98.8628 66.562 98.8798 65.4055C98.9328 61.7925 100.056 58.4614 102.282 55.5039C102.888 54.698 103.704 54.0284 104.444 53.3146C104.793 52.9784 106.341 52.8164 106.621 53.0846ZM109.745 53.1197C109.782 53.1238 109.814 53.1661 109.848 53.1908C109.785 53.2121 109.722 53.236 109.658 53.2544C107.164 53.9745 105.387 55.5223 104.2 57.6659C103.472 58.9794 103.078 60.4069 102.856 61.8959C102.405 64.9223 103.144 67.7088 104.681 70.3057C106.58 73.5143 109.265 75.9558 112.982 77.2201C114.167 77.623 115.393 78.056 116.629 78.1616C119.599 78.4151 122.452 77.9119 125.096 76.5053C127.066 75.4566 128.686 74.0532 130.139 72.4242C131.823 70.5345 132.782 68.332 133.378 65.9783C133.586 65.153 133.497 64.2606 133.551 63.3992C133.562 63.2379 133.609 63.0787 133.64 62.9186C133.839 63.016 134.147 63.0674 134.219 63.2191C134.475 63.7602 134.87 64.3568 134.811 64.8929C134.69 65.9946 134.398 67.0994 134.019 68.1522C133.036 70.8848 131.3 73.1646 129.046 75.0837C126.949 76.8694 124.532 78.1168 121.781 78.7429C120.85 78.955 119.907 79.1984 118.959 79.2501C118.082 79.2981 117.182 79.153 116.306 79.0133C115.139 78.8275 113.947 78.6727 112.833 78.3145C109.757 77.3256 107.178 75.6452 105.097 73.2357C103.436 71.3109 102.476 69.1238 102.015 66.7253C101.473 63.9031 101.959 61.1689 103.063 58.5288C103.811 56.7425 104.901 55.1595 106.394 53.8401C106.507 53.7401 106.569 53.5888 106.655 53.3926C106.704 53.3008 106.752 53.2779 106.8 53.2548C107.758 52.7384 108.756 53.011 109.745 53.1197ZM219.364 77.7299C220.365 77.7402 221.363 77.8687 222.363 77.9426C223.58 78.0328 224.796 78.1463 226.016 78.1908C227.182 78.2331 228.353 78.1729 229.52 78.2114C230.095 78.2302 230.681 78.3264 231.227 78.48C231.413 78.5323 231.494 78.8679 231.623 79.0737C231.446 79.1236 231.272 79.1878 231.09 79.2197C230.879 79.257 230.661 79.2661 230.41 79.2555C227.984 79.1809 225.595 79.1214 223.206 79.1038C222.238 79.0966 221.269 79.2144 220.302 79.2091C219.827 79.2066 219.352 79.06 218.88 78.9656C218.388 78.8669 218.242 78.4812 218.425 78.1999C218.582 77.958 219.042 77.7267 219.364 77.7299ZM116.947 55.027C117.494 57.492 118.001 59.9654 118.537 62.4329C118.812 63.6997 118.485 64.2255 117.333 64.8403C115.81 65.653 114.337 66.5583 112.882 67.4817C112.153 67.9438 111.555 68.1049 111.156 67.7395C110.779 67.3946 110.717 67.0906 111.22 66.7669C112.794 65.7542 114.375 64.7484 115.897 63.6653C116.228 63.4293 116.527 62.8663 116.492 62.483C116.368 61.0834 116.104 59.6947 115.876 58.3044C115.781 57.7245 115.644 57.1507 115.526 56.5046C115.47 55.9347 115.309 55.4161 115.396 54.9405C115.451 54.6422 115.848 54.2352 116.148 54.1841C116.679 54.0935 116.858 54.6256 116.947 55.027ZM217.274 49.267C217.363 49.3547 217.412 49.5935 217.349 49.6809C217.05 50.0989 216.705 50.489 216.34 50.9232C215.162 52.4413 214.035 53.9353 212.862 55.3964C212.709 55.5875 212.211 55.7699 212.055 55.6796C211.656 55.45 212.015 55.2049 212.18 54.9449C213.277 53.2175 214.338 51.4706 215.425 49.7382C215.925 48.9405 216.739 48.7377 217.274 49.267ZM183.859 26.9472C184.051 26.9624 184.266 27.1814 184.396 27.3621C184.871 28.0249 184.621 28.7699 184.526 29.4586C184.362 30.66 184.063 31.8444 183.83 33.0375C183.722 33.595 183.636 34.1565 183.54 34.785C183.348 35.7203 183.14 36.5835 182.969 37.4537C182.657 39.0338 182.379 40.6199 182.067 42.2C181.806 43.5182 181.524 44.8324 181.236 46.1452C180.764 48.301 180.294 50.4576 179.789 52.6062C179.65 53.1955 179.165 53.4164 178.766 53.1344C178.632 53.0392 178.498 52.7954 178.53 52.6541C179.275 49.3675 180.074 46.0923 180.796 42.8013C181.328 40.3818 181.708 37.9309 182.262 35.5166C182.79 33.2168 183.062 30.911 182.984 28.5574C182.971 28.1503 183.173 27.7203 183.348 27.3311C183.427 27.1548 183.695 26.9342 183.859 26.9472ZM144.396 43.2688C144.537 43.4925 144.681 43.7144 144.823 44.0073C145.06 45.198 145.304 46.3169 145.531 47.4393C145.645 48.0052 145.733 48.5764 145.818 49.1473C145.839 49.2889 145.805 49.4387 145.797 49.585C145.588 49.5518 145.251 49.5856 145.192 49.4744C144.887 48.9019 144.613 48.3057 144.407 47.6918C144.171 46.989 144.072 46.238 143.806 45.5489C143.66 45.1717 143.263 44.8969 143.032 44.5422C142.832 44.2358 142.597 43.8848 142.587 43.5474C142.581 43.3312 142.924 42.9674 143.166 42.9119C143.591 42.8151 144.096 42.7882 144.396 43.2688Z" fill="#00160A"/>
<path d="M95.9717 111.972C96.8351 111.754 97.4603 111.312 97.3678 110.985C97.2753 110.659 96.5 110.572 95.6366 110.791C94.7728 111.009 94.148 111.451 94.2405 111.778C94.333 112.104 95.1079 112.191 95.9717 111.972Z" fill="#FFB61D"/>
<path fill-rule="evenodd" clip-rule="evenodd" d="M101.915 109.319C102.532 109.1 102.887 108.658 102.76 108.332C102.641 108.006 102.185 107.918 101.69 108.137C101.147 108.356 100.663 108.797 100.66 109.124C100.665 109.45 101.25 109.538 101.915 109.319Z" fill="#FFB61D"/>
</g>
<defs>
<clipPath id="clip0_334_2">
<rect width="248.59" height="235" fill="white"/>
</clipPath>
</defs>
</svg>
