<svg width="243" height="243" viewBox="0 0 243 243" fill="none" xmlns="http://www.w3.org/2000/svg">
<g clip-path="url(#clip0_334_2)">
<path d="M243 0H0V243H243V0Z" fill="#F3F5F7"/>
<path fill-rule="evenodd" clip-rule="evenodd" d="M75.7665 154.083C46.357 160.939 29.5304 151.366 25.2869 125.367C18.9218 86.3664 40.4842 45.3943 70.0696 41.4665C99.6553 37.539 112.092 48.7426 132.886 62.8119C153.681 76.8813 213.95 109.985 220.797 115.603C227.644 121.222 242.295 143.176 212.991 157.082C193.455 166.353 169.151 164.607 140.081 151.844C129.862 147.376 120.555 145.012 112.162 144.751C103.769 144.49 91.6373 147.6 75.7665 154.083Z" fill="#8B3DFF"/>
<path d="M109.29 104.569C111.934 106.295 112.997 108.527 112.479 111.265C110.003 114.976 108.765 118.19 108.765 120.905C108.765 123.622 108.579 127.154 108.206 131.504L87.6304 131.939L87.587 131.913C87.0369 131.923 86.4965 131.932 85.9651 131.939C81.3857 131.999 77.3227 132.605 77.1309 132.635C75.6314 132.868 72.9293 130.086 72.1795 129.143C70.9742 127.629 70.4017 125.836 70.1471 123.886C69.9067 122.046 70.2456 120.335 70.9107 118.695C71.688 116.779 72.9046 115.121 74.4472 113.66C76.1385 112.11 77.96 110.844 80.0019 109.911C80.0812 109.875 81.5467 109.153 81.617 109.162C81.664 109.169 84.0068 109.92 87.2653 111.442C90.9634 108.813 94.9632 106.032 99.2653 103.097C103.306 102.354 106.647 102.844 109.29 104.569Z" fill="#F3F5F7"/>
<path fill-rule="evenodd" clip-rule="evenodd" d="M82.6652 149.35C85.9003 150.017 87.8508 148.747 88.5163 145.541C89.5149 140.734 83.4833 141.593 81.6371 139.118C79.7913 136.644 83.8857 136.148 88.5163 137.633C93.1514 137.43 94.4892 137.695 94.7552 136.417C95.0216 135.139 92.6068 134.334 86.1569 134.544C79.707 134.755 80.6557 134.764 81.1466 140.153C81.4735 143.745 81.9799 146.811 82.6652 149.35Z" fill="#F3F5F7"/>
<path d="M163.073 159.619C160.587 157.562 158.835 156.268 157.897 155.441C155.655 153.465 153.359 151.551 151.097 149.598C150.632 149.196 150.18 148.764 149.798 148.286C149.318 147.685 149.427 147.271 150.185 146.979C150.783 146.748 151.437 146.642 152.076 146.54C153.98 146.235 155.887 145.951 157.796 145.678C158.634 145.557 159.48 145.487 160.321 145.382C160.471 145.364 160.615 145.288 160.761 145.239C160.688 145.121 160.633 144.987 160.54 144.887C159.804 144.092 159.06 143.303 158.319 142.512C158.253 142.443 158.184 142.377 158.117 142.309C158.222 142.284 158.326 142.25 158.433 142.234C160.387 141.946 162.341 141.655 164.297 141.374C165.58 141.189 166.864 140.998 168.152 140.847C169.47 140.692 170.792 140.566 172.115 140.457C173.298 140.359 174.485 140.319 175.668 140.22C176.425 140.157 177.176 140.008 177.934 139.946C178.881 139.87 179.833 139.858 180.782 139.792C181.967 139.711 183.149 139.592 184.334 139.513C185.33 139.447 186.329 139.429 187.325 139.361C188.129 139.307 188.928 139.188 189.732 139.14C190.517 139.093 191.305 139.098 192.092 139.079C194.13 139.032 196.168 138.973 198.205 138.94C199.452 138.919 200.71 138.842 201.943 138.975C202.586 139.044 203.32 139.376 203.779 139.828C204.937 140.971 205.963 142.249 207.04 143.475C207.699 144.227 208.36 144.977 209.01 145.738C210.379 147.342 211.737 148.954 213.107 150.556C213.532 151.054 213.988 151.526 214.415 152.022C214.538 152.165 214.609 152.351 214.705 152.517C214.57 152.406 214.168 152.063 214.302 152.184C227.517 164.207 171.864 166.763 163.073 159.619Z" fill="#F3F5F7"/>
<path d="M12.5388 115.195C12.5838 113.957 12.6221 112.719 12.6702 111.481C12.6857 111.081 12.731 110.682 12.7557 110.282C12.9607 106.964 13.355 103.666 14.2043 100.449C14.882 97.8814 15.7769 95.384 16.8646 92.9446C18.1053 90.1624 19.6137 87.5458 21.3518 85.0581C22.2373 83.7906 23.2044 82.5691 24.2335 81.4137C25.4717 80.0238 26.7438 78.6474 28.1314 77.4094C29.7155 75.9961 31.4179 74.7079 33.1274 73.4437C33.5081 73.1621 34.181 73.0247 34.6353 73.1424C35.4326 73.3487 35.5483 74.0421 34.9379 74.5715C33.5528 75.7739 32.8935 77.309 32.792 79.0913C32.736 80.076 32.828 81.069 32.7733 82.0537C32.5931 85.3001 33.5411 88.2881 34.945 91.1386C36.287 93.8638 38.2414 96.1081 41.0456 97.419C42.6546 98.1714 44.3754 98.6995 46.0696 99.2561C47.5415 99.7395 49.0497 100.113 50.5372 100.55C51.9965 100.979 53.4338 101.368 54.9802 100.852C55.7734 100.588 56.3686 101.298 56.0646 102.066C54.9161 104.973 53.9373 107.99 51.9197 110.442C50.7092 111.912 49.3092 113.273 47.8111 114.453C45.6121 116.186 43.0836 117.422 40.5577 118.639C38.0943 119.827 35.6863 121.129 33.212 122.292C30.4243 123.603 27.5995 124.837 24.7727 126.062C22.4922 127.051 20.19 127.992 17.8854 128.924C17.3344 129.148 16.7441 129.304 16.1568 129.401C15.5684 129.499 14.2757 128.576 14.0448 127.966C13.4587 126.419 13.0603 124.827 12.8958 123.178C12.7957 122.174 12.6609 121.174 12.506 120.172C12.4702 120.101 12.4702 120.03 12.506 119.923C12.5656 118.55 12.5906 117.213 12.6072 115.876C12.6076 115.839 12.5179 115.801 12.4702 115.764C12.4702 115.598 12.4702 115.432 12.4702 115.23C12.494 115.195 12.5387 115.195 12.5388 115.195Z" fill="#F3F5F7"/>
<path fill-rule="evenodd" clip-rule="evenodd" d="M107.96 131.461L151.263 130.358H153.039C155.628 132.286 158.469 133.117 161.562 132.851C166.2 132.451 170.296 127.331 171.253 120.194C171.394 119.637 171.736 119.503 172.278 119.792C172.876 120.957 173.937 121.466 175.46 121.317C176.121 121.246 176.49 121.401 176.863 122.118C177.236 122.836 179.21 123.739 180.448 123.014C181.685 122.29 187.389 113.05 187.389 111.496C187.389 109.941 187.709 106.545 187.961 106.326C188.213 106.107 188.686 106.285 189.606 105.993C190.525 105.702 191.312 105.992 194.259 98.2543C197.207 90.5165 201.717 78.9494 202.197 70.85C202.678 62.7504 196.957 65.6132 194.259 68.9929C191.562 72.3728 184.043 81.0755 177.084 85.8014C176.233 86.4374 175.538 86.7364 174.999 86.6985C174.676 84.6871 173.354 83.9377 171.031 84.45C170.129 84.6123 169.39 83.8988 168.815 82.3096C167.326 74.0589 163.932 68.0889 158.633 64.3995C150.684 58.865 137.138 55.7021 133.879 67.2737C131.707 74.9882 133.013 84.3605 137.798 95.3911L135.806 97.1154C127.966 99.8273 121.562 103.175 116.593 107.158C109.14 113.134 108.997 118.962 108.602 123.77C108.338 126.975 108.124 129.538 107.96 131.461Z" fill="#F3F5F7"/>
<path d="M91.936 98.1441C92.0021 97.5172 92.0323 96.8864 92.1049 96.2604C92.1087 96.2267 92.4269 96.1548 92.5186 96.218C93.3707 96.8034 94.2138 97.4035 95.0396 98.0256C95.2635 98.1944 95.281 98.3619 95.3828 97.9206C95.5415 97.2311 96.5226 97.0383 97.1103 97.5285C98.4578 98.6525 99.1379 100.164 99.6314 101.807C100.059 103.233 99.8896 104.681 99.9311 106.121C99.958 107.046 100.824 107.743 101.732 107.78C102.404 107.808 103.111 108.103 103.715 108.436C105.178 109.243 106.118 110.515 106.58 112.119C107.078 113.845 106.615 115.382 105.614 116.817C104.704 118.121 103.875 119.488 102.554 120.444C101.823 120.974 100.981 121.413 100.41 122.081C99.7953 122.799 99.0903 123.267 98.2537 123.59C96.1931 124.385 93.9416 123.354 92.9327 121.635C91.867 119.369 88.0629 121.216 86.5891 117.872C85.8452 116.769 85.5555 115.843 85.7159 115.751C85.9119 115.638 85.641 115.352 85.2944 114.988C83.7806 113.398 82.436 111.676 81.5162 109.66C81.3711 109.342 81.2214 109.013 81.1579 108.674C81.119 108.466 81.177 108.168 81.3121 108.024C81.3973 107.933 81.7356 107.999 81.9066 108.092C82.1632 108.232 82.3664 108.467 82.6032 108.647C83.0069 108.953 83.2311 108.823 83.1216 108.344C82.8109 106.984 83.0967 105.693 83.5749 104.446C83.8328 103.773 84.2527 103.159 84.6422 102.545C84.6794 102.487 85.054 102.575 85.2169 102.681C85.5196 102.876 85.7813 103.135 86.0603 103.367C86.0791 102.995 86.0849 102.622 86.1212 102.252C86.1429 102.032 86.197 101.812 86.2634 101.601C86.5975 100.542 86.7767 100.488 87.6609 101.152C87.7795 101.242 87.9214 101.3 88.0526 101.372C88.0704 101.237 88.0941 101.103 88.1054 100.967C88.2029 99.8033 87.97 98.7471 87.1191 97.8827C87.1088 97.8726 87.2938 97.5687 87.3997 97.5603C88.6257 97.4641 89.8518 97.4132 90.9731 98.0683C91.2022 98.2021 91.4309 98.3369 91.6953 98.5067C91.8019 98.4098 91.9211 98.2825 91.936 98.1441Z" fill="#F3F5F7"/>
<path fill-rule="evenodd" clip-rule="evenodd" d="M110.115 55.3243C106.495 58.3245 104.854 62.6681 105.191 68.3552C105.696 76.8855 115.619 82.9628 120.42 80.3906C125.22 77.8183 130.52 74.0709 131.153 66.0944C131.422 73.6844 132.217 77.3786 121.984 82.8831C111.75 88.3878 101.052 79.8466 99.5043 76.3263C97.9569 72.8057 94.2319 65.0342 101.792 56.018C102.827 54.8257 105.601 54.5943 110.115 55.3243Z" fill="#F3F5F7"/>
<path fill-rule="evenodd" clip-rule="evenodd" d="M196.366 155.132C197.242 155.036 198.049 154.96 198.849 154.841C200.668 154.571 202.483 154.274 204.301 154C205.384 153.837 206.482 153.758 207.549 153.528C208.297 153.367 208.975 153.472 209.665 153.698C209.775 153.735 209.86 153.85 209.957 153.929C209.841 153.994 209.73 154.103 209.607 154.118C208.009 154.32 206.405 154.488 204.809 154.706C203.204 154.925 201.607 155.203 200.003 155.433C198.885 155.593 197.761 155.706 196.642 155.855C196.059 155.933 195.482 156.059 194.898 156.137C194.072 156.246 193.241 156.32 192.415 156.431C191.446 156.562 190.482 156.724 189.513 156.857C188.735 156.965 187.952 157.044 187.174 157.15C186.181 157.285 185.192 157.44 184.2 157.579C183.469 157.681 182.736 157.774 182.003 157.867C181.232 157.966 180.457 158.043 179.688 158.162C179.224 158.234 178.796 158.231 178.657 157.696C178.531 157.208 178.781 156.825 179.256 156.72C179.907 156.576 180.575 156.497 181.24 156.434C182.029 156.36 182.823 156.328 183.614 156.285C184.589 156.232 185.566 156.206 186.54 156.135C187.576 156.06 188.608 155.942 189.644 155.854C190.861 155.751 192.081 155.675 193.297 155.558C193.929 155.497 194.555 155.369 195.184 155.277C195.553 155.223 195.924 155.18 196.366 155.132Z" fill="#E7EAEE"/>
<path fill-rule="evenodd" clip-rule="evenodd" d="M177.373 148.389C178.249 148.341 179.054 148.308 179.857 148.243C180.71 148.174 181.56 148.059 182.413 147.993C183.371 147.919 184.332 147.889 185.29 147.817C186.377 147.736 187.461 147.622 188.548 147.539C189.351 147.477 190.158 147.455 190.961 147.391C191.968 147.31 192.973 147.194 193.981 147.113C194.784 147.049 195.59 147.028 196.394 146.964C197.455 146.879 198.513 146.721 199.576 146.686C200.788 146.645 202.005 146.268 203.217 146.686C203.361 146.736 203.492 146.824 203.629 146.894C203.499 146.918 203.369 146.952 203.238 146.966C202.319 147.064 201.398 147.147 200.48 147.254C199.365 147.385 198.255 147.557 197.138 147.671C196.322 147.754 195.497 147.749 194.679 147.826C193.558 147.933 192.443 148.094 191.323 148.207C190.51 148.289 189.692 148.323 188.878 148.39C187.815 148.479 186.753 148.575 185.692 148.674C184.724 148.764 183.757 148.855 182.791 148.96C181.558 149.093 180.327 149.257 179.093 149.38C177.922 149.495 176.746 149.56 175.574 149.673C174.76 149.752 173.951 149.902 173.135 149.965C172.817 149.99 172.462 149.921 172.17 149.792C171.961 149.699 171.83 149.434 171.664 149.246C171.875 149.103 172.076 148.854 172.298 148.833C173.65 148.703 175.007 148.63 176.362 148.527C176.677 148.504 176.988 148.436 177.373 148.389Z" fill="#FFAB00"/>
<path fill-rule="evenodd" clip-rule="evenodd" d="M102.869 166.317C102.796 166.376 102.758 166.421 102.721 166.42C102.386 166.41 102.052 166.392 101.717 166.377C102.037 166.157 102.329 165.818 102.681 165.737C104.066 165.42 105.313 164.861 106.469 164.036C107.979 162.958 108.911 161.545 109.25 159.739C109.302 159.461 109.224 159.337 108.888 159.338C108.409 159.341 107.929 159.263 107.45 159.208C106.514 159.102 105.768 158.44 105.686 157.651C105.633 157.145 106.394 156.084 106.955 155.81C108.261 155.174 109.713 156.43 110.084 157.519C110.233 157.957 110.304 157.798 110.502 157.618C111.434 156.766 111.739 155.672 111.665 154.47C111.586 153.186 111.02 152.153 109.906 151.43C109.52 151.18 109.371 150.823 109.671 150.368C109.997 149.872 110.903 149.838 111.257 150.277C111.735 150.871 112.155 151.554 112.419 152.265C113.059 153.989 112.895 155.666 111.818 157.208C111.741 157.319 111.677 157.446 111.578 157.532C110.733 158.267 110.277 159.18 109.934 160.256C108.914 163.448 106.574 165.333 103.403 166.276C103.25 166.321 103.072 166.282 102.869 166.317ZM107.183 156.663C106.571 157.026 106.404 158.067 106.984 158.248C107.653 158.457 108.426 158.341 109.155 158.348C109.186 158.349 109.238 158.165 109.248 158.065C109.343 157.086 108.426 156.411 107.183 156.663Z" fill="black"/>
<path fill-rule="evenodd" clip-rule="evenodd" d="M188.312 151.51C190.333 151.318 192.281 151.111 194.232 150.939C195.615 150.817 197.002 150.755 198.386 150.642C199.239 150.572 200.09 150.459 200.941 150.358C202.115 150.218 203.29 149.958 204.462 149.971C205.131 149.979 205.909 150.196 206.364 150.873C206.4 150.925 206.439 150.975 206.477 151.026C206.389 151.043 206.294 151.091 206.213 151.074C204.684 150.75 203.181 151.063 201.663 151.203C200.606 151.301 199.531 151.185 198.467 151.233C197.398 151.28 196.334 151.418 195.267 151.509C194.089 151.609 192.909 151.687 191.733 151.803C191.101 151.866 190.477 152.006 189.846 152.081C188.909 152.193 187.966 152.264 187.028 152.376C185.956 152.505 184.883 152.634 183.818 152.811C182.552 153.022 181.297 153.302 180.032 153.519C178.778 153.733 177.523 153.963 176.259 154.074C175.683 154.125 175.073 153.946 174.497 153.798C174.055 153.684 174.155 153.372 174.437 153.167C174.665 153.002 174.944 152.859 175.217 152.816C176.04 152.688 176.87 152.61 177.698 152.517C178.574 152.419 179.448 152.31 180.325 152.233C181.573 152.123 182.825 152.05 184.073 151.936C184.832 151.867 185.585 151.737 186.343 151.657C186.974 151.591 187.608 151.557 188.312 151.51Z" fill="#E7EAEE"/>
<path fill-rule="evenodd" clip-rule="evenodd" d="M174.909 145.563C176.576 145.373 178.171 145.172 179.768 144.996C180.806 144.881 181.849 144.816 182.887 144.702C183.493 144.635 184.093 144.51 184.698 144.424C185.113 144.364 185.532 144.331 185.948 144.278C187.221 144.115 188.491 143.928 189.767 143.787C191.064 143.643 192.367 143.555 193.665 143.419C194.854 143.294 196.036 143.099 197.228 143.014C197.655 142.984 198.107 143.16 198.532 143.293C198.673 143.337 198.765 143.539 198.88 143.669C198.718 143.723 198.558 143.812 198.392 143.824C197.465 143.891 196.535 143.924 195.609 143.997C194.631 144.074 193.654 144.175 192.679 144.281C191.931 144.363 191.188 144.476 190.44 144.562C189.544 144.665 188.644 144.736 187.75 144.854C186.437 145.027 185.13 145.236 183.819 145.419C182.399 145.616 180.974 145.78 179.558 145.997C178.334 146.185 177.12 146.437 175.899 146.641C174.293 146.91 172.684 147.153 171.079 147.422C170.493 147.521 170.137 147.187 170.084 146.721C170.036 146.299 170.407 146.145 170.882 146.114C172.129 146.031 173.369 145.851 174.611 145.701C174.691 145.691 174.762 145.611 174.909 145.563Z" fill="#E7EAEE"/>
<path fill-rule="evenodd" clip-rule="evenodd" d="M193.533 160.516C191.978 160.71 190.493 160.9 189.01 161.101C188.379 161.186 187.751 161.35 187.12 161.358C186.915 161.361 186.507 160.94 186.539 160.786C186.603 160.475 186.87 160.01 187.114 159.968C188.153 159.787 189.215 159.742 190.267 159.64C191.217 159.548 192.165 159.442 193.115 159.35C194.168 159.248 195.221 159.15 196.274 159.059C197.454 158.956 198.634 158.856 199.815 158.768C200.624 158.708 201.435 158.684 202.244 158.616C203.194 158.536 204.141 158.414 205.092 158.331C205.852 158.266 206.617 158.249 207.377 158.177C208.161 158.103 208.941 157.987 209.723 157.892C209.817 157.881 209.921 157.868 210.008 157.895C210.311 157.988 210.608 158.098 210.907 158.201C210.643 158.292 210.386 158.43 210.115 158.466C208.514 158.676 206.909 158.857 205.307 159.059C204.241 159.194 203.179 159.363 202.112 159.491C201.133 159.608 200.148 159.675 199.169 159.793C198.654 159.854 198.149 160.006 197.633 160.063C196.536 160.184 195.434 160.265 194.335 160.374C194.089 160.398 193.848 160.467 193.533 160.516Z" fill="#FFAB00"/>
<path fill-rule="evenodd" clip-rule="evenodd" d="M74.4472 113.661C76.1385 112.11 77.96 110.844 80.0019 109.911C80.0812 109.875 80.1622 109.787 80.2326 109.796C80.5394 109.838 80.8423 109.908 81.1469 109.967C80.9266 110.118 80.7215 110.301 80.4837 110.413C78.121 111.533 75.9208 112.892 74.1307 114.838C72.3908 116.729 71.1437 118.852 70.8686 121.502C70.6156 123.938 70.9247 126.217 72.3027 128.272C73.0423 129.375 74.0409 130.198 75.2543 130.744C75.3508 130.787 75.4416 130.844 75.5349 130.893C75.4267 130.915 75.3188 130.942 75.2096 130.959C73.7101 131.192 72.9293 130.086 72.1795 129.143C70.9742 127.629 70.4017 125.836 70.1471 123.886C69.9067 122.046 70.2456 120.335 70.9107 118.695C71.688 116.779 72.9046 115.121 74.4472 113.661Z" fill="#00160A"/>
<path fill-rule="evenodd" clip-rule="evenodd" d="M168.263 145.136C168.008 144.576 168.377 143.954 168.963 143.96C169.964 143.97 170.965 144.036 171.966 144.087C172.732 144.126 173.497 144.176 174.263 144.221C174.355 144.227 174.471 144.198 174.535 144.241C174.748 144.385 174.942 144.554 175.143 144.713C174.949 144.809 174.761 144.972 174.56 144.987C173.939 145.033 173.309 145.078 172.692 145.022C171.601 144.923 170.569 145.169 169.56 145.477C169.012 145.645 168.666 145.47 168.263 145.136Z" fill="#E7EAEE"/>
<path fill-rule="evenodd" clip-rule="evenodd" d="M23.658 98.9544C23.5152 99.8211 23.3571 100.614 23.2352 101.413C23.1579 101.919 23.1406 102.434 23.0855 102.944C22.9955 103.776 22.8373 104.605 22.8131 105.439C22.7546 107.457 22.773 109.478 22.7299 111.496C22.6883 113.443 23.0636 115.328 23.5175 117.204C23.6057 117.568 23.6323 117.997 23.8485 118.269C24.1801 118.686 23.8722 118.888 23.6393 118.952C23.4169 119.013 22.9829 118.904 22.8937 118.737C22.6493 118.277 22.4837 117.758 22.3835 117.244C22.1297 115.941 21.8219 114.636 21.7326 113.318C21.6119 111.535 21.6956 109.74 21.6538 107.95C21.6031 105.781 21.9226 103.652 22.2206 101.514C22.7124 97.9844 23.4156 94.505 24.5309 91.1179C24.6655 90.709 24.9678 90.314 25.2896 90.0179C25.6828 89.6563 26.2884 89.9868 26.3751 90.5327C26.4776 91.1784 26.1833 91.6729 25.8284 92.1611C24.76 93.6311 24.2259 95.3072 23.9436 97.0785C23.8478 97.6798 23.7532 98.2815 23.658 98.9544Z" fill="#E7EAEE"/>
<path fill-rule="evenodd" clip-rule="evenodd" d="M30.8609 114.344C30.8105 114.787 31.6081 115.319 30.7189 115.487C30.4784 115.532 29.9523 115.051 29.8417 114.725C29.5066 113.739 29.1822 112.72 29.0922 111.695C28.9678 110.279 29.061 108.846 29.061 107.42C29.061 107.255 29.061 107.089 29.061 106.924C29.061 104.679 29.0712 102.435 29.0541 100.19C29.0496 99.595 28.9104 98.9992 28.9278 98.4063C28.9405 97.9701 29.0311 97.5023 29.2318 97.1158C29.3752 96.8397 29.7458 96.5339 30.0397 96.5099C30.2416 96.4934 30.6467 96.9188 30.6796 97.1783C30.7657 97.8587 30.7311 98.5585 30.6802 99.2461C30.6407 99.7803 30.4532 100.305 30.421 100.839C30.3404 102.172 30.3053 103.509 30.2623 104.844C30.2066 106.573 30.049 108.307 30.1457 110.029C30.2255 111.452 30.6109 112.859 30.8609 114.344Z" fill="#FFAB00"/>
<path fill-rule="evenodd" clip-rule="evenodd" d="M37.6669 111.464C36.3158 109.375 35.3085 107.169 34.6783 104.801C34.5513 104.323 34.6618 103.718 34.8409 103.242C34.9268 103.014 35.5246 102.757 35.718 102.859C35.9804 102.997 36.1894 103.454 36.2257 103.797C36.3653 105.118 36.4554 106.426 36.8912 107.711C37.4206 109.273 38.3288 110.577 39.2081 111.916C39.3912 112.194 39.9387 112.47 39.5525 112.823C39.1676 113.175 38.7766 112.767 38.4866 112.444C38.2138 112.14 37.9623 111.815 37.6669 111.464Z" fill="#E7EAEE"/>
<path fill-rule="evenodd" clip-rule="evenodd" d="M43.8685 106.988C43.0559 106.198 42.2423 105.477 41.5146 104.673C41.1362 104.256 41.2072 103.724 41.6621 103.326C42.1157 102.928 42.3995 103.299 42.6606 103.602C43.6492 104.747 44.6241 105.905 45.5996 107.062C45.6547 107.127 45.7134 107.292 45.6994 107.302C45.54 107.412 45.3336 107.616 45.2027 107.576C44.7559 107.439 44.3344 107.215 43.8685 106.988Z" fill="#FFAB00"/>
<path fill-rule="evenodd" clip-rule="evenodd" d="M86.6748 203.107C88.5122 203.567 90.2858 204.002 92.0364 204.51C92.3574 204.603 92.5855 204.991 92.8567 205.243C92.4764 205.267 92.072 205.384 91.7198 205.299C89.9012 204.864 88.0803 204.427 86.2915 203.894C84.5364 203.37 82.8189 202.731 81.0858 202.139C81.0032 202.111 80.9345 202.047 80.8554 202.008C80.431 201.795 79.979 201.58 80.3134 201.011C80.6215 200.485 81.101 200.498 81.576 200.767C82.272 201.16 82.9132 201.657 83.6383 201.986C84.5957 202.422 85.6118 202.739 86.6748 203.107Z" fill="#FFAB00"/>
<path fill-rule="evenodd" clip-rule="evenodd" d="M89.0768 197.696C89.8236 198.127 90.54 198.511 91.2398 198.924C91.3885 199.011 91.4767 199.205 91.593 199.35C91.3451 199.449 91.0432 199.694 90.8578 199.623C89.3726 199.057 87.9049 198.441 86.4411 197.818C85.6366 197.476 84.8415 197.109 84.0577 196.721C83.619 196.504 83.1191 196.277 83.4988 195.605C83.736 195.186 84.2981 195.082 84.8214 195.368C86.2259 196.135 87.634 196.896 89.0768 197.696Z" fill="#E7EAEE"/>
<path fill-rule="evenodd" clip-rule="evenodd" d="M84.9467 189.734C84.9176 188.703 85.5785 188.268 86.4368 188.777C87.8961 189.642 89.3181 190.572 90.7437 191.494C91.1688 191.769 91.5706 192.087 91.949 192.424C92.0906 192.55 92.1356 192.785 92.2247 192.971C91.9778 192.966 91.6966 193.037 91.4893 192.944C90.2688 192.393 89.0609 191.812 87.8572 191.223C86.893 190.752 85.9404 190.256 84.9467 189.734Z" fill="#FFAB00"/>
<path fill-rule="evenodd" clip-rule="evenodd" d="M89.8935 182.553C91.1474 182.569 91.8123 183.404 92.5283 184.142C92.7341 184.354 92.9006 184.619 93.024 184.886C93.1465 185.152 93.3121 185.515 92.9719 185.694C92.8186 185.775 92.4797 185.615 92.275 185.487C91.6869 185.121 91.1329 184.702 90.5474 184.331C90.3371 184.198 90.0432 184.186 89.845 184.042C89.5559 183.832 89.3188 183.553 89.0596 183.303C89.3142 183.053 89.5692 182.803 89.8935 182.553Z" fill="#E7EAEE"/>
<path fill-rule="evenodd" clip-rule="evenodd" d="M93.9033 162.186C94.9378 164.332 95.767 166.547 96.0436 168.934C96.192 170.215 96.3618 171.494 96.4632 172.779C96.5552 173.945 96.6262 175.118 96.6 176.286C96.5689 177.684 96.4182 179.078 96.3323 180.475C96.2724 181.446 96.263 182.421 96.1807 183.39C96.0647 184.753 95.8794 186.11 95.767 187.473C95.6817 188.505 95.625 189.543 95.6273 190.578C95.6299 191.756 95.7145 192.934 95.7589 194.112C95.8094 195.456 95.6957 196.83 95.9393 198.138C96.3038 200.095 96.8034 202.045 97.4521 203.927C98.4056 206.694 100.056 209.099 101.876 211.362C103 212.761 104.298 214.003 106.125 214.484C106.149 214.491 106.169 214.711 106.122 214.752C105.448 215.341 104.61 215.102 103.899 215.007C102.309 214.795 100.737 214.419 99.1758 214.037C95.2084 213.067 91.2465 212.074 87.2911 211.055C85.3643 210.559 83.4582 209.981 81.5391 209.454C81.2569 209.376 80.8928 209.247 80.6712 209.356C79.552 209.904 78.6876 209.302 77.8653 208.744C76.0629 207.522 75.0404 205.748 74.5103 203.663C73.7787 200.786 74.3668 198.041 75.4282 195.381C76.128 193.627 76.9626 191.923 77.8008 190.228C78.6513 188.508 79.7192 186.919 81.0136 185.497C81.451 185.017 81.9827 184.624 82.4577 184.177C83.1096 183.563 83.1436 182.721 83.1974 181.92C83.2596 180.991 83.119 180.039 83.2521 179.125C83.7054 176.018 85.0763 173.228 86.5181 170.497C87.237 169.135 88.15 167.841 89.1642 166.681C89.9162 165.822 90.9053 165.125 92.0704 164.795C92.4275 164.694 92.5286 164.612 92.2623 164.167C91.8767 163.522 91.3343 162.772 92.016 161.909C92.8318 161.092 93.4205 161.184 93.9033 162.186ZM94.9874 168.666C94.9595 168.694 94.9129 168.717 94.9067 168.75C94.8542 169.022 94.8478 169.311 94.7545 169.568C94.3423 170.705 94.0235 171.896 93.4529 172.95C92.3086 175.062 90.848 176.965 89.1227 178.649C87.6184 180.117 86.0923 181.563 84.6006 183.044C83.7501 183.889 82.875 184.725 82.1424 185.668C80.9676 187.179 79.7328 188.685 78.8334 190.36C77.7885 192.306 77.0054 194.405 76.2489 196.489C75.7739 197.797 75.4518 199.185 75.2526 200.564C75.0391 202.047 75.3248 203.526 75.9952 204.878C76.4896 205.874 77.1856 206.7 78.3257 207.059C79.6894 207.488 81.0282 207.996 82.3884 208.436C85.4071 209.413 88.4154 210.428 91.4607 211.314C93.741 211.977 96.0663 212.49 98.3833 213.019C99.6954 213.319 101.03 213.522 102.357 213.75C102.462 213.768 102.592 213.642 102.71 213.583C102.651 213.499 102.599 213.407 102.531 213.332C102.046 212.794 101.506 212.298 101.08 211.717C99.909 210.119 98.6256 208.573 97.6779 206.847C95.996 203.783 94.8688 200.498 94.6161 196.964C94.538 195.877 94.4285 194.791 94.3333 193.562C94.3333 192.197 94.2782 190.83 94.3501 189.47C94.4117 188.304 94.6216 187.145 94.7603 185.983C94.8604 185.143 94.8941 184.29 95.0587 183.464C95.3736 181.883 95.2252 181.246 93.8816 180.344C93.2566 179.925 92.4715 179.521 92.4414 178.644C92.4285 178.273 92.7259 177.832 93.0065 177.545C93.0914 177.458 93.6908 177.7 93.8861 177.933C94.3284 178.46 94.6628 179.078 95.0499 179.653C95.1122 179.745 95.2194 179.808 95.3059 179.884C95.362 179.789 95.4588 179.697 95.4676 179.597C95.5278 178.928 95.6105 178.257 95.6066 177.587C95.6014 176.726 95.5159 175.867 95.4757 175.006C95.4222 173.853 95.3843 172.698 95.3299 171.544C95.2913 170.723 95.245 169.902 95.1812 169.082C95.1698 168.939 95.0548 168.804 94.9874 168.666ZM92.0516 165.727C90.5233 166.254 89.472 167.377 88.6448 168.675C86.994 171.266 85.6799 174.036 84.8216 176.99C84.4218 178.365 84.2517 179.812 84.7869 181.225C84.8183 181.308 85.0383 181.411 85.0542 181.395C87.1009 179.232 89.1567 177.077 91.1671 174.881C93.2187 172.64 93.9937 169.966 93.6104 166.97C93.4364 165.61 93.3402 165.576 92.0516 165.727ZM201.943 138.975C202.587 139.044 203.321 139.376 203.779 139.828C204.937 140.972 205.964 142.249 207.04 143.475C207.7 144.227 208.361 144.978 209.011 145.738C210.38 147.342 211.738 148.954 213.108 150.556C213.534 151.054 213.989 151.526 214.416 152.022C214.539 152.165 214.61 152.351 214.705 152.517C214.571 152.407 214.425 152.307 214.303 152.184C211.066 148.943 207.841 145.69 204.59 142.463C203.526 141.407 202.316 140.513 200.856 140.096C199.317 139.658 197.749 139.508 196.136 139.773C195.324 139.906 194.471 139.768 193.638 139.802C191.785 139.876 189.934 139.998 188.08 140.066C186.995 140.106 185.905 140.043 184.82 140.093C183.659 140.147 182.501 140.278 181.342 140.377C180.277 140.469 179.21 140.555 178.145 140.659C177.302 140.741 176.462 140.857 175.618 140.94C174.547 141.046 173.47 141.11 172.401 141.237C171.495 141.344 170.597 141.523 169.694 141.658C168.689 141.809 167.682 141.94 166.678 142.091C165.131 142.324 163.586 142.565 162.043 142.818C161.986 142.827 161.891 143.051 161.924 143.098C162.209 143.509 162.503 143.918 162.826 144.301C164.437 146.214 166.07 148.109 167.672 150.03C169.489 152.208 171.248 154.435 173.095 156.586C174.392 158.095 175.67 159.652 177.5 160.582C177.558 160.612 177.611 160.655 177.666 160.691C177.599 160.702 177.525 160.738 177.466 160.721C176.349 160.393 175.182 160.259 174.366 159.202C172.859 157.25 171.236 155.389 169.686 153.47C167.768 151.096 165.945 148.641 163.666 146.585C163.48 146.418 163.287 146.244 163.066 146.134C162.578 145.891 162.13 145.809 161.749 146.386C160.991 147.536 160.164 148.639 159.407 149.789C158.902 150.556 159.066 150.932 159.979 151.554C162.384 153.189 164.995 154.354 167.79 155.148C168.953 155.478 170.107 155.897 170.934 156.877C170.992 156.946 171.055 157.012 171.116 157.079C171.017 157.07 170.912 157.08 170.822 157.048C167.059 155.718 163.292 154.399 159.542 153.033C158.926 152.809 158.359 152.412 157.82 152.022C157.477 151.774 157.493 151.402 157.717 151.002C158.488 149.629 159.225 148.238 159.968 146.849C160.018 146.755 160.04 146.537 160.022 146.531C159.833 146.466 159.624 146.372 159.438 146.401C158.66 146.519 157.875 146.631 157.115 146.829C155.398 147.278 153.694 147.773 151.988 148.262C151.889 148.291 151.823 148.44 151.742 148.533C152.174 148.87 152.605 149.207 153.072 149.579C154.879 151.152 156.652 152.688 158.422 154.227C159.369 155.051 160.311 155.883 161.256 156.711C161.294 156.745 161.335 156.777 161.374 156.81C161.285 156.825 161.188 156.87 161.108 156.85C159.96 156.56 158.836 156.268 157.898 155.441C155.656 153.465 153.359 151.551 151.098 149.598C150.633 149.196 150.181 148.764 149.798 148.286C149.318 147.685 149.428 147.271 150.186 146.979C150.784 146.748 151.438 146.642 152.077 146.54C153.98 146.235 155.888 145.951 157.796 145.678C158.635 145.557 159.481 145.487 160.322 145.382C160.472 145.364 160.615 145.289 160.762 145.239C160.689 145.121 160.633 144.987 160.541 144.887C159.805 144.092 159.061 143.303 158.319 142.512C158.254 142.443 158.185 142.377 158.118 142.31C158.223 142.284 158.327 142.25 158.434 142.234C160.388 141.946 162.342 141.655 164.297 141.374C165.581 141.189 166.865 140.998 168.153 140.847C169.471 140.692 170.793 140.566 172.115 140.457C173.298 140.359 174.486 140.319 175.669 140.22C176.426 140.157 177.177 140.008 177.935 139.946C178.882 139.87 179.834 139.858 180.783 139.792C181.967 139.711 183.15 139.592 184.335 139.513C185.331 139.447 186.33 139.429 187.326 139.361C188.13 139.307 188.929 139.188 189.733 139.14C190.518 139.093 191.306 139.098 192.093 139.079C194.131 139.032 196.168 138.973 198.206 138.94C199.453 138.919 200.711 138.842 201.943 138.975ZM83.4229 134.165C83.9666 134.222 84.5222 134.148 85.0698 134.18C86.405 134.259 87.7376 134.382 89.0728 134.457C90.3157 134.526 91.5644 134.512 92.8036 134.617C94.0724 134.725 94.8322 135.255 94.7509 136.776C94.6773 138.147 94.6524 139.521 94.6038 140.894C94.5584 142.172 94.5085 143.449 94.4641 144.727C94.4577 144.916 94.4645 145.106 94.4765 145.295C94.4872 145.458 94.514 145.621 94.5338 145.784C94.4868 145.784 94.4042 145.798 94.398 145.782C94.331 145.606 94.2442 145.428 94.2228 145.244C94.1486 144.6 94.1003 143.952 94.0384 143.306C93.9461 142.342 93.8524 141.378 93.7552 140.415C93.7063 139.928 93.6503 139.441 93.5929 138.955C93.5573 138.653 93.5229 138.35 93.4691 138.051C93.4465 137.923 93.3762 137.804 93.3276 137.682C93.2274 137.738 93.1076 137.775 93.0308 137.855C92.0941 138.828 91.4539 139.963 91.2083 141.314C91.1814 141.462 91.092 141.598 91.0317 141.74C90.9818 141.615 90.9407 141.485 90.8807 141.364C89.7866 139.175 88.0632 137.721 85.7097 137.223C84.634 136.996 83.4731 137.19 82.3508 137.183C81.7857 137.179 81.6921 137.504 81.7413 137.986C81.8482 139.036 81.9289 140.088 82.029 141.139C82.1658 142.568 82.3125 143.997 82.4512 145.426C82.5487 146.429 82.6281 147.434 82.7422 148.434C82.7742 148.716 82.9025 148.986 82.9829 149.262C83.0205 149.391 83.049 149.523 83.0817 149.654C82.9385 149.554 82.7049 149.482 82.6667 149.35C82.4729 148.687 82.3307 148.01 82.169 147.337C81.9814 146.557 81.7925 145.776 81.6039 144.924C81.4157 143.595 81.1565 142.343 81.0557 141.078C80.9138 139.29 80.6404 137.483 81.0386 135.703C81.2637 134.695 82.4139 134.06 83.4229 134.165ZM79.5909 137.677C79.8848 137.781 80.1067 138.095 80.3601 138.317C80.1851 138.52 80.0397 138.764 79.8294 138.918C79.3693 139.254 78.8205 139.482 78.4074 139.865C77.426 140.774 77.8903 142.58 78.9089 143.057C79.3787 143.277 79.8479 143.501 80.3015 143.753C80.4657 143.844 80.584 144.02 80.723 144.157C80.5539 144.162 80.3844 144.166 80.215 144.171C79.1279 144.199 78.3124 143.696 77.7033 142.822C76.7857 141.505 77.2727 140.217 78.3532 139.187C78.455 139.09 78.5473 138.982 78.6513 138.887C78.7855 138.766 78.9271 138.653 79.0654 138.536C78.7965 138.502 78.5 138.376 78.2635 138.449C77.3816 138.723 76.8807 139.46 76.6131 140.267C75.6932 143.036 77.8673 145.28 80.3342 144.991C80.5947 144.961 80.8762 145.113 81.1478 145.181C81.0826 145.222 81.022 145.279 80.9511 145.302C78.8856 145.976 77.1259 145.212 76.1283 143.217C76.0597 143.079 75.9654 142.955 75.8827 142.753C75.4055 140.307 76.4251 138.482 78.662 137.752C78.9552 137.657 79.3207 137.582 79.5909 137.677ZM82.1058 134.901C81.6681 135.001 81.5142 135.474 81.7462 135.894C82.063 136.468 82.552 136.49 83.1416 136.432C84.0718 136.34 85.0192 136.268 85.9462 136.347C87.1217 136.447 88.2783 136.768 89.4535 136.879C90.4323 136.972 91.4263 136.898 92.4845 136.826C92.8979 136.803 93.311 136.772 93.7248 136.757C94.2218 136.738 94.506 136.34 94.2383 135.914C94.0737 135.653 93.7348 135.381 93.4461 135.345C92.2379 135.194 91.0204 135.105 89.8041 135.043C88.9438 134.999 88.0781 135.069 87.2179 135.027C85.9154 134.962 84.6165 134.826 83.3143 134.759C82.9139 134.738 82.5001 134.81 82.1058 134.901ZM146.564 129.727C148.003 129.756 149.438 129.988 150.874 130.138C150.981 130.149 151.096 130.182 151.186 130.241C151.373 130.363 151.546 130.509 151.724 130.645C151.496 130.668 151.268 130.696 151.04 130.712C149.608 130.81 148.176 130.914 146.743 130.993C146.505 131.006 146.257 130.853 146.019 130.866C144.539 130.945 143.06 131.062 141.579 131.136C141.246 131.153 140.904 130.994 140.571 131.011C139.138 131.085 137.706 131.204 136.273 131.282C136.011 131.296 135.741 131.141 135.479 131.155C133.998 131.233 132.519 131.35 131.039 131.426C130.729 131.442 130.411 131.284 130.102 131.3C128.668 131.375 127.237 131.494 125.804 131.57C125.518 131.585 125.224 131.429 124.938 131.444C123.457 131.521 121.979 131.637 120.498 131.715C120.236 131.729 119.965 131.574 119.703 131.588C118.222 131.666 116.744 131.781 115.263 131.86C115.025 131.873 114.778 131.72 114.54 131.733C113.059 131.812 111.58 131.929 110.099 132.003C109.766 132.02 109.425 131.861 109.091 131.878C107.658 131.952 106.227 132.071 104.794 132.149C104.532 132.163 104.261 132.008 103.999 132.022C102.518 132.1 101.04 132.216 99.5591 132.293C99.2733 132.308 98.9788 132.151 98.693 132.167C97.236 132.243 95.7812 132.361 94.3242 132.437C94.0384 132.452 93.7442 132.296 93.4585 132.311C91.9778 132.388 90.499 132.505 89.0184 132.582C88.7326 132.597 88.4381 132.44 88.1526 132.456C86.7193 132.532 85.2878 132.649 83.8548 132.727C83.593 132.741 83.3221 132.586 83.06 132.6C81.5793 132.678 80.1006 132.791 78.6199 132.872C78.4054 132.883 78.1819 132.731 77.968 132.744C76.7469 132.819 75.528 132.933 74.3068 133.01C73.4758 133.062 72.6392 133.039 71.8101 133.111C70.6259 133.214 69.439 133.327 68.2668 133.521C67.3502 133.674 66.4615 134.004 65.5442 134.15C65.2857 134.19 64.9047 133.91 64.7106 133.669C64.6286 133.567 64.8133 133.098 64.9976 132.947C65.7522 132.326 66.6607 132.221 67.6719 132.302C68.3012 132.254 68.8594 132.209 69.4173 132.157C70.4308 132.063 71.442 131.935 72.4574 131.876C73.7972 131.798 75.1398 131.727 76.4812 131.734C78.7327 131.746 80.9841 131.852 83.2356 131.858C84.9091 131.863 86.5832 131.775 88.2566 131.723C89.6693 131.679 91.0819 131.627 92.4946 131.58C93.9781 131.53 95.4621 131.484 96.946 131.435C98.3586 131.388 99.7719 131.354 101.184 131.286C102.862 131.207 104.539 131.086 106.218 131.011C106.575 130.995 106.939 131.151 107.297 131.137C109.426 131.059 111.555 130.951 113.684 130.859C114.071 130.843 114.461 130.879 114.847 130.853C116.114 130.767 117.379 130.652 118.646 130.577C118.931 130.561 119.227 130.719 119.512 130.703C120.803 130.628 122.092 130.51 123.382 130.432C123.62 130.418 123.868 130.574 124.106 130.559C125.373 130.482 126.638 130.363 127.905 130.288C128.19 130.272 128.485 130.43 128.771 130.414C130.062 130.339 131.35 130.219 132.641 130.144C132.927 130.127 133.222 130.286 133.507 130.269C134.751 130.196 135.992 130.072 137.235 130C137.544 129.982 137.863 130.143 138.172 130.125C139.416 130.052 140.657 129.933 141.9 129.854C142.114 129.841 142.338 129.994 142.553 129.981C143.891 129.902 145.229 129.701 146.564 129.727ZM146.54 58.9093C149.677 59.1993 152.631 60.2044 155.351 61.7567C156.949 62.6694 158.436 63.7975 159.892 64.9319C162.15 66.6915 163.924 68.8963 165.456 71.3004C166.598 73.0934 167.597 74.9658 168.19 77.0048C168.729 78.858 169.211 80.7424 169.512 82.6456C169.73 84.02 169.601 85.4479 169.642 86.8514C169.683 88.2858 169.532 89.7007 169.379 91.1276C169.007 94.6109 168.353 98.0229 167.375 101.389C166.95 102.849 167.256 104.361 167.535 105.839C167.779 107.135 168.228 108.345 168.918 109.471C169.001 109.607 168.994 109.797 169.029 109.962C168.852 109.951 168.666 109.971 168.5 109.923C167.305 109.573 166.917 108.598 166.632 107.53C166.427 106.764 166.242 105.982 165.93 105.258C165.572 104.43 165.434 104.508 164.65 104.899C163.035 105.703 161.394 106.466 159.718 107.133C157.448 108.036 155.062 108.503 152.647 108.881C151.336 109.087 150.012 109.486 149.025 110.443C148.566 110.888 148.211 111.519 148.015 112.132C147.77 112.898 147.715 113.706 148.17 114.5C148.44 114.97 148.724 115.05 149.174 114.926C151.355 114.327 153.521 113.66 155.723 113.149C157.413 112.756 159.157 112.592 160.865 112.264C162.638 111.924 164.423 111.841 166.218 111.848C166.353 111.849 166.488 111.885 166.623 111.904C166.501 111.932 166.379 111.963 166.256 111.988C164.587 112.329 162.917 112.665 161.249 113.013C159.738 113.328 158.23 113.664 156.719 113.98C155.03 114.334 153.335 114.661 151.65 115.032C150.828 115.213 150.006 115.422 149.213 115.701C148.107 116.091 147.759 116.778 147.698 118.032C147.63 119.444 147.874 120.765 148.213 122.075C148.823 124.427 149.868 126.571 151.558 128.385C152.978 129.909 154.58 131.144 156.616 131.67C157.714 131.954 158.861 132.132 159.994 132.175C161.406 132.229 162.779 131.965 164.117 131.402C165.795 130.697 167.091 129.588 168.053 128.105C169.109 126.476 169.804 124.674 170.055 122.744C170.263 121.142 170.48 119.525 170.467 117.916C170.449 115.595 169.968 113.331 169.071 111.171C169.015 111.037 168.798 110.848 169.225 110.835C170.357 110.802 171.48 111.834 171.495 113.01C171.509 114.086 171.545 115.164 171.488 116.237C171.385 118.181 173.462 120.723 175.173 121.161C175.547 121.257 175.581 121.124 175.489 120.931C174.446 118.724 175.086 116.565 175.706 114.433C176.903 110.315 178.543 106.357 180.185 102.4C181.792 98.5303 183.334 94.6339 184.894 90.7449C186.216 87.4463 187.518 84.1392 188.84 80.8403C190.113 77.6638 191.399 74.4925 192.681 71.3195C192.722 71.2178 192.789 71.1267 192.83 71.0247C192.906 70.8316 192.971 70.6343 193.041 70.4389C192.842 70.5734 192.595 70.6702 192.45 70.8488C190.737 72.9616 189.142 75.18 187.309 77.1829C185.35 79.3233 183.223 81.3211 181.069 83.2709C179.53 84.6638 177.825 85.8759 176.192 87.1644C176.039 87.2849 175.862 87.3757 175.696 87.4803C175.712 87.2875 175.747 87.0941 175.741 86.9023C175.691 85.4294 177.059 85.2972 177.881 84.6541C179.12 83.6856 180.408 82.7755 181.605 81.7594C183.836 79.8663 185.612 77.5555 187.421 75.2794C187.91 74.6642 188.434 74.0761 188.977 73.4398C190.563 71.718 192.056 69.9743 193.681 68.3633C195.106 66.951 196.691 65.7159 198.692 65.1347C199.584 64.8755 201.206 65.4703 201.806 66.4109C202.433 67.3926 202.682 68.4686 202.679 69.6389C202.672 72.068 202.178 74.4212 201.664 76.7734C201.104 79.3401 200.561 81.9114 199.937 84.4629C199.57 85.9598 199.14 87.4508 198.601 88.8936C197.319 92.3254 196.017 95.7527 194.599 99.1304C193.792 101.052 192.795 102.902 191.78 104.728C191.218 105.74 190.387 106.511 189.05 106.451C188.503 106.426 188.151 107.063 188.075 107.84C187.965 108.971 187.872 110.112 187.639 111.22C187.167 113.465 186.16 115.506 184.953 117.44C184.041 118.901 183.027 120.298 182.086 121.742C181.434 122.742 180.571 123.548 179.388 123.611C178.647 123.65 177.877 123.18 177.125 122.923C177.003 122.881 176.895 122.767 176.806 122.664C176.437 122.243 176.154 121.62 175.694 121.442C175.265 121.275 174.639 121.695 174.122 121.643C173.237 121.554 172.498 121.096 171.957 120.357C171.852 120.213 171.732 119.878 171.617 120.429C171.306 121.923 170.911 123.403 170.49 124.872C169.723 127.549 168.303 129.85 166.133 131.603C164.787 132.689 163.237 133.408 161.421 133.508C159.579 133.609 157.928 133.11 156.28 132.378C153.948 131.341 151.898 129.929 149.983 128.252C147.236 125.847 145.153 122.966 143.723 119.659C142.924 117.809 142.454 115.812 141.913 113.859C141.367 111.892 140.68 110.005 139.551 108.28C138.528 106.717 137.782 105.007 137.499 103.157C137.405 102.54 137.615 101.854 137.783 101.225C138.118 99.9741 138.303 98.7111 138.02 97.4443C137.879 96.8131 137.493 96.2403 137.269 95.6228C136.372 93.1448 135.427 90.6805 134.632 88.1698C134.084 86.4387 133.704 84.6489 133.339 82.8669C133.106 81.7261 133.033 80.5522 132.894 79.3923C132.793 78.546 132.67 77.701 132.615 76.8515C132.537 75.631 132.553 74.4037 132.454 73.1854C132.326 71.6144 132.559 70.0582 132.946 68.5814C133.324 67.137 134.062 65.7675 134.77 64.4319C135.59 62.8848 136.713 61.5564 138.232 60.6159C139.589 59.7757 141.037 59.1517 142.647 59.0338C143.942 58.9388 145.257 58.7904 146.54 58.9093ZM136.217 96.8258C136.127 96.9742 136.072 97.188 135.94 97.2606C135.169 97.687 134.398 98.1202 133.593 98.4759C132.228 99.0798 130.838 99.6277 129.388 100.199C127.12 101.209 124.879 102.132 122.741 103.252C120.612 104.368 118.632 105.738 116.783 107.305C114.077 109.599 111.894 112.291 110.483 115.541C109.907 116.869 109.512 118.324 109.32 119.759C109.065 121.658 109.096 123.595 108.994 125.515C108.907 127.127 108.812 128.738 108.707 130.348C108.667 130.956 108.195 130.505 107.946 130.615C107.927 130.624 107.721 130.38 107.733 130.267C107.852 129.196 108.067 128.132 108.123 127.058C108.193 125.705 108.129 124.346 108.142 122.989C108.167 120.389 108.663 117.893 109.744 115.514C110.752 113.299 112.11 111.336 113.722 109.52C116.156 106.779 119.069 104.682 122.245 102.914C125.249 101.243 128.364 99.815 131.588 98.6188C132.986 98.1001 134.348 97.4816 135.73 96.9175C135.88 96.8562 136.054 96.8549 136.217 96.8258ZM174.356 128.289C175.591 128.463 176.821 128.678 178.055 128.863C178.808 128.976 179.561 129.117 180.319 129.151C181.428 129.2 182.542 129.145 183.653 129.169C184.468 129.188 185.281 129.257 186.095 129.314C186.671 129.354 187.245 129.444 187.822 129.454C189.155 129.475 190.489 129.475 191.822 129.458C194.946 129.417 198.07 129.329 201.193 129.334C201.992 129.335 202.789 129.61 203.588 129.757C203.634 129.765 203.702 129.737 203.728 129.761C203.91 129.935 204.084 130.118 204.261 130.299C204.03 130.317 203.799 130.349 203.568 130.35C201.988 130.355 200.408 130.366 198.829 130.346C198.205 130.338 197.583 130.226 196.959 130.209C194.669 130.147 192.379 130.1 190.088 130.057C189.271 130.042 188.453 130.055 187.563 130.055C186.539 130.055 185.586 130.073 184.634 130.051C183.177 130.017 181.721 129.932 180.264 129.913C178.423 129.888 176.579 129.941 174.739 129.891C173.877 129.867 173.016 129.7 172.161 129.556C171.684 129.476 171.572 129.033 171.731 128.673C171.84 128.425 172.206 128.164 172.469 128.15C173.095 128.118 173.731 128.201 174.356 128.289ZM137.799 98.4642C137.748 98.4924 137.682 98.5086 137.649 98.5504C136.609 99.8643 135.452 101.105 134.565 102.515C133.372 104.409 132.387 106.438 131.797 108.618C131.479 109.797 131.249 110.999 130.972 112.19C130.79 112.97 130.378 113.615 129.704 114.047C128.808 114.621 127.859 115.115 126.977 115.708C124.78 117.184 123.388 119.273 122.576 121.752C122.123 123.139 121.837 124.559 122.099 126.045C122.259 126.948 122.325 127.868 122.425 128.781C122.441 128.926 122.411 129.076 122.402 129.224C122.209 129.207 121.924 129.262 121.841 129.158C121.615 128.872 121.37 128.534 121.318 128.189C121.164 127.16 121.103 126.116 120.996 125.079C120.973 124.863 120.908 124.651 120.863 124.437C120.671 124.651 120.451 124.846 120.291 125.081C119.224 126.653 118.174 128.236 117.105 129.806C117.027 129.921 116.844 129.964 116.71 130.041C116.675 129.801 116.533 129.506 116.624 129.331C116.963 128.684 117.333 128.042 117.773 127.46C118.803 126.098 119.97 124.831 120.906 123.411C121.523 122.474 121.857 121.345 122.275 120.286C122.703 119.202 123.379 118.315 124.253 117.56C125.356 116.608 126.454 115.649 127.589 114.658C128.361 113.84 129.186 113.123 129.81 112.26C130.634 111.122 130.927 109.736 131.26 108.385C131.965 105.529 133.22 102.939 135.073 100.646C135.534 100.075 135.972 99.4748 136.498 98.9687C136.784 98.6936 137.232 98.5844 137.612 98.4118C137.657 98.3913 137.736 98.4451 137.799 98.4642ZM34.6353 73.1423C35.4326 73.3487 35.5483 74.0421 34.9379 74.5718C33.5528 75.7739 32.8935 77.309 32.792 79.0913C32.736 80.0759 32.828 81.069 32.7733 82.0536C32.5931 85.3001 33.5411 88.288 34.945 91.1386C36.287 93.8638 38.2414 96.1081 41.0456 97.4193C42.6546 98.1713 44.3754 98.6995 46.0696 99.2561C47.5415 99.7395 49.0497 100.113 50.5372 100.55C51.9965 100.979 53.4338 101.368 54.9802 100.852C55.7734 100.588 56.3686 101.298 56.0646 102.066C54.9161 104.973 53.9373 107.99 51.9197 110.442C50.7092 111.912 49.3092 113.273 47.8111 114.453C45.6121 116.186 43.0836 117.422 40.5577 118.639C38.0943 119.827 35.6863 121.129 33.212 122.292C30.4243 123.603 27.5995 124.837 24.7727 126.062C22.4922 127.051 20.19 127.992 17.8854 128.924C17.3344 129.148 16.7441 129.304 16.1568 129.401C15.5684 129.499 14.2757 128.576 14.0448 127.966C13.4587 126.419 13.0603 124.827 12.8958 123.178C12.7957 122.174 12.6609 121.174 12.506 120.172C12.4702 120.101 12.4702 120.03 12.506 119.923C12.5656 118.55 12.5906 117.213 12.6072 115.876C12.6076 115.839 12.5179 115.801 12.4702 115.764V115.23C12.494 115.195 12.5387 115.196 12.5388 115.195C12.5838 113.957 12.6221 112.719 12.6702 111.481C12.6857 111.081 12.731 110.682 12.7557 110.282C12.9607 106.964 13.355 103.666 14.2043 100.449C14.882 97.8814 15.7769 95.384 16.8646 92.9449C18.1053 90.1624 19.6137 87.5458 21.3518 85.0581C22.2373 83.7906 23.2044 82.5691 24.2335 81.4137C25.4717 80.0238 26.7438 78.6474 28.1314 77.4094C29.7155 75.9961 31.4179 74.7079 33.1274 73.4437C33.5081 73.1621 34.181 73.0251 34.6353 73.1423ZM32.5565 75.0932C32.4761 75.1291 32.3853 75.1515 32.317 75.2033C30.1675 76.8324 28.0311 78.4783 26.2512 80.5224C25.1455 81.7925 24.0152 83.0448 22.9713 84.3638C20.4342 87.5697 18.4709 91.103 16.976 95.0017C16.9252 95.1468 16.8663 95.29 16.8249 95.4378C16.1826 97.7327 15.5029 100.018 14.92 102.328C14.6614 103.353 14.5872 104.425 14.4515 105.479C14.3022 106.638 14.1359 107.797 14.0569 108.962C13.9918 109.922 14.0795 110.891 14.0338 111.853C13.9771 113.048 13.8119 114.238 13.7718 115.433C13.7448 116.241 13.875 117.051 13.8949 117.862C13.9189 118.841 13.8823 119.822 13.9063 120.801C13.926 121.604 13.9453 122.412 14.0566 123.206C14.193 124.178 14.4359 125.134 14.6132 126.1C14.8694 127.496 15.4428 128.036 16.8092 128.135C17.767 128.205 18.4949 127.638 18.6289 126.741C18.6452 126.632 18.8169 126.443 18.8392 126.453C20.0466 127.02 21.0946 126.449 22.1528 126C24.4012 125.046 26.6596 124.113 28.8855 123.11C32.1973 121.616 35.4955 120.091 38.7773 118.534C40.3127 117.805 41.8206 117.011 43.299 116.172C46.1836 114.537 48.8207 112.596 50.9561 110.017C52.6115 108.017 53.6346 105.744 54.2276 103.257C54.34 102.784 54.1741 102.374 53.6094 102.253C52.0785 101.924 50.5511 101.579 49.018 101.261C45.9017 100.616 42.8892 99.7172 40.0885 98.1441C36.4924 96.124 34.1888 93.0732 32.8053 89.3048C32.149 87.5169 31.6219 85.6643 31.6355 83.7174C31.6458 82.2558 31.5171 80.7813 31.6728 79.3359C31.8168 78.0004 32.2582 76.6966 32.5633 75.3776C32.584 75.2879 32.5597 75.1881 32.5565 75.0932ZM92.5205 96.2179C93.3729 96.8034 94.216 97.4035 95.0418 98.0256C95.2657 98.1944 95.2832 98.3619 95.3846 97.9209C95.5434 97.2311 96.5245 97.0383 97.1122 97.5285C98.4597 98.6525 99.1401 100.164 99.6332 101.807C100.061 103.233 99.8915 104.681 99.9329 106.122C99.9598 107.046 100.826 107.743 101.734 107.78C102.406 107.808 103.113 108.103 103.717 108.436C105.179 109.243 106.12 110.515 106.582 112.119C107.079 113.845 106.616 115.382 105.616 116.817C104.706 118.121 103.877 119.488 102.556 120.444C101.825 120.974 100.984 121.413 100.411 122.081C99.7972 122.799 99.0922 123.267 98.2556 123.59C96.1953 124.385 93.9438 123.354 92.9345 121.636C92.0257 120.088 89.8368 120.428 88.9886 121.682C88.6185 122.23 88.5168 122.952 88.2401 123.572C88.0707 123.952 88.2352 123.894 88.4893 123.856C89.7486 123.669 91.0093 123.49 92.2697 123.312C92.3345 123.303 92.4038 123.328 92.4712 123.337C92.4213 123.375 92.375 123.42 92.3209 123.451C91.0709 124.157 89.7176 124.556 88.303 124.725C87.2309 124.853 86.1348 125.058 85.0782 124.949C84.2452 124.864 83.3979 124.45 82.6621 124.007C81.7948 123.485 81.5343 122.598 81.5511 121.562C81.5835 119.549 82.3556 117.851 83.6302 116.379C83.9973 115.955 84.6457 115.777 85.1615 115.479C85.3575 115.366 85.6429 115.352 85.2962 114.988C83.7825 113.398 82.4382 111.676 81.5184 109.66C81.3729 109.342 81.2232 109.014 81.1597 108.674C81.1209 108.466 81.1789 108.168 81.314 108.024C81.3992 107.934 81.7374 107.999 81.9085 108.092C82.1651 108.232 82.3686 108.467 82.6051 108.647C83.0091 108.954 83.233 108.823 83.1238 108.345C82.8128 106.984 83.0986 105.693 83.5771 104.446C83.835 103.773 84.2546 103.159 84.6444 102.546C84.6813 102.487 85.0562 102.575 85.2191 102.681C85.5214 102.876 85.7835 103.135 86.0622 103.367C86.081 102.995 86.0868 102.622 86.1231 102.252C86.1448 102.033 86.1989 101.812 86.2657 101.601C86.5997 100.542 86.7785 100.489 87.6627 101.152C87.7813 101.242 87.9232 101.3 88.0545 101.372L88.0927 101.103C88.0985 101.058 88.1037 101.013 88.1076 100.967C88.2051 99.8033 87.9722 98.7471 87.121 97.883C87.111 97.8726 87.2957 97.5687 87.4019 97.5606C88.6276 97.4641 89.8536 97.4135 90.975 98.0683C91.2041 98.2021 91.4328 98.3369 91.6975 98.507C91.8041 98.4101 91.9233 98.2828 91.9379 98.1441C92.004 97.5175 92.0341 96.8867 92.1067 96.2607C92.1106 96.227 92.4288 96.1551 92.5205 96.2179ZM84.3534 116.489C84.3259 116.541 84.308 116.602 84.2692 116.643C82.8743 118.115 82.2241 119.864 82.2756 121.893C82.3038 122.994 82.8909 123.805 83.9925 124.006C84.6923 124.134 85.4187 124.128 86.1341 124.148C86.2206 124.15 86.3616 123.948 86.3946 123.82C86.6055 123 86.5906 122.087 87.4687 121.459C87.7136 121.364 87.9589 121.27 88.2035 121.174C88.3146 121.13 88.5119 121.091 88.5168 121.036C88.5269 120.919 88.4711 120.738 88.3811 120.682C88.141 120.534 87.8779 120.37 87.6073 120.332C86.3596 120.159 85.4744 119.501 84.9667 118.369C84.725 117.831 84.5938 117.243 84.4127 116.678C84.3926 116.615 84.3732 116.552 84.3534 116.489ZM87.6819 121.957C87.5872 122.316 87.4787 122.672 87.411 123.036C87.4 123.097 87.5911 123.272 87.6469 123.255C87.8733 123.186 87.9459 122.098 87.6819 121.957ZM92.8542 96.9926C92.9307 97.2538 93.0385 97.5107 93.0768 97.7777C93.1639 98.3829 93.1118 98.9619 92.5172 99.3183C92.0419 99.6034 91.6859 99.261 91.3625 99.0108C90.6286 98.4429 89.7613 98.369 88.8998 98.2608C88.4293 98.2018 88.4076 98.3952 88.5615 98.8006C88.7877 99.3961 89.0692 100.029 89.0514 100.638C89.0404 101.02 88.5521 101.414 88.2265 101.753C87.9229 102.07 87.632 101.92 87.3915 101.608C87.3546 101.56 87.236 101.575 87.155 101.561C87.1609 101.689 87.144 101.824 87.1758 101.945C87.364 102.669 87.0941 103.368 86.3356 103.784C85.8101 104.072 85.4401 103.633 85.121 103.292C84.8809 103.037 84.8588 103.192 84.7571 103.387C83.8707 105.083 83.7692 106.857 84.2397 108.68C84.3566 109.133 84.1483 109.359 83.7741 109.342C83.3383 109.321 82.911 109.15 82.4762 109.063C82.2749 109.022 82.0647 109.026 81.8586 109.009C81.9147 109.207 81.9406 109.421 82.0313 109.602C82.7833 111.098 83.7504 112.452 85.0056 113.552C85.746 114.201 86.2002 114.77 86.1782 115.889C86.149 117.351 86.9273 118.547 88.2767 119.342C89.3518 119.975 90.4948 119.843 91.6288 119.882C92.2094 119.902 92.6313 120.102 92.9767 120.562L93.114 120.746C93.822 121.696 94.5225 122.642 95.7903 122.975C97.2194 123.349 98.5261 123.199 99.6281 122.192C99.8574 121.982 99.8597 121.481 99.8698 121.111C99.8717 121.044 99.4064 120.925 99.1495 120.896C98.1231 120.782 97.0911 121.042 96.0547 120.762C94.5905 120.366 93.2453 119.782 92.1359 118.726C91.9266 118.527 91.7506 118.292 91.5592 118.075C91.8964 118.154 92.2347 118.231 92.5707 118.315C92.6549 118.336 92.7508 118.361 92.8111 118.416C94.3799 119.862 96.2209 120.492 98.3489 120.324C100.508 120.154 101.621 119.02 101.732 117.125C101.847 115.167 101.469 113.272 100.569 111.497C100.438 111.241 100.44 110.885 100.471 110.584C100.593 109.417 100.886 108.239 99.6332 107.409C99.4226 107.269 99.3643 106.802 99.3497 106.482C99.3073 105.53 99.0076 105.176 98.0793 105.089C97.513 105.037 97.1958 104.698 97.0665 104.166C97.0289 104.012 97.0309 103.848 97.0147 103.689C96.8637 103.825 96.6725 103.936 96.5692 104.101C96.044 104.942 95.2605 105.462 94.4369 105.965C94.0196 106.22 93.8852 106.19 93.7815 105.719C93.7329 105.496 93.5524 105.303 93.4319 105.097C93.3156 105.262 93.195 105.425 93.0842 105.594C92.9378 105.816 92.8348 106.08 92.6504 106.263C91.993 106.917 91.3288 107.568 90.6202 108.163C90.466 108.293 90.003 108.295 89.8857 108.168C89.7312 108 89.7519 107.648 89.7444 107.373C89.737 107.1 89.8044 106.825 89.806 106.551C89.8066 106.444 89.7218 106.25 89.667 106.247C89.5497 106.24 89.3683 106.297 89.3148 106.388L89.0362 106.857C88.7575 107.328 88.4838 107.801 88.2596 108.297C87.6592 109.625 87.4133 111.035 87.3802 112.492C87.3754 112.698 87.1567 112.918 86.9921 113.088C86.9357 113.146 86.6447 113.103 86.6272 113.05C86.5501 112.82 86.4902 112.567 86.5064 112.328C86.532 111.948 86.6302 111.574 86.6859 111.196C87.0229 108.914 88.0107 106.973 89.7156 105.412C89.7781 105.355 89.9965 105.351 90.0001 105.364C90.155 105.893 90.2995 106.425 90.43 106.961C90.4595 107.082 90.4323 107.216 90.4313 107.345C90.5454 107.293 90.6734 107.259 90.7722 107.186C91.8504 106.388 92.7136 105.405 93.3324 104.207C93.4818 103.918 93.6904 103.661 93.8719 103.389L94.1897 103.968C94.2953 104.161 94.3997 104.356 94.4991 104.552C94.5374 104.627 94.4771 104.752 94.5137 104.83C94.5413 104.887 94.7007 104.952 94.7185 104.933C95.2696 104.364 95.7987 103.774 96.3583 103.214C96.5727 102.999 96.9768 102.645 97.0788 102.708C97.4116 102.911 97.6559 103.269 97.9076 103.589C97.965 103.662 97.8723 103.847 97.9254 103.932C98.023 104.087 98.2306 104.345 98.2993 104.318C98.645 104.184 98.9927 104.01 99.2717 103.77C99.3831 103.674 99.3206 103.375 99.2665 103.097C98.9794 101.283 98.263 99.6783 96.9551 98.3635C96.8728 98.2809 96.7879 98.2005 96.704 98.1192C96.6816 98.2287 96.6592 98.3379 96.6369 98.4471C96.5121 99.0494 95.8638 99.4123 95.396 99.0474C94.8056 98.5874 94.3375 97.9734 93.7734 97.4751C93.5213 97.2525 93.1639 97.1498 92.8542 96.9926ZM142.819 111.857C142.768 111.908 142.683 111.952 142.674 112.009C142.64 112.213 142.591 112.428 142.623 112.627C142.799 113.713 143.02 114.793 143.183 115.881C143.467 117.779 143.942 119.621 144.923 121.283C145.27 121.872 145.835 122.335 146.308 122.848C146.362 122.906 146.467 122.917 146.549 122.951C146.545 122.9 146.547 122.849 146.537 122.8C146.423 122.207 146.378 121.589 146.176 121.026C145.696 119.684 145.142 118.369 144.546 116.972C144.189 116.004 143.811 115.043 143.481 114.066C143.254 113.394 143.093 112.699 142.9 112.015C142.885 111.959 142.847 111.91 142.819 111.857ZM181.068 108.669C181.065 108.734 180.93 108.788 180.867 108.857C180.696 109.045 180.496 109.218 180.368 109.432C178.96 111.795 178.22 114.397 177.647 117.056C177.495 117.762 177.36 118.471 177.217 119.321C177.169 119.728 177.073 120.137 177.087 120.542C177.102 121.012 177.098 121.54 177.305 121.938C177.886 123.053 179.445 123.021 180.401 122.434C181.286 121.89 181.712 121.014 182.191 120.187C183.008 118.777 183.69 117.287 184.539 115.898C185.693 114.008 186.832 112.126 187.352 109.944C187.509 109.287 187.174 108.84 186.474 108.86C184.825 108.907 183.222 108.582 181.617 108.281C181.077 108.18 181.09 108.152 181.068 108.669ZM101.308 108.374C101.023 109.601 101.205 110.773 101.558 111.931C102.073 113.618 102.634 115.292 102.462 117.096C102.342 118.358 101.775 119.354 100.691 120.05C100.524 120.157 100.45 120.407 100.332 120.591C100.552 120.637 100.773 120.722 100.99 120.714C101.124 120.709 101.269 120.579 101.381 120.475C102.183 119.729 103.082 119.057 103.745 118.203C104.413 117.344 104.844 116.301 105.449 115.267C105.588 114.607 105.752 113.949 105.861 113.284C106.104 111.79 105.356 110.352 103.993 109.844C103.101 109.512 102.123 109.388 101.744 108.304C101.682 108.128 101.451 107.756 101.308 108.374ZM58.1324 75.9667C59.8746 76.1737 61.629 76.4967 63.3005 77.02C65.0919 77.5808 66.6614 78.6481 67.9318 80.0542C69.6636 81.9713 70.7934 84.1988 71.2952 86.7578C71.5078 87.8413 71.5748 88.9166 71.5541 90.0056C71.5411 90.697 71.4699 91.3871 71.4177 92.0772C71.3059 93.5534 71.6763 94.9576 72.0427 96.3638C72.4179 97.8046 72.2812 99.2483 72.149 100.711C71.9536 102.873 71.1407 104.828 70.2584 106.751C69.6908 107.989 68.9216 109.138 68.2052 110.304C67.599 111.29 66.9384 112.243 66.2664 113.246C65.3599 114.672 64.4754 116.055 63.6245 117.459C63.2497 118.078 62.9445 118.739 62.6059 119.379C62.5644 119.458 62.5233 119.541 62.4623 119.603C62.2524 119.818 62.0337 120.025 61.8179 120.235C61.7978 119.928 61.6766 119.585 61.7729 119.321C62.544 117.208 63.7318 115.323 65.0203 113.492C66.5801 111.276 68.2373 109.12 69.3435 106.619C70.0702 104.976 70.6433 103.285 70.8458 101.49C70.9631 100.45 71.0947 99.4071 71.1187 98.3632C71.1426 97.3267 71.0409 96.2873 70.9881 95.2492C70.9852 95.1977 70.8957 95.1034 70.8909 95.1063C70.7749 95.1727 70.6414 95.2298 70.5578 95.3279C70.1139 95.8509 69.6905 96.3906 69.2459 96.9129C68.1168 98.2404 66.7421 99.1333 65.007 99.5198C63.2931 99.9015 61.8523 99.4025 60.6343 98.2854C59.0915 96.8698 59.1145 95.1387 60.1762 93.4999C61.1476 92.0008 62.555 91.2057 64.3652 90.9513C66.1349 90.7025 67.7416 91.194 69.3483 91.7182C69.9419 91.912 70.3077 92.1203 70.3359 91.2802C70.3679 90.3293 70.309 89.3657 70.4451 88.4303C70.6197 87.2273 70.2004 86.1772 69.8612 85.0853C69.1902 82.9246 67.8936 81.2333 66.1589 79.8028C64.8279 78.7051 63.3349 77.9505 61.7068 77.5083C60.0259 77.0517 58.32 76.8424 56.5319 77.0239C53.6353 77.3177 51.1181 78.4265 48.831 80.1223C47.2107 81.3237 45.95 82.8792 44.8325 84.5527C44.666 84.8021 44.3912 84.979 44.1674 85.1906C43.8878 85.4547 43.5148 85.5308 43.3149 85.2217C43.1633 84.9871 43.1082 84.4869 43.2566 84.296L43.6013 83.8515C44.2921 82.9615 44.9968 82.0721 45.8175 81.3146C46.8229 80.3867 47.9753 79.6055 49.1168 78.8399C51.0248 77.5601 53.1153 76.6992 55.4008 76.3493C56.3135 76.2097 57.2498 75.862 58.1324 75.9667ZM85.583 117.512C85.572 117.602 85.5422 117.694 85.5529 117.782C85.6494 118.598 86.184 119.139 86.7892 119.591C86.9917 119.743 87.3462 119.69 87.6313 119.73C87.481 119.499 87.3404 119.26 87.1767 119.038C87.0795 118.906 86.9461 118.801 86.8291 118.541C86.4805 118.24 86.1331 117.937 85.7826 117.638C85.7233 117.587 85.6497 117.553 85.583 117.512ZM197.962 66.9193C197.198 67.5543 196.44 68.1971 195.715 68.8753C194.527 69.9876 193.774 71.4106 193.152 72.8686C191.844 75.9343 190.634 79.0421 189.396 82.1372C187.571 86.6988 185.756 91.2646 183.937 95.9711C183.842 96.1217 183.719 96.262 183.655 96.425C182.499 99.3643 181.353 102.308 180.196 105.247C179.305 107.513 178.359 109.758 177.516 112.041C176.736 114.153 176.231 116.344 175.938 118.577C175.909 118.793 175.982 119.021 176.008 119.243C176.03 119.054 176.022 118.855 176.084 118.68C176.125 118.562 176.314 118.495 176.352 118.377C177.077 116.137 177.742 113.876 178.52 111.654C179.056 110.125 179.728 108.642 180.369 107.151C180.669 106.455 180.936 106.388 181.609 106.72C182.063 106.946 182.525 107.156 182.97 107.4C183.672 107.784 184.415 107.931 185.209 107.86C185.774 107.81 186.482 107.157 186.495 106.55C186.509 105.956 186.245 105.479 185.556 105.416C185.126 105.377 184.685 105.398 184.264 105.317C183.953 105.256 183.667 105.073 183.369 104.945C183.563 104.797 183.743 104.623 183.956 104.509C184.087 104.439 184.268 104.461 184.427 104.443C185.492 104.32 186.395 104.829 187.331 105.193C189.016 105.85 189.966 105.725 190.823 104.6C191.283 103.997 191.591 103.264 191.895 102.558C193.276 99.3559 194.742 96.1836 195.965 92.9219C197.23 89.5471 198.41 86.1237 199.336 82.6449C200.333 78.9024 201.425 75.1547 201.618 71.2434C201.671 70.1661 201.579 69.1234 201.271 68.0601C200.775 66.3477 199.159 65.9233 197.962 66.9193ZM139.367 101.199C139.306 101.316 139.229 101.428 139.187 101.552C138.652 103.138 138.736 104.726 139.476 106.195C140.252 107.733 141.202 109.183 142.085 110.667C142.122 110.73 142.247 110.742 142.331 110.777C142.358 110.663 142.434 110.534 142.405 110.436C142.152 109.57 141.865 108.713 141.628 107.843C141.58 107.664 141.633 107.364 141.758 107.252C141.943 107.087 142.254 106.927 142.479 106.965C143.126 107.073 143.664 107.842 143.727 108.61C143.833 109.878 143.87 111.157 144.061 112.412C144.37 114.431 145.166 116.3 146.05 118.13C146.098 118.229 146.192 118.306 146.264 118.393C146.335 118.28 146.439 118.176 146.47 118.053C146.581 117.622 146.602 117.157 146.774 116.755C147.382 115.339 147.372 113.978 146.628 112.607C146.221 111.856 145.904 111.057 145.476 110.209C145.173 109.338 145.029 108.361 144.531 107.621C143.762 106.48 142.726 105.521 141.848 104.448C141.073 103.501 140.36 102.505 139.619 101.53L139.367 101.199ZM98.7834 114.714C98.9464 114.993 99.0721 115.251 99.2788 115.402C100.055 115.97 99.9683 117.498 99.2039 117.969C99.0329 118.074 98.7377 117.985 98.4996 117.986C98.4996 117.793 98.4403 117.576 98.5093 117.41C98.993 116.246 98.4908 115.293 97.2233 114.987C97.0247 114.94 96.8446 114.819 96.6557 114.732C96.829 114.625 96.9991 114.512 97.177 114.414C97.3672 114.308 97.5645 114.215 97.7592 114.118C98.4928 113.752 98.61 113.812 98.7834 114.714ZM100.067 108.628C100.182 109.29 100.146 110.006 100.028 110.672C99.9349 111.192 98.5715 111.478 97.8305 111.381C97.0474 111.28 96.5656 110.813 96.079 110.314C95.6552 109.88 95.1721 109.539 94.5737 109.78C93.9665 110.025 93.9435 110.628 93.972 111.27C93.8019 112.399 93.4737 113.313 92.4877 113.982C91.1824 114.867 89.6787 114.218 89.0922 113.146C89.0258 113.024 88.9082 112.931 88.8146 112.824C88.7436 112.929 88.6503 113.024 88.6053 113.138C88.2527 114.029 87.8701 114.91 87.5782 115.82C87.3964 116.388 87.6556 116.646 88.2353 116.64C88.6227 116.636 89.0106 116.633 89.3978 116.643C89.4992 116.646 89.5993 116.702 89.6997 116.733C89.644 116.828 89.6097 116.975 89.5283 117.008C89.1625 117.159 88.7294 117.461 88.4199 117.371C87.6073 117.136 86.8955 116.691 86.8492 115.684C86.7737 114.044 87.654 112.807 88.5904 111.601C89.6566 110.227 91.2306 109.742 92.8176 109.292C94.8108 108.728 96.8034 108.161 98.7973 107.598C99.2124 107.481 99.9534 107.974 100.067 108.628ZM92.4437 109.904C91.7328 110.186 91.0301 110.497 90.3503 110.846C89.1774 111.45 89.0543 112.518 90.0309 113.365C91.0466 114.245 92.3507 113.947 92.7343 112.688C92.9491 111.983 92.9955 111.227 93.1176 110.352C93.1507 109.822 92.8169 109.756 92.4437 109.904ZM95.3898 110.428C95.4523 110.453 95.5129 110.485 95.5774 110.502C96.5423 110.748 97.2927 112.319 96.8342 113.17C96.7435 113.338 96.5578 113.452 96.4162 113.591C96.3809 113.453 96.3414 113.315 96.311 113.175C96.2202 112.762 96.1331 112.347 96.0112 111.899C95.7912 111.447 95.603 111.03 95.42 110.611C95.396 110.556 95.3992 110.49 95.3898 110.428ZM98.3884 108.035C97.5885 108.314 96.819 108.68 95.8943 109.01C95.8706 109.117 95.7945 109.248 95.8311 109.328C96.2922 110.34 98.0239 111.052 99.0614 110.671C99.6734 110.447 100.012 109.671 99.8105 108.956C99.6708 108.46 98.8498 107.874 98.3884 108.035ZM171.912 83.5466C173.29 83.6808 174.39 84.2828 175.229 85.4689C175.69 86.1208 175.34 86.6609 175.232 87.2082C174.841 89.1813 174.369 91.138 173.921 93.0994C173.552 94.7143 173.176 96.3278 172.799 97.9407C172.296 100.09 171.791 102.239 171.282 104.387C170.915 105.932 170.545 107.476 170.166 109.019C170.127 109.18 170.027 109.326 169.955 109.479C169.888 109.318 169.752 109.151 169.765 108.998C169.87 107.78 169.975 106.561 170.134 105.35C170.301 104.076 170.505 102.805 170.732 101.54C171.004 100.03 171.29 98.5222 171.62 97.025C172.368 93.635 173.334 90.3098 174.439 87.0212C174.878 85.7148 173.631 84.8524 172.622 84.875C171.978 84.8893 171.421 85.0367 170.829 85.1812C170.731 85.2052 170.577 84.9884 170.449 84.8119C170.449 84.6939 170.434 84.6398 170.451 84.6003C170.589 84.2883 170.09 83.7161 170.824 83.6477C171.188 83.614 171.556 83.512 171.912 83.5466ZM101.219 102.52C102.084 102.533 102.948 102.648 103.812 102.64C105.048 102.628 106.227 102.891 107.33 103.377C108.301 103.805 109.197 104.397 110.162 104.951C111.288 105.954 112.145 107.075 112.474 108.511C112.517 108.699 112.31 108.944 112.218 109.163C112.071 109.031 111.83 108.923 111.789 108.764C111.005 105.724 108.796 104.244 105.912 103.502C104.336 103.096 102.742 103.197 101.142 103.339C100.935 103.358 100.471 103.631 100.454 103.085C100.438 102.584 100.862 102.515 101.219 102.52ZM142.331 59.915C139.522 60.3139 137.444 61.9261 135.869 64.2408C134.153 66.7634 133.579 69.6305 133.504 72.577C133.45 74.6804 133.701 76.798 133.91 78.8998C134.067 80.4703 134.289 82.0446 134.634 83.5836C135.069 85.523 135.668 87.4256 136.18 89.3485C137.035 92.5636 138.112 95.7034 139.478 98.7374C140.934 101.971 142.847 104.901 145.536 107.27C146.404 108.035 147.41 108.588 148.58 108.704C150.038 108.848 151.453 108.574 152.847 108.148C155.829 107.235 158.841 106.416 161.793 105.417C164.489 104.505 166.168 102.549 166.766 99.7716C167.215 97.6889 167.594 95.5881 167.907 93.4811C168.175 91.6881 168.392 89.8789 168.467 88.07C168.525 86.6865 168.344 85.2914 168.239 83.9037C168.159 82.8461 168.03 81.7922 167.923 80.5943C167.576 78.4893 166.946 76.4747 166.115 74.5048C164.854 71.512 163.117 68.8785 160.767 66.606C158.206 64.129 155.146 62.5531 151.817 61.4693C149.939 60.8576 147.995 60.4075 146.049 60.0531C144.838 59.8321 143.543 59.743 142.331 59.915ZM58.6774 79.1778C58.5938 79.3084 58.5193 79.4461 58.4253 79.5682C56.6773 81.8414 54.8266 84.0437 53.2034 86.4024C51.2879 89.1855 49.6877 92.1667 48.4451 95.3759C47.9614 96.3819 47.5185 97.3549 47.062 98.3217C46.8203 98.8336 46.3181 98.7691 45.9756 98.6045C45.6049 98.4257 45.6506 98.0479 45.8726 97.6504C47.7022 94.3763 49.458 91.0602 51.3297 87.8108C52.478 85.8176 53.7182 83.8674 55.058 81.9995C55.7747 81 56.7855 80.2107 57.6759 79.3392C57.7942 79.2235 57.9788 79.1415 58.1437 79.1169C58.3145 79.091 58.4989 79.1538 58.6774 79.1778ZM63.3673 92.247C61.4071 92.7667 60.4331 94.2017 60.6029 96.0884C60.7098 97.2774 61.1803 98.0388 62.3078 98.3593C63.5999 98.727 64.8901 98.5585 66.1067 98.0693C67.8521 97.3675 69.28 96.3061 69.7128 94.1764C69.7582 93.6026 69.5933 93.183 69.082 92.8095C67.2702 91.485 65.3579 91.7189 63.3673 92.247ZM104.224 54.8918C104.177 54.9514 104.129 54.975 104.081 55.0343C103.928 55.1033 103.738 55.0904 103.627 55.1772C100.856 57.3422 99.1181 60.1704 98.2047 63.5309C97.7712 65.1266 97.5745 66.7544 97.6465 68.3961C97.7728 71.2849 98.6797 73.9255 100.323 76.3282C102.118 78.9533 104.503 80.8853 107.351 82.2406C108.983 83.0175 110.715 83.5764 112.549 83.6743C113.375 83.7184 114.22 83.5826 115.03 83.7028C116.586 83.9345 118.033 83.5159 119.47 83.0976C122.364 82.2558 124.911 80.8014 127.093 78.6996C128.703 77.1489 130.094 75.4632 131.014 73.4181C131.032 73.3779 131.054 73.3397 131.075 73.3008C131.102 73.3536 131.159 73.4106 131.152 73.4592C131.015 74.4973 131.082 75.5484 130.344 76.475C128.058 79.3427 125.408 81.7588 121.974 83.1617C120.505 83.7621 118.937 84.1477 117.386 84.5128C116.452 84.7325 115.463 84.8261 114.503 84.8008C112.075 84.737 109.732 84.2244 107.491 83.2599C105.097 82.2302 103.002 80.7839 101.217 78.9057C99.1401 76.7212 97.6905 74.1785 97.0782 71.2223C96.8342 70.0449 96.6401 68.828 96.6567 67.6321C96.7085 63.896 97.8065 60.4516 99.9822 57.3934C100.575 56.56 101.372 55.8676 102.096 55.1296C102.436 54.7819 103.951 54.6144 104.224 54.8918ZM107.277 54.928C107.314 54.9323 107.345 54.976 107.378 55.0016C107.317 55.0236 107.255 55.0482 107.192 55.0674C104.754 55.8119 103.017 57.4125 101.857 59.629C101.146 60.9872 100.761 62.4633 100.544 64.003C100.102 67.1325 100.825 70.0138 102.327 72.6991C104.184 76.0169 106.809 78.5415 110.442 79.8488C111.601 80.2655 112.798 80.7133 114.007 80.8224C116.91 81.0846 119.699 80.5642 122.283 79.1098C124.21 78.0254 125.793 76.5742 127.213 74.8897C128.86 72.9356 129.796 70.6582 130.379 68.2243C130.583 67.3709 130.495 66.4482 130.549 65.5575C130.559 65.3906 130.605 65.2261 130.635 65.0605C130.83 65.1613 131.131 65.2144 131.202 65.3712C131.452 65.9308 131.838 66.5476 131.78 67.102C131.662 68.2412 131.376 69.3836 131.006 70.4723C130.045 73.2979 128.348 75.6553 126.145 77.6398C124.095 79.4863 121.732 80.7761 119.043 81.4235C118.133 81.6428 117.212 81.8946 116.285 81.948C115.427 81.9976 114.547 81.8476 113.691 81.7031C112.55 81.5109 111.385 81.3509 110.296 80.9806C107.29 79.958 104.768 78.2204 102.735 75.7288C101.11 73.7385 100.172 71.477 99.7217 68.9968C99.1919 66.0785 99.6666 63.2513 100.746 60.5213C101.477 58.6741 102.542 57.0373 104.002 55.6729C104.112 55.5696 104.173 55.4131 104.257 55.2102C104.305 55.1153 104.352 55.0917 104.399 55.0677C105.335 54.5337 106.311 54.8156 107.277 54.928ZM214.432 80.376C215.41 80.3867 216.386 80.5195 217.364 80.596C218.553 80.6893 219.742 80.8066 220.934 80.8526C222.074 80.8963 223.219 80.8341 224.359 80.874C224.921 80.8934 225.494 80.9929 226.028 81.1516C226.21 81.2057 226.289 81.5527 226.415 81.7656C226.242 81.8171 226.072 81.8835 225.894 81.9166C225.688 81.9551 225.475 81.9645 225.23 81.9535C222.858 81.8764 220.523 81.8149 218.187 81.7967C217.241 81.7893 216.294 81.9111 215.348 81.9056C214.884 81.903 214.42 81.7514 213.959 81.6538C213.478 81.5518 213.335 81.1529 213.514 80.862C213.667 80.6118 214.117 80.3727 214.432 80.376ZM114.318 56.9002C114.852 59.4491 115.348 62.0068 115.872 64.5583C116.141 65.8682 115.821 66.4119 114.695 67.0476C113.207 67.888 111.767 68.8241 110.344 69.7789C109.632 70.2568 109.047 70.4233 108.657 70.0456C108.289 69.6888 108.228 69.3745 108.719 69.0399C110.258 67.9927 111.804 66.9526 113.291 65.8326C113.615 65.5886 113.907 65.0064 113.873 64.6101C113.752 63.1628 113.493 61.7269 113.27 60.2893C113.177 59.6895 113.044 59.0963 112.929 58.4282C112.874 57.8389 112.716 57.3026 112.802 56.8108C112.855 56.5024 113.244 56.0815 113.536 56.0287C114.055 55.935 114.231 56.4852 114.318 56.9002ZM212.389 50.9441C212.476 51.0349 212.524 51.2817 212.462 51.3721C212.169 51.8044 211.833 52.2077 211.476 52.6568C210.324 54.2266 209.223 55.7714 208.076 57.2822C207.926 57.4799 207.44 57.6684 207.287 57.5751C206.897 57.3376 207.248 57.0843 207.41 56.8153C208.481 55.0291 209.519 53.2228 210.581 51.4314C211.07 50.6065 211.866 50.3969 212.389 50.9441ZM179.725 27.8645C179.913 27.8803 180.123 28.1067 180.25 28.2935C180.714 28.9789 180.47 29.7493 180.378 30.4614C180.217 31.7038 179.925 32.9284 179.697 34.1622C179.591 34.7386 179.507 35.3192 179.414 35.9692C179.226 36.9363 179.022 37.8289 178.855 38.7287C178.551 40.3626 178.279 42.0027 177.973 43.6366C177.718 44.9997 177.443 46.3586 177.161 47.7161C176.7 49.9452 176.241 52.1753 175.747 54.397C175.611 55.0064 175.137 55.2349 174.747 54.9433C174.616 54.8448 174.485 54.5927 174.516 54.4466C175.244 51.0481 176.025 47.6614 176.731 44.2584C177.251 41.7565 177.622 39.2221 178.164 36.7257C178.68 34.3476 178.946 31.9633 178.87 29.5295C178.857 29.1086 179.054 28.664 179.225 28.2615C179.303 28.0792 179.565 27.8511 179.725 27.8645ZM141.15 44.7418C141.287 44.9731 141.428 45.2025 141.567 45.5055C141.798 46.7367 142.037 47.8937 142.259 49.0542C142.37 49.6394 142.456 50.23 142.54 50.8204C142.56 50.9668 142.527 51.1217 142.519 51.273C142.315 51.2386 141.985 51.2736 141.927 51.1586C141.63 50.5667 141.362 49.9501 141.16 49.3154C140.93 48.5886 140.833 47.812 140.573 47.0995C140.43 46.7095 140.042 46.4253 139.816 46.0585C139.621 45.7417 139.391 45.3788 139.382 45.0298C139.375 44.8063 139.71 44.4301 139.948 44.3728C140.363 44.2726 140.856 44.2448 141.15 44.7418Z" fill="#00160A"/>
<path d="M93.8139 115.784C94.6579 115.558 95.269 115.101 95.1786 114.764C95.0882 114.426 94.3304 114.336 93.4864 114.562C92.642 114.788 92.0313 115.245 92.1217 115.583C92.2121 115.92 92.9696 116.01 93.8139 115.784Z" fill="#FFB61D"/>
<path fill-rule="evenodd" clip-rule="evenodd" d="M99.6236 113.04C100.226 112.814 100.574 112.357 100.45 112.02C100.333 111.682 99.887 111.592 99.4036 111.818C98.8729 112.044 98.3999 112.501 98.397 112.838C98.4018 113.176 98.9734 113.267 99.6236 113.04Z" fill="#FFB61D"/>
</g>
<defs>
<clipPath id="clip0_334_2">
<rect width="243" height="243" rx="40" fill="white"/>
</clipPath>
</defs>
</svg>
