<svg width="48" height="48" viewBox="0 0 48 48" fill="none" xmlns="http://www.w3.org/2000/svg">
<path d="M36.75 24C36.75 26.5217 36.0022 28.9868 34.6012 31.0835C33.2002 33.1802 31.209 34.8144 28.8792 35.7795C26.5495 36.7445 23.9859 36.997 21.5126 36.505C19.0393 36.0131 16.7675 34.7987 14.9844 33.0156C13.2013 31.2325 11.9869 28.9607 11.495 26.4874C11.003 24.0141 11.2555 21.4505 12.2205 19.1208C13.1856 16.791 14.8198 14.7998 16.9165 13.3988C19.0132 11.9978 21.4783 11.25 24 11.25C27.38 11.255 30.6201 12.5999 33.0101 14.9899C35.4001 17.3799 36.745 20.62 36.75 24ZM24 8.25C24.3978 8.25 24.7794 8.09196 25.0607 7.81066C25.342 7.52936 25.5 7.14782 25.5 6.75V5.25C25.5 4.85218 25.342 4.47064 25.0607 4.18934C24.7794 3.90804 24.3978 3.75 24 3.75C23.6022 3.75 23.2206 3.90804 22.9393 4.18934C22.658 4.47064 22.5 4.85218 22.5 5.25V6.75C22.5 7.14782 22.658 7.52936 22.9393 7.81066C23.2206 8.09196 23.6022 8.25 24 8.25ZM10.7437 12.8625C11.0273 13.1385 11.4074 13.293 11.8031 13.293C12.1988 13.293 12.5789 13.1385 12.8625 12.8625C13.143 12.5813 13.3006 12.2003 13.3006 11.8031C13.3006 11.4059 13.143 11.0249 12.8625 10.7437L11.7938 9.675C11.5084 9.41646 11.1346 9.27755 10.7497 9.28703C10.3647 9.2965 9.99818 9.45364 9.72591 9.72591C9.45364 9.99818 9.2965 10.3647 9.28703 10.7497C9.27755 11.1346 9.41646 11.5084 9.675 11.7938L10.7437 12.8625ZM6.75 22.5H5.25C4.85218 22.5 4.47064 22.658 4.18934 22.9393C3.90804 23.2206 3.75 23.6022 3.75 24C3.75 24.3978 3.90804 24.7794 4.18934 25.0607C4.47064 25.342 4.85218 25.5 5.25 25.5H6.75C7.14782 25.5 7.52936 25.342 7.81066 25.0607C8.09196 24.7794 8.25 24.3978 8.25 24C8.25 23.6022 8.09196 23.2206 7.81066 22.9393C7.52936 22.658 7.14782 22.5 6.75 22.5ZM10.7437 35.1375L9.675 36.2063C9.39448 36.4875 9.23694 36.8684 9.23694 37.2656C9.23694 37.6628 9.39448 38.0438 9.675 38.325C9.96293 38.6002 10.3454 38.7546 10.7437 38.7562C11.1367 38.7556 11.5138 38.6007 11.7938 38.325L12.8625 37.2562C13.121 36.9709 13.26 36.5971 13.2505 36.2122C13.241 35.8272 13.0839 35.4607 12.8116 35.1884C12.5393 34.9161 12.1728 34.759 11.7878 34.7495C11.4029 34.74 11.0291 34.879 10.7437 35.1375ZM24 39.75C23.6022 39.75 23.2206 39.908 22.9393 40.1893C22.658 40.4706 22.5 40.8522 22.5 41.25V42.75C22.5 43.1478 22.658 43.5294 22.9393 43.8107C23.2206 44.092 23.6022 44.25 24 44.25C24.3978 44.25 24.7794 44.092 25.0607 43.8107C25.342 43.5294 25.5 43.1478 25.5 42.75V41.25C25.5 40.8522 25.342 40.4706 25.0607 40.1893C24.7794 39.908 24.3978 39.75 24 39.75ZM37.2562 35.1375C36.9709 34.879 36.5971 34.74 36.2122 34.7495C35.8272 34.759 35.4607 34.9161 35.1884 35.1884C34.9161 35.4607 34.759 35.8272 34.7495 36.2122C34.74 36.5971 34.879 36.9709 35.1375 37.2562L36.2063 38.325C36.4862 38.6007 36.8633 38.7556 37.2562 38.7562C37.6546 38.7546 38.0371 38.6002 38.325 38.325C38.6055 38.0438 38.7631 37.6628 38.7631 37.2656C38.7631 36.8684 38.6055 36.4875 38.325 36.2063L37.2562 35.1375ZM42.75 22.5H41.25C40.8522 22.5 40.4706 22.658 40.1893 22.9393C39.908 23.2206 39.75 23.6022 39.75 24C39.75 24.3978 39.908 24.7794 40.1893 25.0607C40.4706 25.342 40.8522 25.5 41.25 25.5H42.75C43.1478 25.5 43.5294 25.342 43.8107 25.0607C44.092 24.7794 44.25 24.3978 44.25 24C44.25 23.6022 44.092 23.2206 43.8107 22.9393C43.5294 22.658 43.1478 22.5 42.75 22.5ZM36.2063 13.2938C36.4012 13.2955 36.5945 13.2582 36.7748 13.1841C36.9551 13.1101 37.1188 13.0007 37.2562 12.8625L38.325 11.7938C38.4756 11.6573 38.5969 11.4917 38.6815 11.307C38.7661 11.1222 38.8124 10.9222 38.8174 10.7191C38.8224 10.516 38.786 10.3139 38.7106 10.1253C38.6352 9.93658 38.5222 9.7652 38.3785 9.62152C38.2348 9.47783 38.0634 9.36484 37.8747 9.2894C37.6861 9.21395 37.484 9.17763 37.2809 9.18263C37.0778 9.18763 36.8778 9.23386 36.693 9.31849C36.5083 9.40313 36.3427 9.52442 36.2063 9.675L35.1375 10.7437C34.857 11.0249 34.6994 11.4059 34.6994 11.8031C34.6994 12.2003 34.857 12.5813 35.1375 12.8625C35.2771 13.003 35.4439 13.1137 35.6276 13.1878C35.8113 13.262 36.0082 13.298 36.2063 13.2938Z" fill="black"/>
</svg>
