<svg xmlns="http://www.w3.org/2000/svg" width="60" height="120" viewBox="0 0 60 161" fill="none">
<path d="M0 0H60V131C60 147.569 46.5685 161 30 161C13.4315 161 0 147.569 0 131V0Z" fill="#8B3DFF"/>
<rect x="5" y="105" width="50" height="50" rx="25" fill="white"/>
<path d="M26.4624 150.316C23.4842 150.316 21.2279 149.594 19.6937 148.15C18.1895 146.676 17.4374 144.51 17.4374 141.652C17.4374 140.238 17.648 138.659 18.0692 136.914L22.6719 118.593C20.0848 119.285 18.0692 120.518 16.6252 122.293C15.1812 124.038 14.4592 125.963 14.4592 128.069C14.4592 129.543 14.8503 130.972 15.6324 132.356C13.9177 132.356 12.579 131.935 11.6163 131.093C10.6837 130.25 10.2174 129.062 10.2174 127.528C10.2174 125.572 10.9996 123.707 12.5639 121.932C14.1583 120.127 16.2642 118.683 18.8814 117.6C21.4987 116.517 24.2663 115.976 27.1844 115.976C28.2073 115.976 29.0496 116.051 29.7114 116.201L24.2062 137.049C23.6948 138.944 23.4391 140.569 23.4391 141.923C23.4391 144.781 24.6123 146.209 26.9588 146.209C30.3281 146.209 32.6596 143.111 33.9532 136.914L38.4657 116.066H44.8283L40.4512 136.914C39.4885 141.336 37.8189 144.675 35.4423 146.931C33.0958 149.188 30.1025 150.316 26.4624 150.316Z" fill="#8B3DFF"/>
</svg>