<svg width="26" height="26" viewBox="0 0 26 26" fill="none" xmlns="http://www.w3.org/2000/svg">
    <path d="M20.3125 2.4375H7.3125C6.88152 2.4375 6.4682 2.6087 6.16345 2.91345C5.8587 3.2182 5.6875 3.63152 5.6875 4.0625V6.5H4.0625C3.63152 6.5 3.2182 6.67121 2.91345 6.97595C2.6087 7.2807 2.4375 7.69402 2.4375 8.125V17.875C2.4375 18.306 2.6087 18.7193 2.91345 19.024C3.2182 19.3288 3.63152 19.5 4.0625 19.5H5.6875V21.9375C5.6875 22.3685 5.8587 22.7818 6.16345 23.0865C6.4682 23.3913 6.88152 23.5625 7.3125 23.5625H20.3125C20.7435 23.5625 21.1568 23.3913 21.4615 23.0865C21.7663 22.7818 21.9375 22.3685 21.9375 21.9375V4.0625C21.9375 3.63152 21.7663 3.2182 21.4615 2.91345C21.1568 2.6087 20.7435 2.4375 20.3125 2.4375ZM6.92656 15.6305L5.70781 10.7555C5.68247 10.6514 5.67787 10.5434 5.69427 10.4376C5.71067 10.3318 5.74775 10.2303 5.80339 10.1388C5.85903 10.0473 5.93215 9.96768 6.01856 9.90446C6.10498 9.84124 6.203 9.79565 6.30703 9.77031C6.51713 9.71913 6.73896 9.75351 6.92371 9.86589C7.01519 9.92153 7.09482 9.99465 7.15804 10.0811C7.22126 10.1675 7.26685 10.2655 7.29219 10.3695L7.93203 12.9492L8.60234 11.4563C8.66645 11.3132 8.77056 11.1918 8.9021 11.1066C9.03365 11.0215 9.18703 10.9761 9.34375 10.9761C9.50047 10.9761 9.65385 11.0215 9.7854 11.1066C9.91694 11.1918 10.021 11.3132 10.0852 11.4563L10.7555 12.9492L11.3953 10.3695C11.4207 10.2655 11.4662 10.1675 11.5295 10.0811C11.5927 9.99465 11.6723 9.92153 11.7638 9.86589C11.8553 9.81025 11.9568 9.77317 12.0626 9.75677C12.1684 9.74037 12.2764 9.74497 12.3805 9.77031C12.4845 9.79565 12.5825 9.84124 12.6689 9.90446C12.7554 9.96768 12.8285 10.0473 12.8841 10.1388C12.9398 10.2303 12.9768 10.3318 12.9932 10.4376C13.0096 10.5434 13.005 10.6514 12.9797 10.7555L11.7609 15.6305C11.7196 15.7957 11.6281 15.944 11.4989 16.0549C11.3698 16.1659 11.2094 16.2341 11.0398 16.25H10.9688C10.8109 16.2507 10.6564 16.2048 10.5245 16.1181C10.3926 16.0314 10.2893 15.9077 10.2273 15.7625L9.34375 13.782L8.46016 15.7625C8.39274 15.9185 8.27808 16.0495 8.13233 16.137C7.98657 16.2244 7.81706 16.2639 7.64766 16.25C7.47812 16.2341 7.31772 16.1659 7.18856 16.0549C7.0594 15.944 6.96786 15.7957 6.92656 15.6305V15.6305ZM20.3125 21.9375H7.3125V19.5H14.625C15.056 19.5 15.4693 19.3288 15.774 19.024C16.0788 18.7193 16.25 18.306 16.25 17.875V17.0625H20.3125V21.9375ZM20.3125 15.4375H16.25V10.5625H20.3125V15.4375ZM20.3125 8.9375H16.25V8.125C16.25 7.69402 16.0788 7.2807 15.774 6.97595C15.4693 6.67121 15.056 6.5 14.625 6.5H7.3125V4.0625H20.3125V8.9375Z" fill="black"/>
</svg>
