<svg width="269" height="269" viewBox="0 0 269 269" fill="none" xmlns="http://www.w3.org/2000/svg">
<g clip-path="url(#clip0_450_374)">
<path d="M269 0H0V269H269V0Z" fill="#F3F5F7"/>
<path fill-rule="evenodd" clip-rule="evenodd" d="M89.6662 201.06C51.8624 185.777 52.0955 204.963 35.246 176.671C18.3964 148.379 33.9712 106.696 83.4168 93.819C132.862 80.9421 201.57 20.1787 238.249 121.221C248.556 149.615 228.694 225.242 157.336 225.092C106.253 224.982 115.216 211.103 89.6662 201.06Z" fill="#8B3DFF"/>
<path fill-rule="evenodd" clip-rule="evenodd" d="M151.988 142.598C151.81 142.457 151.856 142.028 151.909 141.739C152.245 139.906 153.866 138.678 155.296 137.533C156.725 136.387 158.204 134.849 158.055 132.989C157.855 130.476 159.013 128.094 159.72 125.68C160.427 123.267 160.552 120.293 158.75 118.588C158.126 117.997 157.33 117.626 156.701 117.04C156.072 116.454 155.62 115.503 155.978 114.711C155.674 114.894 155.369 115.076 155.064 115.259C154.979 114.034 153.587 113.489 152.54 112.902C150.744 111.895 149.431 109.862 149.575 107.76C149.719 105.659 151.552 103.724 153.593 103.842C154.47 103.893 155.595 104.17 156.03 103.385C157.639 100.484 161.81 100.149 163.704 97.4372C164.117 96.8464 166.108 95.0818 165.912 96.3296C165.475 99.1042 167.905 98.299 168.864 99.4604C173.042 104.523 173.364 112.194 172.61 119.464C170.998 135.02 161.382 149.988 151.988 142.598Z" fill="#F3F5F7"/>
<path fill-rule="evenodd" clip-rule="evenodd" d="M163.33 100.864C164.303 99.8176 165.721 99.1989 167.15 99.1989C169.511 100.423 171.847 102.079 174.157 104.167C175.605 103.594 176.626 103.477 177.219 103.817C178.108 104.328 178.653 105.296 178.911 106.289C179.737 109.472 177.979 112.764 175.815 115.24C174.872 116.32 173.82 117.351 173.242 118.664C172.664 119.976 172.69 121.688 173.742 122.663C176.371 125.1 177.249 128.945 177.102 132.527C176.955 136.109 175.934 139.591 175.362 143.131C174.727 147.059 174.648 151.077 175.127 155.027C175.275 156.247 175.488 157.496 176.125 158.546C176.762 159.597 177.915 160.418 179.14 160.328C178.706 160.949 177.661 160.992 177.177 160.409C177.653 160.904 178.129 161.399 178.606 161.894C178.029 161.773 177.453 161.652 176.877 161.532C181.693 164.27 186.681 166.707 191.801 168.823C191.502 167.817 190.447 167.269 189.492 166.833C186.827 165.614 184.162 164.395 181.497 163.176C185.5 163.539 189.367 165.278 192.295 168.034C195.823 171.353 201.533 171.167 205.359 174.138C206.179 174.775 206.917 175.588 207.193 176.59C207.579 177.997 206.96 179.536 205.941 180.58C204.921 181.624 203.557 182.255 202.192 182.772C198.115 184.317 193.731 185.045 189.374 184.903C189.005 184.253 189.374 183.387 189.976 182.943C190.577 182.5 191.344 182.364 192.074 182.207C195.184 181.538 198.161 180.26 200.788 178.468C201.378 178.065 202.019 177.342 201.64 176.736C201.499 176.511 201.249 176.383 201.01 176.269C196.884 174.299 192.276 173.352 187.708 173.535C189.057 173.292 190.405 173.048 191.753 172.805C188.189 170.678 184.443 168.859 180.569 167.373C179.364 166.91 177.898 166.513 176.874 167.298C174.375 169.214 171.876 171.131 169.377 173.047C172.599 173.104 175.806 173.896 178.684 175.347C178.026 176.786 176.546 177.813 174.967 177.926C175.714 177.16 176.461 176.394 177.208 175.628C171.889 172.33 164.302 175.777 158.975 172.491C156.599 171.026 155.024 168.385 152.448 167.309C149.991 166.283 147.192 166.908 144.607 167.548C142.912 167.967 141.13 168.432 139.879 169.651C139.914 168.425 141.079 167.537 142.225 167.101C143.371 166.664 144.644 166.462 145.608 165.704C146.587 164.936 147.087 163.721 147.858 162.745C148.63 161.769 149.998 161 151.088 161.599C150.752 159.007 152.954 156.894 154.446 154.749C156.146 152.306 157.055 149.321 157.004 146.345C155.111 147.352 154.259 149.947 155.188 151.881C155.6 152.739 154.779 153.823 153.829 153.891C152.879 153.958 152.007 153.259 151.577 152.409C151.148 151.558 151.069 150.579 151.005 149.629C150.914 148.286 150.839 146.915 151.185 145.614C151.84 143.149 153.896 141.315 156.029 139.918C158.163 138.521 160.505 137.379 162.294 135.561C164.267 133.555 165.436 130.78 165.493 127.967C166.316 131.715 164.461 100.608 163.33 100.864ZM154.653 152.442C154.673 151.667 154.432 150.887 153.979 150.259C153.82 151.037 154.083 151.888 154.653 152.442Z" fill="#F3F5F7"/>
<path fill-rule="evenodd" clip-rule="evenodd" d="M127.944 151.22C126.39 152.311 124.781 153.463 123.877 155.13C122.972 156.797 123.014 159.138 124.49 160.334C128.101 163.26 126.946 169.086 129.102 173.197C130.285 175.453 132.561 177.589 131.923 180.054C131.422 181.985 129.345 182.994 127.495 183.754C126.626 184.111 125.707 184.475 124.775 184.354C123.843 184.232 122.929 183.431 123.044 182.502C123.25 180.839 126.171 180.538 126.223 178.864C126.238 178.394 125.997 177.958 125.763 177.549C124.182 174.787 122.601 172.024 121.02 169.262C119.171 173.123 118.428 177.503 118.902 181.754C119.051 183.089 118.052 184.339 116.839 184.921C115.625 185.505 114.234 185.567 112.888 185.618C111.785 185.66 110.611 185.686 109.663 185.121C108.716 184.556 108.185 183.163 108.898 182.324C109.54 181.568 110.716 181.669 111.652 181.338C114.138 180.456 114.244 177.041 113.891 174.436C113.208 169.403 112.525 164.37 111.842 159.337C111.497 156.789 111.11 154.132 109.634 152.022C104.559 144.765 111.2 133.698 106.401 126.256C104.927 123.971 103.446 121.6 102.952 118.93C102.459 116.259 103.174 113.188 105.388 111.605C107.05 110.417 107.25 108.087 107.477 106.062C107.894 102.353 108.911 98.7108 110.479 95.3207C106.904 92.7229 102.571 91.1741 98.1549 90.9155C98.2915 91.7197 98.5831 92.498 99.0085 93.1949C96.4663 92.2433 94.5072 89.8869 94.0417 87.2213C93.6346 88.1631 93.2279 89.1053 92.8208 90.0476C89.3209 82.9162 91.8398 74.4445 94.4021 66.9279C95.1482 64.7393 95.8942 62.5507 96.6402 60.3622C97.5376 57.7288 98.8213 54.7225 101.526 54.0356C103.191 53.6128 105.434 55.2113 104.556 56.6822C102.373 56.1353 103.557 58.3321 104.379 57.4028C106.245 55.2942 107.766 52.7889 109.998 51.0601C114.255 47.7647 120.589 47.9745 125.211 50.7402C129.832 53.5059 132.859 58.411 134.358 63.5704C134.575 64.3172 134.759 65.1425 134.438 65.8508C134.116 66.5592 133.064 66.9555 132.533 66.3863C131.792 65.5933 130.764 67.0922 130.813 68.1743C131.062 73.7193 134.6 78.5261 136.246 83.829C137.851 89.0006 137.622 94.5363 137.379 99.9443C137.039 107.465 136.102 128.272 135.797 131.14C135.223 136.545 134.03 141.908 134.103 147.342C134.197 154.325 136.374 161.098 138.67 167.696C139.625 170.442 140.643 173.248 142.544 175.452C144.444 177.657 147.443 179.161 150.282 178.494C148.268 180.508 144.828 180.437 142.328 179.068C139.828 177.699 138.068 175.32 136.469 172.967C135.449 171.465 132.674 174.453 131.47 173.094C132.952 172.784 134.354 172.099 135.507 171.121C132.986 164.487 130.465 157.854 127.944 151.22ZM114.997 72.3122C114.739 72.0511 114.336 71.7925 114.036 72.0038C114.367 72.3377 114.269 72.9822 113.853 73.2031C113.359 73.0227 113.535 72.2925 113.396 71.7864C113.219 71.1354 112.464 70.8524 111.805 70.6989C108.42 69.9099 104.485 69.775 102.236 67.1345C102.027 66.8888 101.829 66.6187 101.545 66.4638C100.965 66.1474 100.2 66.4405 99.7886 66.9559C99.3769 67.4713 99.2384 68.1477 99.1423 68.7994C98.6559 72.1002 98.9389 75.5112 99.9629 78.6875C100.148 79.2607 100.366 79.8431 100.778 80.2839C101.904 81.4883 103.851 81.1501 105.479 80.8736C106.995 80.6164 108.534 80.4966 110.07 80.5164C110.783 80.5253 111.485 80.3636 112.179 80.2022C114.013 79.7764 115.846 79.3507 117.68 78.9249C117.703 76.4849 116.716 74.0507 114.997 72.3122Z" fill="#F3F5F7"/>
<path fill-rule="evenodd" clip-rule="evenodd" d="M182.488 215.427L186.852 216.072C187.65 216.19 188.532 216.355 189.017 216.989C188.794 217.185 188.455 217.154 188.159 217.111C186.471 216.87 184.782 216.627 183.094 216.386L185.103 218.693C185.448 219.091 185.821 219.506 186.329 219.664C186.774 219.803 187.411 219.847 187.464 220.302C186.853 220.558 186.126 220.4 185.562 220.053C184.999 219.707 184.564 219.195 184.141 218.691C183.459 217.882 182.778 217.073 182.096 216.264C181.918 216.053 181.738 215.739 181.92 215.531C182.051 215.38 182.289 215.397 182.488 215.427ZM205.855 197.474C205.99 198.055 205.388 198.506 204.893 198.82C200.922 201.339 198.959 206.096 197.233 210.552C197.1 210.897 197.065 211.438 197.421 211.493C198.113 210.191 199.47 209.288 200.909 209.173C199.817 209.934 199.38 211.382 199.311 212.737C199.243 214.091 199.464 215.453 199.34 216.803C198.661 216.737 198.486 215.811 198.495 215.11C198.511 213.723 198.528 212.336 198.544 210.949C196.036 212.493 195.433 215.891 195.08 218.874C194.94 219.086 194.586 218.994 194.463 218.772C194.34 218.549 194.377 218.273 194.419 218.021C195.446 211.95 197.78 206.115 201.207 201.058C197.896 202.832 195.071 205.55 193.129 208.829C192.632 207.902 193.341 206.796 194.043 206.021C197.349 202.374 201.4 199.443 205.855 197.474ZM175.059 194.246C176.807 195.461 178.556 196.677 180.304 197.892C183.077 199.82 185.878 201.772 188.126 204.292C187.971 201.99 188.55 199.644 189.757 197.677C189.9 197.445 190.15 197.185 190.399 197.297C190.575 197.377 190.626 197.598 190.654 197.789C191.15 201.093 191.645 204.398 192.14 207.702C190.717 205.056 190.02 202.024 190.144 199.022C189.278 200.415 188.567 202.022 188.787 203.647C189.322 207.612 194.894 209.537 195.114 213.532C190.257 207.549 185.204 201.431 178.43 197.75C181.584 202.228 185.185 206.392 189.162 210.159C190.284 211.222 191.53 212.471 191.45 214.014C188.805 210.906 184.29 209.528 180.358 210.631C182.617 211.47 184.818 212.463 186.941 213.601C188.187 214.269 189.512 215.12 189.884 216.483C186.3 213.801 182.142 211.886 177.773 210.905C181.081 208.979 185.395 208.908 188.764 210.725C183.674 206.138 179.507 200.639 175.373 195.176C175.167 194.903 174.949 194.569 175.059 194.246ZM153.886 175.956C162.06 177.523 170.095 179.814 177.865 182.793C178.787 183.146 179.732 183.528 180.427 184.227C181.255 185.063 181.617 186.24 181.95 187.368C183.35 192.1 184.749 196.833 186.148 201.566C183.631 196.625 181.832 191.321 180.824 185.87C174.629 188.341 167.724 187.992 161.056 187.797C150.78 187.497 140.492 187.655 130.231 188.27C130.917 188.424 131.602 188.577 132.288 188.73C130.723 189.254 129.032 189.211 127.382 189.153C114.933 188.714 102.504 187.721 90.1424 186.179C87.5073 185.851 84.7373 185.441 82.6441 183.809L76.9815 200.614C76.6584 201.574 75.5885 202.734 74.8966 201.995C74.0842 201.128 72.679 202.031 71.8763 202.907C68.8258 206.237 65.7753 209.567 62.7249 212.896C64.5125 209.804 66.7714 206.984 69.4004 204.564C66.492 204.512 63.5868 205.812 61.6905 208.015C62.4189 203.61 66.955 200.195 71.3971 200.708C68.4349 201.116 65.6455 202.667 63.7374 204.966C66.9571 204.547 70.0589 203.258 72.6252 201.272C73.5494 200.556 74.992 200.622 75.8474 201.419C77.6314 196.086 79.4154 190.753 81.1998 185.421C81.458 184.648 81.674 183.68 81.0872 183.115C91.1273 179.791 101.677 178.006 112.253 177.839C103.846 179.144 95.4392 180.45 87.0324 181.755C85.7394 181.955 84.181 182.387 83.8765 183.657C85.3266 184.025 86.7771 184.393 88.2354 184.726C110.557 189.825 133.817 186.676 156.712 186.952C164.627 187.047 172.743 187.528 180.261 185.058C168.895 179.791 156.566 176.605 144.068 175.704C147.254 174.831 150.642 175.335 153.886 175.956ZM59.4259 180.877C63.0319 181.738 66.2735 183.668 69.4513 185.571C71.7995 186.977 74.4153 188.804 74.6437 191.5L74.6502 191.594L74.5845 191.52C72.0649 188.685 69.0865 186.256 65.7983 184.357C68.0579 186.907 70.3175 189.457 72.5775 192.007C73.1617 192.667 73.7689 193.495 73.9264 194.316C73.958 194.278 74.0064 194.253 74.062 194.257L74.0448 194.246C74.2105 194.289 74.2962 194.475 74.2097 194.602C74.1212 194.612 74.0232 194.592 73.9576 194.543C73.9884 194.89 73.9293 195.233 73.7456 195.558C72.9573 194.279 71.9663 193.124 70.8203 192.15C71.7267 194.106 72.6334 196.063 73.5398 198.019C72.6176 197.714 71.806 197.088 71.2769 196.276C71.1561 196.95 71.4548 197.682 72.0143 198.08C71.0911 198.543 70.0471 198.765 69.0145 198.717C69.4305 199.018 69.8462 199.319 70.2623 199.621L61.6478 199.984C61.9129 199.521 62.2801 199.115 62.7163 198.805C56.0006 198.085 51.0922 192.466 54.1015 194.496C59.0252 197.818 65.3363 199.026 71.1457 197.759C67.9302 196.822 64.9084 195.231 62.3214 193.111C64.1552 192.66 66.1878 193.103 67.6698 194.268L67.7767 194.354L63.7718 188.783C62.4365 186.926 61.1012 185.068 59.7662 183.211C63.7331 187.334 67.7003 191.457 71.6672 195.581C69.5693 189.414 65.1218 184.072 59.4259 180.877ZM68.3506 198.769L68.3097 198.815C68.1788 198.719 68.0478 198.989 68.1648 199.102C68.3093 199.148 68.4775 199.109 68.5876 199.005C68.5084 198.926 68.4295 198.847 68.3506 198.769ZM212.822 180.269C215.863 180.93 218.903 181.591 221.944 182.251C222.876 182.454 224.056 182.997 223.9 183.951C223.836 184.34 223.546 184.646 223.26 184.913C222.223 185.883 221.05 186.704 219.788 187.343L222.959 188.138C223.8 188.348 224.685 188.583 225.301 189.2C225.918 189.817 226.12 190.95 225.488 191.55C226.393 193.121 227.237 194.728 228.016 196.367C228.403 197.181 228.745 198.24 228.146 198.908C227.114 196.567 226.082 194.225 225.05 191.883C223.695 192.714 222.038 193.025 220.479 192.739C220.914 192.141 221.718 191.982 222.447 191.901C223.176 191.821 223.97 191.748 224.503 191.239C225.037 190.729 225.008 189.612 224.3 189.419C222.315 188.875 220.33 188.332 218.345 187.789C219.827 186.425 221.41 185.174 223.076 184.051C223.163 183.61 222.629 183.332 222.201 183.217C217.545 181.958 212.806 181.015 208.026 180.394C209.46 179.596 211.223 179.922 212.822 180.269ZM58.8757 193.174C59.0794 193.207 59.2404 193.368 59.3925 193.517C60.6762 194.776 62.2737 195.663 63.973 196.059C64.8224 196.257 65.7714 196.377 66.3531 197.07C63.4766 197.375 60.4929 196.104 58.5938 193.764C58.5382 193.695 58.4815 193.622 58.4664 193.532C58.4298 193.315 58.6723 193.141 58.8757 193.174ZM64.746 193.988C66.2043 195.14 67.9133 195.976 69.7203 196.421C68.2792 195.244 66.5623 194.405 64.746 193.988ZM68.0579 193.128C68.5973 194.501 69.7343 195.628 71.1141 196.159C70.278 194.986 69.2393 193.956 68.0579 193.128ZM95.8972 116.323C93.8765 117.307 92.0261 118.637 90.4523 120.237C86.9126 123.836 82.3457 126.421 77.4306 127.608L89.8749 120.566C89.6772 119.199 87.6189 119.402 86.3815 120.026C84.2363 121.107 82.147 122.312 80.2249 123.751C79.0844 124.605 78.0048 125.541 76.9969 126.547C73.0556 130.483 70.282 135.445 68.191 140.599C65.1864 148.006 63.4942 156.052 64.2148 164.008C64.9357 171.964 68.2067 179.822 74.0168 185.329C74.2205 184.703 74.4242 184.076 74.6279 183.449C75.5232 183.894 76.5838 183.998 77.5489 183.735C76.3912 183.064 75.1738 182.332 74.5612 181.145C73.949 179.959 74.2736 178.195 75.5368 177.751C74.3055 176.651 73.4591 175.13 73.1743 173.507C74.5637 173.251 75.9532 172.996 77.3427 172.741C75.9801 169.626 76.2527 165.852 78.0489 162.963C78.3305 162.51 78.7849 162.023 79.3039 162.153C80.1324 162.361 80.3745 163.963 81.1654 163.641L84.2546 159.272L87.2455 155.041L87.1963 155.114C86.0145 156.903 85.9679 159.384 87.1067 161.205C88.6941 159.531 90.853 158.404 93.1387 158.057C93.326 159.095 93.5135 160.134 93.7011 161.173C94.5429 160.476 95.4475 159.75 96.5328 159.611C97.6185 159.471 98.8899 160.2 98.8953 161.29C98.8993 162.187 98.1117 163.184 98.688 163.874C99.5201 163.338 100.415 162.783 101.405 162.786C102.396 162.789 103.447 163.62 103.285 164.594C103.038 166.079 102.79 167.564 102.543 169.049C104.223 168.502 106.513 168.172 107.358 169.719C107.966 170.831 107.333 172.221 106.51 173.186C105.687 174.151 104.636 175 104.243 176.204C103.697 175.082 104.724 173.877 105.589 172.976C106.454 172.076 107.231 170.573 106.331 169.707C105.13 168.551 103.063 170.427 101.525 169.781C101.86 167.783 102.196 165.784 102.531 163.785C100.791 163.779 99.051 164.285 97.5873 165.224C97.4506 163.645 97.5467 162.047 97.8721 160.495C96.1702 160.852 94.497 161.344 92.8737 161.964C92.4967 160.962 92.3396 159.879 92.4171 158.812L86.7566 162.109C86.6092 161.551 86.2247 161.058 85.7172 160.778C86.2319 163.751 86.7466 166.724 87.2613 169.698C85.6523 166.764 84.9023 163.369 85.1261 160.033C83.3651 161.159 82.0972 163.023 81.7016 165.07C80.5815 164.814 79.5926 164.037 79.0826 163.012C77.0231 165.899 76.7538 169.951 78.4126 173.084C77.0687 173.669 75.6433 174.068 74.1904 174.266L76.7731 178.349C76.0988 178.437 75.4561 178.75 74.9726 179.228C75.4626 181.438 77.2986 183.296 79.5105 183.819C78.4743 184.466 77.2372 184.789 76.0156 184.731C77.5339 185.169 78.9635 185.909 80.1955 186.896C78.4452 186.618 76.7505 185.997 75.2362 185.08C75.9945 186.679 77.3761 187.976 79.0241 188.635C78.0407 188.674 77.0479 188.443 76.1838 187.973C77.125 189.219 77.6006 190.806 77.4991 192.363C76.8327 191.057 76.1663 189.752 75.5002 188.446C75.4271 189.74 75.3539 191.034 75.2807 192.327C75.129 192.146 74.9751 191.965 74.8195 191.787L74.6638 191.61L74.6997 191.524C75.2789 190.069 74.8363 188.359 73.9759 187.039C73.0932 185.686 71.8232 184.639 70.6453 183.53C65.6387 178.818 62.1313 172.779 58.6956 166.832C57.403 164.595 56.1103 162.357 54.8177 160.12C53.0821 157.115 51.2838 153.702 52.165 150.349C52.2913 149.87 52.4907 149.377 52.8913 149.083C52.269 149.788 52.7407 150.909 53.3798 151.599C54.019 152.288 54.8536 152.923 54.9874 153.852C56.4274 163.831 62.6313 172.39 68.6439 180.5C61.2192 167.844 62.4268 151.549 68.4359 138.169C71.7048 130.889 76.6343 123.907 83.8819 120.518C85.4955 119.763 87.1924 119.201 88.8846 118.642C91.222 117.869 93.5598 117.096 95.8972 116.323ZM189.341 186.99C189.543 187.037 189.781 187.129 189.819 187.338C189.85 187.514 189.717 187.673 189.589 187.796C188.933 188.424 188.15 188.914 187.304 189.226C187.037 189.324 187.045 189.753 187.256 189.946C187.468 190.139 187.776 190.16 188.06 190.172C198.541 190.6 209.023 191.028 219.504 191.457C219.402 191.998 218.7 192.108 218.161 192.092C208.23 191.81 198.302 191.433 188.378 190.964C187.351 190.915 185.958 190.429 186.158 189.399C186.347 188.421 187.735 188.409 188.483 187.769L183.996 187.133C185.728 186.628 187.585 186.578 189.341 186.99ZM128.491 188.394L128.55 188.435C128.833 188.631 129.258 188.585 129.493 188.333C129.193 188.137 128.765 188.163 128.491 188.394ZM125.21 50.7402C129.831 53.5059 132.859 58.411 134.358 63.5704C134.575 64.3172 134.758 65.1425 134.437 65.8508C134.125 66.5398 133.12 66.9336 132.577 66.4304L132.533 66.3863C131.792 65.5933 130.764 67.0922 130.812 68.1743C131.062 73.7193 134.599 78.5261 136.245 83.829C137.85 89.0006 137.622 94.5363 137.378 99.9443C137.039 107.465 136.7 114.985 136.361 122.506C136.231 125.388 136.101 128.272 135.797 131.14C135.223 136.545 134.03 141.908 134.103 147.342C134.197 154.325 136.374 161.098 138.669 167.696C139.624 170.442 140.643 173.248 142.543 175.452C144.444 177.657 147.442 179.161 150.281 178.494C148.267 180.508 144.828 180.437 142.328 179.068C139.828 177.699 138.068 175.32 136.469 172.967C135.448 171.465 132.674 174.453 131.469 173.094C132.951 172.784 134.353 172.099 135.507 171.121C132.986 164.487 130.465 157.854 127.944 151.22C126.389 152.311 124.781 153.463 123.876 155.13C122.972 156.797 123.014 159.138 124.489 160.334C128.101 163.26 126.946 169.086 129.101 173.197C130.284 175.453 132.561 177.589 131.922 180.054C131.422 181.985 129.345 182.994 127.494 183.754C126.625 184.111 125.706 184.475 124.774 184.354C123.842 184.232 122.929 183.431 123.044 182.502C123.25 180.839 126.171 180.538 126.223 178.864C126.238 178.394 125.997 177.958 125.762 177.549C124.181 174.787 122.601 172.024 121.019 169.262C119.17 173.123 118.428 177.503 118.901 181.754C119.05 183.089 118.052 184.339 116.838 184.921C115.624 185.505 114.234 185.567 112.887 185.618C111.784 185.66 110.61 185.686 109.663 185.121C108.716 184.556 108.185 183.163 108.898 182.324C109.539 181.568 110.716 181.669 111.652 181.338C114.137 180.456 114.244 177.041 113.89 174.436L111.842 159.337C111.496 156.789 111.11 154.132 109.634 152.022C104.558 144.765 111.199 133.698 106.4 126.256C104.927 123.971 103.445 121.6 102.951 118.93C102.458 116.259 103.174 113.188 105.388 111.605C107.05 110.417 107.249 108.087 107.477 106.062C107.893 102.353 108.911 98.7108 110.478 95.3207C106.904 92.7229 102.571 91.1741 98.1547 90.9155C98.2913 91.7197 98.5826 92.498 99.0083 93.1949C96.4661 92.2433 94.507 89.8869 94.0411 87.2213C93.6344 88.1631 93.2273 89.1053 92.8206 90.0476C89.3207 82.9162 91.8396 74.4445 94.4016 66.9279C95.1476 64.7393 95.8937 62.5507 96.6397 60.3622C97.5374 57.7288 98.8207 54.7225 101.525 54.0356C103.19 53.6128 105.434 55.2113 104.555 56.6822C102.373 56.1353 100.048 57.3178 98.6088 59.0415C97.1691 60.7653 96.4313 62.9496 95.724 65.0783C93.3507 72.22 90.9527 79.8284 92.7478 87.1355C93.0211 86.6273 93.5419 86.2586 94.1136 86.1689C94.704 87.8235 95.61 89.3657 96.7692 90.6881C99.2206 89.7893 101.925 89.5885 104.483 90.115C104.288 90.3542 104.093 90.5938 103.899 90.833C105.931 92.215 108.284 93.1242 110.72 93.4689C112.03 91.2534 113.34 89.0379 114.649 86.8228L114.89 86.4139C116.056 84.4334 117.191 82.3868 117.555 80.1268C113.573 81.1218 109.496 81.7419 105.398 81.9761C103.611 82.078 101.624 82.0378 100.307 80.8298C99.5079 80.096 99.0926 79.0404 98.7874 78.0007C97.6845 74.2444 97.701 70.1692 98.834 66.4215C97.2232 66.3257 96.7699 63.9399 97.7046 62.6289C98.6393 61.3184 100.265 60.7323 101.62 59.8593C105.041 57.6546 106.781 53.5507 109.998 51.0601C114.255 47.7647 120.589 47.9745 125.21 50.7402ZM167.15 99.1989C170.693 101.035 173.871 103.57 176.449 106.616C176.582 108.259 176.843 109.891 177.228 111.494C177.756 109.954 178.292 108.317 177.939 106.728C177.587 105.139 175.974 103.712 174.416 104.184C175.064 103.39 176.33 103.307 177.219 103.817C178.108 104.328 178.653 105.296 178.911 106.289C179.738 109.472 177.979 112.764 175.816 115.24C174.872 116.32 173.821 117.351 173.243 118.664C172.665 119.977 172.691 121.688 173.743 122.663C176.372 125.1 177.249 128.945 177.103 132.527C176.956 136.109 175.934 139.591 175.362 143.131C174.728 147.059 174.648 151.077 175.127 155.027C175.276 156.247 175.489 157.496 176.126 158.546C176.763 159.597 177.916 160.418 179.141 160.328C178.748 160.891 177.852 160.979 177.327 160.556L177.281 160.516L177.892 161.151C178.13 161.399 178.368 161.646 178.606 161.894C178.03 161.773 177.454 161.653 176.878 161.532C181.694 164.27 186.682 166.707 191.801 168.823C191.502 167.817 190.447 167.269 189.493 166.833C186.828 165.614 184.162 164.395 181.497 163.176C185.501 163.539 189.368 165.278 192.296 168.034C195.824 171.353 201.534 171.167 205.359 174.138C206.179 174.775 206.918 175.588 207.193 176.59C207.58 177.997 206.961 179.536 205.941 180.58C204.922 181.624 203.558 182.255 202.193 182.772C198.116 184.317 193.732 185.045 189.375 184.903C189.005 184.253 189.375 183.387 189.976 182.943C190.578 182.5 191.344 182.364 192.075 182.207C195.184 181.538 198.161 180.26 200.789 178.468C201.379 178.065 202.02 177.342 201.64 176.736C201.5 176.511 201.25 176.383 201.011 176.269C196.885 174.299 192.276 173.352 187.709 173.535L191.754 172.805C188.19 170.678 184.443 168.859 180.569 167.373C179.365 166.91 177.898 166.513 176.874 167.298C174.376 169.214 171.877 171.131 169.378 173.047C172.6 173.104 175.807 173.896 178.685 175.347C178.027 176.786 176.546 177.813 174.968 177.926C175.715 177.16 176.462 176.394 177.208 175.628C171.889 172.33 164.303 175.777 158.976 172.491C156.6 171.026 155.025 168.385 152.449 167.309C149.992 166.283 147.193 166.908 144.608 167.548C142.912 167.967 141.131 168.432 139.88 169.651C139.915 168.425 141.08 167.538 142.226 167.101C143.372 166.664 144.644 166.462 145.609 165.704C146.587 164.936 147.087 163.721 147.859 162.745C148.631 161.769 149.999 161 151.089 161.599C150.752 159.007 152.954 156.894 154.447 154.749C156.147 152.306 157.055 149.321 157.005 146.345C155.111 147.352 154.259 149.947 155.188 151.881C155.601 152.739 154.779 153.823 153.829 153.891C152.879 153.958 152.007 153.259 151.578 152.409C151.148 151.558 151.07 150.579 151.006 149.629C150.915 148.286 150.84 146.915 151.186 145.614C151.841 143.149 153.897 141.315 156.03 139.918C158.164 138.521 160.506 137.379 162.294 135.561C164.267 133.555 165.437 130.78 165.493 127.967C166.316 131.715 164.375 135.897 160.982 137.688C157.981 139.271 154.93 141.066 153.051 143.891C151.171 146.716 150.838 150.852 153.171 153.316C152.789 151.314 153.324 149.155 154.597 147.564C155.628 146.276 157.069 145.392 158.493 144.56C161.796 142.63 165.176 140.833 168.624 139.175C168.39 138.286 169.126 137.277 170.044 137.229C169.007 135.577 169.991 133.046 171.873 132.531C171.318 133.239 170.747 133.98 170.563 134.861C170.379 135.741 170.71 136.799 171.538 137.151C169.909 137.162 169.628 139.758 168.132 140.403C165.052 141.73 162.068 143.28 159.211 145.035C159 145.165 158.782 145.309 158.578 145.467C158.618 145.467 158.659 145.478 158.702 145.502C158.92 146.997 158.948 148.518 158.785 150.02C158.762 150.229 158.669 150.498 158.458 150.488C158.242 150.478 158.179 150.193 158.179 149.979L158.172 146.172C158.172 146.029 158.21 145.861 158.277 145.725C157.88 146.1 157.594 146.548 157.618 147.081C157.744 149.885 156.924 152.725 155.322 155.03C157.091 153.49 158.86 151.949 160.629 150.409C161.198 149.914 162.415 149.678 162.401 150.432C159.691 152.234 156.939 154.075 154.886 156.6C152.834 159.125 151.552 162.484 152.266 165.659C151.473 165.363 151.404 164.305 151.217 163.48C151.029 162.656 150.025 161.793 149.462 162.424C148.128 163.919 146.793 165.413 145.459 166.908C148.412 165.079 152.593 165.556 155.06 168.003C158.328 171.245 162.782 174.331 167.197 173.029C171.185 171.852 173.517 167.491 177.415 166.043C173.852 157.417 173.1 147.655 175.3 138.584C175.917 136.039 176.767 133.468 176.49 130.864C176.06 126.828 173.029 123.533 172.02 119.602C171.588 120.74 170.472 121.586 169.26 121.693C170.648 119.915 172.036 118.137 173.423 116.359C175.546 113.638 176.023 109.722 174.601 106.578C173.178 103.433 169.912 101.205 166.465 101.044C166.9 101.465 167.334 101.885 167.769 102.306C166.977 102.582 166.185 102.857 165.393 103.133C165.244 102.599 165.096 102.066 164.947 101.532C165.539 101.054 166.131 100.575 166.723 100.097C165.592 100.353 164.461 100.609 163.33 100.864C164.304 99.8176 165.721 99.1989 167.15 99.1989ZM108.547 54.3089C105.224 56.693 102.495 59.7904 99.797 62.8599C99.1199 63.6558 100.397 64.6468 101.417 64.8849C105.997 65.9548 110.753 66.2694 115.435 65.8121C114.184 67.5789 111.636 67.793 109.489 67.4716C107.343 67.1499 105.138 66.4685 103.052 67.0617C107.319 68.9196 111.885 70.0924 116.522 70.5214L114.958 71.4367C118.102 73.1278 119.067 77.3325 118.291 80.8072C117.514 84.2816 115.423 87.2909 113.738 90.4299C110.711 96.071 108.923 102.368 108.535 108.753C112.832 107.196 114.298 101.929 114.702 97.3916C115.105 92.8538 115.289 87.7474 118.649 84.6579C116.096 90.4134 115.181 96.8805 116.039 103.115C112.458 106.367 108.878 109.617 105.298 112.868C102.676 115.25 103.982 119.529 105.47 122.737C105.652 123.127 105.853 123.541 106.225 123.76C107.145 124.303 108.272 123.208 108.368 122.146C108.464 121.085 108.003 120.042 108.021 118.977C108.039 117.911 108.942 116.693 109.958 117.025C108.856 116.053 110.196 114.325 111.486 113.617C114.911 111.737 118.779 110.664 122.687 110.509C123.865 110.462 124.394 109.061 124.768 107.947C125.143 106.833 126.16 105.548 127.231 106.039C125.293 99.2499 129.215 92.1834 129.121 85.1259C131.5 91.786 125.266 99.5641 128.382 105.915C127.169 106.69 125.957 107.464 124.744 108.239C125.761 108.652 126.627 109.424 127.152 110.385C121.214 110.945 115.382 112.611 110.049 115.273C111.166 116.004 110.803 118.069 109.503 118.378C107.576 126.435 108.472 135.134 112.002 142.634C112.587 139.484 114.791 136.676 117.719 135.352C114.677 137.756 112.89 141.473 112.169 145.274C111.447 149.074 111.697 152.989 112.117 156.835C112.573 161.013 113.226 165.17 114.073 169.287C114.65 172.091 115.318 174.984 114.721 177.784C114.123 180.584 111.833 183.264 108.96 183.261C110.869 184.379 113.165 184.826 115.356 184.506C117.427 184.204 118.315 181.651 118.17 179.571C118.024 177.491 117.298 175.364 117.913 173.371C118.218 172.379 118.836 171.512 119.212 170.544C119.885 168.808 119.737 166.883 119.771 165.023C119.847 160.844 120.909 156.686 122.847 152.979C123.183 153.638 123.062 154.5 122.557 155.041C130.752 148.434 135.647 137.949 135.439 127.448L134.743 128.564C135.368 117.766 135.993 106.969 136.617 96.1714C136.772 93.5008 136.925 90.804 136.485 88.1649C135.236 80.6695 129.302 74.0349 130.177 66.4871C128.426 65.8939 126.675 65.3003 124.925 64.707C127.33 64.8979 129.736 65.089 132.141 65.2798C132.535 65.311 132.986 65.3218 133.258 65.0374C133.538 64.7458 133.497 64.2813 133.411 63.8875C132.33 58.9243 127.501 55.8275 123.091 53.2806C125.524 53.6461 127.815 54.8885 129.443 56.726C127.957 53.0407 123.956 50.7531 119.977 50.5214C115.889 50.2833 111.87 51.9249 108.547 54.3089ZM197.641 181.204C195.845 182.657 193.385 182.855 191.11 183.255C190.719 183.323 190.248 183.479 190.184 183.87C190.599 184.128 191.12 184.118 191.607 184.09C195.603 183.859 199.559 182.956 203.259 181.429C203.051 180.951 202.363 181.012 201.861 181.154C201.486 181.26 201.111 181.366 200.736 181.473C200.308 181.594 199.84 181.713 199.431 181.54C199.021 181.368 198.787 180.76 199.122 180.468C198.558 180.391 198.083 180.846 197.641 181.204ZM121.899 158.461C121.157 160.972 120.822 163.643 121.281 166.22C121.951 169.99 124.229 173.244 126.269 176.488C126.895 177.484 127.528 178.619 127.292 179.77C127.035 181.018 125.858 181.829 124.776 182.508C126.569 183.373 128.61 182.066 130.166 180.826C130.402 180.638 130.655 180.423 130.706 180.126C130.754 179.854 130.618 179.587 130.487 179.344C128.986 176.565 127.486 173.787 125.986 171.008L125.952 169.054C125.932 167.918 125.91 166.77 125.632 165.668C124.969 163.038 122.935 160.97 121.899 158.461ZM80.8634 181.106C80.9914 181.222 81.0596 181.396 81.1919 181.508C81.3956 181.679 81.6883 181.658 81.9505 181.693C82.2123 181.727 82.515 181.901 82.4921 182.168C81.7486 182.575 80.7619 182.459 80.1292 181.891C79.9369 181.693 79.9333 181.338 80.122 181.136C80.3103 180.934 80.6593 180.92 80.8634 181.106ZM188.302 179.545C188.473 179.573 188.692 179.672 188.654 179.841C188.636 179.925 188.556 179.979 188.481 180.022C187.599 180.535 186.598 180.84 185.58 180.906C185.212 180.93 184.898 181.166 184.615 181.409L184.55 181.465C184.25 181.727 183.925 182.005 183.529 182.047C183.134 182.09 182.679 181.763 182.754 181.372C182.822 181.025 183.218 180.869 183.557 180.773C184.171 180.6 184.784 180.427 185.397 180.254C185.479 180.145 185.509 179.999 185.477 179.867L181.061 179.932C180.893 179.934 180.714 179.934 180.572 179.844C180.429 179.755 180.351 179.541 180.461 179.413C183.062 179.065 185.715 179.11 188.302 179.545ZM177.636 163.353C177.173 163.992 177.454 164.946 178.039 165.477C178.623 166.007 179.421 166.218 180.186 166.413C180.912 166.597 181.639 166.782 182.365 166.966C182.562 167.017 182.79 167.062 182.954 166.942C183.055 166.869 183.074 166.713 183.028 166.607L183.021 166.594L183.417 166.825C189.337 170.243 195.576 173.109 202.026 175.371C203.037 175.726 203.267 177.169 202.733 178.098C202.198 179.027 201.183 179.554 200.219 180.022C199.839 180.207 199.517 180.871 199.939 180.904C201.152 180.317 202.551 180.125 203.877 180.362C205.089 180.578 206.274 179.498 206.447 178.28C206.621 177.061 205.976 175.838 205.061 175.016C204.145 174.194 202.986 173.703 201.841 173.25C194.735 170.443 187.173 168.536 180.756 164.387C179.982 163.886 178.82 163.408 178.272 164.15L177.636 163.353ZM138.95 175.001C140.346 176.865 142.336 178.281 144.559 178.991C145.236 179.208 145.961 179.361 146.657 179.212C146.644 178.872 146.211 178.751 145.875 178.692C144.609 178.473 143.423 177.819 142.562 176.868C142.13 176.39 141.772 175.836 141.254 175.451C140.605 174.971 139.735 174.809 138.95 175.001ZM92.7539 172.37C93.3848 172.405 93.0125 173.61 93.5465 173.948C93.7596 174.084 94.035 174.019 94.2829 173.974C95.7545 173.71 97.3524 174.386 98.1895 175.628C98.3993 175.94 98.1952 176.396 97.866 176.576C97.5371 176.757 97.1379 176.736 96.7652 176.692C96.1831 176.625 95.7785 177.251 95.577 177.802C95.3754 178.354 95.1379 179.01 94.5705 179.155C94.1355 179.266 93.6922 179.012 93.3507 178.72C93.0089 178.427 92.6929 178.077 92.2665 177.935C91.8404 177.794 91.2608 177.982 91.1887 178.427C91.1105 178.908 90.4516 178.973 89.9685 178.914L88.2429 178.705C88.1382 178.228 88.8139 177.988 89.2963 178.052C89.7784 178.115 90.3935 178.212 90.6403 177.792C90.7683 177.574 90.7371 177.282 90.8946 177.085C91.1549 176.76 91.6718 176.935 92.0366 177.136C92.4264 177.351 92.8167 177.566 93.2065 177.781C93.5638 177.978 93.95 178.182 94.3557 178.14C94.7613 178.1 95.1526 177.693 95.0171 177.307C94.8438 176.815 95.3664 176.341 95.8721 176.216C96.3775 176.09 96.9374 176.134 97.3857 175.869C96.5027 174.742 94.7502 174.419 93.5247 175.157C93.1567 175.379 92.8145 174.806 92.8174 174.375C92.8199 173.945 92.7991 173.363 92.378 173.278C92.0574 173.213 91.8009 173.522 91.5706 173.754C91.34 173.987 90.9017 174.147 90.7285 173.869C90.9473 172.983 91.8454 172.319 92.7539 172.37ZM107.401 175.032C108.001 175.255 108.654 175.522 108.942 176.074C109.229 176.626 108.816 177.488 108.182 177.379C108.081 177.242 108.076 177.046 108.171 176.905C108.248 176.789 108.389 176.697 108.392 176.559C108.397 176.419 108.256 176.319 108.131 176.246C107.475 175.861 106.82 175.476 106.165 175.091C106.438 174.756 106.987 174.879 107.401 175.032ZM129.906 176.4L129.909 176.524C129.919 176.76 130.075 176.984 130.293 177.075C130.449 176.804 130.219 176.403 129.906 176.4ZM85.0038 174.59C84.4859 175.132 83.789 175.464 83.0742 175.51C83.2664 175.734 83.4239 175.993 83.5376 176.274C83.0559 176.456 82.6036 175.955 82.2984 175.509C82.1797 175.335 82.0617 175.086 82.1912 174.923C82.2424 174.858 82.3203 174.829 82.3949 174.804C83.2356 174.521 84.1344 174.447 85.0038 174.59ZM133.237 143.215C131.93 145.595 130.384 147.844 128.63 149.919C128.307 150.301 128.525 150.877 128.746 151.325C132.188 158.282 133.773 166.049 137.365 172.929C137.674 173.522 138.057 174.158 138.697 174.359C139.336 174.56 140.189 173.96 139.939 173.34C136.056 163.715 132.594 153.569 133.237 143.215ZM84.8586 167.036C85.0261 167.153 85.025 167.409 85.0131 167.622C84.9367 168.982 85.1918 170.361 85.7455 171.588C85.9317 172.001 86.5346 171.868 86.8517 171.559C87.1687 171.249 87.4295 170.809 87.8531 170.732C88.3018 170.652 88.7264 171.053 88.8677 171.514C89.009 171.974 88.9387 172.475 88.867 172.953C88.8233 173.244 88.7616 173.568 88.5342 173.736C88.3071 173.905 87.8914 173.726 87.9556 173.439L88.2089 172.307C88.2419 172.16 88.2734 171.999 88.2121 171.863C88.1081 171.632 87.7928 171.61 87.5769 171.723C87.361 171.837 87.1999 172.042 86.9969 172.18C86.3467 172.622 85.4299 172.24 84.9751 171.577C84.52 170.913 84.4077 170.059 84.3091 169.244C83.9095 170.608 83.7793 172.062 83.9296 173.483C83.7273 173.693 83.4429 173.33 83.3816 173.036C82.9881 171.146 83.2808 169.105 84.1857 167.427C84.3292 167.161 84.6175 166.869 84.8586 167.036ZM96.8398 170.203C95.8833 170.587 95.0813 171.33 94.6337 172.246C94.5343 172.45 94.1835 172.376 94.0906 172.17C93.9981 171.963 94.0831 171.723 94.1889 171.523C94.464 171.001 94.8819 170.554 95.3861 170.24C94.7947 170.196 94.2033 170.152 93.6118 170.108C94.4568 169.256 96.0482 169.303 96.8398 170.203ZM89.424 168.787C89.8544 168.852 90.183 169.188 90.4559 169.518C90.1819 169.545 89.9183 169.666 89.7224 169.854C90.0625 170.211 90.4025 170.567 90.7425 170.924C89.8121 171.015 88.8609 170.383 88.6081 169.505C88.4904 169.096 88.9936 168.723 89.424 168.787ZM190.438 134.361C193.311 143.258 194.874 152.565 195.061 161.901C196.866 160.307 199.204 159.31 201.617 159.105C200.349 159.55 199.535 160.785 199.085 162.036C198.634 163.287 198.45 164.624 197.933 165.85C201.891 164.638 206.223 164.643 210.178 165.865C206.788 166.832 203.585 168.44 200.796 170.574C200.312 170.304 200.734 169.578 201.18 169.249C202.98 167.922 204.979 166.857 207.091 166.1C203.731 165.439 200.193 165.68 196.956 166.789C197.55 164.779 198.058 162.744 198.478 160.692C196.162 161.768 194.047 163.261 192.266 165.075C191.804 164.66 192.476 164.011 192.954 163.613C194.236 162.544 194.289 160.644 194.205 158.99C193.877 152.587 193.022 146.174 191.063 140.061C191.247 146.952 189.831 153.879 186.956 160.163C186.822 160.455 186.365 160.746 186.264 160.441C186.353 160.093 186.443 159.745 186.532 159.398C185.689 158.326 185.29 156.925 185.444 155.578C183.939 157.357 182.631 159.298 181.549 161.355C181.073 161.479 181.031 160.68 181.265 160.252C182.538 157.919 184.149 155.766 186.033 153.877C186.238 155.527 186.443 157.178 186.649 158.828C189.964 151.294 191.096 142.84 189.879 134.716C189.921 134.474 190.197 134.299 190.438 134.361ZM94.8801 166.708C95.0752 166.824 95.1179 167.152 94.9055 167.238C94.5619 167.377 94.6182 167.841 94.7014 168.184C94.785 168.526 94.7212 169.022 94.3474 169.042C94.0228 169.06 93.8593 168.678 93.8414 168.373C93.8234 168.069 93.8145 167.698 93.5297 167.551C92.6344 168.08 91.7396 168.61 90.8443 169.139C90.5861 168.852 90.8669 168.423 91.1618 168.169C92.0158 167.435 93.0767 166.913 94.2065 166.672C94.4321 166.624 94.6853 166.591 94.8801 166.708ZM175.368 165.282C175.446 165.413 175.276 165.657 175.223 165.502L175.221 165.487C175.129 165.483 175.044 165.377 175.029 165.247C175.143 165.189 175.289 165.151 175.368 165.282ZM53.1503 152.79C53.0882 153.767 53.0897 154.748 53.1549 155.725C53.2159 156.637 53.3866 157.646 54.1111 158.208C54.3414 158.386 54.7521 158.462 54.8665 158.195C54.8945 158.129 54.8959 158.056 54.8966 157.985C54.9081 156.455 54.6179 154.924 54.0473 153.503C53.8895 153.11 53.5513 152.651 53.1503 152.79ZM108.937 136.854L108.434 141.041C108.275 142.366 108.115 143.701 108.216 145.031C108.348 146.787 108.928 148.475 109.519 150.135C109.891 151.178 110.301 152.267 111.141 152.991C110.648 150.266 110.768 147.432 111.487 144.757C111.55 144.52 111.619 144.28 111.615 144.036C111.608 143.658 111.431 143.308 111.266 142.968C110.284 140.941 109.633 138.754 109.345 136.522C109.219 136.328 108.965 136.625 108.937 136.854ZM153.979 150.259C153.821 151.037 154.084 151.888 154.653 152.442C154.673 151.667 154.432 150.887 153.979 150.259ZM165.345 96.4247C164.758 99.0099 161.905 100.126 159.664 101.436C158.07 102.368 156.633 103.584 155.437 105.013C155.153 105.353 154.631 105.098 154.225 104.934C152.958 104.425 151.422 105.233 150.847 106.504C150.271 107.774 150.542 109.331 151.286 110.504C152.031 111.677 153.189 112.512 154.404 113.14C154.786 112.955 154.669 112.323 154.337 112.056C154.004 111.789 153.557 111.72 153.204 111.483C152.874 111.263 152.649 110.914 152.453 110.564C151.865 109.518 151.444 108.231 151.897 107.117C152.35 106.002 154.027 105.475 154.721 106.449C155.777 107.931 153.385 110.247 154.479 111.7C154.375 110.988 154.777 110.228 155.414 109.932C155.372 111.265 155.33 112.598 155.288 113.931C155.608 113.592 156.052 113.381 156.509 113.349C156.555 114.573 156.694 115.792 156.926 116.993C157.205 116.811 157.335 116.42 157.222 116.1L165.144 123.363C163.418 122.558 161.808 121.492 160.379 120.21C161.805 122.913 160.414 126.18 159.566 129.129C158.847 131.625 158.536 134.245 158.647 136.847C158.136 136.302 157.248 136.704 156.662 137.163C154.778 138.635 153.181 140.494 151.988 142.598C151.843 142.345 151.856 142.028 151.909 141.739C152.245 139.905 153.866 138.678 155.295 137.533C156.725 136.387 158.204 134.848 158.055 132.989C157.855 130.476 159.013 128.093 159.72 125.68C160.426 123.267 160.552 120.293 158.75 118.587C158.126 117.996 157.33 117.626 156.701 117.04C156.073 116.454 155.621 115.503 155.978 114.711C155.673 114.894 155.369 115.076 155.064 115.259C154.979 114.034 153.587 113.489 152.54 112.902C150.744 111.895 149.43 109.862 149.575 107.76C149.719 105.659 151.552 103.724 153.593 103.842C154.469 103.893 155.595 104.17 156.03 103.385C157.639 100.483 161.81 100.149 163.704 97.4372C164.117 96.8465 164.737 96.0545 165.345 96.4247ZM106.553 125.165L106.504 125.266C106.659 125.303 106.814 125.34 106.969 125.376C107.172 125.16 107.127 124.733 106.846 124.641C106.563 124.549 106.294 125.02 106.553 125.165ZM158.608 114.622C158.637 115.06 158.778 115.491 159.014 115.869C159.012 115.598 159.467 115.526 159.663 115.723C159.86 115.919 159.861 116.222 159.85 116.492C160.761 116.397 161.41 117.255 162.092 117.833C163.682 119.181 166.054 119.182 168.186 119.068C168.775 119.036 169.558 119.139 169.649 119.69C168.648 120.03 167.557 120.029 166.495 119.976C164.835 119.894 163.152 119.687 161.637 119.039C160.122 118.39 158.782 117.246 158.251 115.755C158.1 115.328 158.138 114.696 158.608 114.622ZM159.796 112.829C160.398 114.421 162.583 115.252 164.165 114.491C164.448 114.355 164.717 114.176 165.028 114.12C165.552 114.026 166.061 114.296 166.55 114.5C167.237 114.788 168.006 114.958 168.742 114.812C169.477 114.667 170.162 114.157 170.337 113.458C170.382 113.279 170.398 113.081 170.523 112.94C170.647 112.799 170.937 112.783 170.998 112.958C171.351 113.967 170.566 115.099 169.528 115.483C168.491 115.867 167.313 115.663 166.274 115.284C165.924 115.156 165.566 115.007 165.193 115.034C164.818 115.061 164.486 115.261 164.143 115.409C162.552 116.092 160.485 115.521 159.521 114.13C159.362 113.901 159.227 113.637 159.251 113.363C159.274 113.089 159.508 112.817 159.796 112.829ZM176.164 111.556C176.07 112.005 176.131 112.485 176.333 112.896C176.647 112.751 176.836 112.376 176.767 112.037L176.769 112.036C176.764 111.741 176.451 111.494 176.164 111.556ZM165.048 110.682C165.314 110.719 165.53 110.945 165.719 111.168C166.101 111.62 166.456 112.103 166.78 112.613C165.838 112.878 164.846 112.899 163.896 112.674C163.603 112.605 163.483 112.151 163.591 111.825C163.699 111.498 163.955 111.277 164.198 111.073C164.452 110.861 164.738 110.639 165.048 110.682ZM164.509 112.047L164.6 112.092L165.226 111.951C165.296 111.836 165.323 111.687 165.298 111.549C164.985 111.367 164.553 111.641 164.509 112.047ZM152.747 107.006C152.393 107.368 152.324 107.946 152.439 108.446C152.64 109.323 153.322 110.038 153.44 110.931C153.685 110.862 153.793 110.556 153.777 110.295C153.76 110.035 153.659 109.784 153.648 109.523C153.612 108.649 154.555 107.745 154.062 107.034C153.772 106.615 153.1 106.643 152.747 107.006ZM170.993 103.866C171.995 103.935 172.775 104.81 173.317 105.706C173.755 106.43 174.121 107.311 173.873 108.13C173.539 109.232 172.31 109.657 171.248 109.927L170.13 110.21C169.833 110.285 169.523 110.361 169.226 110.288C168.815 110.187 168.513 109.826 168.24 109.485C167.686 108.794 167.101 108.008 167.141 107.102C167.187 106.048 168.056 105.265 168.888 104.683C169.523 104.238 170.233 103.814 170.993 103.866ZM162.904 105.307C163.86 105.981 164.473 107.167 164.207 108.274C163.942 109.381 162.651 110.232 161.523 109.878C160.49 109.553 159.42 109.196 158.651 108.461C157.881 107.725 157.514 106.495 158.108 105.623C158.441 105.136 159.016 104.838 159.606 104.693C160.727 104.417 161.973 104.649 162.904 105.307ZM171.078 105.102C170.45 105.186 169.807 105.227 169.217 105.468C168.626 105.71 168.082 106.201 167.956 106.858C167.792 107.709 168.349 108.508 168.872 109.177C169.117 109.49 169.566 109.489 169.946 109.433C171.103 109.261 172.223 108.818 173.203 108.143C172.707 108.022 172.211 107.901 171.715 107.779C171.782 107.463 172.192 107.449 172.498 107.46C172.803 107.472 173.22 107.269 173.109 106.967C172.64 106.818 172.147 106.752 171.658 106.771C171.514 106.776 171.345 106.806 171.28 106.943C171.231 107.049 171.267 107.175 171.289 107.292C171.436 108.071 170.742 108.892 169.995 108.822C169.249 108.752 168.7 107.814 168.974 107.075C169.249 106.336 170.252 106.043 170.844 106.53C170.977 106.405 170.963 106.148 170.819 106.038C171.255 105.721 171.827 105.623 172.336 105.779C172.395 105.492 172.168 105.209 171.904 105.115C171.64 105.022 171.354 105.066 171.078 105.102ZM160.009 105.533C159.276 105.626 158.413 106.106 158.545 106.801C158.638 107.289 159.231 107.574 159.745 107.506C160.258 107.439 160.691 107.11 161.055 106.756L159.534 106.877C159.336 106.892 159.044 106.8 159.115 106.622C159.136 106.572 159.183 106.538 159.229 106.508C159.888 106.085 160.84 106.141 161.441 106.637C162.027 106.823 162.593 107.239 162.695 107.822C162.797 108.405 162.197 109.062 161.613 108.87C161.561 109.303 162.256 109.437 162.651 109.221C163.603 108.7 163.692 107.287 163 106.474C162.307 105.66 161.096 105.396 160.009 105.533ZM159.628 107.762C159.551 108.342 160.196 108.895 160.791 108.759C160.616 108.312 160.224 107.946 159.751 107.792L159.628 107.762ZM161.099 108.05L161.731 108.554L161.749 108.462C162.016 108.324 162.036 107.898 161.783 107.738C161.53 107.577 161.128 107.761 161.099 108.05ZM170.097 107.166C169.764 107.199 169.57 107.699 169.79 107.965L169.726 107.971C169.929 108.253 170.416 108.209 170.563 107.891C170.709 107.572 170.43 107.133 170.097 107.166ZM99.7884 66.9559C99.3763 67.4713 99.2382 68.1477 99.1421 68.7994C98.6554 72.1002 98.9384 75.5112 99.9624 78.6875C100.147 79.2607 100.366 79.8431 100.778 80.2839C101.903 81.4883 103.85 81.1501 105.479 80.8736C106.994 80.6164 108.533 80.4966 110.07 80.5164C110.783 80.5253 111.485 80.3636 112.179 80.2022C114.012 79.7764 115.846 79.3507 117.68 78.9249C117.703 76.4849 116.715 74.0507 114.997 72.3122C114.739 72.0511 114.336 71.7925 114.036 72.0038C114.366 72.3377 114.268 72.9822 113.853 73.2031C113.359 73.0227 113.535 72.2925 113.396 71.7864C113.218 71.1354 112.464 70.8524 111.804 70.6989C108.42 69.9099 104.484 69.775 102.236 67.1345C102.026 66.8888 101.829 66.6187 101.545 66.4638C100.965 66.1474 100.2 66.4405 99.7884 66.9559ZM124.115 56.9032C126.075 57.8185 127.817 59.2442 129.141 61.016C129.32 61.2556 129.5 61.5307 129.477 61.8338C129.435 62.3847 128.803 62.6228 128.287 62.7326C127.372 62.9266 126.458 63.121 125.544 63.3151C125.209 63.3864 124.683 63.2333 124.819 62.9055C125.921 62.2 127.242 61.8786 128.527 62.0041C128.63 61.781 128.507 61.5189 128.37 61.3162C127.921 60.6477 127.306 60.1247 126.699 59.6111C125.712 58.7765 124.726 57.9419 123.74 57.1073C123.761 56.9355 123.969 56.8221 124.115 56.9032ZM116.911 54.1942C117.773 54.5916 118.084 55.6217 118.24 56.5409C118.338 57.1119 118.411 57.6965 118.315 58.2675C118.147 59.2675 117.46 60.1405 116.586 60.685C115.713 61.2298 114.671 61.4712 113.637 61.5264C111.242 61.6548 108.808 60.7868 107.059 59.1811C106.298 58.482 106.401 57.1962 107.041 56.3892C107.681 55.5822 108.705 55.1651 109.711 54.8943C110.851 54.5873 112.025 54.4241 113.195 54.2616C113.999 54.1501 114.804 54.0385 115.615 54.0112C116.056 53.9965 116.513 54.0102 116.911 54.1942ZM107.358 57.4444C107.094 57.9042 107.528 58.4372 107.927 58.7916C108.708 59.4856 109.688 60.232 110.707 59.9658C111.391 59.7876 112.125 59.1793 112.696 59.5892C112.647 59.8102 112.388 59.9167 112.159 59.9457C111.93 59.9744 111.68 59.9673 111.493 60.0996C111.306 60.2323 111.278 60.5813 111.5 60.6448C112.223 60.8521 112.897 60.2427 113.412 59.704C113.926 59.1653 114.665 58.5972 115.356 58.8931C115.447 58.9322 115.542 59.0025 115.544 59.1004C115.545 59.2431 115.364 59.3045 115.221 59.3357C114.461 59.5024 113.782 59.9927 113.396 60.6538C114.407 60.5096 115.314 59.9859 116.192 59.4727C116.813 59.1101 117.494 58.6642 117.62 57.9673C116.752 58.2181 115.85 58.354 114.946 58.3701C113.054 58.4038 111.214 59.5437 109.369 59.1305C108.903 59.0258 108.581 58.6194 108.3 58.2403C108.592 57.9673 109.058 58.1922 109.438 58.3239C109.819 58.4555 110.429 58.2543 110.288 57.8845C109.841 57.6987 109.395 57.5129 108.948 57.3268C108.41 57.1026 107.644 56.9451 107.358 57.4444ZM111.606 57.6227C111.474 57.6406 111.327 57.6757 111.257 57.7869C111.156 57.948 111.294 58.1703 111.476 58.2317C111.659 58.293 111.859 58.2435 112.045 58.194C112.506 58.071 112.966 57.948 113.426 57.8253C112.85 57.6098 112.217 57.5395 111.606 57.6227ZM115.82 56.8311C115.114 57.0908 114.378 57.3705 113.882 57.9272C114.987 57.7396 116.111 57.6632 117.231 57.6994C117.628 57.5265 117.48 56.872 117.082 56.7023C116.684 56.5327 116.227 56.6815 115.82 56.8311ZM116.385 55.2759C115.993 55.3071 115.644 55.5176 115.277 55.6579C114.236 56.056 113.072 55.8831 111.956 55.8243C110.975 55.7727 109.986 55.8143 109.023 56.004C108.505 56.1059 107.9 56.3523 107.835 56.8652C108.718 56.4595 109.745 56.6044 110.718 56.6744C112.919 56.8336 115.152 56.5592 117.244 55.8724C117.236 55.4875 116.778 55.2451 116.385 55.2759ZM100.864 55.4011C100.603 55.5162 100.335 55.6758 100.231 55.9402C100.127 56.2045 100.296 56.5775 100.581 56.5696C101.445 55.9674 102.537 55.6984 103.583 55.83C103.914 55.8717 104.252 55.6034 104.286 55.2723C103.184 54.8821 101.933 54.9291 100.864 55.4011ZM112.264 50.8819L112.266 50.9206C111.941 50.8048 111.539 50.9837 111.409 51.3026C111.946 51.2653 112.477 51.1502 112.981 50.9619C112.979 50.6667 112.513 50.7226 112.264 50.8819ZM119.132 49.6994C118.913 49.7987 119.17 50.2069 119.355 50.0537L119.36 50.0709C119.526 49.9386 119.325 49.6122 119.132 49.6994Z" fill="#00160A"/>
</g>
<defs>
<clipPath id="clip0_450_374">
<rect width="269" height="269" rx="40" fill="white"/>
</clipPath>
</defs>
</svg>
