<svg width="243" height="243" viewBox="0 0 243 243" fill="none" xmlns="http://www.w3.org/2000/svg">
<g clip-path="url(#clip0_448_155)">
<path d="M243 0H0V243H243V0Z" fill="#F3F5F7"/>
<path fill-rule="evenodd" clip-rule="evenodd" d="M138.052 201.458C161.519 201.458 182.113 184.002 170.548 160.292C158.982 136.583 201.955 137.348 214.578 120.962C229.973 100.978 225.514 16.1478 126.688 67.8642C110.857 76.1486 70.1999 59.3414 56.7137 67.6808C40.839 77.4971 18.5045 97.5977 40.839 118.188C51.8407 128.33 12.3974 154.654 29.6728 178.234C46.5291 201.243 58.3453 179.309 84.0087 184.002C109.672 188.695 120.624 201.458 138.052 201.458Z" fill="#8B3DFF"/>
<path d="M110.815 160.21C110.815 160.21 116.218 157.668 118.235 155.9C120.253 154.132 122.761 149.739 122.761 149.739C122.761 149.739 150.308 169.633 168.27 166.795C172.408 166.141 180.472 163.391 180.987 158.544C182.391 145.309 162.962 141.927 167.206 135.215C169.797 131.118 177.844 137.215 177.844 137.215L211.222 153.633C211.222 153.633 199.691 182.058 171.708 183.196C137.284 184.598 110.815 160.21 110.815 160.21Z" fill="#F3F5F7"/>
<path fill-rule="evenodd" clip-rule="evenodd" d="M84.3514 48.8932C84.0381 48.7701 82.3555 46.7101 80.2197 46.3352C79.2494 46.1648 80.13 47.4005 79.0621 47.4119C75.8807 47.4449 70.7107 46.8471 69.7529 47.4119C69.0411 47.8302 70.6086 49.2911 69.7529 49.3581C61.6782 49.9912 49.3597 58.0533 46.6874 61.9647C45.8365 63.2095 52.7157 61.0976 51.6196 61.7129C50.3894 62.4037 49.025 66.9264 48.2095 70.4191C47.6448 72.8245 47.289 75.92 47.1636 79.2876C47.059 82.1949 47.1008 82.676 47.5194 84.2656C48.0002 86.0434 48.3767 86.5663 49.025 86.3152C49.2554 86.2316 49.3597 85.918 49.3597 85.3322C49.3597 84.8721 49.6108 83.4915 49.9244 82.2574L50.4684 80.0406L50.6985 80.9608C50.9914 82.0274 52.7063 85.3322 54.2541 87.7376C54.3376 87.8652 54.6966 87.7029 55.0206 86.9201C55.3158 86.2067 55.1959 85.0672 55.6975 83.8457C56.8393 81.0635 59.0817 77.4464 61.6782 74.5508C65.5156 70.2717 66.7886 65.319 70.386 61.3436C77.099 53.9246 85.5239 49.3536 84.3514 48.8932Z" fill="#F3F5F7"/>
<path fill-rule="evenodd" clip-rule="evenodd" d="M51.7148 62.7225C50.6379 63.5886 49.0396 70.6123 49.012 70.7296C48.4473 73.1349 47.903 81.4876 48.4593 83.0691C49.0159 84.6505 50.574 78.9501 50.574 78.9501C50.574 78.9501 52.9289 85.0653 55.0099 86.742C55.0987 86.8136 52.5365 79.1759 51.7148 74.7173C50.6301 68.8319 52.3275 62.2297 51.7148 62.7225Z" fill="#E7EAEE"/>
<path fill-rule="evenodd" clip-rule="evenodd" d="M91.8536 185.734C93.8614 185.294 97.2495 183.765 98.5464 183.242C99.8437 182.719 103.797 177.137 105.219 170.841C106.244 166.198 106.766 159.589 106.181 158.48C106.094 158.323 105.778 155.318 106.62 156.299C108.492 158.48 110.714 161.905 117.726 155.768C119.636 154.097 122.167 151.94 121.501 150.033C119.636 144.697 111.552 133.953 110.32 133.139C108.847 132.166 101.399 132.993 90.3162 129.722C77.7473 126.012 72.5134 115.088 67.5947 116.51C63.617 117.66 54.0865 124.727 51.6947 129.203C40.403 150.331 54.0865 165.136 57.2031 169.388L60.2286 170.695L60.3332 173.393L60.4797 175.087C60.7515 178.329 60.8562 178.622 62.3203 179.71C65.9806 182.492 73.1964 185.085 79.7224 186.006C82.755 186.424 89.3436 186.277 91.8536 185.734Z" fill="#F3F5F7"/>
<path fill-rule="evenodd" clip-rule="evenodd" d="M61.4173 172.406L61.5637 174.1C61.8359 177.342 61.9402 177.634 63.4044 178.722C65.5638 180.363 68.9606 181.939 72.7229 183.144C75.3383 183.982 78.1305 184.641 80.8064 185.018C83.8394 185.436 90.4276 185.29 92.9376 184.746C94.1782 184.477 83.9735 176.46 77.9617 178.722C73.345 180.459 62.4638 167.208 66.888 163.746C71.851 159.862 62.7567 144.545 62.4638 141.219C62.1709 137.894 61.0178 137.099 60.9841 137.216C60.9504 137.333 60.9504 137.731 61.0408 138.689C61.4312 142.821 61.4173 172.406 61.4173 172.406Z" fill="#E7EAEE"/>
<path fill-rule="evenodd" clip-rule="evenodd" d="M60.3289 140.27C60.7679 140.184 61.193 140.471 61.2785 140.91C62.8571 149.02 69.5344 154.511 81.4741 157.382C93.4851 160.27 101.666 160.114 105.977 157.031C106.341 156.771 106.07 159 105.803 159.171C102.992 160.973 93.4326 163.664 82.0252 161.232C67.4397 158.124 60.5913 145.859 59.6883 141.22C59.6031 140.781 59.8895 140.355 60.3289 140.27Z" fill="#FFAB00"/>
<path fill-rule="evenodd" clip-rule="evenodd" d="M54.2459 125.637C54.634 125.415 69.1207 142.018 89.0013 145.776C108.882 149.534 113.695 147.144 114.469 142.018C114.536 141.576 114.949 141.271 115.391 141.338C115.833 141.405 116.138 141.818 116.071 142.26C115.09 148.757 105.891 150.302 88.7289 147.373C71.782 144.481 60.1631 137.61 53.9449 126.743C53.7229 126.355 53.8574 125.86 54.2459 125.637Z" fill="#FFAB00"/>
<path fill-rule="evenodd" clip-rule="evenodd" d="M137.688 124.717C137.144 124.529 136.558 124.11 136.182 123.629L135.554 122.855L137.771 120.659C141.181 117.313 143.795 113.882 146.054 109.804C146.807 108.444 148.71 103.905 148.71 103.466C148.71 103.32 148.941 102.734 149.213 102.128C149.631 101.249 149.944 100.915 150.844 100.413C151.911 99.7852 153.124 99.5762 153.647 99.9316C154.651 100.601 154.651 102.713 153.647 106.353C152.538 110.348 151.053 113.213 147.978 117.334C147.497 117.961 146.598 119.195 145.95 120.053C144.214 122.353 143.084 123.462 141.557 124.319C140.051 125.156 139.173 125.261 137.688 124.717ZM152.705 122.835L154.211 123.504C154.524 123.648 157.969 125.303 162.106 127.291C168.778 130.497 177.251 134.568 177.302 134.568C177.386 134.568 177.779 133.661 177.867 132.602C178.076 130.323 178.85 127.227 179.75 125.072C180.168 124.11 180.503 122.908 180.503 122.803C180.503 122.755 180.163 122.618 179.606 122.394C178.943 122.127 177.974 121.736 176.905 121.224C171.634 118.693 161.323 113.527 160.047 112.753C158.792 112.021 158.541 111.958 158.541 112.439C158.541 113.067 157.265 115.974 156.282 117.543C155.759 118.4 154.734 119.948 154.002 120.973L152.705 122.835ZM176.947 130.803C177.547 131.151 176.508 131.661 176.257 131.745C174.779 131.87 173.039 131.592 171.613 130.762C170.868 130.233 164.999 126.972 161.106 124.809C159.326 123.821 157.959 123.061 157.684 122.897C156.805 122.374 155.968 121.81 155.822 121.642C155.383 121.077 155.801 120.827 157.035 120.931C157.777 120.994 175.651 130.053 176.947 130.803ZM91.9239 185.561C93.5374 185.208 96.0419 184.151 97.6366 183.478C98.0267 183.314 98.3621 183.172 98.6171 183.069C99.9144 182.546 103.867 176.965 105.289 170.669C106.314 166.026 106.837 159.416 106.251 158.308C105.898 157.666 107.996 159.819 109.558 161.423C110.032 161.91 110.456 162.345 110.748 162.637C119.868 171.694 133.442 178.973 147.539 182.382C154.567 184.097 159.566 184.704 166.28 184.704C177.554 184.704 186.443 182.487 194.516 177.613C194.9 177.382 195.259 177.169 195.602 176.966C198.416 175.3 200.093 174.307 204.681 169.142C209.828 163.348 214.407 149.9 215.934 145.256C216.603 143.165 218.235 134.846 218.235 132.77C218.235 130.312 217.377 129.151 216.206 127.959C214.135 125.93 211.332 125.198 209.011 126.076L207.923 126.495L207.589 125.386C207.107 123.713 206.104 122.374 204.556 121.37C202.255 119.843 201.921 119.739 199.85 119.739C198.239 119.739 197.8 119.823 196.775 120.304L195.583 120.847L195.332 120.094C194.851 118.547 193.237 116.389 191.985 115.765C190.875 115.211 188.953 115.161 187.614 115.409C184.686 115.953 182.594 117.313 181.737 119.216C181.486 119.802 181.172 120.262 181.047 120.262C180.942 120.262 176.822 119.111 171.906 116.936C171.077 116.568 170.298 116.222 169.567 115.898C160.74 111.986 158.827 111.138 159.001 110.076C159.147 109.176 159.106 108.674 158.855 107.9C158.415 106.604 157.914 106.248 156.491 106.248C155.362 106.248 155.362 106.248 155.487 105.684C156.157 102.483 156.136 100.643 155.425 99.4716C154.943 98.6975 154.379 98.3839 153.082 98.1956C152.329 98.091 151.973 98.1539 151.137 98.6139C150.572 98.9068 150.091 99.1158 150.049 99.074C150.007 99.0322 150.154 97.882 150.384 96.5222C152.099 86.4617 150.774 77.7937 146.403 68.5908C146.361 68.5027 146.312 68.3987 146.257 68.2794C144.928 65.4263 139.584 53.9538 124.302 48.1649C123.61 47.9027 122.956 47.6494 122.326 47.4061C117.121 45.3911 113.66 44.0514 105.31 44.0653C95.9512 44.0808 92.7815 45.4041 86.6112 48.2277C85.7539 48.6249 85.001 48.855 84.9381 48.7714C84.8752 48.6667 84.478 48.416 84.0805 48.2067C83.6832 47.9977 82.8256 47.4747 82.198 47.0565C80.3992 45.8431 79.2908 45.3412 78.726 45.4666C78.0777 45.6341 78.0777 46.1778 78.726 46.4289C78.9979 46.5335 79.3118 46.889 79.4372 47.2447C79.7091 47.9977 80.0227 48.0813 80.2109 47.4537C80.2949 47.2236 80.4202 47.0565 80.4831 47.0983C80.5068 47.1099 80.5865 47.1475 80.708 47.2042C81.0138 47.3474 81.5844 47.6147 82.198 47.9138C83.0557 48.3321 83.9969 48.7714 84.248 48.876C84.7081 49.0432 84.5616 49.1689 82.5745 50.3402C74.8147 54.8999 68.4983 61.9903 64.9635 70.0637C64.4195 71.2768 63.9387 72.0297 63.4365 72.4483C62.1606 73.5149 59.6509 76.5476 59.0651 77.7399C58.7515 78.3882 58.0821 79.3923 57.5591 79.9778C57.0573 80.5636 56.5133 81.3165 56.325 81.6302C56.1578 81.9649 55.9906 82.1949 55.9278 82.1531C55.886 82.0903 55.9485 81.0654 56.095 79.8734C56.4089 77.0916 56.4089 76.3593 56.1578 76.2968C55.7813 76.1922 55.2377 77.6563 55.0073 79.4759C54.8401 80.5843 54.7983 82.2578 54.903 83.9727L55.0284 86.692L53.5435 84.2867C53.0328 83.4822 52.53 82.678 52.1726 82.1068V82.1065H52.1723V82.1061L52.1717 82.1048L52.171 82.1042V82.1039L52.1707 82.1035L52.17 82.1026C51.9436 81.74 51.7757 81.4721 51.7028 81.3583C51.1588 80.5636 50.8452 79.3712 51.0752 78.974C51.2006 78.744 51.1799 78.6393 50.9706 78.6393C50.5316 78.6393 49.6739 80.0406 49.1092 81.6512C48.8374 82.4042 48.5652 83.0315 48.4816 83.0315C48.168 83.0315 48.3144 75.5438 48.6491 73.1385C49.3392 68.3906 51.1588 62.5339 51.9747 62.5339C52.1419 62.5339 52.2883 62.4503 52.2883 62.325C52.2883 61.9485 51.7446 62.0949 51.3053 62.5761C50.3223 63.6427 49.0256 66.9264 48.2098 70.4195C47.6451 72.8248 47.2896 75.9203 47.1639 79.2877C47.0596 82.1949 47.1014 82.6761 47.5197 84.2656C48.0008 86.0434 48.3773 86.5663 49.0256 86.3155C49.2557 86.2316 49.3603 85.918 49.3603 85.3322C49.3603 84.8721 49.6111 83.4919 49.925 82.2578L50.4687 80.0406L50.6988 80.9608C50.9916 82.0277 52.7066 85.3325 54.2543 87.7376C55.3213 89.3692 55.342 89.4736 55.6977 92.0254C55.886 93.4685 56.4715 96.979 57.831 102.379C59.0324 107.15 65.7852 111.883 67.4716 113.065L67.4726 113.065C67.6942 113.221 67.828 113.314 67.8497 113.339C68.059 113.569 68.3519 113.694 68.5191 113.632C68.7073 113.569 68.812 113.652 68.812 113.882C68.812 114.092 68.9584 114.364 69.1256 114.489C69.3349 114.635 69.4814 115.2 69.5232 116.183C69.6278 118.149 71.0916 121.914 72.2211 123.148C72.9533 123.943 74.48 124.278 76.1742 123.985C77.283 123.818 77.5966 123.692 77.4919 123.441C77.4294 123.274 77.8266 123.483 78.3706 123.901C84.7288 128.754 91.1709 131.661 98.4078 132.916C101.211 133.397 105.854 133.669 108.385 133.481C110.623 133.334 110.623 133.334 110.518 133.773C110.372 134.359 110.56 134.715 113.634 139.923C116.082 144.043 116.291 144.315 119.01 147.097C124.783 153.058 131.078 157.68 138.211 161.257C144.925 164.603 155.644 167.385 165.443 168.264C175.242 169.142 182.28 160.148 182.26 157.848C182.218 154.689 181.778 152.619 180.712 150.611C179.666 148.665 178.976 147.996 175.838 145.905C172.346 143.583 170.191 141.68 168.769 139.651C167.869 138.375 167.535 136.932 167.535 136.158C167.535 135.656 168.183 134.526 169.145 134.296C170.024 134.066 170.191 134.087 171.174 134.568C171.76 134.84 173.287 135.551 174.542 136.158C175.818 136.744 177.052 137.329 177.302 137.455C178.042 137.66 178.355 139.109 178.525 139.894C178.563 140.069 178.594 140.211 178.62 140.299C178.913 141.387 180.299 142.791 181.193 143.269C182.763 144.109 186.631 144.221 187.698 143.071C187.97 142.778 188.871 142.418 189.057 142.527C189.243 142.636 189.915 143.541 189.915 144.273C189.936 145.528 190.584 146.679 191.964 147.829C194.579 150.004 196.608 150.527 198.658 149.565C199.724 149.063 200.599 148.867 200.599 148.867C200.599 148.867 201.471 149.98 201.523 150.36C201.934 153.331 206.333 154.577 207.505 154.703C207.773 154.73 208.296 154.615 208.826 154.498C209.536 154.342 210.26 154.183 210.412 154.355C210.711 154.692 205.413 163.453 204.681 164.562C197.716 175.02 184.163 181.42 167.577 182.089C156.805 182.528 143.565 179.516 132.082 174.037C124.741 170.502 118.236 166.172 111.271 160.107C110.058 159.061 108.657 157.869 108.155 157.45C107.653 157.053 106.46 155.693 105.54 154.438C103.993 152.347 103.114 151.594 103.114 152.305C103.114 152.619 104.118 154.543 105.268 156.446C105.729 157.199 106.021 157.722 105.917 157.639C105.812 157.555 105.477 159.061 105.164 160.985C104.139 167.155 102.445 173.242 100.73 177.027C99.7883 179.077 97.9836 180.608 97.4396 181.026C95.4318 182.553 92.4261 183.239 88.2636 183.658C82.9928 184.181 75.233 183.009 69.3139 180.792C67.7454 180.207 63.7083 178.513 63.4365 178.324C63.4203 178.308 63.3276 177.706 63.1984 176.866C63.1617 176.63 63.1225 176.374 63.0811 176.107C62.3281 170.941 61.2822 151.05 61.2822 141.847C61.2822 138.04 61.2404 137.204 60.9893 137.204C60.4664 137.204 60.2574 137.706 60.0274 139.504C59.5044 143.604 59.6091 165.001 60.1738 169.498L60.2992 170.523L59.588 170.125C58.5004 169.498 54.359 165.294 52.9159 163.348C51.6941 161.685 50.968 159.556 50.4247 157.962C50.2983 157.592 50.182 157.25 50.0712 156.95C47.0385 148.542 48.1051 139.107 52.2883 130.615C55.8442 123.378 60.2156 119.363 66.6159 117.417C67.6614 117.104 68.5819 116.769 68.6866 116.685C69.0838 116.309 66.532 116.497 65.1307 116.936C60.571 118.337 55.8024 122.165 52.5605 127.06C48.0008 133.92 45.9509 144.043 47.394 152.681C47.7286 154.731 49.0882 159.165 49.4646 159.479C49.498 159.512 49.6701 159.873 49.9302 160.419C50.6498 161.928 52.043 164.851 53.0413 166.172C54.2543 167.825 57.9149 171.422 59.4416 172.531L60.4039 173.221L60.5503 174.915C60.8221 178.157 60.9268 178.45 62.3906 179.537C66.0512 182.319 73.267 184.913 79.7927 185.833C82.8256 186.251 89.4142 186.105 91.9239 185.561ZM162.62 165.921C150.467 164.854 135.784 159.06 125.159 150.109C120.683 146.323 114.869 138.961 112.568 134.882C112.087 134.045 111.731 133.648 111.313 133.543C110.874 133.418 111.25 133.292 113.049 133C120.641 131.703 128.025 128.544 133.986 124.048L134.864 123.399L135.115 124.006C135.68 125.365 137.855 126.746 139.466 126.746C140.114 126.746 142.289 125.763 143.607 124.863L144.506 124.257L145.238 124.989C145.908 125.658 146.033 125.7 147.288 125.7C148.731 125.7 150.467 125.052 151.43 124.131L151.952 123.65L153.438 124.633C154.232 125.198 156.449 126.432 158.353 127.415C161.197 128.879 164.209 130.573 167.075 132.33L167.535 132.623L167.095 133.209C166.635 133.836 165.778 135.028 165.778 136.848C165.778 138.898 167.91 142.581 171.99 145.11C175.195 147.097 180.712 151.005 180.503 156.718C180.477 157.408 179.708 159.124 178.683 160.671C178.014 161.654 176.152 163.118 174.458 163.976C171.571 165.419 166.489 166.256 162.62 165.921ZM51.0963 72.0297C51.661 72.1554 52.0375 72.3437 51.9536 72.4273C51.6818 72.6991 50.2387 72.5737 49.904 72.239C49.381 71.7372 49.5064 71.3814 50.2387 71.235C50.6152 71.1724 51.1799 70.8585 51.4935 70.5448C51.8075 70.2312 52.0793 70.0848 52.0793 70.1894C52.0793 70.4612 51.0334 71.4232 50.5105 71.6325C50.1758 71.779 50.2805 71.8415 51.0963 72.0297ZM59.4208 72.3644C60.0274 72.0297 59.9017 71.7997 59.1908 71.9043C58.4796 72.009 58.4378 71.9254 58.8979 71.2142C59.0861 70.9424 59.1908 70.5448 59.1487 70.3355C59.0861 70.0637 58.9397 70.1894 58.605 70.8585C58.3539 71.3396 57.9985 71.7372 57.831 71.7372C57.3084 71.7372 57.2662 72.1554 57.7684 72.3437C58.4168 72.6155 58.9186 72.6155 59.4208 72.3644ZM52.184 60.9444C51.6818 61.028 50.1133 61.6556 48.7327 62.3457C47.3314 63.0151 46.1391 63.5798 46.0555 63.5591C43.922 63.329 46.8921 59.7731 52.2883 56.134C57.4545 52.6409 60.9475 50.8003 64.1895 49.8591C66.2184 49.2733 68.4983 49.1897 69.1467 49.6708C69.5021 49.9427 69.3767 49.9637 67.829 49.9844C64.4824 49.9844 60.6128 51.6997 54.3172 55.9036C51.0545 58.0789 47.2686 61.1955 47.2686 61.6974C47.2686 61.802 47.8751 61.5927 48.6281 61.2584C50.2387 60.5261 51.8911 60.1496 52.623 60.3171C53.397 60.5261 53.2295 60.798 52.184 60.9444ZM60.2781 62.7432C62.2445 62.3457 62.3281 62.325 62.3281 62.1157C62.3281 62.0113 61.5751 61.9067 60.6339 61.8649L58.9397 61.802L60.5082 60.0242C61.3658 59.0412 62.3699 58.0582 62.7253 57.8282C63.4993 57.326 63.5411 56.9705 62.9136 56.7612L62.4327 56.6148L62.9554 56.4265C63.2482 56.3222 63.7922 56.2801 64.1687 56.3429C64.7335 56.4265 64.8589 56.3847 64.796 56.0918C64.7335 55.7993 64.5034 55.7364 63.4783 55.7575C60.4874 55.7993 59.2115 56.5941 61.554 56.9705C62.2024 57.0752 62.7464 57.2424 62.7464 57.347C62.7464 57.4306 62.6417 57.5142 62.5163 57.5142C62.1188 57.5142 58.7515 60.9237 58.3332 61.7602C57.6848 62.9943 58.0403 63.1826 60.2781 62.7432ZM74.0828 54.628C73.4763 54.6698 73.3298 54.7741 73.3716 55.067L73.3781 55.1098C73.4014 55.2644 73.415 55.3535 73.3804 55.3803C73.3334 55.4166 73.1989 55.3405 72.8827 55.161L72.8276 55.1299C72.4304 54.9206 72.3886 54.8163 72.6187 54.6488C72.7651 54.5234 73.1623 54.3351 73.4763 54.2723L74.0617 54.1258L73.6227 53.6657C73.3924 53.3939 73.267 53.1428 73.3298 53.0592C73.497 52.892 75.547 53.1221 75.8395 53.3521C75.9652 53.4564 76.1535 53.4357 76.2789 53.3103C76.5718 53.0174 76.969 53.2475 76.969 53.7075C76.969 53.9586 76.9065 53.9794 76.7182 53.7911C76.5507 53.6239 76.4043 53.6239 76.216 53.7704C76.0488 53.9168 75.9235 53.9168 75.8188 53.7493C75.7559 53.6447 75.3587 53.5403 74.9404 53.5403C74.5542 53.5403 74.3718 53.5404 74.3346 53.6139C74.3012 53.6797 74.3848 53.8047 74.5429 54.0422C74.8766 54.5635 74.8568 54.5652 74.0899 54.6274L74.0828 54.628ZM70.9034 49.0643C70.9034 48.7925 70.6526 48.3113 70.3387 47.9977L69.7532 47.4119L72.8905 47.5373C74.6265 47.6212 76.5925 47.8094 77.283 47.9977C77.9731 48.1649 78.7678 48.2903 79.0607 48.2903C79.5001 48.2903 79.4162 48.2067 78.6007 47.7673C77.1783 47.0354 75.3587 46.68 71.8657 46.4289C67.6825 46.136 65.57 46.5335 65.9673 47.5791C66.0301 47.7884 66.3648 47.893 66.8667 47.893C67.8915 47.893 69.565 48.4996 70.1297 49.0643C70.7362 49.6708 70.9034 49.6708 70.9034 49.0643ZM60.6964 104.449C62.3906 106.625 64.6288 109.093 65.6747 109.929C66.3019 110.432 66.8459 110.85 66.8877 110.85C66.9085 110.85 66.4484 109.888 65.8629 108.716C63.4993 104.01 62.1188 99.3251 61.4705 93.9289C61.324 92.7366 61.094 91.7325 60.8429 91.3142C60.341 90.4776 60.341 89.39 60.8639 88.3652C61.1358 87.8215 61.2822 87.131 61.2822 86.3781V85.2279L60.2781 86.2734C59.2951 87.2986 58.3539 87.7168 58.3539 87.0893C58.3539 86.6292 59.9016 84.412 60.7175 83.7219C61.3658 83.1779 61.4494 82.9897 61.6587 81.3583C61.8051 80.3753 62.1398 78.6393 62.4117 77.4888C62.7046 76.3386 62.8718 75.3556 62.83 75.3138C62.6835 75.1673 57.7684 80.8124 57.099 82.6132C56.952 83.0088 56.5554 83.7009 56.2414 84.1191L55.6977 84.8174C55.6977 84.8174 55.8666 85.7952 56.0532 87.0238C56.2417 88.2654 56.3302 89.1188 56.4093 89.8789C56.5146 90.8956 56.6027 91.7455 56.8897 93.1341C57.2244 94.849 57.5591 96.3339 57.6427 96.4386C57.7056 96.5643 57.9774 97.5263 58.2496 98.5929C58.835 100.956 59.8181 103.299 60.6964 104.449ZM145.573 124.236L145.134 123.797C145.134 123.797 152.424 114.534 153.73 111.122C154.727 108.517 155.314 107.779 156.105 107.779C156.548 107.779 156.91 107.88 157.077 108.131C157.37 108.57 157.652 109.114 157.275 110.975C156.648 113.987 155.686 115.974 152.799 120.262C152.13 121.245 151.273 122.333 150.896 122.709C150.018 123.525 148.041 124.361 146.891 124.549C146.159 124.654 145.95 124.612 145.573 124.236Z" fill="#00160A"/>
<path d="M203.49 144.697C206.092 137.607 205.698 136.096 205.247 135.949C205.247 135.949 204.253 136.513 203.814 137.705C202.998 139.944 200.206 145.8 199.16 146.846C197.926 148.08 197.926 148.08 196.671 148.08C195.416 148.08 191.797 146.19 191.304 144.327C190.516 141.346 193.91 130.991 193.994 130.406L193.429 130.008C193.053 130.364 188.156 145.214 181.716 141.345C180.979 140.902 179.416 138.814 179.29 137.705C178.593 134.485 181.791 123.221 182.335 120.908C182.822 118.837 185.356 116.915 188.472 116.915C193.262 116.915 192.619 121.102 194.764 122.577C195.715 123.231 197.277 122.046 197.759 121.956C200.457 121.454 201.491 122.038 203.469 123.608C204.996 124.82 206.126 127.218 207.369 128.063C208.06 128.533 208.792 127.891 209.032 127.771C210.016 127.276 212.128 127.645 212.714 128.063C213.572 128.438 215.676 130.46 216.009 131.636C217.515 136.967 212.758 148.786 210.963 151.003C207.99 154.673 200.888 151.786 203.49 144.697Z" fill="#F3F5F7"/>
<path fill-rule="evenodd" clip-rule="evenodd" d="M83.2446 125.27C88.9758 128.889 94.8849 131.252 101.62 131.9C106.933 132.403 114.096 131.712 119.241 130.039C123.571 128.638 129.427 124.756 133.338 121.472C140.931 115.113 145.721 105.181 147.812 94.64C148.105 93.1548 148.551 89.422 148.531 85.72C148.531 81.4111 146.634 69.637 140.889 62.8479C129.039 48.8452 109.56 42.5376 93.1898 47.9273C87.2845 49.8713 80.997 53.3939 76.2491 57.9953C70.2671 63.8309 65.8539 71.7789 64.0968 79.8942C62.2562 88.4698 64.6505 98.7186 68.8126 107.127C72.1385 113.82 77.6183 121.694 83.2446 125.27ZM139.09 99.9945C135.158 111.812 124.909 120.638 112.025 123.316C110.059 123.713 108.699 123.859 105.939 123.901C103.993 123.964 102.048 123.943 101.651 123.901C92.636 122.813 85.7757 119.488 79.459 113.171C76.6982 110.39 75.5269 108.884 73.8116 105.914C71.1137 101.208 69.6703 96.3968 69.2313 90.603C67.7253 70.7541 81.9272 54.2097 101.923 52.4944C109.766 51.8251 118.467 54.2304 125.077 58.9155C127.524 60.6515 131.958 65.0439 133.338 67.0936C133.903 67.9094 139.383 75.9203 140.345 80.5217C141.579 86.5038 141.098 93.9914 139.09 99.9945Z" fill="#F3F5F7"/>
<path fill-rule="evenodd" clip-rule="evenodd" d="M148.537 85.7196C148.537 99.7586 141.896 115.107 133.326 121.662C129.237 124.789 123.894 128.576 119.24 130.039C112.421 132.183 101.619 131.9 101.619 131.9C101.619 131.9 112.639 130.427 116.723 128.784C128.433 124.071 134.826 116.837 138.773 109.896C146.565 96.1939 148.537 85.3788 148.537 85.7196Z" fill="#E7EAEE"/>
<path fill-rule="evenodd" clip-rule="evenodd" d="M101.86 121.391C96.2747 120.68 90.732 118.693 86.2563 115.744C83.5998 114.008 79.5839 109.93 77.6389 107.022C74.857 102.839 73.0164 98.363 72.117 93.5523C71.4686 90.0592 71.4897 84.6841 72.138 81.5675C72.8074 78.3884 73.6647 75.962 75.1917 72.8876C76.9695 69.3317 78.8519 66.7173 81.6756 63.8936C86.4864 59.0829 92.0708 56.0292 98.7219 54.565C100.876 54.105 108.678 53.7285 108.95 54.0842C109.013 54.1886 109.431 54.4607 109.87 54.6907C110.309 54.9415 111.481 55.8202 112.443 56.6775C113.886 57.9327 114.534 58.7275 115.789 60.6935C116.647 62.0323 117.337 63.2453 117.337 63.35C117.337 63.58 118.006 63.9983 118.383 63.9983C118.906 63.9983 119.262 62.4295 119.366 59.6687C119.429 58.1417 119.554 56.8868 119.638 56.8868C119.931 56.8868 123.152 58.6646 124.658 59.6687C127.607 61.6347 130.556 64.3955 132.731 67.282C133.714 68.5787 133.861 68.9134 133.861 69.7082C133.861 70.4404 134.07 71.0051 134.718 72.1346C136.35 74.979 137.626 78.5556 138.4 82.5087C138.901 85.1652 138.901 90.1849 138.379 92.9668C136.956 100.622 132.731 108.235 127.23 113.067C122.566 117.145 117.609 119.655 111.753 120.889C109.745 121.328 103.721 121.621 101.86 121.391ZM86.9046 107.085C87.0929 106.876 87.2183 106.562 87.1554 106.416C87.1366 106.372 86.8748 106.249 86.4915 106.068C85.5979 105.648 84.0444 104.918 83.3711 104.157C80.6939 101.103 79.7105 98.8231 79.104 94.117C78.5185 89.5366 79.0104 86.4398 80.0663 81.4629C80.5811 79.0351 81.95 77.0296 82.8018 75.7822C83.3808 74.9336 83.721 74.4356 83.3909 74.3935C82.575 74.2678 82.4496 74.3307 81.592 75.1465C79.7514 76.9032 78.9148 78.3045 78.0361 81.0028C76.6766 85.2277 76.4138 96.6458 79.104 101.793C81.7942 106.941 86.4235 107.629 86.9046 107.085ZM116.647 89.5156C116.292 92.7646 114.785 97.4636 113.028 99.5132C112.213 100.476 109.219 102.128 106.691 101.793C104.25 101.47 102.34 100.329 100.709 97.8819C99.3077 95.7694 98.5839 93.2053 98.0946 89.9756C97.2496 84.399 100.939 77.9073 102.529 76.2967C104.139 74.6443 105.29 74.0588 106.754 74.0378C108.176 74.0378 109.096 74.3517 110.539 75.3765C113.175 77.2172 117.337 83.2018 116.647 89.5156ZM88.4524 72.2182C88.8707 71.737 88.9335 71.507 88.8078 70.6076C88.7242 69.771 88.557 69.4363 88.1177 69.0809C87.3437 68.4533 86.3817 68.4533 85.6705 69.1227C85.1686 69.6038 85.1058 69.771 85.1686 70.9212C85.2312 72.1553 85.273 72.2389 85.9634 72.6154C86.8836 73.1176 87.783 72.9712 88.4524 72.2182ZM101.504 59.3129C97.7389 62.0112 96.1075 63.1196 94.4133 64.1655C93.0749 65.0021 92.6563 65.0231 92.6563 64.2701C92.6563 63.8726 92.9492 63.4336 93.7022 62.7431L94.748 61.7812L92.7191 61.5093C90.4395 61.2164 88.2223 60.5888 87.7412 60.1077C86.9464 59.2922 87.6366 59.104 89.8955 59.5222C90.8996 59.6894 92.8445 59.8987 94.2251 59.9405L96.7351 60.0452L98.5547 58.7275C102.55 55.8409 106.691 54.2096 108.678 54.7115C109.912 55.0044 109.766 55.3391 108.364 55.5063C106.754 55.6945 105.771 56.2385 101.504 59.3129Z" fill="#F3F5F7"/>
<path d="M106.879 98.9276C106.879 98.823 107.005 98.7186 107.172 98.7186C107.339 98.7186 107.549 98.823 107.611 98.9276C107.674 99.053 107.549 99.1369 107.319 99.1369C107.068 99.1369 106.879 99.053 106.879 98.9276Z" fill="#F3F5F7"/>
<path d="M108.134 98.7393C108.134 98.5093 108.657 98.3003 109.243 98.3003C109.703 98.321 109.703 98.321 109.306 98.6139C108.845 98.9694 108.134 99.0322 108.134 98.7393Z" fill="#F3F5F7"/>
<path d="M104.892 98.1956C104.829 98.0284 104.745 97.7355 104.683 97.568C104.62 97.359 104.725 97.2544 104.996 97.2544C105.226 97.2544 105.415 97.3798 105.415 97.5473C105.415 97.7145 105.478 97.9863 105.54 98.1746C105.624 98.4049 105.561 98.5092 105.331 98.5092C105.143 98.5092 104.934 98.3628 104.892 98.1956Z" fill="#F3F5F7"/>
<path d="M106 97.6727C105.896 97.0455 106.126 96.8362 106.879 96.8362C107.109 96.8362 107.297 97.0455 107.381 97.4009C107.548 98.0074 107.276 98.3003 106.544 98.3003C106.21 98.3003 106.063 98.1539 106 97.6727Z" fill="#F3F5F7"/>
<path d="M103.866 97.7772C103.469 97.4633 103.469 97.4633 103.908 97.4633C104.18 97.4633 104.368 97.589 104.368 97.7772C104.368 98.1537 104.368 98.1537 103.866 97.7772Z" fill="#F3F5F7"/>
<path d="M108.071 97.7563C107.799 97.4845 107.924 96.6686 108.259 96.5432C108.865 96.3132 109.137 96.4179 109.263 96.9615C109.346 97.2755 109.388 97.5473 109.346 97.5681C109.179 97.7563 108.196 97.882 108.071 97.7563Z" fill="#F3F5F7"/>
<path d="M109.933 97.3168C109.87 97.2543 109.807 96.9824 109.807 96.7313C109.807 96.3759 109.975 96.2295 110.477 96.1248C110.916 96.0412 111.188 96.083 111.313 96.2502C111.522 96.5849 111.522 97.0032 111.334 97.1078C110.958 97.3168 110.079 97.4425 109.933 97.3168Z" fill="#F3F5F7"/>
<path d="M102.905 96.669C102.905 96.4179 103.093 96.2089 103.365 96.146C103.909 95.9996 103.888 95.9785 103.992 96.5225C104.034 96.8361 103.93 96.9619 103.491 97.0037C103.03 97.0662 102.905 96.9826 102.905 96.669Z" fill="#F3F5F7"/>
<path d="M104.494 96.6897C104.201 96.3761 104.389 95.7903 104.787 95.7903C105.058 95.7903 105.205 95.9367 105.205 96.1878C105.205 96.5854 104.724 96.9197 104.494 96.6897Z" fill="#F3F5F7"/>
<path d="M105.75 96.0625C105.583 95.665 105.938 95.3721 106.628 95.3721C106.942 95.3721 107.089 95.4978 107.089 95.7696C107.089 95.9997 106.9 96.209 106.628 96.2926C105.938 96.4597 105.896 96.4597 105.75 96.0625Z" fill="#F3F5F7"/>
<path d="M111.795 95.9996C111.857 95.8949 111.962 95.7903 112.025 95.7903C112.088 95.7903 112.067 95.8949 112.004 95.9996C111.941 96.125 111.836 96.2089 111.774 96.2089C111.711 96.2089 111.732 96.125 111.795 95.9996Z" fill="#F3F5F7"/>
<path d="M107.632 95.6437C107.465 95.2254 107.674 95.0161 108.343 94.9114C108.72 94.8696 108.887 94.9536 108.929 95.2461C109.075 95.9366 107.883 96.3131 107.632 95.6437Z" fill="#F3F5F7"/>
<path d="M102.612 95.2883C102.424 94.5981 102.465 94.5353 103.009 94.5353C103.302 94.5353 103.532 94.6192 103.532 94.7235C103.532 94.8282 103.595 95.0582 103.658 95.2257C103.72 95.4347 103.595 95.5604 103.239 95.6229C102.842 95.7065 102.695 95.6229 102.612 95.2883Z" fill="#F3F5F7"/>
<path d="M109.599 95.0584C109.599 94.6819 109.745 94.5144 110.142 94.4097C110.728 94.2633 111.062 94.5562 111.062 95.2255C111.062 95.4974 110.895 95.581 110.331 95.581C109.682 95.581 109.599 95.5184 109.599 95.0584Z" fill="#F3F5F7"/>
<path d="M101.985 95.058C101.922 94.8908 101.964 94.7444 102.068 94.7444C102.194 94.7444 102.278 94.8908 102.278 95.058C102.278 95.2255 102.235 95.372 102.194 95.372C102.152 95.372 102.068 95.2255 101.985 95.058Z" fill="#F3F5F7"/>
<path d="M104.097 95.2255C103.805 94.9537 103.972 94.3679 104.348 94.2632C104.578 94.2007 104.808 94.2214 104.871 94.2843C105.122 94.5143 104.976 95.1209 104.662 95.2463C104.265 95.3927 104.265 95.3927 104.097 95.2255Z" fill="#F3F5F7"/>
<path d="M111.565 95.0793C111.335 94.4725 111.586 94.0124 112.172 93.9498C112.611 93.887 112.737 93.9706 112.737 94.3053C112.737 94.9954 112.506 95.3719 112.088 95.3719C111.858 95.3719 111.628 95.2465 111.565 95.0793Z" fill="#F3F5F7"/>
<path d="M105.561 94.8071C105.31 94.5771 105.393 94.1588 105.749 94.0334C106.146 93.887 106.983 94.3053 106.753 94.5353C106.46 94.7864 105.707 94.9747 105.561 94.8071Z" fill="#F3F5F7"/>
<path d="M107.382 94.2843C107.193 93.9914 107.863 93.4895 108.407 93.4895C108.657 93.4895 108.762 93.6149 108.72 93.8449C108.637 94.2632 107.57 94.5979 107.382 94.2843Z" fill="#F3F5F7"/>
<path d="M101.65 94.1379C101.65 94.0333 101.588 93.8032 101.525 93.615C101.462 93.4267 101.483 93.2803 101.609 93.2803C101.88 93.2803 102.09 94.075 101.839 94.2426C101.734 94.3054 101.65 94.2633 101.65 94.1379Z" fill="#F3F5F7"/>
<path d="M102.215 93.6568C102.089 93.1968 102.34 92.8621 102.821 92.8621C103.093 92.8621 103.365 93.6779 103.198 93.9497C102.968 94.3055 102.319 94.0962 102.215 93.6568Z" fill="#F3F5F7"/>
<path d="M103.679 93.7615C103.365 93.4479 103.554 92.6949 103.972 92.5903C104.286 92.5067 104.453 92.611 104.62 92.9875C104.746 93.2596 104.808 93.5315 104.767 93.5733C104.557 93.7615 103.805 93.908 103.679 93.7615Z" fill="#F3F5F7"/>
<path d="M109.326 93.7615C109.055 93.4896 109.18 93.3221 109.808 93.0921C110.331 92.9249 110.477 92.9456 110.582 93.1967C110.77 93.6986 109.724 94.1797 109.326 93.7615Z" fill="#F3F5F7"/>
<path d="M111.167 93.2802C110.958 92.9459 111.251 92.653 111.794 92.653C112.443 92.653 112.631 93.1966 112.045 93.3641C111.418 93.5313 111.313 93.5106 111.167 93.2802Z" fill="#F3F5F7"/>
<path d="M112.944 92.7784C112.944 92.4648 113.321 92.1301 113.488 92.2973C113.634 92.4437 113.342 93.0713 113.133 93.0713C113.028 93.0713 112.944 92.9456 112.944 92.7784Z" fill="#F3F5F7"/>
<path d="M101.379 92.5065C101.295 92.4436 101.232 92.1718 101.253 91.9417C101.253 91.5445 101.274 91.5445 101.462 92.0046C101.671 92.5065 101.63 92.7576 101.379 92.5065Z" fill="#F3F5F7"/>
<path d="M101.775 92.193C101.587 91.4607 101.608 91.3982 102.152 91.3982C102.759 91.3982 103.135 92.1719 102.675 92.4648C102.194 92.7577 101.922 92.6741 101.775 92.193Z" fill="#F3F5F7"/>
<path d="M108.97 92.6107C108.97 92.5482 109.075 92.2135 109.2 91.837C109.493 91.0004 110.141 90.9583 110.288 91.7741C110.351 92.0878 110.372 92.3599 110.351 92.3807C110.246 92.5061 108.97 92.6943 108.97 92.6107Z" fill="#F3F5F7"/>
<path d="M103.261 92.0883C103.177 92.0254 103.114 91.7743 103.114 91.5443C103.114 91.2096 103.177 91.1889 103.428 91.3978C103.595 91.5443 103.742 91.7954 103.742 91.9418C103.742 92.2555 103.491 92.3391 103.261 92.0883Z" fill="#F3F5F7"/>
<path d="M110.79 91.67C110.664 91.0217 110.936 90.7288 111.585 90.8124C111.899 90.8542 112.003 91.0424 112.003 91.5028C112.003 92.0258 111.92 92.1512 111.459 92.193C110.999 92.2558 110.894 92.1512 110.79 91.67Z" fill="#F3F5F7"/>
<path d="M112.839 91.7537C112.567 90.9168 112.651 90.666 113.215 90.6032C113.718 90.5403 113.78 90.6032 113.78 91.1472C113.78 91.6072 113.655 91.7955 113.341 91.8791C113.111 91.9419 112.881 91.8791 112.839 91.7537Z" fill="#F3F5F7"/>
<path d="M101.064 90.5612C101.064 90.1637 101.106 89.9965 101.169 90.2055C101.21 90.3937 101.21 90.7284 101.169 90.9377C101.106 91.126 101.064 90.9585 101.064 90.5612Z" fill="#F3F5F7"/>
<path d="M101.587 90.8335C101.315 90.5824 101.441 89.7669 101.775 89.6412C102.256 89.4529 102.487 89.683 102.487 90.3734C102.487 90.8124 102.382 90.98 102.11 90.98C101.901 90.98 101.65 90.9171 101.587 90.8335Z" fill="#F3F5F7"/>
<path d="M102.842 90.2684C102.759 89.9547 102.717 89.6201 102.8 89.5572C103.01 89.3482 103.135 89.6829 103.072 90.2894L103.01 90.8749L102.842 90.2684Z" fill="#F3F5F7"/>
<path d="M109.599 90.1223C109.599 89.8922 109.703 89.7665 109.808 89.8294C109.933 89.8922 110.017 90.1012 110.017 90.2687C110.017 90.4359 109.933 90.5613 109.808 90.5613C109.703 90.5613 109.599 90.373 109.599 90.1223Z" fill="#F3F5F7"/>
<path d="M110.539 90.394C110.247 90.0804 110.477 89.5156 110.958 89.3899C111.564 89.2435 111.585 89.2435 111.774 89.85C111.899 90.2265 111.815 90.3104 111.271 90.394C110.937 90.4565 110.602 90.4358 110.539 90.394Z" fill="#F3F5F7"/>
<path d="M112.464 89.9969C112.234 89.7876 112.296 89.0975 112.526 89.0975C112.652 89.0975 112.735 89.0139 112.735 88.8882C112.735 88.7839 112.61 88.6792 112.443 88.6792C112.087 88.6792 111.794 87.6544 112.087 87.3615C112.464 86.985 112.882 87.3822 113.133 88.4074C113.279 88.951 113.426 89.5786 113.488 89.7876C113.572 90.0594 113.488 90.1434 113.091 90.1434C112.819 90.1434 112.526 90.0805 112.464 89.9969Z" fill="#F3F5F7"/>
<path d="M113.593 88.8882C113.447 88.2606 113.07 87.0057 112.799 86.0852C112.38 84.7468 112.339 84.4121 112.569 84.2656C112.715 84.161 112.903 84.0774 112.966 84.0774C113.196 84.0774 114.033 88.3652 113.949 89.2018L113.886 90.0383L113.593 88.8882Z" fill="#F3F5F7"/>
<path d="M100.855 88.7836C100.855 88.4489 100.897 88.3235 100.96 88.5325C101.001 88.7207 101.001 89.0136 100.96 89.16C100.897 89.2854 100.855 89.139 100.855 88.7836Z" fill="#F3F5F7"/>
<path d="M101.273 88.7416C101.356 88.0097 101.963 87.8421 102.13 88.5115C102.277 89.0552 102.318 88.9927 101.691 89.2016C101.252 89.3274 101.21 89.2856 101.273 88.7416Z" fill="#F3F5F7"/>
<path d="M110.1 88.5536C109.932 87.947 110.288 87.5916 110.957 87.6752C111.459 87.738 111.647 88.6372 111.229 88.9093C110.706 89.2437 110.225 89.0976 110.1 88.5536Z" fill="#F3F5F7"/>
<path d="M102.486 88.3862C102.486 88.0304 102.591 87.8422 102.821 87.8422C103.03 87.8422 103.114 87.9886 103.072 88.3022C102.967 88.9716 102.486 89.0345 102.486 88.3862Z" fill="#F3F5F7"/>
<path d="M100.626 87.5076C100.626 87.2776 100.688 87.215 100.751 87.3822C100.814 87.5287 100.793 87.7169 100.73 87.7798C100.667 87.8634 100.605 87.7376 100.626 87.5076Z" fill="#F3F5F7"/>
<path d="M101.022 87.4448C101.022 87.1309 101.147 87.0055 101.461 87.0055C101.754 87.0055 101.859 87.1101 101.817 87.3612C101.712 87.9049 101.022 87.9678 101.022 87.4448Z" fill="#F3F5F7"/>
<path d="M102.173 87.2567C102.026 86.8802 102.026 86.8802 102.654 86.7127C103.03 86.5873 103.114 86.6502 103.114 86.9638C103.114 87.4657 102.361 87.7168 102.173 87.2567Z" fill="#F3F5F7"/>
<path d="M109.744 86.9638C109.598 86.4409 109.87 86.1691 110.602 86.1691C110.957 86.1691 111.062 86.2944 111.062 86.692C111.062 87.0056 110.936 87.2149 110.769 87.2149C110.602 87.2149 110.33 87.2778 110.163 87.3403C109.974 87.4032 109.828 87.2778 109.744 86.9638Z" fill="#F3F5F7"/>
<path d="M111.564 86.483C111.396 86.0644 111.647 85.7507 112.128 85.7507C112.421 85.7507 112.526 85.8972 112.526 86.2737C112.526 86.6502 112.421 86.7966 112.107 86.7966C111.877 86.7966 111.626 86.6502 111.564 86.483Z" fill="#F3F5F7"/>
<path d="M100.813 86.1899C100.813 85.7505 101.295 85.2486 101.504 85.4787C101.588 85.5415 101.65 85.8341 101.65 86.1063C101.65 86.4406 101.525 86.5871 101.232 86.5871C100.96 86.5871 100.813 86.4406 100.813 86.1899Z" fill="#F3F5F7"/>
<path d="M101.964 85.9388C101.797 85.4162 101.985 85.1858 102.696 85.0815C103.344 84.9975 103.554 85.688 102.989 86.1063C102.445 86.5035 102.11 86.441 101.964 85.9388Z" fill="#F3F5F7"/>
<path d="M109.535 85.8132C109.389 85.6878 109.326 84.9138 109.452 84.9138C109.473 84.9138 109.786 84.8302 110.163 84.7255C110.79 84.5373 110.832 84.5584 110.811 85.1231C110.79 85.5414 110.665 85.7507 110.351 85.8343C109.786 85.9807 109.703 85.9807 109.535 85.8132Z" fill="#F3F5F7"/>
<path d="M108.761 85.3323C108.761 85.1861 108.824 85.1233 108.907 85.1861C108.97 85.2697 108.97 85.3951 108.907 85.4787C108.824 85.5416 108.761 85.4787 108.761 85.3323Z" fill="#F3F5F7"/>
<path d="M111.103 84.9977C111.166 84.6422 111.815 84.1193 111.961 84.2865C112.024 84.3494 112.128 84.6001 112.191 84.8723C112.338 85.2906 112.275 85.3324 111.689 85.3324C111.187 85.3324 111.041 85.2488 111.103 84.9977Z" fill="#F3F5F7"/>
<path d="M101.022 84.9768C101.022 84.8722 101.127 84.6632 101.231 84.4957C101.398 84.2449 101.44 84.2657 101.44 84.6632C101.44 84.9143 101.357 85.1233 101.231 85.1233C101.127 85.1233 101.022 85.0604 101.022 84.9768Z" fill="#F3F5F7"/>
<path d="M101.65 84.5166C101.65 83.9308 102.089 83.7426 102.424 84.1819C102.633 84.4956 102.633 84.6002 102.424 84.7467C101.985 85.0185 101.65 84.9349 101.65 84.5166Z" fill="#F3F5F7"/>
<path d="M108.009 84.2445C107.632 83.8262 107.632 83.8055 107.988 83.9309C108.197 84.0145 108.469 84.0773 108.573 84.0773C108.678 84.0773 108.762 84.2238 108.762 84.391C108.762 84.8303 108.469 84.7885 108.009 84.2445Z" fill="#F3F5F7"/>
<path d="M103.512 84.2238C102.612 83.5337 102.487 81.986 103.323 81.986C103.888 81.986 104.411 82.8643 104.327 83.6802C104.265 84.4331 104.014 84.6003 103.512 84.2238Z" fill="#F3F5F7"/>
<path d="M109.243 84.3495C109.327 84.2867 109.452 84.2867 109.536 84.3495C109.598 84.4331 109.536 84.496 109.389 84.496C109.243 84.496 109.18 84.4331 109.243 84.3495Z" fill="#F3F5F7"/>
<path d="M112.4 83.5336C112.462 83.3454 112.525 83.1571 112.525 83.1153C112.525 83.0735 112.63 83.0317 112.734 83.0317C112.86 83.0317 112.943 83.22 112.943 83.45C112.943 83.7008 112.797 83.8683 112.609 83.8683C112.379 83.8683 112.316 83.7637 112.4 83.5336Z" fill="#F3F5F7"/>
<path d="M101.441 83.4707C101.441 82.9899 101.881 82.1948 102.132 82.1948C102.571 82.1948 102.257 83.5336 101.797 83.6172C101.609 83.659 101.441 83.5964 101.441 83.4707Z" fill="#F3F5F7"/>
<path d="M106.146 83.2407L105.519 83.0943L106.083 82.9478C106.669 82.7806 107.087 82.906 107.087 83.2618C107.087 83.4707 107.066 83.4707 106.146 83.2407Z" fill="#F3F5F7"/>
<path d="M105.415 82.2368C105.415 81.3792 105.896 81.2538 106.336 82.0068C106.628 82.5087 106.649 82.6133 106.377 82.6133C106.21 82.6133 105.938 82.6762 105.75 82.7387C105.499 82.8434 105.415 82.718 105.415 82.2368Z" fill="#F3F5F7"/>
<path d="M109.054 82.5294C108.113 82.1111 107.506 81.0027 107.506 79.685C107.506 78.7438 107.59 78.5137 108.155 77.9908C108.51 77.6561 108.866 77.3843 108.97 77.3843C109.431 77.3843 111.125 78.9949 111.69 79.9986L112.338 81.1492L111.648 81.8811C110.853 82.7176 109.974 82.9477 109.054 82.5294Z" fill="#F3F5F7"/>
<path d="M104.683 81.986C104.62 81.8814 104.662 81.7767 104.766 81.7767C104.892 81.7767 104.997 81.8814 104.997 81.986C104.997 82.1114 104.955 82.1953 104.913 82.1953C104.85 82.1953 104.746 82.1114 104.683 81.986Z" fill="#F3F5F7"/>
<path d="M101.942 81.6512C102.005 81.4629 102.068 81.2747 102.068 81.2329C102.068 81.1911 102.256 81.1493 102.486 81.1493C103.009 81.1493 103.03 81.484 102.507 81.7769C101.942 82.0695 101.796 82.0487 101.942 81.6512Z" fill="#F3F5F7"/>
<path d="M103.595 81.4001C103.114 81.3376 102.967 81.0657 103.281 80.8775C103.365 80.8146 103.741 80.71 104.118 80.6264C104.682 80.501 104.787 80.5428 104.787 80.8982C104.787 81.3376 104.348 81.5258 103.595 81.4001Z" fill="#F3F5F7"/>
<path d="M105.206 80.6889C105.206 80.4381 105.227 80.2917 105.268 80.3335C105.289 80.3753 105.457 80.5843 105.603 80.7936C105.854 81.0865 105.833 81.149 105.54 81.149C105.331 81.149 105.206 80.9818 105.206 80.6889Z" fill="#F3F5F7"/>
<path d="M102.278 80.5424C102.278 80.417 102.382 80.2706 102.487 80.208C102.613 80.1452 102.696 80.2288 102.696 80.3963C102.696 80.5845 102.613 80.7306 102.487 80.7306C102.382 80.7306 102.278 80.6471 102.278 80.5424Z" fill="#F3F5F7"/>
<path d="M103.051 80.2288C102.884 79.8105 104.368 79.3504 104.619 79.7477C104.808 80.0824 104.619 80.2288 103.825 80.3963C103.344 80.5006 103.134 80.4588 103.051 80.2288Z" fill="#F3F5F7"/>
<path d="M105.017 79.5596C105.017 79.3296 105.08 79.2667 105.142 79.4342C105.205 79.5807 105.184 79.7689 105.121 79.8315C105.059 79.9154 104.996 79.7897 105.017 79.5596Z" fill="#F3F5F7"/>
<path d="M103.24 79.2251C103.491 78.7647 104.223 78.0117 104.411 78.0117C104.62 78.0117 104.641 78.9947 104.432 79.1205C104.328 79.1622 103.993 79.2669 103.679 79.3505C103.219 79.4551 103.114 79.4341 103.24 79.2251Z" fill="#F3F5F7"/>
<path d="M104.913 78.7436C104.683 78.1164 104.787 77.8442 105.289 77.7606C105.812 77.656 105.812 77.656 105.477 78.3046C105.059 79.1412 105.08 79.1412 104.913 78.7436Z" fill="#F3F5F7"/>
<path d="M104.787 77.4891C104.787 77.447 105.205 77.1544 105.728 76.8615C106.356 76.485 106.795 76.3596 107.109 76.4432C107.485 76.5686 107.381 76.6522 106.46 77.0915C105.435 77.5516 104.787 77.7191 104.787 77.4891Z" fill="#F3F5F7"/>
<path d="M116.395 58.9576C115.83 58.1418 114.638 56.824 113.78 56.0293C112.923 55.2345 112.358 54.5862 112.526 54.5862C112.986 54.5862 116.499 55.5481 117.378 55.9246C118.11 56.2383 118.131 56.2804 117.942 56.9287C117.838 57.3052 117.754 58.2464 117.754 59.0201C117.754 59.8149 117.692 60.4425 117.608 60.4425C117.503 60.4425 116.981 59.7731 116.395 58.9576Z" fill="#F3F5F7"/>
<path d="M73.8325 122.312C72.9748 121.873 72.7866 121.622 71.6989 119.467C70.1304 116.414 70.0883 115.702 71.5735 117.438C72.159 118.128 73.5188 119.551 74.5854 120.597C76.405 122.353 76.4886 122.479 75.8821 122.396C75.4431 122.333 75.2756 122.374 75.3802 122.542C75.6313 122.918 74.8362 122.814 73.8325 122.312Z" fill="#F3F5F7"/>
<path fill-rule="evenodd" clip-rule="evenodd" d="M108.883 160.418C108.71 160.006 108.903 159.531 109.316 159.358L109.766 159.167C114.148 157.292 116.662 156.166 118.371 154.377C120.08 152.589 120.284 149.963 120.605 148.365C120.694 147.926 121.687 148.696 122.125 148.785C122.564 148.873 122.848 149.3 122.76 149.738C122.374 151.66 121.334 153.492 119.661 155.231C117.993 156.964 114.765 158.821 109.944 160.851C109.532 161.024 109.057 160.831 108.883 160.418Z" fill="#00160A"/>
<path fill-rule="evenodd" clip-rule="evenodd" d="M128.697 76.9642C129.081 76.7351 129.579 76.8615 129.807 77.2458C132.098 81.0945 133.326 85.4945 133.326 90.0719C133.326 103.94 122.084 115.182 108.216 115.182C104.531 115.182 100.957 114.387 97.6839 112.873C97.2779 112.685 95.7441 111.189 97.2889 111.797C98.8334 112.406 104.81 113.771 108.259 113.771C121.232 113.771 130.41 103.045 130.41 90.0719C130.41 85.788 128.697 81.9859 128.415 78.0745C128.383 77.6209 128.313 77.1929 128.697 76.9642Z" fill="#00160A"/>
<path fill-rule="evenodd" clip-rule="evenodd" d="M48.4761 138.269C48.7625 137.925 49.2732 137.23 49.6169 137.516C51.027 138.691 52.532 140.052 54.1416 140.315C55.8163 140.588 57.8034 140.588 60.1 140.31C60.5442 140.256 60.9479 140.572 61.0016 141.017C61.0554 141.461 60.7389 141.864 60.2947 141.918C57.8559 142.213 55.7188 142.213 53.8804 141.914C51.9769 141.603 50.2069 140.764 48.5801 139.409C48.2364 139.123 48.19 138.612 48.4761 138.269Z" fill="#00160A"/>
<path d="M65.6747 109.93C64.6288 109.093 62.3909 106.625 60.6968 104.45C59.8184 103.299 58.8354 100.957 58.2496 98.5932C57.9777 97.5266 57.7059 96.5643 57.643 96.439C57.5595 96.3343 57.2248 94.8494 56.8901 93.1342C56.3882 90.708 56.4941 89.9262 56.0535 87.0242C55.8669 85.7952 55.6978 84.8177 55.6978 84.8177L56.2418 84.1195C56.5554 83.7012 56.9523 83.0088 57.0991 82.6136C57.7684 80.8124 62.6838 75.1674 62.8303 75.3138C62.8721 75.3556 62.7046 76.3386 62.4117 77.4892C62.1398 78.6394 61.8052 80.3754 61.6587 81.3584C61.4497 82.99 61.3661 83.1783 60.7175 83.722C59.902 84.4124 58.3542 86.6292 58.3542 87.0896C58.3542 87.7169 59.2955 87.2986 60.2785 86.2738L61.2822 85.2279V86.3784C61.2822 87.1314 61.1361 87.8215 60.8639 88.3652C60.341 89.3903 60.341 90.4777 60.8432 91.3146C61.094 91.7329 61.3243 92.7366 61.4705 93.9289C62.1191 99.3251 63.4993 104.011 65.8629 108.717C66.4487 109.888 66.9088 110.85 66.8877 110.85C66.8459 110.85 66.3023 110.432 65.6747 109.93Z" fill="#F3F5F7"/>
<path fill-rule="evenodd" clip-rule="evenodd" d="M152.705 122.834L154.211 123.504C154.523 123.648 157.968 125.303 162.106 127.291C168.778 130.497 177.251 134.568 177.302 134.568C177.386 134.568 177.778 133.661 177.867 132.602C178.076 130.322 178.85 127.227 179.749 125.072C180.168 124.11 180.502 122.908 180.502 122.803C180.502 122.755 180.162 122.618 179.606 122.394C178.943 122.126 177.974 121.735 176.905 121.224C171.634 118.693 161.323 113.527 160.047 112.753C158.792 112.021 158.541 111.958 158.541 112.439C158.541 113.067 157.265 115.974 156.282 117.543C155.759 118.4 154.734 119.948 154.002 120.973L152.705 122.834ZM176.947 130.803C177.546 131.151 176.507 131.661 176.257 131.744C174.779 131.87 173.039 131.592 171.613 130.761C170.868 130.233 164.999 126.972 161.105 124.809C159.326 123.821 157.959 123.061 157.683 122.897C156.805 122.374 155.968 121.81 155.822 121.642C155.383 121.077 155.801 120.827 157.035 120.931C157.777 120.994 175.651 130.053 176.947 130.803Z" fill="#F3F5F7"/>
<path d="M137.688 124.717C137.144 124.529 136.558 124.11 136.182 123.629L135.554 122.855L137.771 120.659C141.18 117.313 143.69 113.655 145.949 109.577C146.702 108.217 148.94 102.734 149.212 102.128C149.631 101.249 149.944 100.915 150.844 100.413C151.91 99.7852 153.123 99.5759 153.646 99.9317C154.65 100.601 154.65 102.714 153.646 106.353C152.538 110.348 151.053 113.213 147.978 117.334C147.497 117.961 146.598 119.195 145.949 120.053C144.213 122.353 143.084 123.462 141.557 124.319C140.051 125.156 139.173 125.261 137.688 124.717Z" fill="#F3F5F7"/>
<path d="M145.574 124.236L145.134 123.797C145.134 123.797 152.425 114.535 153.731 111.122C154.728 108.517 155.314 107.779 156.106 107.779C156.548 107.779 156.91 107.88 157.077 108.131C157.37 108.57 157.652 109.114 157.276 110.975C156.648 113.987 155.686 115.974 152.8 120.262C152.13 121.245 151.273 122.333 150.897 122.709C150.018 123.525 148.042 124.362 146.891 124.55C146.159 124.654 145.95 124.612 145.574 124.236Z" fill="#F3F5F7"/>
<path fill-rule="evenodd" clip-rule="evenodd" d="M157.818 114.55C158.24 113.586 158.54 112.744 158.54 112.439C158.54 111.958 158.791 112.021 160.046 112.753C161.322 113.527 171.634 118.693 176.904 121.224C178.87 122.165 180.502 122.699 180.502 122.803C180.502 122.908 157.371 115.574 157.818 114.55Z" fill="#E7EAEE"/>
<path fill-rule="evenodd" clip-rule="evenodd" d="M86.2563 115.744C83.5998 114.008 79.5839 109.93 77.6389 107.022C74.857 102.839 73.0164 98.3633 72.117 93.5525C71.4686 90.0595 71.4897 84.6843 72.138 81.5678C72.8074 78.3884 73.6647 75.9623 75.1917 72.8875C76.9695 69.3319 78.8519 66.7176 81.6756 63.8939C84.4445 61.125 72.138 72.5758 75.1917 93.0636C77.6389 110.232 88.1559 116.996 86.2563 115.744Z" fill="#E7EAEE"/>
</g>
<defs>
<clipPath id="clip0_448_155">
<rect width="243" height="243" rx="40" fill="white"/>
</clipPath>
</defs>
</svg>
