<svg width="330" height="330" viewBox="0 0 330 330" fill="none" xmlns="http://www.w3.org/2000/svg">
<path d="M330 0H0V330H330V0Z" fill="white"/>
<path fill-rule="evenodd" clip-rule="evenodd" d="M187.478 273.585C219.347 273.585 247.314 249.879 231.608 217.681C215.901 185.483 274.259 186.522 291.402 164.269C312.308 137.13 306.254 21.9292 172.045 92.1613C150.546 103.412 95.3329 80.5871 77.0183 91.9123C55.4601 105.243 25.1294 132.54 55.4601 160.502C70.4007 174.275 16.8358 210.025 40.2961 242.047C63.1874 273.293 79.2342 243.506 114.086 249.879C148.938 256.253 163.81 273.585 187.478 273.585Z" fill="#8B3DFF"/>
<path d="M150.489 217.569C150.489 217.569 157.827 214.118 160.566 211.716C163.306 209.315 166.712 203.349 166.712 203.349C166.712 203.349 204.122 230.366 228.514 226.512C234.135 225.624 245.086 221.888 245.784 215.306C247.691 197.333 221.307 192.74 227.07 183.625C230.588 178.061 241.516 186.342 241.516 186.342L286.844 208.637C286.844 208.637 271.185 247.239 233.183 248.785C186.436 250.688 150.489 217.569 150.489 217.569Z" fill="white"/>
<path fill-rule="evenodd" clip-rule="evenodd" d="M114.551 66.3982C114.126 66.231 111.841 63.4335 108.94 62.9244C107.622 62.6929 108.818 64.3711 107.368 64.3865C103.048 64.4314 96.0267 63.6196 94.7261 64.3865C93.7594 64.9545 95.8881 66.9385 94.7261 67.0296C83.7604 67.8893 67.0316 78.8379 63.4025 84.1495C62.2471 85.84 71.5891 82.9721 70.1006 83.8077C68.4299 84.7457 66.5771 90.8877 65.4696 95.6309C64.7027 98.8975 64.2196 103.101 64.0493 107.675C63.9072 111.623 63.9639 112.276 64.5324 114.435C65.1854 116.849 65.6967 117.559 66.5771 117.218C66.8899 117.105 67.0316 116.679 67.0316 115.883C67.0316 115.258 67.3726 113.384 67.7985 111.708L68.5373 108.697L68.8497 109.947C69.2475 111.395 71.5764 115.883 73.6783 119.15C73.7918 119.323 74.2793 119.103 74.7193 118.04C75.1201 117.071 74.9573 115.523 75.6385 113.864C77.189 110.086 80.2343 105.174 83.7604 101.242C88.9718 95.4307 90.7005 88.7049 95.5859 83.3061C104.702 73.2309 116.144 67.0234 114.551 66.3982Z" fill="white"/>
<path fill-rule="evenodd" clip-rule="evenodd" d="M70.2298 85.1788C68.7673 86.3549 66.5968 95.8932 66.5594 96.0525C65.7924 99.319 65.0532 110.662 65.8087 112.81C66.5646 114.958 68.6806 107.216 68.6806 107.216C68.6806 107.216 71.8785 115.521 74.7046 117.798C74.8252 117.895 71.3457 107.523 70.2298 101.468C68.7567 93.4754 71.0619 84.5095 70.2298 85.1788Z" fill="#E7EAEE"/>
<path fill-rule="evenodd" clip-rule="evenodd" d="M124.739 252.231C127.466 251.634 132.067 249.557 133.828 248.847C135.59 248.136 140.958 240.557 142.889 232.007C144.281 225.701 144.991 216.726 144.196 215.22C144.079 215.007 143.649 210.925 144.793 212.258C147.335 215.22 150.353 219.871 159.875 211.537C162.468 209.267 165.906 206.338 165.001 203.748C162.468 196.502 151.491 181.912 149.817 180.807C147.816 179.485 137.703 180.608 122.651 176.166C105.583 171.128 98.4748 156.293 91.7951 158.224C86.3932 159.785 73.4506 169.383 70.2026 175.46C54.8681 204.154 73.4506 224.259 77.683 230.033L81.7917 231.808L81.9338 235.472L82.1327 237.773C82.5019 242.176 82.644 242.573 84.6324 244.051C89.603 247.828 99.4023 251.35 108.265 252.6C112.383 253.168 121.331 252.969 124.739 252.231Z" fill="white"/>
<path fill-rule="evenodd" clip-rule="evenodd" d="M83.406 234.131L83.6048 236.432C83.9744 240.835 84.1161 241.232 86.1045 242.709C89.0371 244.938 93.65 247.077 98.7593 248.714C102.311 249.852 106.103 250.746 109.737 251.259C113.856 251.827 122.803 251.628 126.211 250.889C127.896 250.524 114.038 239.637 105.874 242.709C99.6041 245.068 84.8271 227.073 90.8353 222.371C97.5753 217.097 85.2249 196.296 84.8271 191.779C84.4294 187.263 82.8634 186.184 82.8177 186.343C82.7719 186.501 82.7719 187.042 82.8947 188.343C83.4249 193.955 83.406 234.131 83.406 234.131Z" fill="#E7EAEE"/>
<path fill-rule="evenodd" clip-rule="evenodd" d="M81.9283 190.49C82.5245 190.374 83.1018 190.763 83.218 191.36C85.3617 202.373 94.4296 209.829 110.644 213.729C126.955 217.651 138.066 217.439 143.919 213.252C144.414 212.899 144.045 215.925 143.683 216.158C139.865 218.606 126.884 222.259 111.392 218.958C91.585 214.736 82.2847 198.08 81.0585 191.78C80.9427 191.184 81.3317 190.606 81.9283 190.49Z" fill="#FFAB00"/>
<path fill-rule="evenodd" clip-rule="evenodd" d="M73.6673 170.619C74.1944 170.317 93.8677 192.864 120.866 197.968C147.864 203.071 154.401 199.825 155.452 192.864C155.543 192.264 156.103 191.85 156.704 191.941C157.304 192.031 157.718 192.592 157.627 193.192C156.295 202.015 143.803 204.114 120.496 200.137C97.4819 196.209 81.703 186.878 73.2586 172.12C72.9572 171.593 73.1398 170.921 73.6673 170.619Z" fill="#FFAB00"/>
<path fill-rule="evenodd" clip-rule="evenodd" d="M186.984 169.369C186.245 169.113 185.45 168.545 184.939 167.892L184.086 166.84L187.097 163.858C191.727 159.313 195.278 154.655 198.346 149.116C199.368 147.27 201.953 141.106 201.953 140.51C201.953 140.311 202.265 139.516 202.635 138.692C203.203 137.499 203.629 137.045 204.85 136.363C206.299 135.511 207.946 135.227 208.656 135.71C210.02 136.619 210.02 139.487 208.656 144.429C207.151 149.855 205.134 153.746 200.959 159.342C200.305 160.194 199.084 161.87 198.203 163.034C195.846 166.159 194.312 167.664 192.239 168.829C190.194 169.965 189 170.107 186.984 169.369ZM207.378 166.812L209.423 167.721C209.847 167.917 214.526 170.165 220.145 172.865C229.205 177.218 240.711 182.747 240.781 182.747C240.895 182.747 241.428 181.514 241.548 180.077C241.832 176.981 242.883 172.777 244.105 169.851C244.673 168.545 245.127 166.912 245.127 166.77C245.127 166.705 244.666 166.519 243.91 166.214C243.009 165.851 241.693 165.32 240.242 164.625C233.084 161.188 219.081 154.172 217.348 153.121C215.644 152.127 215.303 152.042 215.303 152.695C215.303 153.548 213.57 157.496 212.235 159.626C211.525 160.79 210.133 162.892 209.139 164.284L207.378 166.812ZM240.299 177.634C241.113 178.106 239.702 178.799 239.361 178.912C237.354 179.083 234.991 178.705 233.055 177.577C232.043 176.86 224.073 172.432 218.786 169.494C216.369 168.152 214.512 167.12 214.138 166.898C212.945 166.187 211.809 165.421 211.61 165.193C211.014 164.426 211.582 164.086 213.258 164.227C214.265 164.313 238.539 176.615 240.299 177.634ZM124.835 251.997C127.026 251.517 130.428 250.082 132.593 249.168C133.123 248.944 133.578 248.752 133.925 248.613C135.686 247.902 141.054 240.323 142.986 231.773C144.377 225.467 145.087 216.491 144.292 214.986C143.813 214.114 146.661 217.039 148.783 219.217C149.426 219.877 150.003 220.469 150.399 220.865C162.783 233.165 181.218 243.049 200.362 247.679C209.906 250.008 216.695 250.832 225.813 250.832C241.122 250.832 253.194 247.821 264.158 241.203C264.679 240.889 265.167 240.6 265.632 240.324C269.454 238.061 271.731 236.713 277.963 229.699C284.952 221.831 291.171 203.567 293.244 197.262C294.153 194.421 296.369 183.124 296.369 180.304C296.369 176.967 295.204 175.391 293.613 173.771C290.801 171.016 286.995 170.022 283.842 171.215L282.365 171.783L281.911 170.278C281.257 168.005 279.894 166.188 277.792 164.824C274.668 162.75 274.213 162.609 271.401 162.609C269.214 162.609 268.617 162.722 267.226 163.375L265.607 164.114L265.266 163.091C264.613 160.989 262.421 158.059 260.721 157.212C259.213 156.46 256.603 156.391 254.785 156.729C250.808 157.467 247.968 159.313 246.803 161.898C246.462 162.693 246.036 163.319 245.866 163.319C245.724 163.319 240.128 161.756 233.453 158.802C232.327 158.302 231.269 157.833 230.276 157.393C218.29 152.08 215.692 150.928 215.928 149.486C216.126 148.264 216.07 147.583 215.729 146.531C215.132 144.77 214.451 144.288 212.519 144.288C210.985 144.288 210.985 144.288 211.156 143.521C212.065 139.175 212.037 136.675 211.071 135.085C210.417 134.034 209.65 133.608 207.889 133.352C206.867 133.21 206.384 133.295 205.248 133.92C204.481 134.318 203.827 134.602 203.771 134.545C203.714 134.488 203.913 132.926 204.225 131.079C206.554 117.417 204.755 105.646 198.819 93.1479C198.762 93.0283 198.696 92.887 198.621 92.7251C196.816 88.8505 189.559 73.2705 168.805 65.409C167.866 65.0531 166.977 64.709 166.123 64.3785C159.053 61.6422 154.353 59.8228 143.014 59.8417C130.304 59.8628 126 61.6598 117.62 65.4944C116.456 66.0338 115.434 66.3462 115.348 66.2327C115.263 66.0906 114.724 65.75 114.184 65.4658C113.644 65.182 112.48 64.4718 111.627 63.9038C109.184 62.256 107.679 61.5744 106.912 61.7447C106.032 61.9722 106.032 62.7105 106.912 63.0515C107.281 63.1936 107.708 63.6763 107.878 64.1594C108.247 65.182 108.673 65.2955 108.929 64.4432C109.043 64.1308 109.213 63.9038 109.298 63.9605C109.33 63.9764 109.439 64.0274 109.604 64.1044C110.019 64.2989 110.794 64.6619 111.627 65.068C112.792 65.6361 114.07 66.2327 114.411 66.3748C115.036 66.6019 114.837 66.7726 112.139 68.3632C101.601 74.5553 93.0227 84.1843 88.2223 95.1482C87.4836 96.7955 86.8306 97.8181 86.1486 98.3866C84.4159 99.8351 81.0076 103.953 80.2121 105.573C79.7862 106.453 78.8772 107.817 78.167 108.612C77.4854 109.407 76.7467 110.43 76.491 110.856C76.264 111.31 76.037 111.623 75.9516 111.566C75.8948 111.481 75.9798 110.089 76.1786 108.47C76.605 104.692 76.605 103.698 76.264 103.613C75.7527 103.471 75.0144 105.459 74.7016 107.93C74.4745 109.435 74.4178 111.708 74.5599 114.037L74.7302 117.73L72.7136 114.463C72.0202 113.371 71.3373 112.279 70.852 111.503V111.503H70.8516V111.502L70.8507 111.5L70.8498 111.499V111.499L70.8494 111.499L70.8485 111.497C70.5409 111.005 70.313 110.641 70.214 110.487C69.4752 109.407 69.0493 107.788 69.3617 107.249C69.532 106.936 69.5038 106.794 69.2196 106.794C68.6234 106.794 67.4587 108.697 66.6918 110.884C66.3226 111.907 65.953 112.759 65.8395 112.759C65.4136 112.759 65.6125 102.59 66.067 99.3238C67.0042 92.876 69.4752 84.9226 70.5832 84.9226C70.8102 84.9226 71.0091 84.8091 71.0091 84.6388C71.0091 84.1275 70.2708 84.3264 69.6741 84.9798C68.3392 86.4283 66.5783 90.8877 65.4704 95.6313C64.7034 98.8979 64.2208 103.102 64.05 107.675C63.9084 111.623 63.9651 112.276 64.5332 114.435C65.1866 116.849 65.6978 117.559 66.5783 117.219C66.8907 117.105 67.0328 116.679 67.0328 115.883C67.0328 115.258 67.3734 113.384 67.7997 111.708L68.538 108.697L68.8504 109.947C69.2482 111.396 71.5771 115.884 73.679 119.15C75.1279 121.366 75.1561 121.507 75.6392 124.973C75.8948 126.932 76.6899 131.7 78.5362 139.033C80.1677 145.512 89.3382 151.939 91.6284 153.545L91.6297 153.545C91.9306 153.756 92.1124 153.884 92.1418 153.917C92.4261 154.229 92.8238 154.399 93.0509 154.315C93.3065 154.229 93.4486 154.343 93.4486 154.655C93.4486 154.939 93.6475 155.308 93.8746 155.479C94.1588 155.678 94.3577 156.445 94.4144 157.78C94.5566 160.449 96.5445 165.562 98.0783 167.238C99.0727 168.318 101.146 168.772 103.447 168.374C104.952 168.147 105.378 167.977 105.236 167.636C105.151 167.409 105.691 167.693 106.43 168.261C115.064 174.851 123.813 178.799 133.64 180.503C137.447 181.156 143.753 181.525 147.189 181.27C150.229 181.071 150.229 181.071 150.087 181.668C149.888 182.463 150.144 182.946 154.319 190.018C157.642 195.614 157.926 195.983 161.619 199.761C169.458 207.856 178.008 214.134 187.694 218.991C196.812 223.535 211.369 227.313 224.676 228.506C237.984 229.699 247.542 217.485 247.513 214.361C247.457 210.072 246.86 207.26 245.411 204.533C243.991 201.891 243.054 200.983 238.793 198.142C234.05 194.989 231.124 192.404 229.193 189.649C227.971 187.916 227.517 185.957 227.517 184.906C227.517 184.224 228.397 182.69 229.704 182.378C230.897 182.065 231.124 182.093 232.459 182.747C233.254 183.116 235.328 184.082 237.032 184.906C238.765 185.701 240.441 186.497 240.781 186.667C241.786 186.946 242.211 188.913 242.441 189.979C242.493 190.217 242.535 190.41 242.571 190.53C242.969 192.007 244.85 193.914 246.065 194.563C248.197 195.704 253.45 195.856 254.899 194.294C255.268 193.896 256.492 193.407 256.745 193.555C256.997 193.703 257.909 194.932 257.909 195.927C257.938 197.631 258.818 199.193 260.693 200.755C264.243 203.709 266.999 204.42 269.782 203.113C271.231 202.431 272.418 202.165 272.418 202.165C272.418 202.165 273.602 203.676 273.674 204.192C274.231 208.228 280.206 209.92 281.797 210.09C282.162 210.127 282.871 209.971 283.592 209.812C284.555 209.601 285.539 209.384 285.745 209.617C286.151 210.075 278.957 221.973 277.963 223.479C268.504 237.681 250.098 246.373 227.573 247.282C212.945 247.878 194.965 243.788 179.371 236.346C169.401 231.546 160.568 225.666 151.109 217.429C149.462 216.008 147.559 214.389 146.877 213.821C146.195 213.282 144.576 211.435 143.327 209.731C141.225 206.891 140.031 205.868 140.031 206.834C140.031 207.26 141.395 209.873 142.957 212.458C143.582 213.48 143.98 214.191 143.838 214.077C143.696 213.963 143.241 216.008 142.815 218.621C141.423 227.001 139.123 235.267 136.793 240.408C135.515 243.191 133.064 245.27 132.326 245.838C129.599 247.912 125.517 248.844 119.864 249.412C112.707 250.122 102.169 248.531 94.1302 245.52C92.0002 244.725 86.5178 242.425 86.1486 242.169C86.1266 242.146 86.0008 241.329 85.8252 240.189C85.7755 239.867 85.7222 239.52 85.6659 239.158C84.6434 232.142 83.223 205.13 83.223 192.632C83.223 187.462 83.1663 186.326 82.8253 186.326C82.1151 186.326 81.8313 187.008 81.5189 189.45C80.8088 195.018 80.9509 224.075 81.7178 230.182L81.8881 231.574L80.9223 231.034C79.4452 230.182 73.8211 224.473 71.8614 221.831C70.2021 219.573 69.2161 216.681 68.4782 214.517C68.3066 214.013 68.1486 213.55 67.9982 213.142C63.8798 201.724 65.3282 188.911 71.0091 177.378C75.8381 167.551 81.7746 162.097 90.4663 159.455C91.8862 159.03 93.1362 158.575 93.2784 158.462C93.8178 157.95 90.3524 158.206 88.4494 158.802C82.2572 160.705 75.7813 165.903 71.3787 172.55C65.1866 181.866 62.4027 195.614 64.3624 207.345C64.817 210.129 66.6632 216.15 67.1745 216.576C67.2198 216.622 67.4534 217.112 67.8068 217.853C68.784 219.903 70.676 223.872 72.0316 225.666C73.679 227.91 78.6501 232.795 80.7234 234.301L82.0302 235.238L82.2291 237.539C82.5982 241.941 82.7404 242.339 84.7283 243.816C89.6994 247.594 99.4986 251.116 108.361 252.366C112.48 252.934 121.427 252.735 124.835 251.997ZM220.842 225.325C204.339 223.876 184.399 216.008 169.969 203.851C163.891 198.71 155.995 188.712 152.87 183.173C152.217 182.037 151.734 181.497 151.166 181.355C150.569 181.185 151.081 181.014 153.524 180.617C163.834 178.856 173.861 174.566 181.956 168.46L183.149 167.579L183.49 168.403C184.257 170.249 187.211 172.124 189.398 172.124C190.279 172.124 193.233 170.789 195.022 169.568L196.244 168.744L197.238 169.738C198.147 170.647 198.317 170.704 200.021 170.704C201.981 170.704 204.339 169.823 205.646 168.573L206.355 167.92L208.372 169.255C209.452 170.022 212.462 171.698 215.047 173.033C218.91 175.021 223 177.322 226.892 179.708L227.517 180.106L226.92 180.901C226.295 181.753 225.131 183.372 225.131 185.843C225.131 188.627 228.026 193.628 233.567 197.063C237.92 199.761 245.411 205.069 245.127 212.827C245.093 213.764 244.048 216.094 242.656 218.195C241.747 219.53 239.219 221.519 236.919 222.683C232.999 224.643 226.096 225.779 220.842 225.325ZM69.3903 97.8181C70.1572 97.9888 70.6685 98.2445 70.5546 98.358C70.1854 98.7271 68.2256 98.5569 67.7711 98.1023C67.061 97.4208 67.2312 96.9377 68.2256 96.7388C68.7369 96.6539 69.5038 96.2275 69.9298 95.8016C70.3561 95.3757 70.7253 95.1768 70.7253 95.3189C70.7253 95.6881 69.305 96.9944 68.5948 97.2787C68.1403 97.4775 68.2824 97.5625 69.3903 97.8181ZM80.6952 98.2726C81.5189 97.8181 81.3482 97.5057 80.3828 97.6478C79.417 97.7899 79.3603 97.6764 79.9851 96.7106C80.2407 96.3415 80.3828 95.8016 80.3256 95.5173C80.2407 95.1482 80.0418 95.3189 79.5873 96.2275C79.2463 96.8809 78.7636 97.4208 78.5362 97.4208C77.8264 97.4208 77.7692 97.9888 78.4512 98.2445C79.3317 98.6136 80.0132 98.6136 80.6952 98.2726ZM70.8674 82.7639C70.1854 82.8775 68.0554 83.7297 66.1805 84.6669C64.2775 85.576 62.6583 86.3429 62.5448 86.3147C59.6474 86.0023 63.6809 81.1733 71.0091 76.2313C78.0249 71.4876 82.7685 68.988 87.1712 67.7098C89.9264 66.9143 93.0227 66.8007 93.9032 67.4541C94.3858 67.8233 94.2156 67.8519 92.1137 67.8801C87.5689 67.8801 82.314 70.2094 73.7644 75.9184C69.3336 78.8726 64.1922 83.1049 64.1922 83.7865C64.1922 83.9286 65.0158 83.6444 66.0384 83.1903C68.2256 82.1959 70.4696 81.6846 71.4636 81.9121C72.5148 82.1959 72.2873 82.5651 70.8674 82.7639ZM81.8595 85.2068C84.5298 84.6669 84.6434 84.6388 84.6434 84.3545C84.6434 84.2129 83.6208 84.0707 82.3426 84.014L80.0418 83.9286L82.1719 81.5143C83.3366 80.1794 84.7001 78.8444 85.1828 78.532C86.234 77.85 86.2907 77.3673 85.4384 77.0831L84.7855 76.8842L85.4952 76.6286C85.893 76.4869 86.6317 76.4297 87.143 76.5151C87.9099 76.6286 88.0802 76.5718 87.9948 76.1741C87.9099 75.7767 87.5975 75.6914 86.2054 75.72C82.1437 75.7767 80.411 76.8561 83.5922 77.3673C84.4726 77.5095 85.2114 77.7365 85.2114 77.8786C85.2114 77.9921 85.0693 78.1057 84.899 78.1057C84.3591 78.1057 79.7862 82.7358 79.2182 83.8719C78.3377 85.5478 78.8204 85.8035 81.8595 85.2068ZM100.607 74.1861C99.7829 74.2429 99.584 74.3846 99.6408 74.7823L99.6496 74.8404C99.6812 75.0503 99.6997 75.1713 99.6526 75.2078C99.5888 75.2571 99.4062 75.1537 98.9768 74.9099L98.902 74.8677C98.3626 74.5835 98.3058 74.4418 98.6182 74.2143C98.8171 74.044 99.3565 73.7884 99.7829 73.703L100.578 73.5041L99.9818 72.8793C99.6689 72.5102 99.4986 72.1692 99.584 72.0557C99.811 71.8286 102.595 72.141 102.992 72.4534C103.163 72.5951 103.419 72.5669 103.589 72.3967C103.987 71.9989 104.526 72.3113 104.526 72.9361C104.526 73.2771 104.441 73.3053 104.186 73.0496C103.958 72.8226 103.759 72.8226 103.504 73.0215C103.276 73.2203 103.106 73.2203 102.964 72.9929C102.879 72.8507 102.339 72.7091 101.771 72.7091C101.247 72.7091 100.999 72.7091 100.948 72.8089C100.903 72.8983 101.017 73.0681 101.231 73.3906C101.685 74.0986 101.658 74.1008 100.616 74.1853L100.607 74.1861ZM96.2888 66.6305C96.2888 66.2613 95.9483 65.6079 95.5219 65.182L94.7268 64.3865L98.9874 64.5567C101.345 64.6707 104.015 64.9263 104.952 65.182C105.89 65.409 106.969 65.5793 107.367 65.5793C107.963 65.5793 107.849 65.4658 106.742 64.8691C104.81 63.8752 102.339 63.3925 97.5956 63.0515C91.9148 62.6537 89.046 63.1936 89.5854 64.6135C89.6708 64.8977 90.1253 65.0399 90.8069 65.0399C92.1986 65.0399 94.4712 65.8635 95.2381 66.6305C96.0618 67.4541 96.2888 67.4541 96.2888 66.6305ZM82.4275 141.845C84.7283 144.799 87.7678 148.151 89.1881 149.287C90.04 149.969 90.7787 150.537 90.8355 150.537C90.8636 150.537 90.2388 149.23 89.4438 147.639C86.234 141.248 84.3591 134.886 83.4787 127.558C83.2798 125.938 82.9674 124.575 82.6264 124.007C81.9448 122.871 81.9448 121.394 82.655 120.002C83.0242 119.264 83.223 118.326 83.223 117.303V115.742L81.8595 117.161C80.5245 118.554 79.2463 119.122 79.2463 118.269C79.2463 117.645 81.3482 114.634 82.4561 113.696C83.3366 112.958 83.4501 112.702 83.7343 110.487C83.9332 109.152 84.3877 106.794 84.7569 105.232C85.1546 103.67 85.3817 102.335 85.3249 102.278C85.126 102.079 78.4512 109.745 77.5422 112.191C77.3424 112.728 76.8039 113.668 76.3775 114.236L75.6392 115.184C75.6392 115.184 75.8684 116.512 76.1219 118.18C76.378 119.867 76.4981 121.025 76.6054 122.058C76.7484 123.438 76.8681 124.593 77.258 126.478C77.7125 128.807 78.167 130.824 78.2805 130.966C78.3659 131.137 78.735 132.443 79.1046 133.892C79.8997 137.101 81.2347 140.282 82.4275 141.845ZM197.692 168.715L197.096 168.119C197.096 168.119 206.996 155.54 208.77 150.906C210.123 147.369 210.92 146.366 211.995 146.366C212.597 146.366 213.087 146.503 213.314 146.844C213.712 147.44 214.095 148.179 213.584 150.707C212.732 154.797 211.425 157.496 207.505 163.319C206.597 164.654 205.432 166.131 204.921 166.642C203.728 167.749 201.044 168.886 199.482 169.141C198.488 169.283 198.203 169.227 197.692 168.715Z" fill="#00160A"/>
<path d="M276.345 196.502C279.878 186.874 279.344 184.822 278.731 184.622C278.731 184.622 277.381 185.389 276.785 187.007C275.677 190.047 271.885 198 270.465 199.42C268.789 201.096 268.789 201.096 267.085 201.096C265.381 201.096 260.465 198.53 259.796 196C258.725 191.952 263.335 177.89 263.449 177.095L262.682 176.555C262.171 177.038 255.52 197.205 246.776 191.95C245.774 191.348 243.651 188.513 243.481 187.007C242.534 182.633 246.877 167.338 247.616 164.196C248.276 161.384 251.718 158.774 255.95 158.774C262.455 158.774 261.581 164.46 264.495 166.463C265.786 167.351 267.908 165.741 268.562 165.619C272.226 164.937 273.63 165.731 276.316 167.863C278.39 169.509 279.924 172.765 281.612 173.913C282.55 174.551 283.546 173.679 283.872 173.516C285.208 172.845 288.075 173.345 288.871 173.913C290.037 174.422 292.894 177.168 293.345 178.765C295.391 186.005 288.931 202.055 286.493 205.066C282.456 210.05 272.811 206.13 276.345 196.502Z" fill="white"/>
<path fill-rule="evenodd" clip-rule="evenodd" d="M113.048 170.12C120.831 175.034 128.856 178.243 138.002 179.124C145.217 179.806 154.944 178.869 161.932 176.596C167.812 174.693 175.765 169.421 181.076 164.962C191.387 156.327 197.892 142.839 200.732 128.523C201.13 126.507 201.736 121.437 201.708 116.41C201.708 110.558 199.133 94.5687 191.33 85.3489C175.238 66.333 148.785 57.7671 126.554 65.0865C118.534 67.7265 109.996 72.5101 103.548 78.759C95.4242 86.6839 89.431 97.4775 87.0448 108.498C84.5452 120.144 87.7968 134.062 93.449 145.481C97.9656 154.57 105.407 165.263 113.048 170.12ZM188.888 135.795C183.547 151.843 169.629 163.83 152.132 167.466C149.462 168.005 147.616 168.204 143.867 168.261C141.225 168.346 138.584 168.318 138.044 168.261C125.802 166.784 116.485 162.268 107.907 153.689C104.158 149.912 102.567 147.867 100.238 143.833C96.5739 137.442 94.6137 130.909 94.0175 123.041C91.9724 96.0858 111.259 73.6181 138.413 71.2887C149.065 70.3797 160.881 73.6462 169.857 80.0086C173.18 82.3661 179.202 88.3312 181.076 91.1147C181.843 92.2226 189.285 103.102 190.592 109.35C192.268 117.474 191.614 127.643 188.888 135.795Z" fill="white"/>
<path fill-rule="evenodd" clip-rule="evenodd" d="M201.717 116.409C201.717 135.475 192.699 156.318 181.06 165.22C175.507 169.467 168.251 174.609 161.931 176.596C152.67 179.508 138.001 179.124 138.001 179.124C138.001 179.124 152.967 177.123 158.513 174.892C174.415 168.491 183.097 158.667 188.457 149.241C199.039 130.634 201.717 115.947 201.717 116.409Z" fill="#E7EAEE"/>
<path fill-rule="evenodd" clip-rule="evenodd" d="M138.328 164.852C130.744 163.887 123.216 161.188 117.138 157.183C113.531 154.826 108.077 149.287 105.436 145.339C101.658 139.658 99.1582 133.579 97.9367 127.046C97.0563 122.303 97.0849 115.003 97.9653 110.771C98.8744 106.453 100.039 103.158 102.112 98.9832C104.527 94.1542 107.083 90.6038 110.918 86.7692C117.451 80.2361 125.035 76.0891 134.067 74.1007C136.993 73.4759 147.588 72.9646 147.957 73.4478C148.042 73.5894 148.61 73.959 149.206 74.2714C149.803 74.612 151.394 75.8053 152.7 76.9695C154.66 78.6741 155.541 79.7534 157.245 82.4233C158.409 84.2414 159.347 85.8888 159.347 86.0309C159.347 86.3433 160.256 86.9113 160.767 86.9113C161.477 86.9113 161.96 84.7808 162.102 81.0316C162.187 78.9579 162.358 77.2538 162.472 77.2538C162.869 77.2538 167.243 79.668 169.288 81.0316C173.293 83.7015 177.298 87.4508 180.252 91.3707C181.587 93.1316 181.786 93.5861 181.786 94.6654C181.786 95.6598 182.07 96.4268 182.951 97.9606C185.166 101.823 186.899 106.681 187.95 112.049C188.632 115.657 188.632 122.473 187.922 126.251C185.99 136.647 180.252 146.986 172.782 153.548C166.448 159.086 159.716 162.495 151.763 164.171C149.036 164.767 140.856 165.165 138.328 164.852ZM118.019 145.424C118.274 145.14 118.445 144.714 118.359 144.515C118.334 144.455 117.978 144.288 117.458 144.044C116.244 143.473 114.134 142.481 113.22 141.448C109.584 137.301 108.249 134.204 107.425 127.813C106.63 121.593 107.298 117.387 108.732 110.629C109.431 107.332 111.29 104.608 112.447 102.914C113.233 101.762 113.695 101.085 113.247 101.028C112.139 100.858 111.969 100.943 110.804 102.051C108.304 104.437 107.168 106.34 105.975 110.004C104.129 115.741 103.772 131.247 107.425 138.238C111.079 145.228 117.365 146.163 118.019 145.424ZM158.409 121.564C157.927 125.977 155.882 132.358 153.496 135.141C152.388 136.448 148.322 138.692 144.889 138.238C141.574 137.799 138.981 136.249 136.765 132.926C134.862 130.057 133.879 126.575 133.215 122.189C132.068 114.616 137.078 105.8 139.236 103.613C141.424 101.369 142.986 100.574 144.974 100.545C146.906 100.545 148.156 100.972 150.115 102.363C153.694 104.863 159.347 112.99 158.409 121.564ZM120.121 98.0741C120.689 97.4207 120.774 97.1083 120.603 95.8869C120.49 94.7508 120.263 94.2963 119.666 93.8136C118.615 92.9613 117.309 92.9613 116.343 93.8704C115.661 94.5238 115.576 94.7508 115.661 96.3128C115.746 97.9888 115.803 98.1023 116.741 98.6136C117.99 99.2956 119.212 99.0967 120.121 98.0741ZM137.845 80.5485C132.732 84.2128 130.517 85.718 128.216 87.1384C126.398 88.2744 125.83 88.303 125.83 87.2805C125.83 86.7406 126.227 86.1444 127.25 85.2068L128.67 83.9004L125.915 83.5312C122.819 83.1335 119.808 82.2812 119.155 81.6278C118.076 80.5203 119.013 80.2647 122.08 80.8327C123.444 81.0598 126.085 81.344 127.96 81.4008L131.369 81.5429L133.84 79.7534C139.265 75.8334 144.889 73.618 147.588 74.2996C149.263 74.6974 149.065 75.1519 147.161 75.3789C144.974 75.6346 143.639 76.3733 137.845 80.5485Z" fill="white"/>
<path d="M145.145 134.346C145.145 134.204 145.315 134.062 145.542 134.062C145.769 134.062 146.054 134.204 146.138 134.346C146.224 134.516 146.054 134.63 145.741 134.63C145.4 134.63 145.145 134.516 145.145 134.346Z" fill="white"/>
<path d="M146.849 134.09C146.849 133.778 147.559 133.494 148.354 133.494C148.979 133.522 148.979 133.522 148.439 133.92C147.814 134.403 146.849 134.488 146.849 134.09Z" fill="white"/>
<path d="M142.446 133.352C142.36 133.125 142.247 132.727 142.162 132.5C142.076 132.216 142.218 132.074 142.588 132.074C142.9 132.074 143.156 132.244 143.156 132.472C143.156 132.699 143.241 133.068 143.326 133.323C143.44 133.636 143.355 133.778 143.042 133.778C142.787 133.778 142.502 133.579 142.446 133.352Z" fill="white"/>
<path d="M143.951 132.642C143.81 131.79 144.122 131.506 145.144 131.506C145.457 131.506 145.713 131.79 145.826 132.273C146.053 133.096 145.684 133.494 144.69 133.494C144.235 133.494 144.037 133.295 143.951 132.642Z" fill="white"/>
<path d="M141.053 132.784C140.513 132.358 140.513 132.358 141.109 132.358C141.479 132.358 141.735 132.528 141.735 132.784C141.735 133.295 141.735 133.295 141.053 132.784Z" fill="white"/>
<path d="M146.762 132.755C146.393 132.386 146.563 131.278 147.018 131.108C147.842 130.796 148.211 130.938 148.381 131.676C148.495 132.103 148.552 132.472 148.495 132.5C148.267 132.755 146.933 132.926 146.762 132.755Z" fill="white"/>
<path d="M149.291 132.159C149.206 132.074 149.121 131.704 149.121 131.363C149.121 130.881 149.348 130.682 150.03 130.54C150.626 130.426 150.995 130.483 151.166 130.71C151.45 131.165 151.45 131.733 151.194 131.875C150.683 132.159 149.49 132.329 149.291 132.159Z" fill="white"/>
<path d="M139.747 131.279C139.747 130.938 140.003 130.654 140.372 130.569C141.111 130.37 141.082 130.341 141.224 131.08C141.281 131.506 141.139 131.677 140.543 131.733C139.918 131.818 139.747 131.705 139.747 131.279Z" fill="white"/>
<path d="M141.905 131.307C141.507 130.881 141.763 130.086 142.303 130.086C142.672 130.086 142.871 130.284 142.871 130.625C142.871 131.165 142.217 131.619 141.905 131.307Z" fill="white"/>
<path d="M143.611 130.455C143.384 129.915 143.866 129.518 144.804 129.518C145.23 129.518 145.429 129.688 145.429 130.057C145.429 130.37 145.173 130.654 144.804 130.768C143.866 130.995 143.81 130.995 143.611 130.455Z" fill="white"/>
<path d="M151.82 130.37C151.905 130.228 152.047 130.086 152.132 130.086C152.217 130.086 152.189 130.228 152.103 130.37C152.019 130.54 151.876 130.654 151.791 130.654C151.706 130.654 151.734 130.54 151.82 130.37Z" fill="white"/>
<path d="M146.167 129.886C145.939 129.318 146.224 129.034 147.133 128.892C147.644 128.835 147.871 128.949 147.928 129.347C148.127 130.284 146.507 130.796 146.167 129.886Z" fill="white"/>
<path d="M139.349 129.404C139.094 128.467 139.15 128.381 139.889 128.381C140.287 128.381 140.599 128.495 140.599 128.637C140.599 128.779 140.684 129.091 140.77 129.319C140.855 129.603 140.684 129.773 140.202 129.858C139.662 129.972 139.463 129.858 139.349 129.404Z" fill="white"/>
<path d="M148.837 129.092C148.837 128.58 149.036 128.353 149.576 128.211C150.371 128.012 150.825 128.41 150.825 129.319C150.825 129.688 150.598 129.801 149.831 129.801C148.951 129.801 148.837 129.716 148.837 129.092Z" fill="white"/>
<path d="M138.498 129.091C138.412 128.864 138.469 128.665 138.611 128.665C138.781 128.665 138.895 128.864 138.895 129.091C138.895 129.319 138.838 129.517 138.781 129.517C138.725 129.517 138.611 129.319 138.498 129.091Z" fill="white"/>
<path d="M141.366 129.319C140.969 128.949 141.196 128.154 141.707 128.012C142.02 127.927 142.332 127.955 142.418 128.04C142.759 128.353 142.56 129.176 142.133 129.347C141.594 129.546 141.594 129.546 141.366 129.319Z" fill="white"/>
<path d="M151.508 129.12C151.196 128.296 151.537 127.671 152.332 127.586C152.928 127.501 153.099 127.614 153.099 128.069C153.099 129.006 152.786 129.517 152.218 129.517C151.906 129.517 151.593 129.347 151.508 129.12Z" fill="white"/>
<path d="M143.354 128.75C143.013 128.438 143.127 127.87 143.61 127.7C144.149 127.501 145.286 128.069 144.974 128.381C144.576 128.722 143.553 128.978 143.354 128.75Z" fill="white"/>
<path d="M145.827 128.04C145.571 127.643 146.48 126.961 147.219 126.961C147.559 126.961 147.702 127.131 147.645 127.444C147.531 128.012 146.082 128.466 145.827 128.04Z" fill="white"/>
<path d="M138.044 127.842C138.044 127.699 137.959 127.387 137.874 127.131C137.788 126.876 137.817 126.677 137.987 126.677C138.356 126.677 138.641 127.756 138.3 127.984C138.158 128.069 138.044 128.012 138.044 127.842Z" fill="white"/>
<path d="M138.81 127.188C138.64 126.563 138.98 126.109 139.634 126.109C140.003 126.109 140.372 127.217 140.145 127.586C139.833 128.069 138.952 127.785 138.81 127.188Z" fill="white"/>
<path d="M140.799 127.33C140.373 126.905 140.628 125.882 141.196 125.74C141.622 125.626 141.85 125.768 142.077 126.279C142.247 126.649 142.332 127.018 142.276 127.075C141.991 127.33 140.969 127.529 140.799 127.33Z" fill="white"/>
<path d="M148.468 127.33C148.099 126.961 148.269 126.734 149.121 126.421C149.831 126.194 150.03 126.222 150.172 126.563C150.428 127.245 149.008 127.898 148.468 127.33Z" fill="white"/>
<path d="M150.968 126.677C150.683 126.223 151.081 125.825 151.82 125.825C152.7 125.825 152.956 126.563 152.161 126.791C151.308 127.018 151.167 126.99 150.968 126.677Z" fill="white"/>
<path d="M153.381 125.995C153.381 125.569 153.893 125.115 154.12 125.342C154.319 125.541 153.921 126.393 153.637 126.393C153.495 126.393 153.381 126.222 153.381 125.995Z" fill="white"/>
<path d="M137.674 125.626C137.561 125.541 137.476 125.172 137.504 124.859C137.504 124.32 137.532 124.32 137.788 124.945C138.072 125.626 138.015 125.967 137.674 125.626Z" fill="white"/>
<path d="M138.214 125.2C137.958 124.206 137.987 124.121 138.725 124.121C139.549 124.121 140.06 125.172 139.435 125.569C138.782 125.967 138.413 125.854 138.214 125.2Z" fill="white"/>
<path d="M147.984 125.768C147.984 125.683 148.126 125.228 148.297 124.717C148.695 123.581 149.575 123.524 149.774 124.632C149.859 125.057 149.887 125.427 149.859 125.455C149.717 125.626 147.984 125.881 147.984 125.768Z" fill="white"/>
<path d="M140.231 125.058C140.117 124.973 140.032 124.632 140.032 124.319C140.032 123.865 140.117 123.837 140.458 124.12C140.685 124.319 140.884 124.66 140.884 124.859C140.884 125.285 140.543 125.399 140.231 125.058Z" fill="white"/>
<path d="M150.456 124.49C150.285 123.61 150.654 123.212 151.535 123.326C151.961 123.382 152.103 123.638 152.103 124.263C152.103 124.973 151.989 125.144 151.364 125.2C150.739 125.286 150.597 125.144 150.456 124.49Z" fill="white"/>
<path d="M153.238 124.604C152.869 123.467 152.983 123.127 153.75 123.041C154.432 122.956 154.516 123.041 154.516 123.78C154.516 124.405 154.346 124.66 153.92 124.774C153.607 124.859 153.295 124.774 153.238 124.604Z" fill="white"/>
<path d="M137.247 122.984C137.247 122.444 137.304 122.217 137.389 122.501C137.446 122.757 137.446 123.211 137.389 123.496C137.304 123.751 137.247 123.524 137.247 122.984Z" fill="white"/>
<path d="M137.958 123.354C137.589 123.013 137.759 121.906 138.214 121.735C138.867 121.479 139.179 121.792 139.179 122.729C139.179 123.326 139.037 123.553 138.668 123.553C138.384 123.553 138.043 123.468 137.958 123.354Z" fill="white"/>
<path d="M139.662 122.587C139.549 122.161 139.492 121.706 139.605 121.621C139.89 121.337 140.06 121.792 139.974 122.615L139.89 123.41L139.662 122.587Z" fill="white"/>
<path d="M148.837 122.388C148.837 122.076 148.979 121.905 149.121 121.99C149.292 122.076 149.405 122.36 149.405 122.587C149.405 122.814 149.292 122.984 149.121 122.984C148.979 122.984 148.837 122.729 148.837 122.388Z" fill="white"/>
<path d="M150.115 122.757C149.717 122.331 150.03 121.564 150.683 121.394C151.507 121.195 151.536 121.195 151.791 122.019C151.961 122.53 151.848 122.644 151.109 122.757C150.655 122.842 150.201 122.814 150.115 122.757Z" fill="white"/>
<path d="M152.728 122.218C152.416 121.934 152.501 120.997 152.813 120.997C152.984 120.997 153.097 120.883 153.097 120.712C153.097 120.571 152.927 120.428 152.7 120.428C152.217 120.428 151.819 119.037 152.217 118.639C152.728 118.128 153.296 118.667 153.637 120.059C153.836 120.798 154.035 121.65 154.12 121.934C154.233 122.303 154.12 122.417 153.58 122.417C153.211 122.417 152.813 122.331 152.728 122.218Z" fill="white"/>
<path d="M154.262 120.712C154.064 119.86 153.552 118.156 153.183 116.906C152.615 115.088 152.558 114.634 152.871 114.435C153.07 114.293 153.325 114.179 153.41 114.179C153.723 114.179 154.859 120.002 154.745 121.138L154.66 122.274L154.262 120.712Z" fill="white"/>
<path d="M136.963 120.57C136.963 120.116 137.02 119.946 137.105 120.229C137.162 120.485 137.162 120.883 137.105 121.082C137.02 121.252 136.963 121.053 136.963 120.57Z" fill="white"/>
<path d="M137.531 120.513C137.645 119.519 138.468 119.292 138.695 120.201C138.894 120.939 138.951 120.854 138.099 121.138C137.503 121.309 137.446 121.252 137.531 120.513Z" fill="white"/>
<path d="M149.518 120.258C149.291 119.434 149.774 118.952 150.683 119.065C151.364 119.151 151.62 120.372 151.052 120.741C150.342 121.195 149.689 120.997 149.518 120.258Z" fill="white"/>
<path d="M139.179 120.031C139.179 119.548 139.321 119.292 139.634 119.292C139.918 119.292 140.031 119.491 139.975 119.917C139.833 120.826 139.179 120.911 139.179 120.031Z" fill="white"/>
<path d="M136.652 118.837C136.652 118.525 136.737 118.44 136.823 118.667C136.908 118.866 136.879 119.122 136.794 119.207C136.709 119.321 136.624 119.15 136.652 118.837Z" fill="white"/>
<path d="M137.19 118.752C137.19 118.326 137.361 118.156 137.787 118.156C138.184 118.156 138.327 118.298 138.27 118.639C138.128 119.377 137.19 119.462 137.19 118.752Z" fill="white"/>
<path d="M138.753 118.497C138.554 117.985 138.554 117.985 139.406 117.758C139.918 117.588 140.031 117.673 140.031 118.099C140.031 118.781 139.009 119.122 138.753 118.497Z" fill="white"/>
<path d="M149.035 118.099C148.836 117.389 149.206 117.02 150.2 117.02C150.683 117.02 150.825 117.19 150.825 117.73C150.825 118.156 150.654 118.44 150.427 118.44C150.2 118.44 149.83 118.525 149.603 118.61C149.348 118.696 149.149 118.525 149.035 118.099Z" fill="white"/>
<path d="M151.507 117.446C151.279 116.878 151.62 116.452 152.273 116.452C152.671 116.452 152.813 116.651 152.813 117.162C152.813 117.673 152.671 117.872 152.245 117.872C151.932 117.872 151.591 117.673 151.507 117.446Z" fill="white"/>
<path d="M136.907 117.048C136.907 116.451 137.561 115.77 137.845 116.082C137.958 116.167 138.044 116.565 138.044 116.934C138.044 117.389 137.873 117.587 137.475 117.587C137.106 117.587 136.907 117.389 136.907 117.048Z" fill="white"/>
<path d="M138.469 116.707C138.242 115.997 138.498 115.684 139.463 115.543C140.344 115.429 140.628 116.366 139.861 116.934C139.122 117.474 138.668 117.389 138.469 116.707Z" fill="white"/>
<path d="M148.752 116.536C148.553 116.366 148.468 115.315 148.638 115.315C148.667 115.315 149.093 115.202 149.604 115.059C150.456 114.804 150.513 114.832 150.484 115.599C150.456 116.167 150.286 116.452 149.86 116.565C149.093 116.764 148.979 116.764 148.752 116.536Z" fill="white"/>
<path d="M147.7 115.883C147.7 115.685 147.785 115.599 147.899 115.685C147.984 115.798 147.984 115.969 147.899 116.082C147.785 116.168 147.7 116.082 147.7 115.883Z" fill="white"/>
<path d="M150.881 115.429C150.967 114.946 151.847 114.236 152.046 114.463C152.131 114.549 152.273 114.889 152.358 115.259C152.557 115.827 152.472 115.883 151.677 115.883C150.995 115.883 150.796 115.77 150.881 115.429Z" fill="white"/>
<path d="M137.19 115.401C137.19 115.259 137.333 114.975 137.474 114.747C137.702 114.407 137.758 114.435 137.758 114.975C137.758 115.316 137.645 115.6 137.474 115.6C137.333 115.6 137.19 115.514 137.19 115.401Z" fill="white"/>
<path d="M138.043 114.776C138.043 113.98 138.64 113.725 139.094 114.321C139.378 114.747 139.378 114.889 139.094 115.088C138.497 115.457 138.043 115.344 138.043 114.776Z" fill="white"/>
<path d="M146.679 114.406C146.167 113.838 146.167 113.81 146.65 113.98C146.934 114.094 147.303 114.179 147.445 114.179C147.588 114.179 147.701 114.378 147.701 114.605C147.701 115.202 147.303 115.145 146.679 114.406Z" fill="white"/>
<path d="M140.571 114.378C139.35 113.441 139.18 111.339 140.316 111.339C141.083 111.339 141.793 112.532 141.679 113.64C141.594 114.662 141.253 114.889 140.571 114.378Z" fill="white"/>
<path d="M148.355 114.549C148.468 114.463 148.639 114.463 148.752 114.549C148.837 114.662 148.752 114.748 148.553 114.748C148.355 114.748 148.269 114.662 148.355 114.549Z" fill="white"/>
<path d="M152.641 113.441C152.727 113.185 152.812 112.929 152.812 112.873C152.812 112.816 152.954 112.759 153.096 112.759C153.266 112.759 153.38 113.015 153.38 113.327C153.38 113.668 153.181 113.895 152.925 113.895C152.613 113.895 152.528 113.753 152.641 113.441Z" fill="white"/>
<path d="M137.76 113.355C137.76 112.702 138.356 111.623 138.697 111.623C139.294 111.623 138.867 113.441 138.242 113.554C137.987 113.611 137.76 113.526 137.76 113.355Z" fill="white"/>
<path d="M144.149 113.043L143.297 112.844L144.064 112.645C144.859 112.418 145.427 112.588 145.427 113.072C145.427 113.355 145.399 113.355 144.149 113.043Z" fill="white"/>
<path d="M143.156 111.68C143.156 110.515 143.81 110.345 144.406 111.367C144.804 112.049 144.832 112.191 144.463 112.191C144.236 112.191 143.866 112.276 143.611 112.361C143.27 112.503 143.156 112.333 143.156 111.68Z" fill="white"/>
<path d="M148.098 112.077C146.82 111.509 145.997 110.004 145.997 108.214C145.997 106.936 146.11 106.624 146.877 105.914C147.36 105.459 147.843 105.09 147.985 105.09C148.61 105.09 150.911 107.277 151.677 108.64L152.558 110.203L151.621 111.197C150.541 112.333 149.348 112.645 148.098 112.077Z" fill="white"/>
<path d="M142.162 111.339C142.076 111.197 142.133 111.055 142.275 111.055C142.446 111.055 142.588 111.197 142.588 111.339C142.588 111.509 142.531 111.623 142.474 111.623C142.389 111.623 142.247 111.509 142.162 111.339Z" fill="white"/>
<path d="M138.44 110.884C138.525 110.629 138.611 110.373 138.611 110.316C138.611 110.259 138.866 110.203 139.179 110.203C139.889 110.203 139.917 110.657 139.207 111.055C138.44 111.452 138.241 111.424 138.44 110.884Z" fill="white"/>
<path d="M140.684 110.543C140.031 110.458 139.832 110.089 140.259 109.834C140.372 109.748 140.883 109.606 141.395 109.493C142.162 109.322 142.303 109.379 142.303 109.862C142.303 110.458 141.707 110.714 140.684 110.543Z" fill="white"/>
<path d="M142.872 109.578C142.872 109.237 142.9 109.038 142.957 109.095C142.985 109.152 143.213 109.436 143.411 109.72C143.752 110.118 143.724 110.202 143.326 110.202C143.042 110.202 142.872 109.975 142.872 109.578Z" fill="white"/>
<path d="M138.896 109.379C138.896 109.208 139.038 109.009 139.18 108.924C139.351 108.839 139.464 108.953 139.464 109.18C139.464 109.436 139.351 109.634 139.18 109.634C139.038 109.634 138.896 109.521 138.896 109.379Z" fill="white"/>
<path d="M139.946 108.953C139.718 108.385 141.735 107.76 142.076 108.299C142.332 108.754 142.076 108.953 140.997 109.18C140.343 109.322 140.059 109.265 139.946 108.953Z" fill="white"/>
<path d="M142.615 108.044C142.615 107.732 142.701 107.646 142.786 107.874C142.871 108.073 142.843 108.328 142.758 108.413C142.672 108.527 142.587 108.356 142.615 108.044Z" fill="white"/>
<path d="M140.203 107.59C140.543 106.964 141.537 105.942 141.793 105.942C142.077 105.942 142.105 107.277 141.821 107.448C141.68 107.504 141.225 107.646 140.799 107.76C140.174 107.902 140.032 107.873 140.203 107.59Z" fill="white"/>
<path d="M142.474 106.936C142.162 106.084 142.304 105.714 142.985 105.601C143.696 105.459 143.696 105.459 143.241 106.34C142.673 107.476 142.701 107.476 142.474 106.936Z" fill="white"/>
<path d="M142.303 105.232C142.303 105.175 142.871 104.777 143.581 104.38C144.434 103.868 145.03 103.698 145.456 103.812C145.968 103.982 145.825 104.095 144.575 104.692C143.184 105.317 142.303 105.544 142.303 105.232Z" fill="white"/>
<path d="M158.067 80.0659C157.3 78.958 155.681 77.1685 154.517 76.0892C153.352 75.0098 152.585 74.1294 152.812 74.1294C153.437 74.1294 158.209 75.4358 159.402 75.947C160.396 76.373 160.424 76.4302 160.169 77.3106C160.027 77.8219 159.913 79.1001 159.913 80.1508C159.913 81.2301 159.828 82.0824 159.715 82.0824C159.573 82.0824 158.862 81.1734 158.067 80.0659Z" fill="white"/>
<path d="M100.266 166.102C99.1017 165.506 98.8461 165.165 97.369 162.239C95.2389 158.092 95.1817 157.127 97.1987 159.484C97.9938 160.421 99.8405 162.353 101.289 163.773C103.76 166.159 103.873 166.33 103.05 166.216C102.454 166.131 102.226 166.187 102.368 166.415C102.709 166.926 101.629 166.784 100.266 166.102Z" fill="white"/>
<path fill-rule="evenodd" clip-rule="evenodd" d="M147.867 217.852C147.631 217.292 147.894 216.647 148.454 216.412L149.066 216.152C155.016 213.606 158.431 212.077 160.751 209.648C163.072 207.22 163.349 203.653 163.785 201.483C163.905 200.887 165.254 201.933 165.849 202.053C166.445 202.173 166.831 202.753 166.711 203.348C166.187 205.958 164.775 208.445 162.503 210.807C160.238 213.16 155.853 215.683 149.308 218.439C148.747 218.675 148.102 218.412 147.867 217.852Z" fill="#00160A"/>
<path fill-rule="evenodd" clip-rule="evenodd" d="M174.774 104.519C175.296 104.208 175.971 104.38 176.282 104.902C179.393 110.128 181.06 116.104 181.06 122.32C181.06 141.153 165.793 156.42 146.96 156.42C141.956 156.42 137.102 155.341 132.657 153.284C132.106 153.029 130.023 150.998 132.121 151.824C134.218 152.65 142.335 154.504 147.018 154.504C164.637 154.504 177.1 139.937 177.1 122.32C177.1 116.502 174.774 111.339 174.391 106.027C174.347 105.411 174.252 104.83 174.774 104.519Z" fill="#00160A"/>
<path fill-rule="evenodd" clip-rule="evenodd" d="M65.8318 187.772C66.2208 187.305 66.9143 186.362 67.3811 186.751C69.296 188.346 71.3398 190.194 73.5257 190.551C75.8001 190.922 78.4986 190.922 81.6173 190.544C82.2205 190.472 82.7688 190.901 82.8418 191.504C82.9148 192.107 82.485 192.655 81.8817 192.728C78.5698 193.129 75.6676 193.129 73.1711 192.722C70.5861 192.3 68.1823 191.161 65.9731 189.321C65.5062 188.932 65.4433 188.239 65.8318 187.772Z" fill="#00160A"/>
<path d="M89.1876 149.287C87.7673 148.151 84.7282 144.799 82.4274 141.845C81.2346 140.283 79.8996 137.102 79.1041 133.892C78.7349 132.443 78.3658 131.137 78.2804 130.966C78.1669 130.824 77.7124 128.808 77.2579 126.478C76.5763 123.184 76.7202 122.122 76.1218 118.181C75.8683 116.512 75.6387 115.184 75.6387 115.184L76.3774 114.236C76.8034 113.668 77.3424 112.728 77.5417 112.191C78.4507 109.745 85.1259 102.079 85.3248 102.278C85.3816 102.335 85.1541 103.67 84.7564 105.232C84.3872 106.794 83.9327 109.152 83.7338 110.487C83.45 112.702 83.3365 112.958 82.4556 113.696C81.3481 114.634 79.2462 117.645 79.2462 118.27C79.2462 119.122 80.5244 118.554 81.8594 117.162L83.2225 115.742V117.304C83.2225 118.327 83.0241 119.264 82.6545 120.002C81.9443 121.394 81.9443 122.871 82.6263 124.007C82.9669 124.575 83.2797 125.939 83.4782 127.558C84.359 134.886 86.2334 141.249 89.4432 147.64C90.2387 149.23 90.8635 150.537 90.8349 150.537C90.7782 150.537 90.0399 149.969 89.1876 149.287Z" fill="white"/>
<path fill-rule="evenodd" clip-rule="evenodd" d="M207.377 166.812L209.423 167.721C209.847 167.917 214.525 170.165 220.144 172.865C229.205 177.218 240.711 182.747 240.781 182.747C240.895 182.747 241.428 181.514 241.548 180.077C241.832 176.981 242.883 172.777 244.104 169.851C244.672 168.545 245.127 166.912 245.127 166.77C245.127 166.705 244.665 166.519 243.909 166.214C243.009 165.851 241.693 165.32 240.241 164.625C233.084 161.188 219.08 154.172 217.347 153.121C215.643 152.127 215.302 152.042 215.302 152.695C215.302 153.548 213.57 157.496 212.235 159.626C211.525 160.79 210.133 162.892 209.139 164.284L207.377 166.812ZM240.298 177.634C241.113 178.106 239.702 178.799 239.361 178.912C237.354 179.083 234.991 178.705 233.055 177.577C232.043 176.86 224.072 172.431 218.785 169.494C216.368 168.152 214.512 167.12 214.138 166.898C212.945 166.187 211.809 165.421 211.61 165.193C211.014 164.426 211.582 164.086 213.257 164.227C214.265 164.313 238.539 176.615 240.298 177.634Z" fill="white"/>
<path d="M186.983 169.369C186.245 169.113 185.45 168.545 184.938 167.892L184.086 166.841L187.097 163.858C191.727 159.314 195.135 154.347 198.203 148.808C199.225 146.962 202.265 139.516 202.634 138.692C203.202 137.499 203.628 137.045 204.85 136.363C206.298 135.511 207.945 135.227 208.656 135.71C210.019 136.618 210.019 139.488 208.656 144.43C207.15 149.855 205.133 153.746 200.958 159.342C200.305 160.194 199.083 161.87 198.203 163.035C195.845 166.159 194.312 167.664 192.238 168.829C190.193 169.965 189 170.107 186.983 169.369Z" fill="white"/>
<path d="M197.693 168.715L197.096 168.119C197.096 168.119 206.997 155.541 208.77 150.906C210.124 147.369 210.921 146.366 211.996 146.366C212.597 146.366 213.088 146.503 213.315 146.844C213.713 147.441 214.096 148.179 213.585 150.707C212.732 154.797 211.426 157.496 207.506 163.319C206.597 164.654 205.433 166.131 204.922 166.642C203.728 167.75 201.044 168.886 199.482 169.142C198.488 169.283 198.204 169.227 197.693 168.715Z" fill="white"/>
<path fill-rule="evenodd" clip-rule="evenodd" d="M214.321 155.562C214.894 154.252 215.302 153.109 215.302 152.695C215.302 152.042 215.642 152.127 217.347 153.121C219.079 154.172 233.083 161.188 240.241 164.625C242.911 165.903 245.126 166.628 245.126 166.77C245.126 166.912 213.714 156.952 214.321 155.562Z" fill="#E7EAEE"/>
<path fill-rule="evenodd" clip-rule="evenodd" d="M117.138 157.184C113.531 154.826 108.077 149.287 105.436 145.339C101.658 139.658 99.1582 133.58 97.9367 127.047C97.0563 122.303 97.0849 115.003 97.9653 110.771C98.8744 106.453 100.039 103.159 102.112 98.983C104.527 94.1544 107.083 90.6041 110.918 86.7695C114.678 83.0092 97.9653 98.5597 102.112 126.383C105.436 149.698 119.718 158.883 117.138 157.184Z" fill="#E7EAEE"/>
</svg>
