<svg width="20" height="20" viewBox="0 0 20 20" fill="none" xmlns="http://www.w3.org/2000/svg">
<path d="M11.5625 18.3333H8.4375C8.22916 18.3333 8.04861 18.2639 7.89583 18.125C7.74305 17.9861 7.65277 17.8125 7.625 17.6042L7.375 15.6667C7.19444 15.5972 7.02416 15.5139 6.86416 15.4167C6.70416 15.3194 6.54805 15.2153 6.39583 15.1042L4.58333 15.8542C4.38889 15.9236 4.19444 15.9306 4 15.875C3.80555 15.8194 3.65277 15.7014 3.54166 15.5208L2 12.8333C1.88889 12.6528 1.85416 12.4583 1.89583 12.25C1.9375 12.0417 2.04166 11.875 2.20833 11.75L3.77083 10.5625C3.75694 10.4653 3.75 10.3714 3.75 10.2808V9.71917C3.75 9.62862 3.75694 9.53473 3.77083 9.4375L2.20833 8.25C2.04166 8.125 1.9375 7.95834 1.89583 7.75001C1.85416 7.54167 1.88889 7.34723 2 7.16667L3.54166 4.47917C3.63889 4.28473 3.78805 4.16306 3.98916 4.11417C4.19027 4.06528 4.38833 4.07584 4.58333 4.14584L6.39583 4.89584C6.54861 4.78473 6.70833 4.68056 6.875 4.58334C7.04166 4.48612 7.20833 4.40278 7.375 4.33334L7.625 2.39584C7.65277 2.18751 7.74305 2.01389 7.89583 1.87501C8.04861 1.73612 8.22916 1.66667 8.4375 1.66667H11.5625C11.7708 1.66667 11.9514 1.73612 12.1042 1.87501C12.2569 2.01389 12.3472 2.18751 12.375 2.39584L12.625 4.33334C12.8056 4.40278 12.9758 4.48612 13.1358 4.58334C13.2958 4.68056 13.4519 4.78473 13.6042 4.89584L15.4167 4.14584C15.6111 4.07639 15.8056 4.06945 16 4.125C16.1944 4.18056 16.3472 4.29862 16.4583 4.47917L18 7.16667C18.1111 7.34723 18.1458 7.54167 18.1042 7.75001C18.0625 7.95834 17.9583 8.125 17.7917 8.25L16.2292 9.4375C16.2431 9.53473 16.25 9.62862 16.25 9.71917V10.2808C16.25 10.3714 16.2361 10.4653 16.2083 10.5625L17.7708 11.75C17.9375 11.875 18.0417 12.0417 18.0833 12.25C18.125 12.4583 18.0903 12.6528 17.9792 12.8333L16.4375 15.5C16.3264 15.6806 16.17 15.8022 15.9683 15.865C15.7667 15.9278 15.5689 15.9242 15.375 15.8542L13.6042 15.1042C13.4514 15.2153 13.2917 15.3194 13.125 15.4167C12.9583 15.5139 12.7917 15.5972 12.625 15.6667L12.375 17.6042C12.3472 17.8125 12.2569 17.9861 12.1042 18.125C11.9514 18.2639 11.7708 18.3333 11.5625 18.3333ZM10.0417 12.9167C10.8472 12.9167 11.5347 12.6319 12.1042 12.0625C12.6736 11.4931 12.9583 10.8056 12.9583 10C12.9583 9.19445 12.6736 8.50695 12.1042 7.9375C11.5347 7.36806 10.8472 7.08334 10.0417 7.08334C9.22222 7.08334 8.53111 7.36806 7.96833 7.9375C7.40555 8.50695 7.12444 9.19445 7.125 10C7.125 10.8056 7.40611 11.4931 7.96833 12.0625C8.53055 12.6319 9.22166 12.9167 10.0417 12.9167ZM10.0417 11.25C9.69444 11.25 9.39916 11.1283 9.15583 10.885C8.9125 10.6417 8.79111 10.3467 8.79166 10C8.79166 9.65278 8.91333 9.35751 9.15666 9.11417C9.4 8.87084 9.695 8.74945 10.0417 8.75C10.3889 8.75 10.6842 8.87167 10.9275 9.115C11.1708 9.35834 11.2922 9.65334 11.2917 10C11.2917 10.3472 11.17 10.6425 10.9267 10.8858C10.6833 11.1292 10.3883 11.2506 10.0417 11.25ZM9.16666 16.6667H10.8125L11.1042 14.4583C11.5347 14.3472 11.9342 14.1839 12.3025 13.9683C12.6708 13.7528 13.0075 13.4925 13.3125 13.1875L15.375 14.0417L16.1875 12.625L14.3958 11.2708C14.4653 11.0764 14.5139 10.8717 14.5417 10.6567C14.5694 10.4417 14.5833 10.2228 14.5833 10C14.5833 9.77778 14.5694 9.55917 14.5417 9.34417C14.5139 9.12917 14.4653 8.92417 14.3958 8.72917L16.1875 7.37501L15.375 5.95834L13.3125 6.83334C13.0069 6.51389 12.6703 6.24667 12.3025 6.03167C11.9347 5.81667 11.5353 5.65334 11.1042 5.54167L10.8333 3.33334H9.1875L8.89583 5.54167C8.46527 5.65278 8.06611 5.81612 7.69833 6.03167C7.33055 6.24723 6.99361 6.50751 6.6875 6.81251L4.625 5.95834L3.8125 7.37501L5.60416 8.70834C5.53472 8.91667 5.48611 9.125 5.45833 9.33334C5.43055 9.54167 5.41666 9.76389 5.41666 10C5.41666 10.2222 5.43055 10.4375 5.45833 10.6458C5.48611 10.8542 5.53472 11.0625 5.60416 11.2708L3.8125 12.625L4.625 14.0417L6.6875 13.1667C6.99305 13.4861 7.33 13.7536 7.69833 13.9692C8.06666 14.1847 8.46583 14.3478 8.89583 14.4583L9.16666 16.6667Z" fill="black"/>
</svg>
