<svg width="41" height="22" viewBox="0 0 41 22" fill="none" xmlns="http://www.w3.org/2000/svg">
    <g clip-path="url(#clip0_322_100)">
    <path d="M29.443 1.71853C29.1057 1.75831 28.8048 1.86245 28.5936 2.01251C28.3825 2.16256 28.2746 2.34887 28.2892 2.53846V18.6154C28.2549 18.7304 28.2665 18.8482 28.3232 18.9605C28.38 19.0728 28.4804 19.1769 28.6176 19.2658C28.7548 19.3546 28.9255 19.426 29.1178 19.4749C29.3102 19.5238 29.5196 19.5492 29.7315 19.5492C29.9434 19.5492 30.1528 19.5238 30.3451 19.4749C30.5375 19.426 30.7082 19.3546 30.8454 19.2658C30.9826 19.1769 31.083 19.0728 31.1397 18.9605C31.1964 18.8482 31.2081 18.7304 31.1738 18.6154V2.53846C31.1787 2.42545 31.1402 2.31315 31.0608 2.20888C30.9814 2.10461 30.8629 2.01073 30.7131 1.93335C30.5633 1.85597 30.3854 1.79685 30.1913 1.75983C29.9971 1.72282 29.7909 1.70875 29.5861 1.71853C29.5384 1.71725 29.4907 1.71725 29.443 1.71853ZM10.9815 2.56469C10.6441 2.60447 10.3433 2.7086 10.1321 2.85866C9.92092 3.00872 9.81307 3.19503 9.82764 3.38461V17.7692C9.79337 17.8843 9.805 18.002 9.86171 18.1143C9.91842 18.2266 10.0189 18.3308 10.1561 18.4196C10.2933 18.5085 10.464 18.5798 10.6563 18.6288C10.8486 18.6777 11.058 18.703 11.2699 18.703C11.4819 18.703 11.6913 18.6777 11.8836 18.6288C12.0759 18.5798 12.2466 18.5085 12.3838 18.4196C12.521 18.3308 12.6215 18.2266 12.6782 18.1143C12.7349 18.002 12.7465 17.8843 12.7123 17.7692V3.38461C12.7171 3.2716 12.6786 3.1593 12.5992 3.05503C12.5199 2.95077 12.4014 2.85688 12.2516 2.7795C12.1017 2.70213 11.9239 2.643 11.7297 2.60599C11.5355 2.56897 11.3293 2.5549 11.1246 2.56469C11.0769 2.5634 11.0291 2.5634 10.9815 2.56469ZM24.8276 5.10315C24.4903 5.14293 24.1894 5.24706 23.9782 5.39712C23.7671 5.54718 23.6592 5.73349 23.6738 5.92307V15.2308C23.6388 15.3459 23.6498 15.4639 23.7062 15.5765C23.7625 15.6891 23.8627 15.7936 23.9999 15.8827C24.1371 15.9719 24.308 16.0435 24.5006 16.0926C24.6932 16.1417 24.903 16.1671 25.1153 16.1671C25.3277 16.1671 25.5374 16.1417 25.73 16.0926C25.9227 16.0435 26.0935 15.9719 26.2307 15.8827C26.3679 15.7936 26.4682 15.6891 26.5245 15.5765C26.5808 15.4639 26.5919 15.3459 26.5569 15.2308V5.92307C26.5617 5.81022 26.5233 5.69807 26.4441 5.59393C26.3649 5.48979 26.2467 5.39599 26.0972 5.31864C25.9477 5.2413 25.7703 5.18213 25.5765 5.145C25.3826 5.10787 25.1768 5.09361 24.9723 5.10315C24.9236 5.10181 24.8748 5.10181 24.8261 5.10315H24.8276ZM6.3661 5.9493C6.02876 5.98908 5.72787 6.09322 5.5167 6.24327C5.30553 6.39333 5.19769 6.57964 5.21225 6.76923V14.3846C5.17725 14.4998 5.18829 14.6178 5.24461 14.7304C5.30093 14.843 5.40118 14.9475 5.53838 15.0366C5.67558 15.1257 5.84644 15.1973 6.03907 15.2464C6.2317 15.2955 6.44147 15.321 6.65379 15.321C6.86611 15.321 7.07588 15.2955 7.26851 15.2464C7.46114 15.1973 7.632 15.1257 7.7692 15.0366C7.9064 14.9475 8.00665 14.843 8.06297 14.7304C8.11929 14.6178 8.13033 14.4998 8.09533 14.3846V6.76923C8.10017 6.65637 8.06174 6.54423 7.98254 6.44009C7.90334 6.33595 7.78515 6.24215 7.63566 6.1648C7.48617 6.08745 7.30874 6.02828 7.11491 5.99116C6.92109 5.95403 6.71522 5.93977 6.51071 5.9493C6.46203 5.94796 6.41325 5.94796 6.36456 5.9493H6.3661ZM15.5969 6.79546C15.2595 6.83524 14.9586 6.93937 14.7475 7.08943C14.5363 7.23949 14.4285 7.4258 14.443 7.61538V13.5385C14.408 13.6536 14.4191 13.7716 14.4754 13.8842C14.5317 13.9968 14.632 14.1013 14.7692 14.1904C14.9064 14.2795 15.0772 14.3512 15.2698 14.4003C15.4625 14.4494 15.6722 14.4748 15.8846 14.4748C16.0969 14.4748 16.3067 14.4494 16.4993 14.4003C16.6919 14.3512 16.8628 14.2795 17 14.1904C17.1372 14.1013 17.2374 13.9968 17.2937 13.8842C17.3501 13.7716 17.3611 13.6536 17.3261 13.5385V7.61538C17.3309 7.50253 17.2925 7.39038 17.2133 7.28624C17.1341 7.1821 17.0159 7.0883 16.8664 7.01095C16.7169 6.9336 16.5395 6.87444 16.3457 6.83731C16.1519 6.80018 15.946 6.78592 15.7415 6.79546C15.6928 6.79412 15.644 6.79412 15.5953 6.79546H15.5969ZM34.0584 6.79546C33.7211 6.83524 33.4202 6.93937 33.209 7.08943C32.9978 7.23949 32.89 7.4258 32.9046 7.61538V13.5385C32.8703 13.6535 32.8819 13.7712 32.9386 13.8835C32.9953 13.9958 33.0958 14.1 33.233 14.1889C33.3702 14.2777 33.5409 14.349 33.7332 14.398C33.9256 14.4469 34.1349 14.4723 34.3469 14.4723C34.5588 14.4723 34.7682 14.4469 34.9605 14.398C35.1529 14.349 35.3235 14.2777 35.4608 14.1889C35.598 14.1 35.6984 13.9958 35.7551 13.8835C35.8118 13.7712 35.8234 13.6535 35.7892 13.5385V7.61538C35.7941 7.50237 35.7555 7.39007 35.6762 7.2858C35.5968 7.18154 35.4783 7.08765 35.3285 7.01027C35.1786 6.9329 35.0008 6.87377 34.8066 6.83676C34.6124 6.79974 34.4062 6.78567 34.2015 6.79546C34.1538 6.79417 34.1061 6.79417 34.0584 6.79546ZM1.75071 8.48777C1.41337 8.52754 1.11249 8.63168 0.901318 8.78174C0.690147 8.93179 0.582301 9.1181 0.596868 9.30769V11.8462C0.562602 11.9612 0.574228 12.0789 0.630938 12.1912C0.687649 12.3035 0.788087 12.4077 0.925292 12.4966C1.0625 12.5854 1.23318 12.6567 1.42552 12.7057C1.61786 12.7546 1.82725 12.78 2.03918 12.78C2.2511 12.78 2.46049 12.7546 2.65283 12.7057C2.84517 12.6567 3.01585 12.5854 3.15306 12.4966C3.29026 12.4077 3.3907 12.3035 3.44741 12.1912C3.50412 12.0789 3.51575 11.9612 3.48148 11.8462V9.30769C3.48637 9.19468 3.44786 9.08238 3.36847 8.97811C3.28909 8.87384 3.17062 8.77996 3.02079 8.70258C2.87096 8.62521 2.69314 8.56608 2.49895 8.52906C2.30475 8.49205 2.09854 8.47798 1.89379 8.48777C1.84562 8.48645 1.79735 8.48645 1.74918 8.48777H1.75071ZM20.2123 8.48777C19.8749 8.52754 19.574 8.63168 19.3629 8.78174C19.1517 8.93179 19.0438 9.1181 19.0584 9.30769V11.8462C19.0234 11.9613 19.0344 12.0793 19.0908 12.1919C19.1471 12.3045 19.2473 12.409 19.3845 12.4981C19.5217 12.5872 19.6926 12.6588 19.8852 12.708C20.0779 12.7571 20.2876 12.7825 20.4999 12.7825C20.7123 12.7825 20.922 12.7571 21.1147 12.708C21.3073 12.6588 21.4782 12.5872 21.6154 12.4981C21.7526 12.409 21.8528 12.3045 21.9091 12.1919C21.9654 12.0793 21.9765 11.9613 21.9415 11.8462V9.30769C21.9463 9.19484 21.9079 9.08269 21.8287 8.97855C21.7495 8.87441 21.6313 8.78061 21.4818 8.70326C21.3323 8.62591 21.1549 8.56675 20.9611 8.52962C20.7672 8.49249 20.5614 8.47823 20.3569 8.48777C20.3082 8.48643 20.2594 8.48643 20.2107 8.48777H20.2123ZM38.6738 8.48777C38.3364 8.52754 38.0356 8.63168 37.8244 8.78174C37.6132 8.93179 37.5054 9.1181 37.5199 9.30769V11.8462C37.4857 11.9612 37.4973 12.0789 37.554 12.1912C37.6107 12.3035 37.7112 12.4077 37.8484 12.4966C37.9856 12.5854 38.1563 12.6567 38.3486 12.7057C38.5409 12.7546 38.7503 12.78 38.9622 12.78C39.1742 12.78 39.3836 12.7546 39.5759 12.7057C39.7682 12.6567 39.9389 12.5854 40.0761 12.4966C40.2133 12.4077 40.3138 12.3035 40.3705 12.1912C40.4272 12.0789 40.4388 11.9612 40.4046 11.8462V9.30769C40.4094 9.19468 40.3709 9.08238 40.2915 8.97811C40.2122 8.87384 40.0937 8.77996 39.9439 8.70258C39.794 8.62521 39.6162 8.56608 39.422 8.52906C39.2278 8.49205 39.0216 8.47798 38.8169 8.48777C38.7692 8.48648 38.7215 8.48648 38.6738 8.48777Z" fill="black"/>
    </g>
    <defs>
    <clipPath id="clip0_322_100">
    <rect width="40" height="22" fill="white" transform="translate(0.5)"/>
    </clipPath>
    </defs>
</svg>
