<svg width="24" height="fit-content" viewBox="0 0 24 24" fill="none" xmlns="http://www.w3.org/2000/svg">
    <path d="M6.00003 3.6C5.36351 3.6 4.75306 3.85285 4.30297 4.30294C3.85288 4.75303 3.60003 5.36348 3.60003 6V11.7096C4.37076 11.1944 5.26115 10.8863 6.18547 10.815C7.1098 10.7436 8.03692 10.9115 8.87757 11.3023C9.71822 11.6932 10.4441 12.2939 10.9853 13.0466C11.5265 13.7993 11.8648 14.6786 11.9676 15.6H16.2024C16.3616 15.6 16.5142 15.6632 16.6267 15.7757C16.7392 15.8883 16.8024 16.0409 16.8024 16.2C16.8024 16.3591 16.7392 16.5117 16.6267 16.6243C16.5142 16.7368 16.3616 16.8 16.2024 16.8H11.9664C11.8996 17.3991 11.7329 17.9828 11.4732 18.5268L13.3464 20.4H18.0012C18.6377 20.4 19.2482 20.1471 19.6983 19.6971C20.1484 19.247 20.4012 18.6365 20.4012 18V6C20.4012 5.36348 20.1484 4.75303 19.6983 4.30294C19.2482 3.85285 18.6377 3.6 18.0012 3.6H6.00003ZM9.00003 8.7C9.00003 8.93869 8.9052 9.16761 8.73642 9.33639C8.56764 9.50518 8.33872 9.6 8.10003 9.6C7.86133 9.6 7.63241 9.50518 7.46363 9.33639C7.29485 9.16761 7.20003 8.93869 7.20003 8.7C7.20003 8.4613 7.29485 8.23239 7.46363 8.0636C7.63241 7.89482 7.86133 7.8 8.10003 7.8C8.33872 7.8 8.56764 7.89482 8.73642 8.0636C8.9052 8.23239 9.00003 8.4613 9.00003 8.7ZM11.4 8.4H16.2C16.3592 8.4 16.5118 8.46321 16.6243 8.57573C16.7368 8.68826 16.8 8.84087 16.8 9C16.8 9.15913 16.7368 9.31174 16.6243 9.42426C16.5118 9.53678 16.3592 9.6 16.2 9.6H11.4C11.2409 9.6 11.0883 9.53678 10.9758 9.42426C10.8632 9.31174 10.8 9.15913 10.8 9C10.8 8.84087 10.8632 8.68826 10.9758 8.57573C11.0883 8.46321 11.2409 8.4 11.4 8.4ZM10.8 12.6C10.8 12.4409 10.8632 12.2883 10.9758 12.1757C11.0883 12.0632 11.2409 12 11.4 12H16.2C16.3592 12 16.5118 12.0632 16.6243 12.1757C16.7368 12.2883 16.8 12.4409 16.8 12.6C16.8 12.7591 16.7368 12.9117 16.6243 13.0243C16.5118 13.1368 16.3592 13.2 16.2 13.2H11.4C11.2409 13.2 11.0883 13.1368 10.9758 13.0243C10.8632 12.9117 10.8 12.7591 10.8 12.6ZM2.86202 14.286C2.42951 15.1312 2.29611 16.0979 2.48357 17.0287C2.67104 17.9594 3.1683 18.7991 3.89428 19.4109C4.62026 20.0228 5.53211 20.3706 6.48114 20.3976C7.43016 20.4247 8.36035 20.1294 9.12003 19.56L12.1716 22.6296C12.2843 22.7421 12.437 22.8052 12.5963 22.8051C12.7555 22.805 12.9081 22.7417 13.0206 22.629C13.1331 22.5163 13.1963 22.3636 13.1962 22.2044C13.196 22.0452 13.1327 21.8925 13.02 21.78L9.96003 18.72C10.3085 18.2546 10.5565 17.7219 10.6884 17.1557C10.8203 16.5895 10.8332 16.002 10.7263 15.4306C10.6194 14.8591 10.395 14.3161 10.0674 13.8358C9.73972 13.3555 9.31592 12.9485 8.82282 12.6406C8.32971 12.3326 7.77804 12.1303 7.20272 12.0466C6.6274 11.9629 6.04096 11.9995 5.48053 12.1542C4.9201 12.3089 4.39789 12.5782 3.94694 12.9452C3.496 13.3121 3.12616 13.7687 2.86083 14.286H2.86202ZM9.09483 14.5332C9.31798 14.8606 9.47406 15.2291 9.55404 15.6172C9.63402 16.0053 9.63632 16.4054 9.5608 16.7944C9.48529 17.1834 9.33346 17.5536 9.11408 17.8836C8.8947 18.2135 8.61212 18.4968 8.28265 18.717C7.95319 18.9372 7.58337 19.0899 7.19455 19.1663C6.80573 19.2428 6.40562 19.2414 6.01733 19.1624C5.62903 19.0833 5.26024 18.9281 4.93226 18.7058C4.60427 18.4834 4.32359 18.1983 4.10642 17.8668C3.67297 17.2052 3.5183 16.3993 3.67608 15.6242C3.83386 14.8492 4.29131 14.1678 4.94891 13.7284C5.60651 13.2889 6.41105 13.1269 7.18748 13.2777C7.96391 13.4284 8.64941 13.8796 9.09483 14.5332Z" fill="black"/>
</svg>
