<svg width="18" height="16" viewBox="0 0 18 16" fill="none" xmlns="http://www.w3.org/2000/svg">
<g clip-path="url(#clip0_316_92)">
<path d="M7.8255 14.534C7.89862 15.47 8.8965 16.193 9.972 15.954L10.2656 15.889C10.535 15.8331 10.7826 15.7141 10.9828 15.5444C11.183 15.3747 11.3285 15.1605 11.4041 14.924C11.6516 14.108 12.0038 12.412 11.4739 10.414C11.6269 10.434 11.7945 10.451 11.9722 10.465C12.7744 10.53 13.8499 10.536 14.8027 10.254C15.3855 10.081 15.921 9.574 16.1528 8.982C16.2688 8.69543 16.3054 8.38822 16.2596 8.08639C16.2138 7.78456 16.0868 7.49698 15.8895 7.248C15.9547 7.13 16.0054 7.006 16.0448 6.886C16.1314 6.616 16.1719 6.318 16.1719 6.03C16.1719 5.74 16.1314 5.444 16.0448 5.173C16.0006 5.03349 15.9403 4.89843 15.8647 4.77C16.0549 4.383 15.9851 3.95 15.8614 3.621C15.7346 3.29648 15.5492 2.9925 15.3124 2.721C15.3731 2.568 15.3979 2.408 15.3979 2.256C15.3931 1.93527 15.295 1.6211 15.1132 1.344C14.7375 0.756999 13.9916 0.279999 12.9375 0.279999H9C8.31938 0.279999 7.79625 0.359999 7.35075 0.496999C6.96764 0.621684 6.60158 0.784379 6.2595 0.981999L6.2055 1.011C5.6385 1.319 5.08162 1.621 3.879 1.734C3.01725 1.815 2.25 2.434 2.25 3.279V7.279C2.25 8.13 3.02063 8.712 3.77663 8.895C4.73175 9.127 5.54737 9.682 6.17512 10.305C6.80512 10.931 7.20337 11.585 7.344 11.943C7.56787 12.518 7.7445 13.483 7.8255 14.534Z" fill="#FFAB00"/>
</g>
<defs>
<clipPath id="clip0_316_92">
<rect width="18" height="16" fill="white"/>
</clipPath>
</defs>
</svg>
