<svg width="20" height="20" viewBox="0 0 20 20" fill="none" xmlns="http://www.w3.org/2000/svg">
<path d="M18.1574 1.23331L18.6491 1.72498C19.3266 2.40331 19.2241 3.60581 18.4183 4.41081L8.27909 14.55L4.99409 15.7516C4.58159 15.9033 4.17992 15.7066 4.09826 15.3141C4.07066 15.1718 4.08365 15.0245 4.13576 14.8891L5.36076 11.5758L15.4716 1.46415C16.2774 0.659147 17.4799 0.555814 18.1574 1.23415V1.23331ZM7.83659 2.24165C7.94602 2.24165 8.05439 2.2632 8.15549 2.30508C8.2566 2.34696 8.34846 2.40834 8.42584 2.48572C8.50323 2.56311 8.56461 2.65497 8.60649 2.75608C8.64837 2.85718 8.66992 2.96555 8.66992 3.07498C8.66992 3.18442 8.64837 3.29278 8.60649 3.39388C8.56461 3.49499 8.50323 3.58685 8.42584 3.66424C8.34846 3.74162 8.2566 3.803 8.15549 3.84488C8.05439 3.88676 7.94602 3.90831 7.83659 3.90831H4.50326C4.06123 3.90831 3.6373 4.08391 3.32474 4.39647C3.01218 4.70903 2.83659 5.13295 2.83659 5.57498V15.575C2.83659 16.017 3.01218 16.4409 3.32474 16.7535C3.6373 17.0661 4.06123 17.2416 4.50326 17.2416H14.5033C14.9453 17.2416 15.3692 17.0661 15.6818 16.7535C15.9943 16.4409 16.1699 16.017 16.1699 15.575V12.2416C16.1699 12.0206 16.2577 11.8087 16.414 11.6524C16.5703 11.4961 16.7822 11.4083 17.0033 11.4083C17.2243 11.4083 17.4362 11.4961 17.5925 11.6524C17.7488 11.8087 17.8366 12.0206 17.8366 12.2416V15.575C17.8366 16.459 17.4854 17.3069 16.8603 17.932C16.2352 18.5571 15.3873 18.9083 14.5033 18.9083H4.50326C3.6192 18.9083 2.77135 18.5571 2.14623 17.932C1.52111 17.3069 1.16992 16.459 1.16992 15.575V5.57498C1.16992 4.69093 1.52111 3.84308 2.14623 3.21796C2.77135 2.59284 3.6192 2.24165 4.50326 2.24165H7.83659Z" fill="black"/>
</svg>
